<?xml version="1.0" standalone="no"?>
<!DOCTYPE svg PUBLIC "-//W3C//DTD SVG 20010904//EN"
 "http://www.w3.org/TR/2001/REC-SVG-20010904/DTD/svg10.dtd">
<svg version="1.0" xmlns="http://www.w3.org/2000/svg"
 width="780.000000pt" height="573.000000pt" viewBox="0 0 780.000000 573.000000"
 preserveAspectRatio="xMidYMid meet">
<metadata>
Created by potrace 1.10, written by Peter Selinger 2001-2011
</metadata>
<g transform="translate(0.000000,573.000000) scale(0.100000,-0.100000)"
fill="#000000" stroke="none">
<path d="M1685 5609 c-102 -19 -192 -41 -248 -60 -79 -26 -227 -101 -307 -154
-90 -61 -234 -191 -270 -245 -16 -25 -55 -72 -87 -105 -31 -33 -71 -78 -88
-100 -48 -61 -183 -289 -191 -321 -4 -16 -18 -42 -31 -57 -12 -16 -23 -41 -23
-57 0 -16 -4 -31 -9 -34 -16 -10 -51 -86 -51 -111 0 -14 -4 -25 -10 -25 -5 0
-13 -12 -16 -27 -4 -15 -13 -38 -20 -52 -8 -14 -14 -32 -14 -39 0 -8 -13 -53
-29 -100 -26 -79 -38 -121 -70 -247 -40 -160 -54 -293 -54 -510 0 -309 33
-526 126 -830 134 -435 430 -843 777 -1067 88 -58 253 -144 328 -172 99 -38
120 -45 172 -59 51 -15 115 -29 265 -58 134 -26 375 -9 513 37 193 64 413 232
525 402 45 69 102 183 119 237 48 158 58 222 58 363 0 97 -5 168 -16 216 -17
73 -48 174 -63 204 -75 149 -126 224 -208 304 -116 113 -193 170 -294 217
-172 80 -185 81 -174 15 9 -55 40 -143 76 -220 24 -51 29 -68 19 -77 -9 -9
-27 5 -79 60 -71 75 -115 152 -146 257 -22 78 -22 278 1 356 24 84 80 182 138
244 77 83 97 73 53 -26 -13 -29 -32 -80 -41 -113 -10 -33 -22 -73 -27 -90 -4
-16 -11 -63 -15 -102 -5 -58 -4 -73 7 -77 80 -23 152 -48 167 -55 9 -5 44 -22
76 -38 137 -65 312 -213 425 -358 74 -96 161 -219 161 -229 0 -2 19 -37 43
-78 137 -233 234 -507 327 -918 15 -67 37 -214 61 -405 26 -211 31 -725 9
-953 -10 -104 -11 -145 -2 -154 11 -11 260 -43 269 -34 32 32 56 764 34 1006
-7 69 -16 170 -21 226 -8 96 -18 160 -42 284 -5 30 -14 78 -18 105 -4 28 -13
73 -20 100 -12 49 -18 69 -55 205 -42 156 -159 458 -223 580 -57 109 -97 178
-123 218 -16 24 -29 45 -29 47 0 8 -101 147 -148 205 -68 82 -195 204 -284
272 -74 56 -251 166 -290 181 -34 12 -21 33 47 72 148 84 289 217 362 341 46
80 92 196 119 304 27 105 26 397 0 485 -75 251 -179 407 -365 549 -155 118
-441 227 -676 258 -106 13 -343 18 -400 7z"/>
<path d="M5835 5610 c-16 -4 -47 -8 -69 -9 -100 -3 -350 -75 -496 -143 -83
-39 -234 -146 -298 -211 -194 -196 -272 -403 -272 -719 0 -200 17 -282 93
-438 87 -181 242 -340 422 -435 52 -28 52 -51 0 -79 -197 -106 -307 -188 -446
-333 -83 -87 -184 -211 -226 -278 -115 -182 -176 -296 -238 -442 -84 -196
-174 -480 -219 -688 -8 -38 -20 -95 -27 -125 -7 -30 -15 -82 -19 -115 -4 -33
-12 -94 -18 -135 -28 -192 -34 -274 -39 -530 -4 -208 -1 -317 11 -448 9 -95
16 -201 16 -235 0 -86 5 -91 81 -83 150 16 208 28 214 46 3 9 0 48 -6 86 -6
38 -13 229 -16 424 -4 287 -2 387 11 520 18 180 39 321 62 417 7 34 14 71 14
84 0 12 7 47 16 78 9 31 22 80 30 108 36 133 73 254 93 305 5 12 17 43 26 68
26 68 30 76 88 200 211 446 520 754 867 864 l75 23 3 56 c3 64 -33 213 -78
320 -17 38 -30 73 -30 78 0 39 118 -76 162 -158 60 -110 87 -270 69 -408 -17
-138 -100 -301 -188 -374 -69 -57 -79 -39 -32 54 42 82 86 212 89 258 0 15
-51 6 -112 -20 -300 -129 -526 -371 -611 -653 -41 -140 -50 -206 -44 -363 2
-83 9 -165 15 -182 6 -16 18 -57 27 -90 25 -89 100 -237 165 -323 59 -80 174
-193 244 -240 61 -41 205 -114 245 -124 169 -44 212 -51 331 -52 234 -2 489
63 760 192 52 25 106 53 120 63 14 9 64 42 111 72 95 62 319 274 391 372 252
340 373 647 453 1144 31 195 29 551 -5 721 -38 193 -43 213 -85 360 -17 61
-72 216 -84 240 -4 8 -17 33 -29 55 -11 22 -37 81 -56 131 -19 51 -46 111 -59
135 -13 24 -38 69 -55 100 -47 85 -126 199 -171 247 -23 24 -41 46 -41 49 0 7
-122 140 -202 221 -29 29 -73 65 -98 79 -25 15 -65 40 -90 57 -25 17 -63 40
-85 51 -22 10 -49 27 -60 37 -42 36 -193 81 -391 117 -67 12 -262 13 -309 1z"/>
</g>
</svg>
