<?xml version="1.0" standalone="no"?>
<!DOCTYPE svg PUBLIC "-//W3C//DTD SVG 20010904//EN"
 "http://www.w3.org/TR/2001/REC-SVG-20010904/DTD/svg10.dtd">
<svg version="1.0" xmlns="http://www.w3.org/2000/svg"
 width="485.000000pt" height="469.000000pt" viewBox="0 0 485.000000 469.000000"
 preserveAspectRatio="xMidYMid meet">

<g transform="translate(0.000000,469.000000) scale(0.100000,-0.100000)"
fill="#000000" stroke="none">
<path d="M1065 4643 c-33 -9 -61 -20 -63 -25 -2 -4 -14 -8 -28 -8 -13 0 -49
-12 -80 -27 l-56 -28 7 -98 c38 -548 -72 -911 -404 -1327 -41 -52 -151 -172
-243 -266 l-169 -171 119 -101 c368 -312 850 -790 1197 -1187 328 -375 668
-840 854 -1167 51 -89 78 -128 94 -131 58 -14 355 -29 468 -23 146 7 335 37
429 67 89 29 214 93 278 140 28 22 52 41 52 43 0 2 -25 16 -55 31 -112 54
-246 194 -261 269 -6 33 -7 33 -69 39 -70 5 -169 46 -230 94 -49 39 -103 122
-116 181 l-12 49 -41 -9 c-62 -15 -156 -4 -218 24 -109 50 -165 135 -175 267
l-6 78 -86 -5 c-106 -6 -180 13 -243 61 -58 44 -104 134 -113 222 -6 56 -10
65 -24 59 -9 -3 -46 -9 -82 -11 -137 -11 -247 53 -305 179 -26 58 -29 72 -29
185 l0 123 -36 47 c-234 315 -274 645 -118 956 30 59 113 182 168 247 49 59
205 216 244 247 13 10 79 60 147 112 l122 93 -4 132 c-6 159 -32 249 -102 355
-84 126 -202 213 -361 267 -71 24 -98 27 -235 30 -119 2 -169 -1 -215 -13z"/>
<path d="M2553 4001 c-156 -58 -303 -218 -303 -332 0 -51 24 -87 87 -128 84
-56 170 -37 255 58 102 113 159 321 109 400 -14 22 -90 23 -148 2z"/>
<path d="M3057 3756 c-160 -66 -297 -226 -297 -346 0 -60 23 -90 95 -126 104
-50 197 -18 276 96 91 131 116 336 46 385 -29 20 -52 19 -120 -9z"/>
<path d="M3540 3533 c-108 -53 -241 -221 -256 -321 -4 -25 -3 -61 2 -81 13
-53 83 -86 181 -86 63 0 76 3 115 30 115 81 176 283 124 418 -28 75 -74 86
-166 40z"/>
<path d="M3961 3324 c-67 -61 -93 -191 -136 -666 -14 -158 -29 -318 -34 -355
-5 -37 -8 -69 -7 -70 3 -3 99 118 159 202 122 167 249 408 283 535 25 94 25
225 -1 270 -23 40 -123 95 -191 106 -36 5 -45 2 -73 -22z"/>
<path d="M4459 3121 c-21 -43 -23 -252 -4 -467 9 -109 19 -201 21 -203 9 -9
78 50 116 100 85 113 123 227 116 354 -3 59 -9 81 -33 120 -32 51 -105 100
-169 115 -30 7 -35 5 -47 -19z"/>
<path d="M1739 2277 c-19 -12 -47 -47 -63 -77 -54 -100 -45 -272 17 -315 58
-41 190 -3 270 78 59 59 84 124 68 177 -14 49 -67 101 -134 135 -64 31 -114
32 -158 2z"/>
<path d="M2235 1946 c-67 -29 -125 -115 -147 -217 -29 -137 40 -214 170 -189
152 28 260 141 232 241 -20 71 -141 180 -199 179 -15 -1 -39 -7 -56 -14z"/>
<path d="M2685 1578 c-52 -30 -92 -74 -123 -133 -22 -42 -26 -63 -27 -132 0
-76 2 -85 27 -109 74 -74 278 -19 355 95 28 41 31 110 6 149 -66 107 -175 166
-238 130z"/>
<path d="M3423 1427 c-162 -98 -268 -176 -344 -252 -115 -116 -138 -189 -79
-245 79 -74 178 -92 264 -50 111 56 230 242 275 432 21 86 28 188 14 188 -5 0
-63 -33 -130 -73z"/>
<path d="M3625 810 c-239 -84 -261 -99 -226 -149 35 -49 129 -129 167 -141 74
-25 156 26 204 127 24 50 41 206 24 215 -5 2 -81 -21 -169 -52z"/>
</g>
</svg>
