<?xml version="1.0" standalone="no"?>
<!DOCTYPE svg PUBLIC "-//W3C//DTD SVG 20010904//EN"
 "http://www.w3.org/TR/2001/REC-SVG-20010904/DTD/svg10.dtd">
<svg version="1.0" xmlns="http://www.w3.org/2000/svg"
 width="512.000000pt" height="512.000000pt" viewBox="0 0 512.000000 512.000000"
 preserveAspectRatio="xMidYMid meet">

<g transform="translate(0.000000,512.000000) scale(0.100000,-0.100000)"
fill="#000" stroke="none">
<path d="M3077 5106 c-167 -60 -242 -247 -163 -404 14 -27 43 -65 65 -84 l40
-34 -34 -128 c-19 -71 -37 -131 -40 -134 -3 -3 -34 0 -69 6 -224 42 -544 36
-593 -9 -39 -37 -27 -110 21 -129 13 -5 73 -4 142 2 130 12 302 1 442 -28 197
-40 423 -136 599 -255 98 -66 130 -73 168 -34 31 30 32 73 3 104 -62 67 -315
209 -482 269 l-73 27 36 134 36 135 55 11 c108 21 198 112 220 222 44 210
-172 400 -373 329z m154 -169 c40 -27 66 -89 55 -132 -4 -15 -22 -43 -41 -62
-27 -27 -40 -33 -78 -33 -131 0 -173 183 -54 235 46 20 79 18 118 -8z"/>
<path d="M1902 4907 c-83 -30 -152 -127 -152 -213 0 -58 25 -123 63 -162 36
-37 96 -72 125 -72 11 0 24 -6 29 -12 5 -7 32 -96 58 -198 40 -150 54 -190 76
-212 15 -16 37 -28 49 -28 26 0 80 52 80 77 0 10 -23 102 -50 205 -28 103 -50
192 -50 199 0 6 15 29 34 50 104 122 49 317 -103 368 -43 14 -116 13 -159 -2z
m137 -173 c35 -45 24 -92 -28 -113 -48 -21 -101 15 -101 68 0 34 39 71 75 71
24 0 39 -7 54 -26z"/>
<path d="M790 4493 c-64 -23 -142 -105 -165 -172 -21 -64 -17 -169 9 -219 29
-55 88 -114 141 -138 60 -29 165 -32 222 -9 l37 16 99 -99 99 -99 -72 -89
c-128 -159 -264 -401 -262 -467 1 -45 44 -81 86 -73 42 9 48 17 101 125 163
335 438 610 762 763 48 23 98 50 111 61 43 39 21 119 -37 132 -58 13 -313
-127 -485 -265 l-89 -72 -99 99 -99 99 16 37 c23 57 20 162 -9 222 -28 62
-101 128 -163 149 -58 20 -144 19 -203 -1z m166 -152 c42 -19 74 -67 74 -110
0 -71 -63 -131 -137 -131 -77 0 -138 79 -119 154 9 37 54 85 89 95 45 13 47
13 93 -8z"/>
<path d="M4033 4344 c-83 -30 -153 -131 -153 -218 0 -17 5 -49 11 -70 l11 -39
-146 -146 c-168 -169 -179 -189 -127 -242 53 -52 73 -41 246 130 126 126 153
148 170 141 30 -13 102 -12 149 2 58 18 128 90 145 150 42 149 -56 294 -206
304 -37 2 -73 -2 -100 -12z m140 -176 c9 -11 17 -31 17 -45 0 -32 -42 -73 -75
-73 -31 0 -75 41 -75 70 0 71 86 103 133 48z"/>
<path d="M2315 3987 c-74 -25 -122 -56 -173 -111 -140 -154 -130 -384 24 -526
98 -90 233 -121 360 -81 119 37 201 113 245 230 17 46 20 72 17 146 -3 79 -8
98 -37 153 -67 124 -177 194 -316 199 -48 2 -96 -2 -120 -10z m183 -163 c113
-47 166 -187 112 -293 -35 -69 -116 -121 -190 -121 -125 0 -233 124 -214 247
20 133 169 219 292 167z"/>
<path d="M3881 3653 c-43 -36 -37 -70 29 -168 72 -105 168 -297 203 -406 63
-192 92 -416 81 -622 -7 -124 -6 -128 16 -152 48 -51 122 -22 137 52 14 72 8
353 -11 472 -9 62 -15 115 -13 118 3 2 62 19 133 38 l128 34 32 -37 c17 -21
56 -51 85 -67 47 -26 64 -30 129 -30 91 0 150 24 209 85 175 181 45 483 -209
484 -142 0 -254 -95 -278 -235 l-8 -44 -134 -36 -135 -36 -27 73 c-59 163
-183 389 -256 467 -30 32 -79 36 -111 10z m1009 -378 c37 -19 60 -63 60 -115
0 -56 -48 -109 -105 -116 -115 -14 -183 130 -101 212 28 28 42 34 75 34 23 0
55 -7 71 -15z"/>
<path d="M3443 3422 c-102 -36 -171 -114 -199 -223 -28 -107 2 -212 84 -292
65 -64 129 -90 217 -90 121 0 218 58 276 165 30 56 33 71 34 143 0 93 -21 148
-80 213 -79 88 -221 124 -332 84z m185 -169 c49 -37 67 -71 67 -127 -1 -88
-64 -150 -151 -148 -131 2 -195 142 -112 248 44 55 140 69 196 27z"/>
<path d="M335 3336 c-88 -40 -135 -114 -135 -211 0 -64 15 -106 55 -153 84
-100 254 -104 344 -8 14 14 29 26 35 26 6 0 97 -23 203 -51 170 -46 196 -50
222 -39 54 22 65 105 17 135 -11 7 -109 37 -217 65 l-195 52 -13 47 c-9 32
-26 59 -59 91 -75 73 -166 89 -257 46z m130 -142 c26 -10 44 -62 33 -94 -9
-26 -44 -50 -72 -50 -7 0 -25 9 -40 21 -65 52 0 153 79 123z"/>
<path d="M2580 2954 c-95 -41 -151 -123 -151 -223 -1 -98 47 -177 136 -224 52
-27 154 -29 206 -4 148 72 188 261 83 386 -59 71 -189 102 -274 65z m145 -166
c73 -64 -7 -179 -93 -134 -34 17 -42 34 -42 81 0 66 82 98 135 53z"/>
<path d="M802 2830 c-11 -11 -24 -37 -29 -57 -14 -73 -8 -372 11 -486 10 -60
15 -111 13 -113 -2 -3 -62 -20 -133 -39 l-128 -34 -32 37 c-17 21 -56 51 -85
67 -47 26 -64 30 -129 30 -89 0 -145 -23 -204 -81 -181 -181 -53 -487 204
-488 142 0 254 95 278 235 l8 44 134 36 135 36 28 -76 c63 -175 214 -436 279
-484 45 -33 118 5 118 62 0 13 -31 72 -69 130 -83 129 -138 237 -181 356 -74
208 -110 469 -93 665 10 113 4 154 -27 170 -30 16 -75 11 -98 -10z m-431 -786
c74 -71 45 -188 -53 -215 -31 -8 -46 -6 -81 9 -73 33 -97 120 -52 189 38 58
134 67 186 17z"/>
<path d="M1429 2797 c-256 -72 -338 -384 -147 -563 71 -66 126 -88 223 -89 71
0 88 4 147 33 73 36 123 86 160 161 18 37 23 63 23 136 0 84 -2 94 -34 153
-56 104 -150 165 -266 176 -36 3 -78 1 -106 -7z m134 -161 c125 -45 157 -205
59 -288 -66 -55 -142 -60 -212 -14 -45 30 -70 79 -70 141 0 76 42 134 117 160
47 17 59 17 106 1z"/>
<path d="M4042 2210 c-42 -40 -38 -93 11 -124 18 -12 127 -44 363 -105 36 -10
43 -16 48 -45 14 -75 103 -156 188 -171 21 -4 60 -2 88 5 186 45 244 280 99
403 -91 78 -212 76 -303 -4 l-47 -41 -192 51 c-106 28 -202 51 -213 51 -11 0
-30 -9 -42 -20z m698 -160 c30 -30 27 -83 -6 -109 -15 -12 -34 -21 -44 -21
-34 0 -70 39 -70 75 0 65 76 99 120 55z"/>
<path d="M2433 2095 c-195 -53 -337 -205 -379 -405 -45 -217 69 -450 268 -551
206 -104 436 -69 599 91 175 173 204 439 71 646 -117 181 -354 274 -559 219z
m227 -161 c210 -62 317 -305 218 -497 -31 -61 -105 -134 -167 -164 -49 -25
-68 -28 -151 -28 -83 0 -102 3 -151 28 -176 86 -250 291 -170 472 68 154 256
238 421 189z"/>
<path d="M3450 2089 c-97 -44 -144 -117 -145 -224 0 -59 4 -77 28 -118 104
-177 352 -164 436 23 42 92 22 189 -54 265 -76 76 -173 96 -265 54z m155 -164
c54 -54 13 -145 -65 -145 -30 0 -80 53 -80 85 0 16 12 38 29 56 38 37 82 39
116 4z"/>
<path d="M4102 1963 c-7 -3 -36 -51 -64 -106 -172 -345 -409 -586 -745 -758
-142 -73 -161 -93 -142 -148 22 -63 69 -66 183 -13 111 53 244 137 350 222
l89 72 99 -99 99 -99 -16 -37 c-19 -47 -19 -141 1 -199 20 -61 75 -123 138
-156 43 -22 64 -27 131 -27 70 0 87 4 133 30 90 49 141 128 150 231 7 89 -18
155 -82 219 -80 80 -193 106 -297 70 l-43 -16 -99 99 -99 99 72 89 c125 156
260 394 260 459 0 55 -62 91 -118 68z m204 -976 c64 -58 55 -152 -19 -198 -77
-48 -187 11 -187 101 0 81 47 129 128 130 34 0 49 -6 78 -33z"/>
<path d="M1256 1371 l-151 -149 -71 5 c-62 5 -79 2 -127 -20 -146 -67 -180
-250 -68 -370 106 -115 304 -85 378 56 21 42 28 127 13 172 l-12 37 151 152
c100 101 151 160 151 174 0 34 -20 69 -47 81 -50 23 -63 14 -217 -138z m-196
-323 c34 -37 25 -90 -21 -113 -34 -18 -69 -8 -93 27 -21 30 -20 50 5 82 27 34
79 36 109 4z"/>
<path d="M1493 1260 c-50 -20 -58 -92 -15 -132 73 -70 277 -184 437 -245 49
-19 93 -37 96 -39 3 -2 -10 -63 -30 -136 l-36 -133 -44 -7 c-140 -24 -235
-136 -235 -278 0 -245 286 -379 468 -219 102 90 131 224 73 341 -16 32 -46 72
-67 91 l-39 33 34 128 c19 71 36 131 39 133 2 3 49 -2 103 -11 150 -23 296
-29 422 -17 95 9 118 14 138 33 39 36 27 109 -21 128 -14 5 -70 4 -137 -2
-202 -18 -424 10 -640 82 -141 47 -249 100 -390 191 -108 71 -118 74 -156 59z
m514 -867 c26 -12 41 -29 56 -62 18 -41 19 -49 6 -85 -38 -107 -185 -114 -231
-10 -28 65 -7 127 55 158 41 20 71 20 114 -1z"/>
<path d="M2915 1085 c-14 -13 -25 -34 -25 -47 1 -13 25 -111 54 -218 l53 -195
-27 -30 c-110 -119 -79 -299 62 -369 201 -100 412 112 312 313 -31 61 -87 106
-151 123 -39 9 -44 14 -54 52 -84 316 -99 362 -119 378 -32 26 -76 23 -105 -7z
m270 -600 c14 -13 25 -36 25 -50 0 -31 -41 -75 -70 -75 -102 0 -99 146 3 149
10 1 29 -10 42 -24z"/>
</g>
</svg>
