<?xml version="1.0" standalone="no"?>
<!DOCTYPE svg PUBLIC "-//W3C//DTD SVG 20010904//EN"
 "http://www.w3.org/TR/2001/REC-SVG-20010904/DTD/svg10.dtd">
<svg version="1.0" xmlns="http://www.w3.org/2000/svg"
 width="245.000000pt" height="228.000000pt" viewBox="0 0 245.000000 228.000000"
 preserveAspectRatio="xMidYMid meet">

<g transform="translate(0.000000,228.000000) scale(0.100000,-0.100000)"
fill="#000000" stroke="none">
<path d="M612 1946 c-219 -42 -390 -206 -447 -431 -32 -124 -16 -287 46 -472
48 -144 107 -209 233 -256 l61 -22 -46 -3 c-25 -2 -66 4 -90 13 -24 8 -48 17
-54 18 -14 3 -10 -142 5 -188 32 -97 177 -100 314 -6 26 18 82 66 125 106 91
85 111 96 314 176 81 33 170 70 197 84 51 26 103 88 116 139 9 37 15 38 65 14
55 -26 162 -35 215 -18 89 29 220 137 424 354 41 43 98 96 126 118 58 44 99
98 109 144 12 62 -67 119 -236 169 -213 64 -433 78 -568 37 -40 -13 -83 -33
-96 -46 -25 -25 -65 -173 -65 -242 -1 -33 -2 -36 -12 -20 -11 19 -6 177 7 222
6 19 2 22 -42 28 -56 8 -154 27 -313 62 -142 31 -289 38 -388 20z"/>
<path d="M1402 1043 c-44 -85 -50 -88 -467 -259 -39 -16 -86 -48 -130 -89
l-70 -63 17 -28 c24 -41 75 -66 121 -60 57 7 136 49 190 102 37 36 47 42 48
28 0 -19 3 -45 14 -139 3 -27 15 -81 26 -120 23 -79 145 -335 160 -335 5 0 18
5 28 12 17 10 15 18 -39 124 -108 209 -108 328 -1 528 21 39 56 104 77 144 36
68 45 77 111 116 l72 43 -47 11 c-26 6 -57 14 -69 18 -18 5 -25 -1 -41 -33z
m-150 -264 c-33 -63 -63 -125 -67 -139 -7 -21 -9 -15 -12 30 -5 68 9 116 44
155 32 35 84 77 90 72 2 -2 -23 -55 -55 -118z"/>
</g>
</svg>
