<?xml version="1.0" standalone="no"?>
<!DOCTYPE svg PUBLIC "-//W3C//DTD SVG 20010904//EN"
 "http://www.w3.org/TR/2001/REC-SVG-20010904/DTD/svg10.dtd">
<svg version="1.0" xmlns="http://www.w3.org/2000/svg"
 width="900.000000pt" height="654.000000pt" viewBox="0 0 900.000000 654.000000"
 preserveAspectRatio="xMidYMid meet">
<metadata>
Created by potrace 1.10, written by Peter Selinger 2001-2011
</metadata>
<g transform="translate(0.000000,654.000000) scale(0.100000,-0.100000)"
fill="#fff" stroke="none">
<path d="M0 3270 l0 -3270 4500 0 4500 0 0 3270 0 3270 -4500 0 -4500 0 0
-3270z m5557 3209 c65 -24 100 -89 82 -153 -9 -34 -59 -85 -270 -277 -532
-486 -653 -595 -744 -679 -33 -30 -84 -77 -114 -105 -31 -27 -85 -77 -121
-111 -36 -33 -114 -105 -175 -159 -60 -54 -112 -101 -115 -104 -5 -6 -58 -55
-210 -191 -110 -99 -108 -97 -191 -175 -35 -33 -104 -96 -153 -140 -49 -44
-105 -94 -123 -112 -19 -17 -69 -63 -111 -101 -42 -39 -89 -81 -103 -94 -14
-12 -65 -59 -114 -103 -48 -44 -95 -87 -104 -95 -9 -9 -65 -61 -126 -115 -60
-55 -116 -106 -123 -112 -10 -10 -123 -13 -492 -13 -446 0 -480 1 -488 18 -9
17 -18 51 -46 187 -40 195 -48 234 -58 275 -6 25 -17 74 -25 110 -23 109 -31
140 -68 285 -20 77 -41 159 -45 183 -5 23 -14 51 -20 61 -5 11 -10 29 -10 40
0 45 -15 48 -277 55 -337 9 -721 31 -761 44 -102 33 -187 97 -245 184 -66 101
-127 293 -127 398 l0 57 43 17 c23 10 56 24 72 31 17 7 45 16 62 19 18 4 35
12 38 17 4 5 15 9 27 9 11 0 34 6 51 14 18 8 61 24 97 35 36 12 72 25 80 28 8
3 49 18 90 32 84 29 113 60 125 134 24 141 169 299 340 369 179 73 444 94 732
58 137 -18 216 -74 328 -235 58 -83 114 -151 279 -340 174 -198 356 -385 472
-486 51 -43 95 -79 100 -79 7 0 125 101 169 145 23 22 85 79 224 205 52 47 99
90 105 95 125 116 175 162 246 225 46 41 95 86 110 100 14 14 70 65 125 115
55 49 123 110 150 136 28 26 59 56 71 66 12 10 61 55 110 100 107 98 135 120
166 132 33 14 1029 14 1065 0z m-1107 -1789 c80 -6 485 -15 900 -20 774 -10
1114 -24 1265 -55 44 -9 109 -22 145 -30 94 -19 230 -58 295 -85 17 -7 46 -19
65 -27 31 -13 142 -68 195 -97 75 -42 210 -142 284 -211 212 -197 326 -354
463 -635 36 -74 98 -200 136 -280 70 -143 148 -272 205 -340 16 -19 102 -109
191 -200 184 -189 264 -291 319 -405 43 -89 48 -111 45 -176 l-3 -64 -75 -3
c-121 -5 -273 41 -403 121 -67 41 -86 57 -172 142 -86 86 -100 103 -203 240
-45 61 -85 115 -89 120 -27 34 -146 218 -160 245 -4 8 -20 34 -35 57 -16 23
-38 62 -49 88 -11 25 -24 43 -30 40 -5 -4 -9 -104 -9 -238 0 -128 -5 -272 -10
-322 -5 -49 -12 -162 -16 -251 -8 -186 6 -276 58 -384 55 -114 129 -194 394
-431 22 -19 51 -51 65 -70 l24 -34 -3 -505 c-3 -425 -6 -514 -19 -560 -30
-106 -76 -200 -116 -241 l-29 -29 -220 0 c-243 0 -265 5 -289 63 -24 57 17
158 91 224 14 12 53 36 86 54 l62 33 7 261 c9 319 12 308 -127 447 -137 137
-155 152 -441 367 -144 108 -273 206 -286 216 -110 89 -335 314 -420 420 -31
39 -58 72 -61 75 -7 6 -59 78 -114 155 -63 90 -171 273 -227 386 -29 59 -38
62 -116 45 -37 -8 -104 -23 -148 -32 -44 -8 -101 -22 -127 -30 -26 -8 -53 -14
-61 -14 -8 0 -37 -7 -63 -15 -27 -8 -96 -28 -154 -45 -58 -18 -141 -45 -185
-60 -44 -16 -92 -32 -108 -36 -15 -3 -30 -10 -33 -15 -3 -5 -12 -9 -21 -9 -8
0 -29 -6 -46 -14 -34 -14 -75 -30 -172 -67 -33 -13 -64 -27 -70 -31 -5 -4 -15
-8 -23 -8 -8 0 -30 -7 -50 -16 -21 -9 -52 -22 -70 -30 -18 -8 -37 -14 -43 -14
-6 0 -25 -6 -42 -14 -18 -8 -84 -31 -147 -51 -63 -21 -124 -41 -135 -45 -35
-14 -168 -46 -315 -75 -66 -13 -190 -29 -406 -51 -36 -4 -64 -2 -67 3 -9 14
-16 1882 -7 1938 5 33 15 55 31 68 13 10 69 60 123 110 55 51 104 97 110 102
7 6 36 32 66 59 30 27 106 97 168 155 161 149 165 152 226 146 28 -3 116 -9
196 -15z m-1222 -971 l-3 -74 -87 -3 c-83 -3 -88 -2 -88 18 0 11 3 20 8 20 4
0 18 10 32 23 90 80 124 107 132 99 5 -5 8 -42 6 -83z m0 -981 l2 -598 -59 0
c-35 0 -63 -5 -69 -12 -13 -18 -42 -117 -59 -208 -9 -48 -17 -212 -24 -450
-13 -506 -33 -877 -49 -920 -16 -43 -46 -91 -91 -147 -19 -24 -47 -61 -64 -83
-16 -23 -37 -49 -45 -58 -9 -9 -42 -52 -74 -95 -90 -119 -86 -117 -328 -117
-204 0 -205 0 -232 25 -36 33 -35 86 2 146 35 54 45 63 102 85 65 25 80 42
135 151 103 209 107 223 112 503 5 253 -10 859 -27 1030 -5 58 -14 157 -20
220 -22 232 -17 217 -95 296 -119 118 -261 308 -333 444 -68 128 -104 207
-126 274 -9 26 -21 57 -26 66 -6 10 -7 26 -4 34 5 14 67 16 543 18 295 2 601
1 681 -2 l145 -5 3 -597z m2824 -50 c9 -7 29 -38 44 -68 87 -171 261 -424 408
-595 76 -88 261 -274 344 -346 35 -29 166 -131 290 -224 l227 -171 3 -419 c3
-357 1 -432 -13 -500 -9 -44 -23 -94 -31 -112 -8 -17 -14 -36 -14 -42 0 -5
-13 -33 -30 -61 -16 -28 -30 -53 -30 -56 0 -3 -10 -14 -22 -25 -21 -17 -43
-18 -250 -19 l-227 0 -35 34 c-41 38 -44 59 -19 130 23 64 101 144 174 179
l56 26 6 92 c4 51 7 174 7 274 0 149 -3 188 -17 216 -43 89 -257 278 -608 539
-99 73 -223 170 -275 215 -134 116 -331 321 -426 445 -106 137 -214 298 -214
319 0 11 19 22 63 34 34 11 82 25 107 33 70 21 147 41 245 64 50 11 117 27
150 34 33 8 63 15 66 15 3 1 12 -5 21 -11z m-2227 -659 c4 -5 2 -23 -4 -38
-22 -53 -31 -180 -46 -686 -17 -580 -26 -714 -52 -771 -17 -37 -171 -250 -276
-382 -82 -101 -84 -102 -322 -102 l-204 0 -26 25 c-31 32 -33 80 -5 134 24 48
54 73 123 101 49 20 56 28 99 104 105 185 134 289 142 501 6 149 -6 614 -23
905 -6 96 -8 183 -5 192 5 16 28 18 247 21 133 1 265 3 294 5 28 1 55 -3 58
-9z"/>
<path d="M4565 6210 c-17 -12 -148 -130 -249 -226 -6 -5 -36 -32 -66 -58 -30
-27 -84 -76 -120 -110 -36 -34 -135 -124 -220 -201 -85 -77 -180 -162 -210
-191 -30 -28 -86 -79 -125 -114 -151 -137 -291 -266 -317 -295 l-28 -29 0
-258 c0 -141 4 -259 8 -262 4 -2 32 19 62 48 30 29 78 72 105 96 28 23 95 84
150 135 55 51 183 168 285 260 102 93 205 187 230 210 25 23 74 68 110 100 36
33 67 61 70 64 3 3 55 51 115 106 145 132 206 188 285 261 36 33 115 105 175
159 61 54 133 120 160 145 28 26 72 67 100 91 27 24 58 52 69 62 11 9 16 18
10 19 -5 2 -137 3 -292 3 -236 0 -288 -3 -307 -15z"/>
<path d="M1217 6089 c-9 -13 -18 -37 -22 -54 -3 -16 -13 -57 -20 -90 -48 -208
-70 -391 -70 -580 0 -177 17 -291 49 -340 24 -36 70 -45 154 -29 201 38 405
194 522 400 53 91 85 194 61 194 -14 0 -27 -21 -56 -90 -59 -142 -176 -282
-302 -362 -122 -78 -213 -111 -289 -106 -43 3 -49 6 -65 38 -12 24 -21 80 -29
175 -17 221 18 532 91 797 10 35 10 51 2 59 -8 8 -15 5 -26 -12z"/>
</g>
</svg>
