<?xml version="1.0" standalone="no"?>
<!DOCTYPE svg PUBLIC "-//W3C//DTD SVG 20010904//EN"
 "http://www.w3.org/TR/2001/REC-SVG-20010904/DTD/svg10.dtd">
<svg version="1.0" xmlns="http://www.w3.org/2000/svg"
 width="900.000000pt" height="936.000000pt" viewBox="0 0 900.000000 936.000000"
 preserveAspectRatio="xMidYMid meet">
<metadata>
Created by potrace 1.10, written by Peter Selinger 2001-2011
</metadata>
<g transform="translate(0.000000,936.000000) scale(0.100000,-0.100000)"
fill="#000000" stroke="none">
<path d="M6400 9105 c-8 -2 -87 -8 -175 -14 -234 -17 -588 -72 -745 -116 -25
-7 -74 -21 -110 -30 -80 -22 -157 -47 -230 -75 -30 -12 -66 -25 -80 -30 -48
-15 -170 -71 -247 -111 -116 -61 -186 -100 -202 -112 -7 -6 -22 -16 -32 -22
-70 -38 -232 -160 -354 -266 -303 -263 -540 -575 -724 -954 -65 -135 -74 -154
-111 -245 -77 -186 -177 -495 -234 -727 -43 -171 -45 -182 -91 -398 -10 -44
-23 -107 -30 -140 -13 -58 -28 -136 -60 -307 -9 -46 -22 -114 -30 -153 -13
-66 -25 -130 -61 -320 -9 -44 -21 -107 -29 -140 -7 -33 -21 -98 -30 -145 -9
-47 -23 -108 -31 -136 -8 -28 -14 -59 -14 -69 0 -10 -6 -41 -14 -69 -8 -28
-22 -80 -31 -116 -15 -60 -26 -97 -61 -220 -7 -25 -20 -70 -28 -100 -28 -99
-47 -164 -62 -215 -23 -80 -111 -345 -134 -405 -12 -30 -25 -66 -30 -80 -12
-34 -33 -88 -49 -125 -30 -67 -41 -93 -67 -150 -188 -422 -431 -783 -728
-1081 -80 -80 -171 -161 -211 -186 -94 -62 -245 -136 -390 -191 -96 -36 -202
-79 -228 -93 -16 -8 -33 -14 -38 -14 -14 0 -199 -90 -234 -114 -91 -62 -137
-102 -158 -139 -27 -46 -57 -165 -57 -224 0 -46 35 -244 51 -293 6 -19 19 -55
27 -80 8 -25 27 -72 42 -105 15 -33 30 -67 34 -75 9 -21 24 -45 74 -119 139
-207 268 -255 582 -217 188 23 384 55 545 91 33 7 96 20 140 30 103 22 196 43
265 60 30 8 85 21 123 29 37 9 97 23 135 32 37 8 92 21 122 29 101 24 204 44
325 60 66 9 163 23 215 30 52 8 147 21 210 30 157 22 299 43 397 61 45 7 97
14 115 14 18 0 49 5 68 10 19 6 64 15 100 20 65 9 124 19 255 45 39 8 108 21
155 30 47 9 110 22 140 30 30 7 91 21 135 30 90 19 164 41 213 61 18 8 39 14
47 14 8 0 31 7 52 16 151 64 161 69 268 120 641 310 1243 898 1646 1609 40 71
179 347 179 356 0 5 13 37 28 71 26 56 38 86 73 176 14 35 42 123 76 237 157
519 182 945 108 1795 -67 762 -70 816 -70 1210 0 426 14 588 71 840 50 219 89
329 186 525 55 111 50 103 134 231 183 275 461 549 779 764 167 113 217 146
278 182 37 22 67 46 67 53 0 10 -98 14 -472 19 -655 8 -1760 15 -1778 11z
m1356 -327 c4 -6 -5 -22 -23 -37 -177 -153 -241 -211 -337 -306 -108 -107
-200 -209 -263 -290 -42 -56 -123 -175 -123 -182 0 -4 -6 -14 -14 -22 -58 -68
-199 -380 -225 -501 -4 -19 -13 -51 -19 -70 -34 -107 -68 -472 -57 -607 l7
-83 -27 0 c-26 0 -71 16 -127 46 -54 29 -71 20 -116 -58 -169 -296 -430 -557
-856 -855 -41 -29 -79 -53 -85 -53 -16 0 -13 70 6 142 14 50 17 106 17 273 0
183 -3 220 -22 291 -30 110 -50 156 -65 148 -31 -19 -86 -62 -127 -101 -25
-24 -48 -43 -51 -43 -9 0 -39 76 -39 96 0 9 -7 37 -15 63 -8 25 -19 65 -25 89
-7 26 -17 42 -26 42 -26 0 -125 -74 -247 -185 -65 -59 -121 -104 -124 -101 -7
7 12 205 32 331 8 50 17 116 21 147 6 56 6 57 -21 64 -15 4 -76 4 -134 0 -182
-11 -349 -68 -571 -195 -106 -61 -125 -64 -103 -18 6 12 20 42 31 67 93 208
175 371 253 505 10 17 27 48 39 69 12 21 46 76 76 122 30 46 54 87 54 90 0 10
-30 31 -85 60 -106 54 -145 82 -145 105 0 36 200 218 360 326 141 95 451 244
650 312 125 43 213 70 305 95 33 9 83 23 111 31 28 8 59 15 69 15 10 0 41 6
69 14 95 27 259 57 481 90 190 28 271 38 395 46 69 5 143 12 165 16 52 9 400
20 692 22 167 2 234 -1 239 -10z"/>
</g>
</svg>
