<?xml version="1.0" standalone="no"?>
<!DOCTYPE svg PUBLIC "-//W3C//DTD SVG 20010904//EN"
 "http://www.w3.org/TR/2001/REC-SVG-20010904/DTD/svg10.dtd">
<svg version="1.0" xmlns="http://www.w3.org/2000/svg"
 width="900.000000pt" height="741.000000pt" viewBox="0 0 900.000000 741.000000"
 preserveAspectRatio="xMidYMid meet"
<metadata>
Created by potrace 1.10, written by Peter Selinger 2001-2011
</metadata>
<g transform="translate(0.000000,741.000000) scale(0.100000,-0.100000)"
fill="white" stroke="none">
<path d="M1 4538 c1 -2401 3 -2861 14 -2798 21 117 34 173 45 184 6 6 10 19
10 31 0 12 7 30 15 41 8 10 15 29 15 40 0 12 7 27 15 34 8 7 15 18 15 25 0 18
72 147 115 208 74 104 158 196 251 274 19 15 42 35 51 44 16 14 142 101 176
121 20 12 220 104 252 116 43 16 173 48 275 68 24 4 282 4 345 -1 17 -1 37 -4
45 -8 8 -3 44 -8 80 -11 161 -14 438 -133 611 -263 57 -42 228 -209 264 -257
11 -15 32 -41 46 -59 15 -18 35 -48 45 -67 11 -19 29 -49 41 -66 52 -72 132
-261 154 -361 5 -26 15 -68 20 -93 21 -100 35 -374 20 -405 -5 -11 -12 -60
-15 -109 -4 -49 -10 -94 -15 -100 -4 -6 -11 -29 -15 -52 -5 -38 -55 -176 -77
-217 -6 -10 -19 -37 -30 -60 -12 -23 -28 -55 -36 -72 -24 -46 -139 -198 -162
-215 -12 -8 -21 -19 -21 -25 0 -14 -90 -101 -165 -159 -33 -26 -65 -51 -72
-56 -118 -94 -406 -230 -489 -230 -12 0 -26 -4 -29 -10 -3 -5 -23 -10 -43 -10
-20 0 -44 -5 -52 -10 -10 -6 1277 -10 3643 -10 l3657 0 0 2839 c0 1608 -4
2842 -9 2845 -11 7 -77 -97 -126 -199 -81 -167 -161 -245 -302 -295 -32 -11
-70 -20 -85 -20 -15 0 -28 -5 -28 -10 0 -6 -17 -10 -37 -9 -127 4 -435 -9
-445 -19 -7 -7 -22 -12 -35 -12 -13 0 -35 -13 -50 -30 -14 -16 -31 -30 -36
-30 -10 0 -219 -211 -317 -320 -50 -56 -93 -102 -154 -170 -13 -14 -44 -52
-70 -85 -26 -33 -53 -67 -60 -76 -44 -53 -123 -252 -141 -352 -4 -20 -11 -40
-16 -43 -5 -3 -9 -15 -9 -27 0 -34 -36 -131 -88 -237 -49 -101 -165 -270 -257
-375 -109 -124 -247 -312 -289 -393 -35 -68 -67 -199 -82 -332 -6 -57 -9
-1944 -3 -1987 2 -17 8 -35 12 -39 4 -4 7 -16 7 -26 0 -10 10 -40 22 -66 17
-36 32 -52 63 -66 22 -10 53 -25 69 -32 17 -8 47 -17 68 -21 21 -3 41 -10 44
-14 3 -5 13 -9 23 -9 24 0 153 -40 166 -51 5 -5 17 -9 27 -9 23 0 63 -25 102
-63 40 -39 48 -110 16 -150 -40 -50 -148 -87 -267 -91 -29 -1 -56 -5 -59 -9
-10 -10 -225 -8 -319 2 -89 11 -199 43 -230 69 -27 22 -49 64 -68 132 -33 114
-60 196 -73 227 -8 17 -14 40 -14 51 0 12 -4 23 -9 27 -6 3 -13 27 -17 53 -3
26 -11 56 -17 67 -12 24 -19 83 -17 158 1 32 -3 64 -8 70 -9 10 -23 271 -22
386 0 18 -4 39 -10 46 -5 7 -9 23 -9 36 2 33 -11 161 -18 179 -4 8 -7 29 -9
45 -1 17 -12 87 -23 156 -12 70 -22 144 -24 165 -1 22 -5 44 -9 49 -3 6 -9 42
-13 80 -4 39 -10 75 -14 80 -3 6 -7 19 -7 30 -10 121 -65 285 -95 285 -10 0
-21 5 -24 10 -3 5 -23 10 -43 10 -55 -1 -74 -32 -72 -118 1 -79 -7 -157 -19
-192 -5 -14 -12 -45 -16 -69 -12 -89 -65 -240 -132 -380 -65 -135 -66 -148
-29 -360 3 -13 14 -87 26 -165 12 -77 26 -148 30 -156 4 -9 11 -35 15 -58 3
-22 20 -58 36 -79 16 -21 39 -52 50 -70 11 -18 29 -35 39 -38 11 -3 27 -16 37
-28 23 -28 119 -91 203 -134 131 -67 150 -93 114 -148 -9 -14 -22 -25 -28 -25
-6 0 -23 -8 -36 -17 -27 -19 -80 -41 -120 -50 -14 -3 -30 -10 -36 -14 -14 -11
-191 -39 -254 -41 -94 -2 -186 21 -218 55 -25 27 -54 109 -46 130 3 8 1 18 -5
21 -5 3 -12 37 -16 74 -4 37 -11 84 -16 104 -5 20 -12 56 -15 80 -2 24 -9 61
-15 83 -5 22 -14 67 -19 100 -5 33 -16 96 -24 140 -8 44 -12 84 -9 88 3 4 0
13 -5 20 -6 7 -13 50 -17 97 -4 46 -9 88 -12 94 -6 9 -9 33 -18 151 -3 39 -8
77 -12 85 -3 8 -7 35 -8 60 -8 171 -16 253 -24 267 -5 10 -5 27 1 45 7 19 7
32 0 41 -10 12 -25 163 -24 237 1 19 -3 39 -8 45 -8 10 -21 121 -20 174 0 13
-4 29 -10 35 -5 7 -8 21 -8 31 4 51 -10 70 -64 89 -29 10 -66 24 -83 30 -16 7
-61 23 -100 35 -38 13 -84 29 -102 37 -17 8 -38 14 -46 14 -9 0 -19 4 -22 10
-3 6 -15 10 -25 10 -10 0 -31 7 -47 15 -15 8 -62 24 -103 36 -41 12 -82 26
-90 30 -68 35 -264 66 -311 50 -18 -6 -41 -11 -53 -11 -12 0 -44 -22 -72 -48
-46 -43 -180 -122 -208 -122 -6 0 -24 -7 -39 -15 -15 -8 -45 -17 -65 -21 -20
-4 -41 -10 -47 -14 -5 -4 -25 -11 -43 -15 -18 -4 -45 -13 -60 -21 -15 -8 -34
-14 -42 -14 -18 0 -106 -33 -116 -43 -4 -4 -14 -7 -23 -7 -9 0 -52 -18 -95
-40 -73 -36 -81 -38 -106 -25 -14 7 -44 33 -65 57 -139 157 -241 247 -417 369
l-58 40 0 52 c1 29 6 72 11 97 6 25 16 79 23 120 7 41 15 82 18 90 3 8 10 38
16 65 6 28 17 77 26 110 8 33 20 80 26 105 17 70 80 249 109 315 92 203 160
324 259 454 39 52 94 91 127 91 13 0 26 4 29 9 3 4 27 11 53 15 27 3 66 12 88
20 22 7 108 35 190 61 83 27 164 54 180 61 17 7 59 22 95 34 76 25 203 71 272
98 15 6 62 23 105 38 43 14 82 30 88 35 5 5 16 9 25 9 8 1 33 9 55 20 22 11
45 19 51 20 28 1 407 172 689 313 110 54 245 121 300 148 55 28 109 55 120 61
11 7 56 31 100 54 44 23 107 56 140 74 33 18 87 47 120 65 33 17 97 53 143 81
46 27 106 62 135 78 67 37 177 109 247 160 30 23 60 43 67 46 22 10 154 115
206 165 59 57 157 172 157 185 0 27 125 190 146 190 8 0 14 4 14 8 0 5 25 26
56 47 116 80 259 245 409 470 22 33 44 65 48 70 4 6 26 37 48 70 109 163 125
185 135 185 19 0 25 -30 18 -90 -3 -32 -2 -65 3 -74 8 -15 18 -9 74 39 101 87
178 159 178 168 1 4 -1736 7 -3859 7 l-3860 0 1 -2872z m1979 2199 c25 -1 50
-5 55 -8 6 -4 35 -10 65 -14 231 -29 578 -227 980 -560 114 -94 112 -93 156
-131 22 -19 54 -46 72 -62 18 -15 54 -48 79 -74 25 -27 51 -48 58 -48 14 0
233 -230 281 -295 8 -11 33 -45 55 -75 67 -90 90 -151 87 -222 -3 -62 -6 -67
-53 -84 -28 -10 -225 -12 -225 -2 0 4 -22 8 -49 8 -27 0 -93 12 -147 26 -55
14 -115 29 -134 34 -37 8 -49 12 -168 67 -41 18 -76 33 -79 33 -13 0 -317 152
-330 166 -8 8 -21 14 -29 14 -9 0 -30 10 -47 23 -33 24 -288 147 -305 147 -5
0 -15 7 -22 15 -7 8 -23 15 -35 15 -12 0 -28 7 -35 15 -7 8 -19 15 -28 15 -8
0 -49 13 -91 29 -150 57 -188 64 -310 62 -138 -2 -159 -11 -194 -83 -51 -105
-55 -123 -63 -308 -6 -163 14 -310 51 -364 8 -11 15 -26 15 -33 0 -15 67 -129
94 -160 124 -144 313 -252 521 -298 119 -27 157 -39 162 -52 6 -16 -31 -106
-61 -148 -22 -30 -97 -190 -134 -285 -5 -14 -17 -42 -26 -64 -9 -21 -26 -66
-37 -100 -11 -33 -24 -68 -28 -76 -5 -9 -12 -31 -16 -50 -4 -19 -11 -39 -15
-45 -4 -5 -11 -30 -15 -55 -4 -24 -11 -51 -15 -60 -12 -22 -50 -192 -50 -221
0 -14 -3 -29 -7 -33 -5 -4 -13 -33 -20 -64 -27 -133 -34 -157 -43 -166 -12
-12 -97 -9 -159 5 -25 6 -64 12 -86 14 -75 7 -360 7 -378 0 -9 -4 -29 -4 -43
-1 -14 4 -32 2 -39 -4 -7 -6 -58 -13 -113 -17 l-100 -6 -18 29 c-16 24 -19 44
-16 128 1 55 7 105 12 110 6 6 10 22 10 38 0 105 162 364 355 568 19 19 50 52
69 73 20 21 36 46 36 56 0 11 -39 55 -90 102 -49 46 -90 88 -90 94 0 6 -29 41
-65 78 -67 70 -180 218 -221 290 -94 166 -174 361 -174 422 0 17 -6 37 -12 44
-10 9 -13 66 -13 216 0 150 3 207 13 217 6 6 12 26 12 43 0 26 19 88 59 190
106 272 330 582 531 734 98 73 214 131 264 131 14 0 26 5 26 11 0 6 10 9 23 6
12 -3 30 -2 39 1 16 6 132 6 248 -1z"/>
<path d="M7759 7273 c1 -76 -1 -151 -3 -168 -13 -92 -31 -153 -66 -221 -21
-42 -42 -89 -45 -105 -4 -16 -11 -31 -16 -34 -17 -11 -9 -23 29 -46 20 -13 43
-29 50 -36 7 -6 52 -38 100 -69 76 -50 184 -127 233 -166 29 -24 81 -122 87
-163 2 -22 8 -44 12 -50 4 -5 11 -37 15 -69 9 -76 36 -103 136 -135 41 -12 83
-27 94 -31 11 -5 36 -12 55 -16 19 -3 40 -10 45 -14 6 -4 30 -12 55 -18 50
-11 187 -57 237 -78 17 -8 37 -14 45 -14 8 0 18 -4 24 -9 5 -5 26 -14 46 -20
20 -7 47 -23 60 -36 13 -14 29 -25 36 -25 9 0 12 173 12 830 l0 830 -621 0
-620 0 0 -137z"/>
<path d="M1304 2338 c-3 -5 -13 -8 -22 -7 -65 8 -256 -65 -341 -131 -116 -89
-257 -256 -301 -357 -12 -26 -25 -57 -30 -68 -18 -39 -31 -106 -25 -125 4 -11
0 -28 -7 -39 -17 -25 -16 -285 2 -306 7 -8 10 -22 6 -30 -16 -44 66 -246 138
-340 75 -98 197 -204 291 -253 96 -50 224 -93 305 -101 95 -11 223 -11 235 -1
8 6 18 9 24 6 10 -7 98 9 146 26 118 41 154 59 243 120 55 38 162 140 197 188
88 120 163 305 170 420 1 8 5 23 9 32 9 21 2 180 -12 258 -37 200 -176 432
-315 524 -29 19 -62 44 -74 55 -12 12 -29 21 -37 21 -8 0 -18 5 -21 10 -4 6
-40 26 -80 45 -66 30 -123 45 -195 51 -14 1 -25 3 -25 4 0 8 -277 6 -281 -2z"/>
<path d="M1 608 l-1 -608 643 2 c353 1 624 3 602 5 -115 9 -285 59 -406 120
-48 23 -90 43 -94 43 -9 0 -145 89 -163 107 -7 7 -17 13 -21 13 -19 0 -271
264 -317 331 -104 154 -204 381 -229 524 -11 60 -13 -18 -14 -537z"/>
</g>
</svg>
