<?xml version="1.0" standalone="no"?>
<!DOCTYPE svg PUBLIC "-//W3C//DTD SVG 20010904//EN"
 "http://www.w3.org/TR/2001/REC-SVG-20010904/DTD/svg10.dtd">
<svg version="1.0" xmlns="http://www.w3.org/2000/svg"
 width="588.000000pt" height="648.000000pt" viewBox="0 0 588.000000 648.000000"
 preserveAspectRatio="xMidYMid meet">
<metadata>
Created by potrace 1.10, written by Peter Selinger 2001-2011
</metadata>
<g transform="translate(0.000000,648.000000) scale(0.100000,-0.100000)"
fill="#000000" stroke="none">
<path d="M3070 6280 c-153 -26 -227 -119 -148 -186 84 -69 224 -92 345 -56 38
12 85 32 103 45 146 97 -66 237 -300 197z"/>
<path d="M2840 5943 c0 -107 17 -231 47 -348 18 -70 49 -168 62 -193 4 -9 23
-48 42 -87 19 -38 41 -81 50 -95 59 -93 132 -202 143 -212 18 -19 36 -54 36
-73 0 -8 -25 -68 -56 -133 -141 -294 -163 -340 -184 -392 -12 -30 -28 -68 -35
-85 -24 -53 -61 -218 -75 -325 -5 -36 -13 -90 -19 -120 -5 -30 -17 -98 -26
-150 -9 -52 -23 -132 -31 -177 -8 -46 -21 -121 -29 -168 -9 -47 -22 -124 -31
-172 -8 -49 -20 -106 -26 -128 -6 -22 -14 -58 -18 -80 -9 -48 -33 -133 -55
-194 -55 -152 -128 -237 -254 -299 -75 -36 -78 -37 -191 -36 l-115 0 -115 56
c-118 57 -326 146 -392 167 -58 19 -207 33 -273 26 -226 -24 -427 -168 -629
-449 -175 -245 -235 -331 -376 -536 -32 -47 -56 -88 -53 -92 2 -5 30 -8 62 -8
122 0 274 -59 356 -138 44 -43 115 -140 115 -159 0 -4 4 -15 10 -23 7 -12 12
-12 29 4 12 11 21 22 21 26 0 7 146 277 160 295 4 6 27 46 51 90 68 126 69
128 93 170 38 63 37 64 99 -78 9 -21 17 -42 17 -47 0 -13 81 -187 142 -305 51
-99 138 -246 188 -316 14 -20 41 -58 59 -85 103 -146 277 -334 408 -440 78
-64 261 -184 280 -184 3 0 24 -8 47 -19 226 -102 543 -137 836 -91 254 39 408
88 665 211 170 81 430 253 583 386 155 136 245 226 417 418 129 143 328 430
492 710 61 103 172 363 213 495 12 41 29 92 36 113 8 20 14 47 14 58 0 11 6
41 14 67 18 61 43 213 53 327 18 203 4 569 -26 706 -5 24 -17 80 -27 124 -17
85 -66 254 -91 320 -8 22 -22 58 -30 80 -32 86 -59 146 -113 255 -37 73 -58
111 -133 235 -35 58 -168 225 -243 304 -211 224 -412 311 -684 298 -63 -3
-128 -10 -145 -15 -16 -6 -59 -18 -95 -28 -115 -31 -292 -122 -380 -194 -38
-31 -60 -21 -108 50 -117 172 -141 272 -142 583 0 157 -3 199 -14 203 -7 3
-35 -8 -62 -23 -92 -54 -141 -67 -249 -68 -108 0 -155 13 -248 67 -26 15 -52
28 -57 28 -6 0 -10 -46 -10 -107z m1606 -4580 c-9 -27 -209 -229 -312 -314
-254 -211 -552 -354 -857 -413 -131 -26 -391 -24 -517 3 -275 60 -509 180
-696 357 -99 95 -244 294 -244 336 0 22 30 1 70 -48 100 -123 252 -250 405
-340 80 -47 282 -128 360 -144 22 -5 60 -13 85 -19 57 -12 231 -31 290 -31
160 0 367 42 555 112 73 28 312 141 360 170 137 86 320 212 400 276 55 45 101
79 103 77 2 -2 1 -12 -2 -22z"/>
<path d="M235 1558 c-50 -18 -65 -37 -65 -83 0 -33 8 -52 33 -84 39 -49 117
-109 182 -140 93 -44 239 -54 293 -21 29 18 32 24 32 70 0 49 -2 53 -67 118
-70 69 -152 117 -228 134 -67 15 -148 18 -180 6z"/>
</g>
</svg>
