<?xml version="1.0" standalone="no"?>
<!DOCTYPE svg PUBLIC "-//W3C//DTD SVG 20010904//EN"
 "http://www.w3.org/TR/2001/REC-SVG-20010904/DTD/svg10.dtd">
<svg version="1.0" xmlns="http://www.w3.org/2000/svg"
 width="900.000000pt" height="834.000000pt" viewBox="0 0 900.000000 834.000000"
 preserveAspectRatio="xMidYMid meet">
<metadata>
Created by potrace 1.10, written by Peter Selinger 2001-2011
</metadata>
<g transform="translate(0.000000,834.000000) scale(0.100000,-0.100000)"
fill="#000000" stroke="none">
<path d="M569 7826 c-5 -6 -9 -17 -9 -25 0 -9 -7 -25 -15 -35 -13 -17 -15
-472 -15 -3637 0 -2577 3 -3620 11 -3624 6 -4 47 -7 92 -7 45 1 1681 1 3635 1
l3553 1 -3 143 -3 142 -120 -3 c-189 -5 -3579 -3 -5332 3 l-1593 5 0 245 0
245 628 0 c475 0 631 3 640 12 7 7 12 45 12 99 0 70 -3 88 -16 93 -9 3 -296 6
-639 6 -401 0 -625 4 -627 10 -2 5 -1 101 2 212 l5 203 624 3 c451 1 628 5
638 14 10 8 13 33 11 97 l-3 86 -635 5 -635 5 -3 218 -2 217 628 0 c475 0 631
3 640 12 10 10 19 172 10 180 -2 2 -289 5 -638 8 l-635 5 0 215 0 215 635 5
635 5 3 75 c2 41 0 85 -3 97 l-5 23 -633 2 -632 3 -5 203 c-3 111 -3 207 -2
212 2 6 227 10 631 10 474 0 630 3 639 12 7 7 12 45 12 99 0 70 -3 88 -16 93
-9 3 -297 6 -640 6 l-624 0 2 213 3 212 902 3 c1041 2 926 -12 921 120 l-3 77
-910 5 -910 5 -3 218 -2 217 620 0 c409 0 628 4 641 10 16 9 19 22 19 95 0 47
-1 86 -2 87 -2 2 -289 5 -638 8 l-635 5 -3 217 -2 218 637 2 638 3 3 75 c2 41
0 85 -3 97 l-5 23 -633 2 -632 3 -3 213 -2 212 620 0 c409 0 628 4 641 10 17
9 19 22 19 99 0 72 -3 90 -16 95 -9 3 -296 6 -639 6 l-624 0 -3 246 c-2 135 0
250 3 255 3 5 1104 9 2725 9 2185 0 2724 2 2737 13 15 10 17 26 15 102 l-3 90
-2737 3 -2738 2 0 248 c0 136 -4 253 -9 260 -10 16 -177 22 -192 8z"/>
<path d="M6570 5581 c-133 -38 -203 -83 -277 -177 -63 -80 -243 -401 -243
-433 0 -6 -6 -25 -14 -43 -8 -18 -29 -69 -47 -113 -50 -120 -90 -182 -176
-271 -67 -70 -191 -174 -207 -174 -3 0 -24 -13 -48 -29 -68 -45 -159 -91 -181
-91 -11 0 -43 -6 -71 -14 -28 -8 -89 -22 -136 -31 -47 -9 -108 -23 -136 -31
-28 -8 -62 -14 -77 -14 -14 0 -52 -7 -84 -15 -47 -12 -145 -14 -523 -13 -401
1 -475 -1 -540 -15 -41 -9 -88 -17 -104 -17 -50 0 -184 -48 -257 -92 -25 -15
-53 -28 -61 -28 -19 0 -86 88 -116 150 -30 63 -44 137 -36 184 23 136 124 370
210 483 36 48 49 73 39 73 -8 0 -15 -4 -15 -10 0 -5 -5 -10 -11 -10 -32 0
-291 -245 -343 -325 -64 -96 -94 -161 -110 -235 -16 -73 -16 -79 3 -170 25
-113 83 -235 146 -307 42 -48 58 -94 37 -107 -17 -10 -82 -194 -111 -311 -42
-172 -50 -228 -61 -430 -6 -99 -15 -198 -20 -220 -5 -22 -10 -83 -10 -135 0
-52 -7 -126 -15 -165 -8 -38 -15 -79 -15 -90 0 -11 -7 -33 -15 -49 -8 -15 -15
-34 -15 -41 0 -7 -47 -63 -105 -125 -74 -79 -106 -121 -110 -143 -3 -18 -2
-198 2 -402 l8 -370 178 -3 177 -2 0 23 c0 24 -19 56 -58 100 -18 19 -36 27
-58 27 -36 0 -31 -14 -55 165 -12 90 -12 90 15 133 15 24 30 51 34 60 4 9 34
57 67 107 60 90 143 178 336 358 130 121 297 347 461 621 29 49 62 61 73 27 5
-18 -17 -50 -279 -396 -33 -44 -66 -84 -72 -90 -6 -5 -35 -39 -65 -75 -30 -35
-90 -102 -134 -148 -44 -46 -84 -92 -89 -102 -10 -21 -9 -25 54 -305 24 -104
48 -193 54 -197 6 -4 56 -8 111 -8 85 0 106 4 140 23 77 43 52 116 -43 127
-61 7 -72 28 -72 140 0 109 25 197 86 303 60 104 184 354 184 372 0 2 14 35
31 72 70 155 83 186 101 237 7 21 18 41 25 43 15 6 70 -30 181 -120 176 -142
245 -164 597 -196 66 -5 185 -16 265 -23 80 -7 265 -13 413 -14 149 0 272 -5
277 -10 8 -8 41 -153 70 -304 6 -36 16 -117 20 -180 28 -386 56 -513 148 -669
63 -105 81 -118 165 -125 40 -3 115 -9 169 -14 53 -4 101 -6 107 -4 19 6 12
65 -12 107 -22 38 -89 83 -127 84 -9 1 -32 15 -53 32 -28 23 -37 38 -37 62 0
17 -7 72 -15 121 -38 240 -58 603 -36 661 8 21 21 -79 21 -167 0 -111 77 -325
147 -406 25 -29 37 -34 118 -47 50 -8 118 -15 153 -15 l62 0 0 33 c0 45 -53
116 -88 117 -26 0 -88 39 -99 62 -27 52 -55 349 -60 635 l-6 282 65 73 c113
128 193 277 233 433 14 57 18 124 21 370 3 327 16 444 69 615 35 113 125 293
176 353 67 77 119 92 389 108 182 10 244 24 289 63 13 12 27 30 32 41 5 11 13
27 18 35 12 20 35 83 51 140 7 25 14 88 14 140 l1 95 -125 17 c-69 10 -162 25
-206 33 -45 8 -100 15 -123 15 -59 0 -81 14 -81 52 0 55 -33 129 -78 174 -24
24 -50 44 -59 44 -8 0 -27 6 -41 14 -83 43 -279 57 -382 27z"/>
</g>
</svg>
