<?xml version="1.0" standalone="no"?>
<!DOCTYPE svg PUBLIC "-//W3C//DTD SVG 20010904//EN"
 "http://www.w3.org/TR/2001/REC-SVG-20010904/DTD/svg10.dtd">
<svg version="1.0" xmlns="http://www.w3.org/2000/svg"
 width="900.000000pt" height="828.000000pt" viewBox="0 0 900.000000 828.000000"
 preserveAspectRatio="xMidYMid meet">
<metadata>
Created by potrace 1.10, written by Peter Selinger 2001-2011
</metadata>
<g transform="translate(0.000000,828.000000) scale(0.100000,-0.100000)"
fill="#000000" stroke="none">
<path d="M7072 7983 c-98 -103 -202 -247 -260 -361 -41 -78 -63 -110 -94 -132
-23 -17 -48 -30 -55 -30 -8 0 -27 -6 -41 -14 -15 -8 -52 -26 -82 -40 -265
-124 -555 -362 -842 -691 -52 -60 -131 -144 -175 -186 -99 -95 -294 -249 -371
-294 -9 -6 -45 -29 -80 -53 -35 -23 -66 -42 -69 -42 -3 0 -33 -17 -67 -39
-135 -85 -463 -249 -676 -338 -19 -8 -48 -21 -65 -28 -16 -7 -55 -23 -85 -34
-30 -12 -64 -26 -75 -30 -11 -5 -40 -16 -65 -26 -25 -9 -60 -23 -78 -31 -18
-8 -37 -14 -43 -14 -6 0 -25 -6 -42 -14 -18 -8 -63 -25 -102 -37 -38 -12 -74
-26 -80 -31 -5 -4 -19 -8 -32 -8 -12 0 -37 -6 -55 -14 -51 -21 -99 -37 -138
-46 -19 -4 -48 -13 -65 -18 -45 -16 -122 -38 -195 -56 -36 -10 -87 -23 -115
-31 -115 -31 -234 -59 -375 -89 -41 -8 -106 -22 -145 -31 -38 -8 -78 -15 -89
-15 -10 0 -48 -6 -85 -14 -147 -32 -436 -67 -610 -73 -199 -7 -227 10 -378
222 -47 66 -98 138 -114 160 -27 39 -194 297 -214 332 -6 10 -23 37 -38 60
-15 24 -27 45 -27 47 0 4 -71 129 -100 176 -5 8 -42 83 -84 165 -97 196 -142
302 -192 455 -13 41 -29 83 -34 92 -6 10 -10 27 -10 39 0 12 -7 42 -15 68 -8
25 -22 82 -30 125 -16 89 -42 126 -85 126 -53 0 -76 -31 -90 -121 -14 -101
-15 -389 -1 -484 6 -38 11 -92 11 -119 0 -48 18 -164 46 -286 8 -36 14 -73 14
-84 0 -10 6 -39 14 -65 8 -25 22 -73 31 -106 33 -116 48 -160 61 -187 8 -14
14 -33 14 -42 0 -8 7 -32 16 -53 152 -356 263 -555 460 -818 104 -139 124
-182 124 -258 0 -32 -4 -66 -10 -76 -14 -26 -72 -247 -81 -311 -24 -157 -32
-321 -21 -457 16 -199 21 -221 77 -418 9 -33 21 -64 26 -70 5 -5 9 -15 9 -23
0 -14 21 -65 75 -177 57 -120 97 -244 127 -400 22 -120 15 -355 -16 -525 -71
-383 -28 -775 123 -1127 81 -187 209 -377 303 -446 116 -85 124 -86 611 -87
459 0 473 2 545 69 128 119 112 286 -38 408 -113 91 -201 129 -335 143 -129
13 -124 8 -210 195 -21 44 -59 125 -85 180 -53 113 -72 168 -63 193 5 15 53
71 179 212 145 162 317 447 403 670 63 163 81 215 91 260 4 19 13 49 18 65 17
50 42 162 42 187 0 32 33 61 100 88 30 12 69 28 85 35 17 7 39 16 50 19 11 3
52 14 90 26 39 11 97 25 130 30 33 5 80 14 105 19 67 15 178 13 243 -4 32 -8
72 -15 88 -15 17 0 40 -5 51 -11 12 -7 47 -15 77 -19 65 -9 156 -26 221 -42
25 -6 77 -15 115 -19 39 -4 111 -13 160 -19 100 -14 303 -8 349 10 51 19 56
10 56 -92 1 -51 7 -129 15 -173 8 -44 15 -105 15 -135 0 -30 6 -88 14 -130 17
-88 36 -201 42 -250 3 -19 11 -57 19 -85 15 -53 31 -125 44 -190 4 -22 12 -56
19 -75 6 -19 18 -62 28 -95 22 -79 44 -151 59 -200 7 -22 23 -74 35 -115 12
-41 26 -83 31 -92 5 -10 9 -24 9 -33 0 -8 6 -29 14 -47 12 -28 97 -292 128
-398 6 -19 16 -51 23 -70 7 -19 23 -71 35 -115 40 -145 50 -170 95 -230 50
-66 133 -124 208 -143 65 -16 713 -17 771 0 147 42 228 210 165 343 -27 57
-127 151 -204 192 -90 47 -141 64 -233 73 -46 5 -94 15 -106 24 l-24 15 -7
483 c-11 720 -2 1376 19 1458 46 183 136 349 259 480 175 186 223 241 339 387
203 256 344 476 483 753 70 140 84 173 149 348 40 109 76 269 76 342 0 145
100 310 224 370 47 22 64 24 320 31 283 7 340 15 430 58 102 50 203 162 252
281 42 101 64 170 64 200 0 14 10 59 21 100 25 93 19 154 -21 209 -42 57 -86
87 -170 114 -79 26 -131 45 -165 58 -11 4 -63 24 -115 45 -115 44 -192 89
-251 146 -50 48 -109 121 -109 134 0 19 -129 160 -186 205 -34 26 -104 71
-155 100 -108 59 -123 71 -145 113 -22 43 -44 188 -52 337 -5 88 -12 132 -22
145 -50 64 -79 60 -158 -23z m62 -175 c3 -18 7 -58 10 -88 24 -243 70 -328
213 -396 67 -32 174 -105 230 -158 24 -22 68 -77 98 -121 96 -142 179 -219
305 -280 64 -32 272 -113 400 -155 36 -12 78 -34 93 -48 26 -25 28 -32 24 -82
-18 -232 -101 -429 -215 -512 -106 -75 -118 -78 -452 -88 -228 -7 -273 -11
-322 -28 -96 -35 -166 -90 -227 -182 -64 -96 -88 -169 -101 -305 -11 -113 -42
-243 -88 -360 -24 -62 -70 -171 -82 -194 -5 -9 -25 -50 -45 -91 -53 -108 -87
-170 -200 -358 -122 -203 -383 -528 -608 -757 -109 -110 -221 -316 -266 -485
-43 -163 -44 -203 -39 -1126 6 -956 4 -921 61 -982 30 -33 57 -42 167 -57 52
-7 111 -19 130 -27 104 -40 217 -131 241 -195 15 -40 -12 -102 -58 -133 l-37
-25 -360 0 -361 0 -49 25 c-30 15 -62 43 -81 69 -31 42 -43 71 -79 191 -9 30
-28 91 -42 135 -15 44 -30 96 -34 115 -8 33 -14 53 -45 140 -13 33 -90 280
-122 385 -9 28 -21 66 -28 85 -7 19 -20 62 -29 95 -10 33 -22 74 -28 90 -5 17
-13 46 -18 65 -10 47 -29 124 -45 185 -36 135 -58 246 -75 373 -5 40 -12 78
-16 84 -4 7 -11 57 -16 113 -4 55 -12 141 -18 190 -5 50 -10 132 -10 183 0 93
0 94 -34 128 -39 39 -80 44 -181 19 -107 -26 -308 -16 -530 27 -33 6 -82 15
-110 19 -27 4 -72 13 -100 19 -27 6 -81 17 -120 25 -38 8 -104 21 -145 30 -93
19 -197 19 -292 1 -199 -39 -233 -47 -288 -66 -207 -74 -287 -109 -312 -137
-22 -24 -38 -67 -48 -128 -11 -64 -55 -229 -81 -305 -129 -376 -268 -611 -532
-901 -151 -166 -157 -206 -61 -401 24 -48 44 -91 44 -94 0 -3 33 -74 74 -157
94 -193 113 -208 276 -222 41 -3 84 -10 95 -15 11 -5 41 -18 67 -28 100 -43
208 -147 208 -202 0 -39 -37 -95 -78 -118 -39 -22 -44 -22 -430 -22 -239 0
-410 4 -441 11 -67 14 -130 61 -196 146 -30 39 -55 74 -55 78 0 3 -11 21 -24
38 -79 106 -188 403 -217 592 -31 206 -36 453 -10 580 32 159 41 222 46 330 9
181 -10 327 -68 520 -29 98 -38 121 -109 275 -34 72 -79 202 -112 320 -61 221
-61 555 1 795 8 33 28 104 45 159 56 183 33 280 -118 481 -96 129 -169 236
-204 300 -12 22 -30 54 -40 70 -55 89 -210 423 -210 453 0 8 -6 26 -14 40 -8
15 -22 54 -31 87 -10 33 -23 76 -30 95 -24 68 -60 226 -75 333 -5 38 -12 73
-16 78 -6 10 -33 306 -34 368 l0 34 21 -27 c11 -14 24 -38 29 -53 15 -46 40
-116 51 -143 83 -191 157 -346 224 -465 25 -44 48 -87 52 -95 34 -76 291 -474
453 -704 153 -217 233 -266 435 -266 60 0 144 5 185 11 41 6 116 14 165 19 96
8 187 22 300 46 39 8 84 14 101 14 17 0 51 7 74 15 23 8 58 15 77 15 18 0 50
7 70 15 19 8 47 15 60 15 24 0 107 18 208 45 28 7 79 21 115 30 67 17 141 37
220 59 25 7 72 21 105 30 33 10 74 22 90 28 17 5 44 13 60 18 17 5 44 13 60
19 17 6 57 20 90 30 102 34 208 71 245 86 19 8 78 30 130 50 52 20 104 40 115
44 11 5 72 30 135 56 125 52 544 256 625 304 28 17 70 41 95 55 50 27 189 116
263 167 74 52 171 126 232 178 83 72 171 160 283 286 333 375 594 578 908 710
51 21 106 50 123 65 17 15 52 67 77 116 59 115 78 146 133 219 80 107 97 117
105 63z"/>
</g>
</svg>
