<?xml version="1.0" standalone="no"?>
<!DOCTYPE svg PUBLIC "-//W3C//DTD SVG 20010904//EN"
 "http://www.w3.org/TR/2001/REC-SVG-20010904/DTD/svg10.dtd">
<svg version="1.0" xmlns="http://www.w3.org/2000/svg"
 width="900.000000pt" height="756.000000pt" viewBox="0 0 900.000000 756.000000"
 preserveAspectRatio="xMidYMid meet">
<metadata>
Created by potrace 1.10, written by Peter Selinger 2001-2011
</metadata>
<g transform="translate(0.000000,756.000000) scale(0.100000,-0.100000)"
fill="#000000" stroke="none">
<path d="M3518 6834 c-16 -8 -29 -16 -30 -17 -2 -1 -5 -450 -8 -997 l-5 -995
-148 -3 c-157 -3 -189 -11 -203 -54 -9 -28 13 -74 42 -87 18 -8 278 -11 929
-11 l904 0 25 23 c37 34 41 60 12 94 l-24 28 -154 5 -153 5 -5 995 c-3 547 -6
996 -8 996 -59 34 -60 34 -609 34 -454 -1 -542 -3 -565 -16z m1015 -137 c16
-11 17 -30 15 -167 l-3 -155 -449 -3 c-328 -2 -452 1 -463 9 -11 9 -13 44 -11
162 l3 151 25 7 c14 4 214 7 446 8 323 1 424 -2 437 -12z m4 -475 c10 -6 13
-161 13 -697 0 -379 -3 -692 -8 -697 -4 -4 -213 -7 -463 -6 l-454 3 -3 690
c-2 640 -1 691 15 703 13 9 119 12 452 12 240 0 442 -4 448 -8z"/>
<path d="M678 5395 c-116 -32 -229 -138 -281 -265 l-22 -55 0 -1965 c0 -1081
3 -2023 6 -2095 5 -115 9 -137 34 -190 40 -83 104 -144 190 -180 l70 -30 2780
-3 c1529 -1 2790 0 2801 3 50 12 66 82 28 119 -14 14 -278 16 -2745 16 -1952
0 -2751 3 -2802 11 -96 15 -146 45 -183 112 l-29 52 -3 950 c-2 935 -2 951 18
1020 24 82 74 218 95 258 8 16 15 33 15 38 0 13 110 232 150 299 86 145 145
226 247 338 293 321 681 482 1166 482 212 0 336 -26 487 -101 215 -107 417
-343 514 -599 43 -112 42 -110 181 -181 72 -37 231 -117 355 -179 355 -177
394 -198 404 -213 7 -10 -12 -50 -69 -143 -225 -369 -439 -589 -660 -679 -82
-34 -162 -38 -315 -17 -116 17 -247 5 -335 -30 -82 -33 -155 -106 -178 -179
-45 -147 6 -349 110 -437 49 -40 144 -152 171 -200 75 -133 106 -229 116 -355
3 -43 12 -90 21 -106 19 -39 60 -48 94 -23 25 19 26 23 25 123 -2 226 -95 429
-285 624 -71 74 -91 101 -108 150 -51 145 -7 244 126 280 49 14 84 16 170 11
279 -16 334 -18 346 -8 6 5 28 12 47 16 52 9 182 78 263 140 85 64 224 203
301 301 137 173 346 520 346 573 0 10 -10 28 -23 40 -12 12 -227 124 -477 248
-250 125 -461 234 -467 243 -7 9 -16 27 -19 41 -11 43 -98 212 -147 286 -64
97 -169 213 -252 279 -69 55 -178 125 -195 125 -5 0 -31 11 -58 25 -65 32
-153 58 -275 80 -158 29 -420 14 -652 -37 -511 -111 -937 -473 -1191 -1015
-22 -45 -43 -81 -49 -79 -7 2 -10 304 -10 882 l0 879 34 53 c39 61 76 92 144
121 48 21 57 21 1221 21 l1173 0 21 23 c28 30 28 71 0 97 -22 20 -27 20 -1207
19 -936 -1 -1196 -4 -1233 -14z"/>
<path d="M5062 5393 c-35 -30 -38 -68 -8 -97 l25 -26 1100 0 1099 0 57 -22
c70 -27 146 -93 177 -156 l23 -47 5 -1003 5 -1004 24 -19 c31 -26 57 -24 87 6
l24 25 -2 1022 -3 1023 -30 60 c-43 85 -126 165 -221 211 l-78 39 -1132 3
c-1069 2 -1133 1 -1152 -15z"/>
<path d="M2192 3957 c-31 -33 -28 -72 11 -120 113 -142 193 -318 257 -564 30
-116 35 -395 10 -518 -4 -22 -13 -65 -19 -95 -19 -95 -29 -110 -69 -110 -19 0
-64 5 -101 10 -303 49 -528 157 -743 359 -92 87 -226 258 -277 356 -44 83 -65
105 -100 105 -34 0 -58 -20 -67 -57 -8 -30 43 -135 116 -238 27 -38 60 -86 73
-105 42 -61 260 -263 347 -321 241 -161 438 -225 771 -254 118 -10 138 7 174
147 58 227 73 502 36 693 -49 247 -108 397 -241 604 -81 127 -132 157 -178
108z"/>
<path d="M2790 3600 c-12 -12 -20 -33 -20 -55 0 -60 40 -74 191 -66 29 2 59
40 59 76 0 51 -27 65 -127 65 -70 0 -86 -3 -103 -20z"/>
<path d="M4812 3357 c-29 -30 -28 -62 3 -92 l24 -25 981 0 c967 0 980 0 1000
20 26 26 26 81 2 103 -17 16 -101 17 -1004 17 l-985 0 -21 -23z"/>
<path d="M7370 2760 c-113 -28 -166 -46 -256 -90 -275 -133 -484 -368 -590
-664 -75 -208 -72 -551 6 -754 61 -158 162 -316 274 -427 157 -155 333 -251
576 -311 93 -23 349 -23 455 0 414 90 727 366 867 766 39 112 51 199 51 365
-1 138 -4 174 -26 262 -41 163 -96 278 -207 433 -40 55 -152 164 -232 223 -72
55 -235 142 -293 158 -219 60 -214 59 -385 58 -123 -1 -184 -5 -240 -19z m387
-130 c77 -10 215 -48 256 -71 10 -5 48 -26 85 -46 189 -102 346 -273 432 -475
63 -147 74 -205 74 -398 0 -180 -8 -230 -58 -367 -37 -101 -131 -246 -214
-331 -131 -134 -265 -213 -467 -275 -61 -18 -95 -21 -255 -21 -175 0 -190 1
-272 27 -48 16 -116 41 -150 57 -266 122 -476 377 -549 665 -31 121 -33 363
-5 470 80 301 249 518 521 665 52 28 89 44 170 71 98 34 290 47 432 29z"/>
<path d="M7342 2300 c-34 -14 -42 -50 -42 -194 0 -89 -4 -136 -12 -144 -8 -8
-55 -12 -145 -12 -77 0 -142 -5 -157 -11 -44 -20 -48 -48 -44 -319 4 -313 -11
-290 187 -290 94 0 142 -4 154 -12 13 -11 16 -38 19 -160 3 -126 6 -150 21
-165 16 -16 42 -18 288 -18 l271 0 19 24 c17 20 19 40 19 161 0 113 3 142 16
154 12 13 42 16 157 16 111 1 146 4 162 16 19 14 20 28 23 284 l3 270 -25 25
c-24 24 -29 25 -165 25 -114 0 -142 3 -155 16 -13 12 -16 41 -16 154 0 200 25
184 -297 187 -144 1 -268 -2 -281 -7z m426 -152 c8 -8 12 -55 12 -144 0 -137
7 -177 34 -187 9 -4 79 -7 156 -8 111 0 142 -4 152 -16 15 -18 19 -267 4 -300
-9 -22 -13 -23 -153 -23 -139 0 -145 -1 -168 -25 -24 -23 -25 -29 -25 -168 0
-98 -4 -147 -12 -155 -8 -8 -57 -12 -154 -12 -184 0 -177 -6 -170 151 5 129
-4 183 -34 199 -10 5 -81 10 -157 10 -95 0 -143 4 -151 12 -18 18 -17 302 1
317 9 7 63 11 148 10 74 0 142 3 152 6 33 13 41 47 42 186 1 75 5 141 9 148
10 16 298 15 314 -1z"/>
<path d="M4811 2634 c-29 -37 -26 -58 10 -88 l31 -26 674 0 675 0 24 25 c29
28 31 45 10 85 l-16 30 -694 0 -694 0 -20 -26z"/>
<path d="M4833 1940 c-23 -9 -43 -39 -43 -64 0 -8 10 -27 23 -42 l23 -26 563
0 563 1 24 22 c31 29 31 63 -1 94 l-24 25 -553 -1 c-304 0 -563 -4 -575 -9z"/>
</g>
</svg>
