<?xml version="1.0" standalone="no"?>
<!DOCTYPE svg PUBLIC "-//W3C//DTD SVG 20010904//EN"
 "http://www.w3.org/TR/2001/REC-SVG-20010904/DTD/svg10.dtd">
<svg version="1.0" xmlns="http://www.w3.org/2000/svg"
 width="900.000000pt" height="1212.000000pt" viewBox="0 0 900.000000 1212.000000"
 preserveAspectRatio="xMidYMid meet">
<metadata>
Created by potrace 1.10, written by Peter Selinger 2001-2011
</metadata>
<g transform="translate(0.000000,1212.000000) scale(0.100000,-0.100000)"
fill="#000000" stroke="none">
<path d="M1138 11852 c-113 -41 -149 -102 -202 -342 -43 -197 -56 -481 -28
-640 25 -143 61 -284 88 -348 8 -18 14 -37 14 -43 0 -10 115 -247 143 -294
110 -187 278 -380 495 -567 43 -38 186 -143 223 -165 16 -9 29 -22 29 -29 0
-6 -26 -47 -57 -90 -91 -127 -173 -244 -173 -249 0 -2 -19 -32 -42 -67 -50
-75 -52 -79 -115 -183 -26 -44 -52 -87 -58 -96 -5 -9 -24 -43 -42 -75 -18 -32
-46 -84 -62 -114 -93 -166 -307 -625 -341 -730 -5 -14 -18 -50 -30 -80 -41
-107 -135 -396 -165 -510 -44 -166 -61 -238 -89 -385 -47 -250 -66 -411 -73
-621 l-6 -171 31 -6 c31 -6 87 -67 80 -87 -2 -7 -20 2 -42 19 -46 37 -52 38
-67 10 -25 -48 27 -149 77 -149 29 0 31 -11 6 -33 -23 -21 -36 -21 -52 -2 -7
8 -16 12 -21 9 -12 -7 -11 -61 1 -85 8 -13 7 -25 0 -39 -27 -51 79 -706 154
-950 8 -25 21 -74 31 -110 9 -36 23 -81 30 -100 7 -19 22 -64 33 -100 12 -36
30 -90 42 -120 12 -30 27 -73 34 -95 13 -40 75 -192 102 -252 8 -18 21 -47 29
-65 49 -114 172 -368 227 -468 17 -30 42 -75 56 -100 13 -25 43 -76 66 -113
22 -38 52 -87 65 -110 13 -23 37 -61 52 -85 16 -24 29 -45 29 -47 0 -2 25 -39
55 -82 31 -43 63 -91 73 -106 9 -15 50 -75 89 -132 44 -63 70 -110 67 -119 -3
-9 -22 -26 -42 -38 -150 -91 -416 -332 -544 -493 -149 -187 -283 -441 -341
-645 -23 -82 -44 -175 -59 -265 -17 -102 -17 -398 0 -490 43 -235 73 -349 105
-397 87 -127 279 -140 387 -26 59 62 78 179 46 273 -40 115 -51 197 -50 400 1
211 10 271 65 416 11 30 24 65 29 79 4 14 20 50 36 80 153 302 441 587 768
759 69 37 105 53 221 99 22 8 64 34 93 56 30 22 63 45 75 51 12 7 72 38 132
70 61 31 115 61 120 65 6 4 54 30 107 59 54 28 117 62 140 75 24 13 88 47 143
76 55 29 116 62 135 73 19 11 78 42 130 69 52 28 109 58 125 68 17 9 73 40
125 67 140 74 225 120 393 212 28 16 90 49 137 73 47 25 115 61 150 80 36 19
106 57 155 83 50 27 117 63 150 81 33 18 92 49 130 70 68 35 124 66 230 124
28 15 91 49 140 75 50 26 113 60 140 75 28 15 91 49 140 75 50 26 109 58 133
71 23 13 86 47 140 75 53 29 102 55 107 59 6 4 57 32 115 62 58 31 121 64 140
75 19 11 82 45 140 75 58 31 121 64 140 75 19 11 80 44 135 73 96 51 145 77
258 139 28 16 95 51 147 79 52 27 111 58 130 69 19 11 76 41 125 68 128 68
213 114 270 145 57 31 142 77 270 145 50 27 106 57 125 68 19 11 80 43 135 72
55 29 129 69 165 89 36 20 88 48 115 62 54 27 125 65 250 134 44 24 106 57
137 73 72 36 133 104 153 170 19 63 19 71 -1 137 -12 41 -29 66 -70 107 -30
29 -59 53 -64 53 -4 0 -43 20 -84 45 -42 25 -78 45 -80 45 -2 0 -64 34 -137
76 -74 42 -163 92 -199 111 -36 20 -69 39 -75 43 -10 7 -33 20 -190 105 -38
21 -83 47 -100 57 -16 10 -37 21 -45 25 -8 4 -48 26 -88 50 -41 24 -75 43 -78
43 -2 0 -38 20 -80 45 -41 25 -77 45 -78 45 -2 0 -98 53 -213 118 -116 65
-216 122 -224 125 -8 4 -27 15 -44 25 -16 10 -61 36 -100 56 -38 21 -74 42
-80 46 -5 4 -46 27 -90 50 -44 24 -93 51 -110 61 -16 10 -48 27 -70 39 -73 40
-147 82 -194 109 -25 15 -53 30 -61 34 -8 4 -31 17 -50 28 -19 12 -55 32 -80
46 -25 13 -58 32 -75 42 -16 10 -61 35 -100 55 -38 21 -74 42 -80 46 -5 4 -46
27 -90 51 -123 66 -127 68 -180 100 -27 16 -63 37 -80 45 -16 8 -46 24 -65 35
-19 12 -55 32 -80 46 -25 13 -61 34 -80 45 -30 17 -349 196 -420 235 -14 8
-43 24 -65 37 -22 12 -66 37 -99 55 -32 18 -81 46 -108 62 -27 16 -51 29 -53
29 -3 0 -39 20 -81 45 -41 25 -77 45 -80 45 -2 0 -38 20 -80 45 -41 25 -77 45
-79 45 -2 0 -27 14 -55 30 -28 17 -79 45 -113 64 -82 44 -150 82 -209 117 -27
16 -51 29 -53 29 -3 0 -39 20 -81 45 -41 25 -77 45 -79 45 -2 0 -26 13 -53 29
-59 35 -202 115 -292 164 -25 14 -61 34 -80 45 -19 11 -53 30 -75 42 -73 40
-147 82 -194 109 -25 15 -53 30 -61 34 -8 4 -33 18 -55 30 -22 13 -66 38 -99
56 -32 18 -81 46 -108 62 -27 16 -53 29 -57 29 -5 0 -31 19 -57 43 -57 51 -87
68 -169 97 -165 59 -408 212 -566 358 -260 239 -408 480 -485 792 -15 61 -19
112 -18 275 1 185 3 208 29 305 15 58 30 140 32 183 4 69 2 82 -20 120 -35 59
-74 92 -135 116 -63 25 -102 26 -164 3z m1209 -2821 c158 -228 373 -567 404
-636 5 -11 21 -40 35 -65 84 -146 289 -582 324 -690 5 -14 18 -50 30 -80 132
-340 243 -794 282 -1155 17 -159 17 -694 0 -840 -41 -351 -135 -757 -238
-1037 -63 -171 -66 -178 -152 -383 -43 -104 -85 -206 -92 -225 -8 -19 -32 -66
-55 -105 -22 -38 -50 -88 -62 -110 -46 -87 -139 -251 -163 -290 -11 -16 -24
-39 -30 -50 -13 -26 -12 -24 -173 -266 -140 -210 -159 -235 -175 -225 -11 7
-132 176 -197 276 -115 178 -135 210 -188 300 -131 225 -317 594 -317 630 0
12 20 55 44 95 44 73 158 297 169 331 3 10 15 44 27 74 96 248 154 512 197
895 23 213 23 1077 -1 1310 -19 189 -43 356 -62 442 -8 34 -14 72 -14 84 0 12
-6 45 -14 73 -59 210 -78 275 -90 306 -8 19 -22 55 -31 80 -10 25 -44 100 -76
167 -33 67 -59 132 -58 145 0 13 24 66 52 120 29 53 67 125 86 160 93 174 251
425 407 645 74 104 75 105 131 24z m913 -356 c41 -23 95 -53 120 -67 25 -14
97 -54 160 -90 63 -36 147 -82 185 -103 39 -21 87 -49 107 -62 21 -13 40 -23
42 -23 3 0 27 -13 54 -29 27 -16 76 -44 108 -62 33 -18 77 -43 99 -56 22 -12
46 -26 54 -30 8 -3 73 -40 144 -80 71 -40 131 -73 132 -73 2 0 38 -20 79 -45
42 -25 79 -45 81 -45 3 0 22 -11 43 -23 20 -13 73 -43 117 -67 44 -24 94 -52
110 -62 17 -10 37 -21 45 -25 8 -4 36 -19 61 -34 26 -15 71 -40 100 -57 267
-147 321 -178 383 -215 28 -16 89 -50 136 -75 47 -25 118 -65 158 -89 41 -24
75 -43 77 -43 2 0 28 -14 57 -31 29 -17 82 -47 118 -67 36 -19 79 -44 95 -54
17 -10 37 -21 45 -25 8 -4 37 -19 63 -35 27 -15 76 -43 110 -62 82 -44 150
-82 209 -117 27 -16 51 -29 54 -29 2 0 21 -10 42 -23 20 -13 69 -41 107 -62
39 -21 122 -67 185 -103 162 -92 178 -101 229 -129 25 -13 60 -32 76 -42 17
-10 59 -34 95 -53 36 -20 89 -50 118 -67 29 -17 55 -31 57 -31 3 0 39 -20 81
-45 41 -25 77 -45 79 -45 2 0 38 -20 79 -45 42 -25 79 -45 81 -45 3 0 22 -11
43 -23 20 -13 73 -43 117 -67 184 -100 181 -98 163 -116 -7 -7 -42 -28 -78
-47 -103 -53 -279 -148 -345 -184 -33 -18 -82 -45 -110 -59 -27 -14 -68 -35
-90 -47 -22 -13 -85 -47 -140 -76 -55 -30 -120 -65 -145 -79 -25 -13 -83 -44
-130 -69 -47 -25 -107 -58 -135 -73 -27 -15 -90 -49 -140 -75 -49 -26 -109
-58 -133 -71 -23 -13 -86 -47 -140 -76 -53 -29 -115 -62 -137 -75 -22 -12 -62
-33 -90 -47 -27 -14 -79 -42 -115 -62 -36 -20 -110 -60 -165 -89 -55 -29 -120
-64 -145 -77 -25 -14 -81 -45 -125 -68 -44 -24 -102 -55 -130 -70 -27 -15 -95
-51 -150 -81 -55 -29 -118 -63 -140 -76 -22 -12 -62 -33 -90 -47 -27 -15 -90
-48 -140 -76 -49 -27 -112 -60 -140 -74 -27 -14 -79 -42 -115 -62 -36 -20
-103 -56 -150 -81 -126 -68 -209 -112 -265 -143 -27 -15 -95 -51 -150 -80 -55
-29 -113 -61 -130 -70 -16 -9 -70 -38 -120 -65 -49 -26 -117 -62 -150 -80 -33
-18 -96 -51 -140 -75 -44 -23 -98 -53 -120 -65 -45 -25 -157 -85 -285 -153
-141 -74 -214 -114 -227 -125 -7 -5 -20 -7 -28 -3 -13 4 -10 13 14 53 92 152
300 569 371 743 43 106 78 195 85 215 4 11 23 63 42 115 19 52 38 109 42 125
5 17 13 41 19 55 5 14 24 77 42 140 17 63 35 129 40 145 72 251 132 637 151
973 17 295 -4 649 -56 957 -38 218 -51 277 -120 535 -28 105 -123 398 -161
495 -63 159 -95 239 -119 290 -12 28 -33 75 -46 105 -29 69 -186 377 -228 448
-17 29 -31 57 -31 61 0 5 -7 14 -15 21 -8 7 -15 23 -15 37 0 27 -8 30 120 -42z
m-1465 -5527 c-10 -72 -25 -85 -25 -22 0 42 12 74 28 74 2 0 1 -24 -3 -52z
m-220 15 c10 -16 24 -35 32 -43 46 -49 73 -85 73 -97 0 -25 -15 -12 -70 62
-30 41 -58 74 -62 75 -11 0 -10 30 1 30 5 0 17 -12 26 -27z m209 -180 c-9 -68
-21 -79 -51 -52 -31 30 -29 39 7 39 25 0 30 4 30 23 0 22 7 37 17 37 2 0 1
-21 -3 -47z m133 15 l28 -11 -37 -7 c-41 -7 -98 -2 -98 9 0 24 60 29 107 9z
m-197 -7 c0 -14 -18 -23 -30 -16 -6 4 -8 11 -5 16 8 12 35 12 35 0z m97 -123
c21 -20 31 -48 17 -48 -10 0 -54 50 -54 61 0 15 12 11 37 -13z"/>
</g>
</svg>
