<?xml version="1.0" standalone="no"?>
<!DOCTYPE svg PUBLIC "-//W3C//DTD SVG 20010904//EN"
 "http://www.w3.org/TR/2001/REC-SVG-20010904/DTD/svg10.dtd">
<svg version="1.0" xmlns="http://www.w3.org/2000/svg"
 width="900.000000pt" height="933.000000pt" viewBox="0 0 900.000000 933.000000"
 preserveAspectRatio="xMidYMid meet">
<metadata>
Created by potrace 1.10, written by Peter Selinger 2001-2011
</metadata>
<g transform="translate(0.000000,933.000000) scale(0.100000,-0.100000)"
fill="#000000" stroke="none">
<path d="M4335 8891 c-56 -16 -80 -29 -112 -63 l-32 -33 -2 -345 c-3 -702 -29
-1571 -49 -1665 -43 -194 -151 -503 -208 -592 -27 -43 -35 -27 -28 55 12 128
25 394 32 643 14 479 -39 739 -179 878 -66 66 -115 89 -220 103 -125 17 -301
-13 -492 -84 -459 -169 -994 -599 -1476 -1185 -320 -389 -614 -882 -799 -1338
-54 -133 -82 -211 -105 -290 -9 -33 -23 -76 -30 -95 -14 -38 -34 -110 -60
-210 -10 -36 -23 -85 -30 -110 -11 -42 -20 -82 -62 -275 -8 -38 -21 -96 -29
-127 -8 -32 -14 -70 -14 -85 0 -15 -7 -61 -15 -103 -28 -148 -52 -326 -84
-645 -53 -510 -42 -1238 24 -1626 8 -47 15 -96 15 -109 0 -13 7 -53 15 -89 9
-36 23 -97 31 -136 77 -346 196 -600 320 -686 24 -16 73 -37 109 -46 62 -17
68 -17 132 0 74 19 169 74 308 178 318 238 508 344 935 525 124 53 259 110
300 126 41 17 98 41 125 53 28 12 67 28 87 34 21 7 40 17 43 22 4 5 13 9 22 9
13 0 305 141 358 174 180 109 336 258 403 386 8 14 23 52 35 85 20 55 22 78
21 285 0 124 -7 288 -14 365 -28 283 -19 556 25 770 32 153 46 223 59 280 23
103 64 296 91 435 9 47 21 103 25 125 25 114 50 320 60 478 6 97 14 185 17
195 4 9 71 85 149 167 173 182 306 341 380 453 43 65 59 83 76 80 13 -2 41
-33 76 -83 112 -163 320 -405 449 -524 l72 -67 10 -89 c5 -50 12 -142 16 -205
8 -150 35 -317 111 -670 7 -36 21 -101 30 -145 8 -44 22 -107 29 -140 8 -33
21 -98 30 -145 10 -47 23 -114 31 -150 7 -36 21 -132 30 -215 18 -161 15 -401
-7 -580 -6 -49 -12 -196 -13 -325 -1 -248 0 -258 53 -370 27 -59 120 -177 184
-236 54 -48 158 -124 222 -161 53 -30 347 -173 356 -173 6 0 23 -6 37 -13 54
-28 266 -117 277 -117 3 0 30 -11 58 -24 29 -12 88 -38 132 -56 44 -17 103
-42 130 -55 28 -13 79 -35 115 -50 78 -33 190 -88 284 -140 38 -21 79 -43 90
-49 22 -12 63 -38 181 -114 60 -39 216 -151 252 -182 78 -65 235 -145 311
-157 52 -9 157 25 210 67 72 56 155 194 215 355 28 77 77 240 77 259 0 11 6
42 14 70 55 195 101 577 116 966 14 362 -11 909 -55 1216 -8 56 -15 116 -15
134 0 17 -7 70 -15 118 -9 48 -23 130 -31 182 -24 148 -69 369 -90 446 -8 28
-14 61 -14 73 0 12 -5 31 -10 41 -6 11 -15 41 -20 67 -5 27 -19 80 -31 118
-11 39 -24 86 -29 105 -5 19 -29 94 -54 165 -178 515 -407 945 -744 1404 -26
35 -54 73 -62 85 -94 136 -482 556 -645 698 -44 39 -91 80 -105 92 -38 34
-171 138 -205 162 -16 11 -66 45 -110 75 -116 80 -216 138 -330 192 -55 27
-108 52 -118 58 -39 21 -200 70 -279 84 -262 47 -396 22 -500 -93 -86 -95
-135 -252 -159 -508 -16 -178 -1 -757 27 -1018 6 -57 5 -68 -7 -65 -15 5 -78
125 -102 194 -133 383 -145 441 -152 765 -3 140 -8 302 -10 360 -2 58 -7 344
-10 635 -7 650 -7 661 -45 707 -17 20 -45 39 -68 46 -50 15 -306 24 -347 13z
m273 -173 c6 -8 14 -328 21 -873 10 -780 13 -871 31 -980 22 -131 41 -222 58
-276 57 -175 79 -239 119 -333 42 -98 65 -144 142 -287 50 -92 254 -383 301
-429 3 -3 18 -21 33 -40 57 -71 193 -203 234 -227 39 -22 44 -23 70 -10 42 22
61 47 98 133 32 72 35 87 35 178 0 89 -3 104 -31 162 -17 36 -57 104 -89 153
-113 168 -139 241 -164 461 -27 236 -45 270 -194 383 -36 27 -60 52 -56 59 4
6 28 9 63 6 31 -3 62 -3 69 -1 8 3 12 28 12 75 0 50 3 69 12 66 12 -4 107
-184 108 -204 0 -17 38 -47 49 -39 6 3 11 14 11 23 0 29 36 133 46 133 16 -1
15 -178 -1 -301 -17 -137 -19 -210 -5 -210 6 0 15 10 21 23 33 72 52 92 62 65
5 -17 -6 -61 -34 -128 -12 -30 -24 -76 -26 -102 -5 -43 -1 -52 40 -105 24 -32
75 -88 112 -125 56 -55 71 -65 87 -57 10 5 20 20 22 32 2 12 11 57 20 100 32
157 14 535 -35 727 -16 61 -99 328 -115 365 -6 17 -20 50 -29 75 -9 25 -23 59
-30 75 -41 96 -45 115 -20 95 21 -17 116 -164 138 -213 10 -21 22 -37 28 -35
13 4 49 69 74 130 8 21 20 36 25 33 24 -15 7 -121 -36 -223 -16 -37 -18 -88
-5 -96 5 -3 12 -18 15 -33 4 -16 21 -65 39 -110 42 -112 58 -110 98 10 13 39
27 67 35 67 18 0 18 -35 -1 -135 -42 -229 -62 -554 -35 -570 20 -12 55 22 103
101 26 44 70 113 97 154 91 138 93 142 76 208 -40 159 -62 371 -39 379 7 3 15
-8 18 -24 18 -80 93 -253 110 -253 6 0 48 36 94 80 45 44 87 80 92 80 5 0 9
-12 9 -27 0 -34 -174 -386 -268 -543 -12 -19 -28 -48 -37 -65 -20 -41 -53 -96
-175 -295 -58 -94 -110 -181 -117 -192 -11 -20 -19 -80 -48 -358 -8 -74 -22
-202 -31 -284 l-16 -148 58 -60 c75 -76 89 -84 117 -64 12 8 72 63 132 123 94
91 112 115 121 153 11 42 25 94 59 210 78 269 79 277 64 324 -7 22 -23 64 -35
91 -45 104 -81 313 -57 328 5 3 34 -42 63 -101 73 -148 136 -244 157 -240 10
2 30 21 45 43 26 38 28 48 37 206 5 101 14 175 22 190 l13 24 7 -25 c4 -14 7
-82 8 -152 1 -82 5 -128 11 -128 21 0 95 91 119 145 15 35 51 171 51 194 0 27
66 225 96 285 45 93 71 62 41 -50 -14 -51 -35 -142 -61 -277 -21 -105 -21
-187 0 -187 26 0 144 82 247 174 54 47 102 86 108 86 17 0 9 -54 -15 -100 -21
-42 -176 -188 -201 -190 -20 -1 -58 -41 -49 -50 5 -5 68 -13 139 -17 121 -7
130 -9 130 -28 0 -19 -9 -20 -175 -26 -96 -4 -204 -12 -240 -19 -93 -19 -164
-72 -223 -166 -79 -128 -164 -436 -126 -460 32 -19 341 6 392 33 77 39 270
216 396 363 36 41 70 75 75 75 16 0 8 -66 -9 -85 -8 -9 -15 -19 -15 -23 0 -3
-18 -33 -40 -66 -36 -54 -50 -91 -34 -91 12 0 108 51 150 80 38 26 63 35 87
31 15 -2 -21 -56 -65 -96 -55 -52 -290 -204 -316 -205 -4 -1 -18 -10 -31 -21
-39 -32 -15 -41 116 -40 116 0 171 -10 128 -24 -11 -4 -31 -11 -44 -16 -13 -6
-58 -14 -100 -20 -42 -6 -105 -14 -141 -19 -36 -5 -102 -9 -147 -10 -83 0
-105 -9 -81 -34 29 -29 125 -103 170 -131 54 -34 56 -51 7 -47 -61 4 -142 42
-268 124 -83 55 -105 63 -182 63 -71 0 -79 -2 -135 -39 -81 -53 -304 -277
-304 -306 0 -58 192 -247 302 -297 263 -120 590 -167 722 -104 92 45 203 185
305 386 59 115 141 293 141 304 0 6 21 58 80 196 4 11 18 46 31 78 12 31 26
57 31 57 23 0 7 -92 -53 -305 -26 -94 -34 -135 -25 -135 3 0 33 21 66 47 33
25 63 43 67 40 7 -8 -45 -85 -112 -167 -77 -94 -215 -297 -215 -317 0 -24 21
-14 99 47 43 33 81 60 84 60 15 0 5 -32 -23 -73 -30 -45 -39 -87 -19 -87 13 0
138 67 160 86 8 8 18 14 22 14 4 0 44 27 90 60 47 33 89 60 96 60 6 0 11 -12
11 -27 0 -20 -14 -40 -51 -75 -91 -85 -191 -142 -402 -226 -54 -22 -101 -42
-104 -46 -9 -9 25 -43 50 -49 12 -3 49 -15 82 -27 139 -49 231 -63 410 -62 94
0 181 2 195 4 17 2 25 -2 25 -11 0 -12 -68 -52 -155 -91 -32 -15 -16 -42 35
-61 98 -38 100 -39 84 -54 -12 -11 -27 -11 -94 0 -44 7 -91 18 -105 23 -39 16
-398 128 -465 145 -130 35 -477 77 -620 77 -63 0 -262 27 -337 46 -60 15 -110
18 -121 8 -11 -12 19 -74 62 -124 75 -87 302 -277 456 -381 205 -138 287 -147
650 -74 103 20 222 29 230 16 7 -12 7 -12 -150 -66 -223 -76 -234 -82 -219
-113 5 -10 45 -51 90 -90 71 -62 186 -190 221 -247 56 -90 113 -224 113 -267
0 -34 -17 -36 -31 -6 -40 89 -167 279 -227 341 -49 50 -75 58 -88 30 -4 -10
-10 -67 -13 -127 -4 -65 -10 -111 -17 -113 -14 -5 -39 77 -59 192 -31 173 -17
154 -173 230 -238 117 -346 165 -366 165 -32 0 -24 -25 119 -360 99 -232 188
-424 231 -500 70 -122 252 -312 419 -435 55 -41 111 -84 125 -97 l25 -22 -65
-11 -65 -10 0 -39 c0 -22 -5 -41 -11 -43 -6 -2 -28 16 -49 39 -77 86 -194 208
-201 208 -12 0 4 -64 43 -180 50 -145 84 -271 117 -430 49 -241 56 -295 35
-288 -6 2 -17 19 -24 38 -7 19 -27 73 -44 120 -18 47 -43 120 -58 163 -14 45
-30 76 -37 74 -13 -4 -32 -64 -41 -129 -4 -31 -11 -48 -20 -48 -19 0 -23 19
-30 150 -16 303 -82 575 -202 828 -31 67 -55 67 -65 2 -5 -25 -10 -283 -12
-573 -2 -291 -7 -531 -10 -534 -3 -3 -8 8 -11 23 -4 16 -11 43 -16 59 -12 35
-38 348 -39 453 0 92 -14 94 -57 4 -68 -141 -157 -248 -137 -164 4 15 10 32
15 37 23 30 95 263 122 395 31 152 38 208 44 356 7 195 0 212 -52 113 -39 -76
-99 -163 -128 -188 -15 -12 -17 -11 -17 3 0 9 9 36 21 59 65 132 89 234 89
375 0 118 -17 220 -52 312 -24 63 -95 185 -109 188 -15 3 -20 -10 -78 -198
-62 -202 -86 -328 -126 -636 -2 -23 -12 -58 -21 -79 -28 -68 -35 -24 -28 179
6 177 6 188 -11 185 -11 -3 -26 -25 -39 -61 -12 -32 -27 -63 -34 -70 -7 -7
-12 -20 -12 -29 0 -10 -6 -24 -13 -31 -7 -7 -18 -24 -25 -38 l-12 -25 4 30 c6
39 19 92 47 185 31 105 30 115 -5 115 -16 0 -31 5 -33 11 -2 6 39 75 92 155
52 79 95 147 95 151 0 4 12 29 28 55 15 26 35 71 45 99 17 49 17 53 1 95 -10
24 -32 64 -50 89 -85 116 -99 124 -109 63 -4 -21 -13 -60 -20 -88 -8 -27 -21
-79 -30 -115 -43 -165 -111 -316 -253 -555 -45 -77 -87 -157 -93 -177 -16 -62
3 -164 56 -293 22 -54 130 -270 160 -320 13 -22 24 -46 25 -52 1 -33 -40 -1
-174 139 -112 116 -147 147 -152 134 -3 -9 -2 -29 4 -44 28 -72 78 -335 67
-353 -10 -15 -35 -10 -43 8 -12 30 -100 158 -122 178 -29 26 -52 10 -62 -41
-15 -75 -18 -84 -33 -84 -8 0 -18 12 -21 26 -9 36 2 390 16 492 6 45 8 87 4
93 -4 6 -16 1 -31 -13 -26 -24 -105 -140 -116 -170 -3 -10 -16 -18 -28 -18
-18 0 -20 4 -15 28 17 68 84 167 294 435 44 56 133 190 166 251 69 124 96 240
96 412 0 213 -30 335 -133 539 -50 101 -77 120 -77 58 0 -84 -54 -240 -121
-353 -23 -38 -44 -104 -59 -189 -9 -54 -36 -108 -48 -97 -3 4 -9 34 -13 68 -7
56 -21 82 -42 75 -5 -1 -31 -56 -59 -122 -81 -195 -89 -210 -100 -191 -7 12
-3 48 12 114 28 128 52 199 107 310 24 50 25 53 8 72 -9 10 -55 44 -101 75
-120 81 -125 98 -22 70 107 -29 108 -29 108 -11 0 9 -27 44 -59 78 -33 35 -57
66 -55 70 15 23 81 -10 154 -76 69 -63 68 -63 86 -20 27 63 17 225 -23 379
-23 89 -73 234 -98 285 -24 48 -145 174 -361 377 -408 383 -613 630 -745 899
-36 74 -56 104 -68 104 -13 0 -32 -27 -62 -87 -24 -48 -54 -102 -66 -121 -13
-18 -23 -35 -23 -38 0 -13 -168 -255 -208 -299 -25 -27 -174 -180 -332 -340
-287 -291 -394 -407 -461 -500 -39 -54 -109 -195 -109 -221 0 -8 -4 -23 -10
-33 -14 -28 -40 -216 -40 -298 0 -42 6 -89 15 -109 l15 -36 28 21 c16 11 35
28 43 37 19 24 115 84 133 84 30 0 23 -17 -35 -78 -32 -35 -59 -70 -59 -79 0
-17 1 -17 108 12 104 28 98 10 -24 -72 -118 -78 -119 -80 -83 -160 61 -136
128 -365 116 -396 -14 -36 -28 -17 -73 100 -13 35 -28 71 -33 80 -5 10 -20 42
-32 71 -13 28 -26 52 -29 52 -20 -1 -33 -26 -39 -78 -4 -34 -10 -64 -13 -68
-11 -10 -37 40 -47 87 -16 80 -38 154 -59 194 -64 125 -83 169 -101 242 -12
45 -21 98 -21 118 0 58 -26 40 -74 -52 -24 -44 -46 -89 -49 -100 -3 -10 -16
-45 -27 -78 -78 -217 -82 -489 -10 -681 31 -84 126 -240 212 -351 210 -268
277 -367 294 -435 5 -23 3 -28 -12 -28 -13 0 -34 26 -63 75 -52 88 -107 146
-116 124 -3 -8 -1 -46 5 -84 13 -87 25 -462 16 -498 -14 -58 -46 -19 -58 72
-2 13 -11 29 -21 35 -15 9 -23 4 -52 -29 -19 -22 -53 -70 -76 -107 -39 -64
-60 -81 -74 -58 -10 16 27 216 62 343 26 91 7 92 -69 0 -84 -100 -217 -233
-234 -233 -21 0 -17 26 13 73 96 151 204 405 218 513 9 74 -5 113 -98 269 -85
143 -163 290 -177 335 -5 14 -18 50 -29 80 -25 64 -80 265 -91 328 -8 49 -12
55 -32 47 -18 -7 -76 -115 -95 -179 -12 -39 -12 -58 -3 -100 14 -61 108 -254
172 -352 66 -101 70 -111 54 -117 -8 -3 -23 -3 -34 0 -37 9 -35 -10 14 -168
16 -53 19 -109 5 -109 -5 0 -13 10 -16 23 -4 12 -20 49 -35 82 -15 33 -30 68
-33 78 -4 9 -14 17 -23 17 -15 0 -16 -17 -10 -187 7 -203 0 -247 -28 -178 -9
21 -19 56 -21 79 -39 307 -64 429 -126 636 -51 168 -63 200 -75 200 -12 0 -56
-66 -84 -125 -57 -122 -80 -231 -80 -377 0 -142 17 -215 86 -365 13 -28 24
-57 24 -63 0 -41 -89 68 -141 172 -19 37 -38 66 -44 64 -24 -7 -2 -380 31
-536 19 -85 77 -272 106 -340 11 -25 26 -64 33 -87 12 -40 12 -42 -5 -33 -16
8 -34 32 -67 85 -7 11 -31 57 -54 102 -53 106 -69 108 -69 11 0 -175 -41 -512
-64 -536 -8 -7 -7 -57 -11 528 -5 547 -9 623 -37 628 -16 3 -31 -23 -90 -158
-77 -175 -140 -475 -154 -726 -3 -67 -10 -127 -15 -135 -13 -22 -28 2 -38 62
-17 98 -42 137 -56 87 -3 -13 -13 -41 -22 -63 -8 -22 -21 -56 -28 -75 -67
-181 -89 -230 -98 -221 -25 25 70 452 162 729 44 131 46 142 31 142 -9 0 -113
-105 -195 -198 -21 -23 -43 -41 -49 -39 -6 2 -11 21 -11 43 l0 39 -65 10 -65
10 25 23 c14 13 70 56 125 97 121 90 208 171 310 290 83 97 120 156 177 280
20 44 52 114 71 155 19 41 60 136 91 210 32 74 61 144 66 155 37 85 71 187 67
199 -5 13 -15 11 -64 -10 -86 -38 -195 -89 -421 -197 -37 -18 -41 -30 -83
-267 -12 -66 -37 -110 -50 -89 -5 8 -9 52 -10 99 -2 153 -18 176 -78 118 -43
-41 -126 -153 -177 -238 -22 -36 -45 -74 -52 -85 -6 -11 -16 -30 -22 -42 -17
-40 -33 -27 -28 20 5 38 72 193 110 252 39 60 151 186 222 247 45 39 85 80 90
90 15 31 4 37 -219 113 -157 54 -157 54 -150 66 12 19 146 3 393 -46 142 -29
266 -17 372 34 124 60 470 332 572 452 41 47 72 111 61 123 -11 10 -63 7 -116
-8 -63 -17 -277 -44 -407 -51 -224 -12 -428 -39 -555 -72 -66 -17 -425 -129
-465 -145 -32 -13 -173 -35 -188 -30 -22 7 -12 32 15 39 16 3 47 15 71 25 44
20 53 43 22 58 -118 55 -150 74 -150 91 0 17 5 18 43 12 77 -14 328 -7 413 12
146 33 267 73 292 98 19 20 13 27 -43 49 -274 109 -361 156 -453 247 -36 34
-52 58 -52 75 0 31 15 32 56 3 85 -61 234 -156 276 -176 75 -36 82 -17 26 67
-15 24 -28 50 -28 58 0 29 22 16 133 -78 35 -30 57 -36 57 -15 0 17 -113 185
-194 291 -103 133 -139 186 -133 193 4 3 34 -15 67 -41 50 -39 61 -45 66 -31
4 9 1 28 -5 43 -7 14 -16 44 -20 66 -5 23 -20 85 -35 140 -29 110 -35 191 -13
166 7 -8 21 -33 29 -55 9 -22 37 -89 62 -150 25 -60 46 -113 46 -117 0 -9 51
-122 123 -268 132 -271 248 -406 379 -438 153 -38 506 30 697 135 104 58 271
233 271 285 0 27 -227 254 -304 304 -56 37 -64 39 -135 39 -80 -1 -76 0 -206
-76 -83 -48 -208 -106 -247 -113 -31 -6 -38 -4 -38 9 0 9 8 19 17 22 27 10
184 130 200 153 18 26 14 27 -102 34 -230 12 -418 45 -416 71 1 6 56 12 133
15 104 4 133 8 133 19 0 7 -45 39 -101 70 -145 83 -212 129 -271 188 -57 56
-72 100 -30 87 12 -3 29 -13 38 -20 8 -8 19 -14 24 -14 5 0 16 -6 24 -14 16
-15 114 -66 125 -66 16 0 2 38 -33 91 -53 79 -84 146 -77 165 3 9 10 14 14 12
4 -2 43 -43 86 -93 128 -147 303 -305 382 -344 44 -22 64 -25 213 -29 193 -5
191 -6 180 85 -20 183 -125 400 -236 487 -55 44 -117 56 -325 63 -103 3 -192
9 -199 14 -6 4 -9 14 -6 23 5 12 22 16 79 17 104 2 191 12 195 24 1 6 -14 21
-35 35 -91 60 -189 150 -215 198 -27 49 -36 102 -18 102 5 0 51 -37 103 -81
114 -100 225 -179 250 -179 15 0 18 8 18 60 0 34 -6 89 -14 123 -8 34 -22 98
-31 142 -10 44 -24 103 -31 132 -18 65 -18 103 -1 103 22 0 80 -130 120 -270
42 -147 47 -169 47 -194 0 -15 9 -44 19 -64 21 -41 107 -142 122 -142 5 0 10
68 11 152 2 101 7 153 14 155 14 5 34 -120 34 -206 0 -129 10 -178 47 -221 19
-22 38 -40 43 -40 22 0 150 219 190 326 14 37 30 20 30 -33 0 -80 -27 -180
-102 -377 -12 -29 -6 -64 28 -181 8 -27 21 -72 29 -100 8 -27 28 -95 45 -151
16 -56 30 -109 30 -118 0 -9 24 -40 53 -69 107 -106 207 -197 218 -197 13 0
127 108 141 133 6 12 4 62 -6 150 -8 73 -22 204 -31 292 -9 88 -22 201 -29
250 l-13 90 -165 275 c-90 151 -168 282 -172 290 -4 8 -27 51 -52 95 -72 128
-212 418 -215 445 -2 14 0 27 3 30 4 3 46 -32 93 -77 47 -46 91 -83 98 -83 17
0 36 40 92 190 8 19 16 48 20 63 3 16 11 27 18 24 22 -8 7 -164 -38 -376 -15
-73 -15 -73 75 -211 27 -41 74 -117 105 -167 58 -96 86 -116 99 -70 19 73 -1
359 -40 555 -7 40 -14 86 -14 102 0 34 18 50 26 23 28 -87 66 -166 80 -163 5
1 22 36 37 78 15 42 35 95 43 117 25 63 28 94 12 133 -44 108 -61 203 -39 216
4 3 26 -29 48 -71 22 -42 44 -78 50 -80 7 -3 28 29 48 69 20 40 48 87 61 105
13 17 24 35 24 40 0 14 48 54 54 44 3 -5 -7 -40 -23 -77 -61 -144 -90 -222
-119 -309 -91 -284 -113 -404 -119 -660 -3 -158 -1 -209 15 -303 18 -101 32
-142 51 -142 15 0 165 157 209 219 30 41 26 96 -12 195 -25 67 -34 126 -18
126 7 0 40 -50 54 -82 4 -10 12 -18 18 -18 14 0 12 97 -5 215 -18 128 -20 288
-3 283 7 -3 23 -33 35 -69 12 -35 24 -68 25 -72 8 -21 37 9 58 61 13 31 38 87
57 125 47 96 65 89 55 -20 -6 -71 -11 -67 79 -63 31 1 60 -3 63 -9 4 -6 -22
-32 -56 -58 -121 -92 -178 -173 -178 -253 0 -14 -7 -79 -15 -145 -28 -211 -51
-272 -165 -446 -32 -48 -71 -116 -89 -153 -28 -60 -31 -75 -31 -162 0 -84 4
-104 32 -172 17 -42 47 -92 65 -111 29 -29 38 -33 69 -28 60 10 163 106 334
312 208 252 352 504 476 835 13 36 63 201 84 278 43 162 55 405 65 1382 5 398
11 640 17 648 7 8 44 12 118 12 74 0 111 -4 118 -12z"/>
</g>
</svg>
