<?xml version="1.0" standalone="no"?>
<!DOCTYPE svg PUBLIC "-//W3C//DTD SVG 20010904//EN"
 "http://www.w3.org/TR/2001/REC-SVG-20010904/DTD/svg10.dtd">
<svg version="1.0" xmlns="http://www.w3.org/2000/svg"
 width="600.000000pt" height="603.000000pt" viewBox="0 0 600.000000 603.000000"
 preserveAspectRatio="xMidYMid meet">
<metadata>
Created by potrace 1.10, written by Peter Selinger 2001-2011
</metadata>
<g transform="translate(0.000000,603.000000) scale(0.100000,-0.100000)"
fill="#000000" stroke="none">
<path d="M1222 5464 l3 -467 81 0 c45 0 86 3 93 7 8 5 11 91 11 297 0 228 3
289 13 289 14 0 397 -383 397 -397 0 -5 -85 -94 -190 -198 -104 -104 -190
-193 -190 -198 0 -13 111 -127 124 -127 6 0 97 86 201 190 105 105 198 190
208 190 10 0 20 -6 23 -14 3 -8 55 -63 115 -122 121 -119 122 -124 70 -194
-15 -19 -37 -55 -49 -80 -13 -25 -27 -52 -31 -60 -22 -39 -41 -93 -41 -116 0
-14 -7 -39 -16 -57 -24 -46 -24 -379 0 -425 9 -17 16 -43 16 -57 0 -15 7 -39
15 -53 8 -15 32 -66 55 -113 22 -47 49 -94 60 -104 11 -10 20 -23 20 -29 0
-14 169 -186 183 -186 5 0 26 -13 46 -28 20 -16 68 -43 106 -62 39 -18 82 -39
97 -47 14 -7 39 -13 55 -13 16 0 38 -6 49 -14 11 -8 43 -16 70 -18 l49 -3 0
-280 0 -280 -269 -3 c-183 -1 -274 -6 -283 -14 -10 -8 -13 -33 -11 -92 l3 -81
280 -5 280 -5 5 -330 5 -330 85 3 c52 2 87 7 92 15 4 7 8 152 8 323 0 275 2
313 16 318 9 3 132 6 274 6 200 0 260 3 268 13 7 8 10 47 9 93 l-2 79 -282 3
c-212 2 -282 5 -284 15 -2 6 -3 135 -1 285 l3 272 47 0 c26 1 58 7 72 15 14 8
37 14 52 15 25 0 78 19 118 41 8 4 38 20 65 34 28 14 64 33 80 42 42 22 245
228 245 247 0 9 7 19 15 22 8 4 15 12 15 19 0 7 7 18 15 25 8 7 15 20 15 30 0
10 7 23 15 30 8 7 15 22 15 33 0 11 6 28 13 36 15 19 44 111 51 161 3 19 10
74 17 122 10 74 10 99 -5 170 -9 46 -16 95 -16 109 0 14 -7 34 -15 45 -8 10
-15 30 -15 44 0 14 -7 34 -15 44 -8 11 -15 27 -15 37 0 9 -7 22 -15 29 -8 7
-15 19 -15 26 0 8 -20 44 -45 80 -25 37 -45 73 -43 80 3 16 788 804 800 804 4
0 9 -136 10 -302 l3 -303 83 0 c51 0 87 4 93 11 6 7 8 190 7 465 l-3 454 -469
0 -468 0 -2 -85 -1 -85 303 -3 c166 -1 302 -6 302 -10 0 -16 -796 -802 -812
-802 -9 0 -30 12 -45 26 -15 14 -37 30 -48 35 -11 5 -28 13 -37 19 -10 5 -26
15 -35 20 -10 6 -25 13 -33 16 -8 3 -28 12 -45 19 -103 44 -187 58 -345 59
-131 0 -223 -11 -262 -30 -15 -8 -38 -14 -51 -14 -14 0 -30 -7 -37 -15 -7 -8
-23 -15 -36 -15 -12 0 -25 -4 -29 -9 -3 -6 -27 -20 -53 -33 -26 -12 -63 -35
-83 -50 -20 -15 -44 -28 -52 -28 -17 0 -250 232 -255 253 -1 7 83 98 188 202
104 104 190 194 190 200 0 15 -110 125 -124 125 -7 0 -99 -88 -205 -195 -107
-107 -195 -195 -197 -195 -1 0 -95 92 -208 205 -114 115 -200 208 -193 210 6
3 147 6 312 7 l300 3 -4 80 c-2 44 -5 83 -8 88 -2 4 -215 7 -474 7 l-469 0 2
-466z m1940 -540 c15 -8 36 -14 47 -14 11 0 32 -7 48 -14 15 -8 35 -18 43 -21
8 -3 29 -14 45 -25 17 -11 37 -23 45 -27 38 -18 213 -208 233 -253 4 -8 11
-22 16 -30 79 -133 105 -410 51 -560 -47 -131 -47 -130 -70 -165 -11 -16 -23
-37 -27 -45 -17 -38 -195 -210 -217 -210 -3 0 -24 -13 -48 -28 -42 -28 -167
-72 -200 -72 -9 0 -20 -4 -23 -10 -10 -16 -219 -12 -293 6 -115 28 -196 62
-253 106 -20 15 -41 28 -47 28 -14 0 -167 162 -185 196 -42 78 -87 176 -87
189 0 8 -7 40 -15 72 -9 33 -15 101 -15 160 0 70 5 115 15 140 8 19 15 46 15
58 0 13 6 36 14 52 7 15 22 46 32 68 28 60 77 129 131 186 51 55 155 139 171
139 5 0 15 6 21 14 6 8 22 16 34 19 12 3 47 15 77 28 91 37 377 46 442 13z"/>
<path d="M800 3335 c-19 -7 -48 -14 -65 -14 -16 -1 -43 -8 -59 -16 -15 -8 -39
-15 -52 -15 -12 0 -26 -4 -29 -10 -3 -5 -26 -19 -52 -30 -67 -30 -160 -95
-226 -159 -57 -54 -136 -150 -150 -181 -4 -8 -16 -28 -27 -45 -11 -16 -22 -37
-26 -45 -3 -8 -9 -23 -14 -32 -18 -33 -50 -133 -50 -154 0 -12 -7 -38 -15 -57
-19 -45 -21 -291 -4 -334 7 -15 15 -48 19 -73 8 -46 26 -104 41 -130 5 -8 12
-22 15 -30 7 -18 43 -90 63 -127 17 -33 210 -233 236 -245 27 -12 54 -29 90
-54 17 -12 55 -31 85 -44 30 -12 66 -27 80 -32 14 -6 43 -14 65 -19 22 -4 63
-14 90 -21 l50 -14 3 -268 c2 -194 -1 -272 -9 -283 -10 -11 -60 -14 -277 -12
-153 0 -268 -3 -274 -9 -5 -5 -8 -44 -6 -88 l3 -79 280 -5 280 -5 2 -315 c2
-173 3 -321 3 -327 0 -10 26 -13 95 -13 69 0 95 3 95 13 0 6 1 154 3 327 l2
315 280 5 280 5 3 88 3 87 -280 0 -280 0 -6 43 c-3 23 -5 149 -3 280 l3 239
40 14 c22 7 60 16 85 19 42 6 73 17 143 51 16 8 34 14 42 14 7 0 18 7 25 15 7
8 20 15 30 15 9 0 30 13 46 30 16 16 36 30 44 30 28 0 240 229 240 259 0 6 4
11 9 11 5 0 19 21 31 48 12 26 28 59 36 74 8 14 14 35 14 45 0 10 5 24 11 30
20 20 42 147 46 273 5 129 -6 201 -48 330 -26 80 -93 208 -116 223 -7 4 -13
14 -13 21 0 20 -124 151 -189 199 -71 53 -80 59 -166 100 -90 44 -128 57 -191
67 -28 4 -61 13 -72 19 -30 16 -268 13 -312 -4z m315 -191 c33 -3 69 -12 80
-20 10 -8 29 -14 41 -14 12 0 27 -7 34 -15 7 -8 21 -15 31 -15 10 0 21 -5 24
-11 4 -5 17 -15 28 -20 12 -5 32 -16 44 -22 31 -19 173 -159 184 -182 16 -33
36 -66 48 -78 6 -6 11 -18 11 -27 0 -9 5 -21 11 -27 16 -16 49 -112 49 -142 0
-14 7 -50 16 -82 14 -48 14 -68 4 -130 -6 -41 -14 -98 -17 -127 -3 -33 -10
-55 -19 -59 -8 -3 -14 -18 -14 -33 0 -15 -7 -33 -15 -40 -8 -7 -15 -21 -15
-31 0 -10 -5 -21 -10 -24 -6 -4 -16 -21 -24 -38 -20 -48 -178 -210 -233 -240
-26 -14 -68 -35 -93 -47 -25 -12 -58 -28 -73 -36 -16 -8 -41 -14 -57 -14 -16
0 -55 -7 -87 -15 -65 -17 -186 -15 -220 3 -12 7 -35 12 -52 12 -38 0 -146 45
-216 90 -16 11 -37 23 -47 27 -47 22 -208 196 -208 226 0 8 -7 20 -15 27 -8 7
-15 16 -15 21 0 5 -13 38 -30 72 -16 35 -30 79 -30 98 0 19 -7 57 -16 84 -31
102 11 311 94 460 43 79 173 226 217 246 11 5 34 18 50 28 73 47 159 80 240
92 33 5 65 11 70 14 11 5 131 -1 230 -11z"/>
<path d="M4974 2717 c-3 -8 -4 -49 -2 -93 l3 -79 298 -3 c228 -2 297 -5 296
-15 -1 -6 -67 -75 -148 -152 -80 -77 -256 -253 -391 -391 -135 -138 -251 -252
-259 -253 -7 0 -30 12 -50 27 -20 16 -43 32 -51 35 -8 4 -31 17 -50 28 -50 30
-177 80 -230 90 -121 23 -161 28 -235 28 -44 1 -96 -4 -115 -10 -19 -5 -57
-14 -85 -19 -105 -17 -267 -94 -369 -175 -44 -34 -169 -161 -177 -180 -12 -26
-28 -52 -61 -96 -16 -20 -28 -46 -28 -57 0 -11 -7 -25 -15 -32 -8 -7 -15 -21
-15 -30 0 -10 -6 -31 -14 -47 -29 -59 -39 -123 -43 -286 -3 -115 -1 -179 7
-200 7 -18 16 -48 20 -67 34 -152 146 -332 276 -446 100 -87 150 -124 167
-124 9 0 18 -4 21 -9 9 -14 90 -51 113 -51 11 0 26 -7 33 -15 7 -8 27 -15 44
-15 17 -1 42 -7 56 -15 37 -21 343 -21 393 0 20 8 49 15 65 15 15 0 37 7 48
15 10 8 25 15 33 15 19 0 99 39 107 51 3 5 12 9 20 9 37 0 216 156 287 250 51
67 56 76 100 165 43 89 57 128 67 190 5 28 14 66 19 85 15 47 14 231 -1 267
-6 15 -14 51 -18 78 -9 58 -29 113 -71 199 -44 88 -53 104 -84 136 -15 15 -25
35 -23 44 3 17 787 806 800 806 4 0 9 -134 10 -297 l3 -298 90 0 90 0 0 465 0
465 -463 3 c-381 2 -463 0 -468 -11z m-705 -978 c48 -6 98 -17 113 -25 14 -8
37 -14 51 -14 13 0 30 -7 37 -15 7 -8 20 -15 30 -15 10 0 23 -7 30 -15 7 -8
17 -15 22 -15 6 0 27 -13 48 -30 21 -16 42 -30 47 -30 12 0 133 -129 144 -155
5 -11 18 -33 28 -50 70 -109 105 -242 103 -390 -1 -110 -34 -271 -60 -297 -7
-7 -12 -20 -12 -29 0 -9 -7 -22 -15 -29 -8 -7 -15 -17 -15 -22 0 -31 -154
-196 -230 -246 -71 -47 -173 -93 -230 -103 -161 -30 -190 -33 -262 -21 -139
23 -163 28 -183 38 -67 35 -88 44 -96 44 -36 0 -289 234 -289 268 0 5 -7 15
-15 22 -8 7 -15 20 -15 29 0 9 -5 22 -12 29 -17 17 -39 80 -48 138 -4 28 -13
61 -20 73 -23 45 1 285 36 353 8 14 14 33 14 42 0 37 101 184 177 257 43 42
85 79 93 82 8 4 29 16 45 27 17 11 37 23 45 26 8 3 29 12 45 19 17 7 47 20 68
29 21 9 54 16 75 17 20 0 55 4 77 8 58 12 79 12 174 0z"/>
</g>
</svg>
