<?xml version="1.0" standalone="no"?>
<!DOCTYPE svg PUBLIC "-//W3C//DTD SVG 20010904//EN"
 "http://www.w3.org/TR/2001/REC-SVG-20010904/DTD/svg10.dtd">
<svg version="1.0" xmlns="http://www.w3.org/2000/svg"
 width="900.000000pt" height="822.000000pt" viewBox="0 0 900.000000 822.000000"
 preserveAspectRatio="xMidYMid meet">
<metadata>
Created by potrace 1.10, written by Peter Selinger 2001-2011
</metadata>
<g transform="translate(0.000000,822.000000) scale(0.100000,-0.100000)"
fill="#000000" stroke="none">
<path d="M6710 7961 c-21 -4 -35 -12 -35 -21 0 -18 -54 -29 -153 -29 -77 -1
-115 -13 -107 -34 6 -13 -31 -32 -85 -42 -19 -4 -49 -16 -66 -26 -17 -10 -41
-19 -53 -19 -26 0 -58 -15 -86 -40 -11 -10 -33 -20 -50 -22 -21 -2 -31 -9 -33
-23 -3 -19 -58 -45 -96 -45 -8 0 -16 -10 -18 -22 -2 -14 -12 -24 -28 -28 -16
-4 -26 -14 -28 -29 -4 -23 -7 -25 -54 -35 -19 -4 -28 -13 -28 -26 0 -12 -10
-24 -24 -30 -14 -5 -26 -19 -28 -32 -2 -17 -11 -24 -33 -28 -21 -4 -31 -12
-33 -27 -2 -12 -14 -29 -27 -37 -14 -9 -22 -22 -19 -30 5 -14 -36 -46 -59 -46
-15 0 -27 -29 -27 -68 0 -14 -9 -27 -24 -33 -19 -9 -26 -22 -31 -61 -6 -38
-12 -52 -30 -60 -18 -8 -25 -22 -30 -62 -8 -57 -20 -77 -40 -70 -13 6 -17 -13
-30 -159 -5 -55 -10 -67 -23 -65 -25 5 -31 -52 -30 -317 0 -260 5 -302 29
-297 19 3 29 -41 29 -123 0 -66 9 -97 26 -91 18 7 30 -18 39 -82 5 -36 13 -57
26 -65 11 -7 24 -30 30 -52 6 -22 22 -50 35 -62 13 -12 24 -33 24 -46 0 -25
22 -52 33 -40 9 9 37 -17 37 -35 0 -8 7 -20 17 -27 9 -7 24 -32 33 -56 13 -34
25 -45 51 -54 23 -8 35 -19 37 -34 2 -13 14 -26 29 -32 14 -5 27 -18 30 -29 3
-12 14 -20 27 -20 26 0 46 -18 46 -41 0 -17 45 -39 81 -39 11 0 19 -9 21 -22
2 -17 12 -24 33 -28 22 -4 31 -11 33 -28 4 -26 8 -28 73 -37 34 -4 48 -11 52
-25 3 -13 19 -20 58 -27 45 -7 54 -12 60 -33 4 -14 8 -110 8 -215 1 -131 5
-198 14 -215 l13 -25 204 -5 c127 -3 205 -9 205 -15 0 -21 17 -35 41 -35 l24
0 0 -1322 c0 -728 -3 -1333 -6 -1344 -4 -15 -11 -20 -24 -17 -16 4 -19 -4 -25
-64 -9 -102 -15 -122 -35 -133 -10 -5 -21 -24 -25 -40 -4 -17 -17 -37 -29 -45
-13 -9 -28 -26 -34 -40 -6 -14 -20 -25 -30 -25 -10 0 -24 -11 -30 -25 -7 -15
-20 -25 -32 -25 -13 0 -24 -10 -30 -25 -6 -15 -17 -25 -29 -25 -23 0 -68 -18
-91 -36 -38 -29 -114 -34 -584 -34 -262 -1 -481 2 -486 5 -6 4 -10 79 -10 178
0 95 -3 182 -6 194 l-6 23 -2330 0 -2329 0 -15 -36 c-13 -31 -15 -106 -12
-509 2 -315 7 -478 14 -485 7 -7 723 -9 2345 -8 l2334 3 6 170 c3 94 6 171 7
173 1 1 224 2 495 2 469 0 608 7 632 31 5 5 19 9 31 9 13 0 26 5 29 10 3 6 17
10 31 10 16 0 27 7 33 22 6 17 21 25 62 33 45 8 55 14 57 33 2 15 14 27 32 34
18 6 30 18 32 31 2 15 11 23 28 25 31 4 86 56 94 88 4 15 19 29 40 38 23 10
35 22 40 42 3 16 17 52 30 79 14 28 29 62 35 78 6 16 18 27 30 27 12 0 21 10
26 27 5 16 10 668 12 1450 l4 1421 23 6 c13 3 26 15 29 26 5 20 12 21 218 20
173 -1 214 1 220 12 5 8 9 114 10 235 0 121 4 225 8 230 3 6 29 14 58 18 39 5
54 12 58 26 5 13 20 20 56 25 40 5 52 12 59 29 5 12 23 28 40 34 18 6 34 19
37 29 3 11 21 23 49 30 32 9 44 17 44 31 0 11 11 23 28 30 15 6 32 21 37 33 6
12 25 27 44 33 19 6 37 18 40 26 3 8 18 30 33 49 15 20 31 47 37 62 6 16 19
28 33 30 17 2 24 11 26 31 2 19 11 31 28 37 13 5 24 16 24 24 0 29 23 66 41
66 13 0 22 13 30 43 7 23 21 49 30 57 12 10 22 38 28 82 11 77 16 89 36 82 19
-8 31 24 40 102 4 32 15 75 23 94 13 29 17 85 20 308 2 180 0 289 -8 320 -6
26 -19 86 -30 134 -21 101 -25 110 -48 106 -13 -2 -19 8 -25 47 -5 28 -13 58
-18 67 -5 10 -9 25 -9 33 0 8 -7 15 -15 15 -14 0 -20 14 -27 65 -2 12 -11 20
-23 20 -15 0 -24 12 -35 47 -11 34 -21 49 -37 53 -18 4 -23 13 -23 35 0 25 -4
30 -24 30 -24 0 -51 22 -40 33 3 3 -6 13 -20 22 -14 10 -26 26 -26 36 0 20
-28 39 -59 39 -14 0 -21 6 -21 20 0 12 -10 25 -25 32 -14 6 -25 19 -25 29 0
11 -13 22 -35 29 -24 8 -35 18 -35 31 0 12 -9 21 -27 25 -49 10 -53 13 -53 33
0 20 -14 25 -90 33 -17 2 -26 10 -28 24 -3 21 -35 34 -84 34 -11 0 -31 9 -45
20 -14 11 -41 22 -62 25 -56 9 -81 23 -81 44 0 21 -25 31 -86 31 -23 0 -69 3
-103 6 -48 6 -61 10 -61 24 0 14 -14 18 -82 23 -101 8 -400 7 -448 -2z m420
-240 c53 -5 64 -9 62 -23 -2 -13 9 -17 65 -22 162 -15 188 -20 185 -38 -3 -17
20 -25 98 -30 28 -2 36 -8 38 -25 4 -24 19 -30 82 -35 28 -2 36 -8 38 -25 2
-16 13 -25 35 -31 21 -5 33 -15 35 -28 2 -15 16 -24 52 -33 37 -10 50 -18 52
-34 2 -14 14 -24 36 -29 23 -6 32 -14 32 -29 0 -13 10 -23 29 -30 15 -6 33
-21 39 -34 7 -14 16 -25 22 -25 11 0 40 -64 40 -91 0 -13 10 -20 35 -25 32 -6
40 -14 36 -38 -1 -5 7 -18 17 -30 11 -11 26 -39 33 -61 17 -51 27 -65 49 -65
19 0 20 -5 36 -123 3 -26 13 -51 21 -55 22 -13 34 -129 35 -342 1 -244 -8
-342 -33 -371 -10 -11 -21 -42 -24 -67 -13 -107 -15 -112 -36 -112 -14 0 -25
-12 -35 -37 -9 -21 -26 -60 -40 -87 -13 -28 -24 -56 -24 -63 0 -8 -16 -21 -35
-29 -19 -8 -35 -20 -35 -28 0 -7 -9 -21 -20 -31 -11 -10 -20 -24 -20 -32 0 -7
-11 -19 -25 -25 -14 -6 -25 -17 -25 -24 0 -8 -12 -22 -27 -31 -16 -10 -51 -41
-80 -70 -32 -32 -62 -53 -80 -55 -19 -2 -29 -10 -33 -27 -4 -18 -17 -27 -55
-39 -28 -9 -56 -24 -63 -34 -7 -10 -23 -18 -35 -18 -29 0 -49 -14 -45 -30 2
-7 -6 -14 -17 -16 -11 -2 -53 -9 -94 -17 -48 -8 -76 -18 -79 -27 -8 -24 -24
-30 -87 -30 -101 -1 -197 -17 -207 -34 -13 -23 -209 -23 -232 0 -9 8 -30 17
-48 20 -33 5 -237 23 -270 25 -11 0 -18 8 -18 19 0 21 -18 28 -85 32 -32 2
-41 7 -43 25 -3 22 -8 24 -94 38 -24 4 -39 12 -43 24 -3 12 -22 23 -50 30 -25
6 -45 17 -45 25 0 15 -41 36 -71 36 -11 0 -23 10 -29 24 -5 14 -19 26 -32 28
-17 2 -24 11 -28 33 -4 24 -11 31 -33 33 -19 2 -29 10 -33 28 -4 14 -17 29
-30 34 -15 6 -24 19 -26 37 -2 21 -9 29 -28 31 -18 3 -34 19 -58 60 -18 31
-36 70 -39 85 -3 17 -15 32 -27 37 -31 11 -43 29 -51 75 -4 22 -16 56 -25 75
-10 19 -21 55 -25 80 -11 77 -25 111 -43 108 -23 -4 -30 55 -31 262 -1 208 6
270 29 270 18 0 33 39 45 120 4 25 12 51 18 59 13 15 13 16 28 94 10 52 15 61
43 72 25 11 34 23 45 62 8 26 22 54 32 61 10 7 19 22 21 35 2 16 11 23 30 25
21 2 30 10 34 30 9 33 73 102 96 102 10 0 18 9 20 22 2 17 11 24 33 28 24 4
31 11 33 32 3 22 9 27 35 30 24 2 33 9 37 28 5 21 14 27 53 34 36 6 47 12 47
27 0 12 9 20 28 24 54 11 77 21 77 32 0 19 8 22 88 34 63 9 77 15 77 29 0 23
19 30 83 31 85 1 132 12 129 31 -2 14 8 18 55 21 98 6 304 5 373 -2z"/>
<path d="M6867 7534 c-3 -3 -3 -12 -1 -18 3 -8 -8 -17 -28 -22 -22 -7 -34 -17
-38 -34 -4 -15 -13 -25 -24 -25 -25 0 -34 -23 -28 -72 4 -38 7 -43 29 -43 15
0 36 -12 53 -30 24 -25 35 -30 77 -30 40 0 53 5 71 25 12 14 35 28 51 31 25 5
30 12 36 50 3 25 2 52 -5 63 -5 11 -9 26 -8 33 2 6 -4 12 -12 13 -36 1 -90 30
-90 47 0 14 -8 18 -38 18 -21 0 -41 -3 -45 -6z"/>
<path d="M6135 7215 c-21 -22 -35 -45 -35 -60 0 -18 -5 -25 -20 -25 -16 0 -20
-7 -20 -30 0 -23 5 -30 19 -30 12 0 23 -11 30 -30 5 -16 16 -30 24 -30 8 0 26
-11 41 -25 40 -37 60 -30 167 54 28 22 30 28 27 79 -3 51 -5 56 -35 70 -18 9
-35 23 -38 33 -6 19 -34 29 -87 29 -29 0 -45 -7 -73 -35z"/>
<path d="M7676 7203 c-34 -5 -78 -32 -71 -43 3 -4 -2 -13 -10 -20 -9 -8 -15
-30 -15 -55 0 -53 8 -75 26 -75 8 0 19 -11 25 -24 9 -18 21 -25 58 -29 68 -9
125 4 130 28 2 11 14 33 27 48 30 36 32 83 4 92 -12 4 -20 15 -20 29 0 13 -6
28 -12 34 -16 12 -102 21 -142 15z"/>
<path d="M6811 6718 c-54 -8 -75 -14 -78 -27 -2 -9 -24 -25 -49 -36 -33 -15
-50 -29 -60 -54 -10 -23 -19 -31 -29 -27 -19 7 -30 -19 -42 -99 -6 -49 -11
-59 -25 -57 -16 2 -18 -6 -18 -57 0 -33 5 -63 10 -66 6 -3 10 -1 10 5 0 29 18
-5 24 -44 9 -56 -1 -96 -23 -96 -9 0 -22 -13 -28 -30 -7 -20 -18 -30 -32 -30
-11 0 -25 -9 -31 -19 -5 -11 -18 -22 -28 -26 -11 -3 -24 -17 -30 -30 -6 -14
-17 -25 -25 -25 -7 0 -37 -25 -67 -55 -30 -30 -67 -59 -82 -66 -16 -6 -28 -16
-28 -21 0 -16 -87 -98 -104 -98 -17 0 -22 -15 -32 -93 -5 -44 -10 -57 -21 -53
-15 6 -37 -39 -29 -61 10 -26 226 -14 226 13 0 8 17 22 39 33 21 11 41 27 45
36 3 9 19 21 35 26 16 6 31 19 34 30 3 11 15 23 27 26 11 3 27 18 35 34 8 15
25 29 37 31 14 2 24 12 28 28 3 14 15 26 28 30 13 3 28 16 35 30 8 15 20 24
30 22 11 -2 21 7 27 24 6 14 19 28 31 31 11 3 27 19 35 36 l16 30 66 -9 c173
-21 349 -2 365 41 4 8 14 15 22 15 25 0 95 61 95 82 0 30 19 58 34 52 25 -10
39 37 44 141 5 116 -13 201 -43 198 -10 -1 -22 11 -31 32 -8 19 -20 38 -27 42
-8 4 -19 18 -26 31 -7 12 -21 22 -33 22 -12 0 -31 11 -43 25 -17 22 -32 27
-105 35 -96 11 -107 11 -209 -2z"/>
<path d="M5870 6570 c-8 -5 -24 -10 -35 -10 -11 0 -33 -10 -49 -23 -25 -20
-29 -31 -33 -93 l-5 -69 40 -32 c43 -34 74 -40 155 -27 35 6 39 11 49 50 8 30
17 43 28 41 10 -1 16 8 18 31 3 26 0 32 -17 32 -14 0 -21 9 -26 33 -8 37 -23
59 -36 51 -5 -2 -22 2 -38 11 -35 18 -32 17 -51 5z"/>
<path d="M7942 6445 c-12 -14 -29 -25 -37 -25 -19 0 -27 -33 -23 -100 2 -41 8
-55 23 -64 11 -5 33 -19 49 -30 43 -28 75 -28 109 0 16 13 37 24 48 24 25 0
39 36 39 99 0 51 -9 64 -51 75 -15 3 -29 15 -32 26 -4 17 -13 20 -54 20 -40 0
-53 -5 -71 -25z"/>
<path d="M7640 5785 c-7 -8 -20 -15 -30 -15 -24 0 -30 -20 -30 -102 0 -62 2
-70 21 -75 11 -3 25 -17 30 -30 8 -22 13 -24 71 -21 57 3 63 5 66 26 2 15 10
22 27 22 28 0 35 16 35 80 0 68 -14 100 -44 100 -13 0 -26 7 -30 15 -4 11 -20
15 -54 15 -32 0 -54 -5 -62 -15z"/>
<path d="M6852 5532 c-49 -33 -59 -187 -15 -224 16 -13 122 -17 182 -7 43 7
50 23 50 114 0 85 -8 107 -40 112 -64 10 -165 13 -177 5z"/>
<path d="M3352 5468 c-9 -9 -12 -139 -12 -547 0 -295 4 -541 8 -548 4 -7 28
-23 53 -36 25 -13 54 -29 64 -35 11 -6 41 -16 68 -24 29 -7 49 -19 53 -30 3
-12 15 -18 34 -18 16 0 32 -4 35 -10 3 -5 17 -10 31 -10 14 0 24 -6 24 -14 0
-16 13 -21 75 -32 22 -4 52 -17 68 -30 15 -12 48 -26 73 -30 25 -3 48 -13 51
-21 7 -17 55 -38 110 -46 54 -9 63 6 63 106 0 41 3 88 6 106 l6 31 311 2 311
3 8 33 c6 22 14 32 28 32 14 0 21 9 25 38 12 74 15 81 37 84 19 2 24 12 31 57
5 37 15 62 31 78 14 14 28 39 31 56 4 18 14 40 23 50 15 17 15 20 -8 38 -14
10 -33 19 -43 19 -11 0 -21 8 -24 19 -4 14 -19 20 -66 27 -54 8 -62 12 -65 32
-4 26 -8 28 -73 37 -34 4 -48 11 -52 24 -3 14 -18 20 -58 26 -76 9 -91 15 -85
31 7 18 -17 30 -75 38 -34 5 -48 12 -52 26 -4 14 -18 20 -62 25 -46 6 -58 12
-65 30 -7 17 -20 25 -52 30 -87 13 -100 17 -105 36 -6 20 -15 24 -80 34 -33 5
-42 11 -45 28 -3 19 -12 23 -57 29 -38 4 -59 12 -70 27 -11 15 -36 25 -79 32
-48 9 -62 15 -62 29 0 13 -11 19 -42 24 -24 4 -51 7 -60 7 -10 0 -22 8 -27 18
-6 10 -33 23 -66 31 -44 11 -57 18 -61 37 -5 18 -13 23 -39 23 -18 0 -39 2
-47 5 -7 3 -19 0 -26 -7z"/>
<path d="M1013 4453 c-14 -2 -23 -12 -23 -23 0 -10 -9 -22 -21 -25 -47 -15
-54 -124 -11 -191 21 -33 35 -45 62 -50 19 -4 44 -17 55 -31 13 -16 34 -26 63
-30 34 -5 46 -11 53 -29 5 -14 17 -24 28 -24 10 0 24 -7 31 -15 7 -8 21 -15
32 -15 10 0 21 -7 24 -15 4 -8 16 -15 29 -15 13 0 26 -7 29 -16 3 -9 6 -415 6
-904 0 -489 3 -895 6 -904 3 -9 15 -16 25 -16 11 0 23 -10 29 -24 5 -13 19
-31 30 -39 12 -9 19 -20 16 -25 -9 -15 15 -29 63 -35 25 -3 48 -12 53 -21 12
-21 91 -21 122 -1 13 9 43 19 67 23 35 6 45 12 47 30 2 14 10 22 23 22 20 0
23 4 33 53 4 18 13 27 26 27 11 0 21 1 22 3 1 1 4 160 7 352 l6 350 23 3 c12
2 24 -2 26 -10 15 -58 32 -95 47 -106 10 -7 19 -22 21 -35 2 -12 13 -26 26
-32 12 -5 22 -17 22 -26 0 -9 7 -22 15 -29 8 -7 15 -19 15 -26 0 -7 11 -21 25
-30 14 -9 25 -25 25 -35 0 -11 4 -27 9 -37 5 -9 12 -25 15 -34 3 -10 15 -18
26 -18 13 0 20 -7 20 -20 0 -21 36 -97 51 -106 5 -3 9 -16 9 -29 0 -22 24 -40
40 -30 12 7 27 -22 35 -69 5 -24 14 -40 25 -43 10 -3 20 -18 24 -33 4 -22 12
-29 33 -32 19 -2 29 -10 33 -28 7 -31 43 -39 162 -40 109 -1 168 13 168 40 0
15 7 20 25 20 26 0 29 4 39 51 3 15 15 29 26 32 18 5 20 13 20 95 0 98 -5 122
-25 122 -15 0 -20 14 -30 78 -6 36 -10 42 -31 42 -24 0 -45 26 -37 47 2 7 -5
18 -16 25 -12 7 -21 20 -21 28 0 9 -4 20 -9 26 -5 5 -11 20 -13 34 -2 19 -10
26 -33 30 -25 4 -31 12 -45 56 -8 28 -23 58 -32 68 -10 10 -18 26 -18 37 0 13
-9 21 -28 25 -25 5 -31 13 -42 56 -8 32 -19 52 -30 55 -11 3 -22 23 -30 59
-10 41 -18 54 -32 54 -13 0 -18 8 -18 30 l0 30 498 0 499 0 16 -51 c15 -44 17
-108 17 -463 0 -316 3 -415 13 -424 6 -7 17 -39 22 -70 7 -38 15 -57 25 -58 8
-1 20 -2 27 -3 6 0 13 -13 15 -28 3 -26 8 -29 65 -38 34 -5 68 -16 75 -22 17
-18 84 -17 91 1 3 7 27 17 54 20 85 13 93 16 93 42 0 16 8 28 23 35 44 20 47
49 47 516 0 242 3 455 6 472 4 21 12 30 22 29 10 -2 18 7 22 22 3 14 18 31 33
38 l27 13 0 348 0 347 -30 22 c-16 12 -38 22 -49 22 -11 0 -26 8 -33 18 -16
21 -61 42 -92 42 -13 0 -31 9 -41 20 -10 11 -42 27 -72 36 -30 9 -57 24 -63
34 -7 13 -26 21 -61 26 -39 5 -53 12 -61 30 -8 17 -22 24 -61 29 -31 5 -66 18
-90 36 -22 16 -53 29 -68 29 -16 0 -40 11 -55 25 -15 14 -30 25 -33 25 -3 1
-26 5 -51 10 -25 5 -462 9 -972 10 -897 1 -928 1 -941 20 -7 10 -25 22 -40 25
-15 4 -30 11 -33 16 -3 5 -13 9 -23 9 -10 0 -24 7 -31 15 -7 8 -23 15 -36 15
-17 0 -27 8 -34 24 -5 14 -17 25 -27 25 -10 0 -40 2 -68 5 -27 2 -60 2 -72 -1z"/>
</g>
</svg>
