<?xml version="1.0" standalone="no"?>
<!DOCTYPE svg PUBLIC "-//W3C//DTD SVG 20010904//EN"
 "http://www.w3.org/TR/2001/REC-SVG-20010904/DTD/svg10.dtd">
<svg version="1.0" xmlns="http://www.w3.org/2000/svg"
 width="200.000000pt" height="217.000000pt" viewBox="0 0 200.000000 217.000000"
 preserveAspectRatio="xMidYMid meet">
<metadata>
Created by potrace 1.10, written by Peter Selinger 2001-2011
</metadata>
<g transform="translate(0.000000,217.000000) scale(0.050000,-0.050000)"
fill="#000000" stroke="none">
<path d="M1704 4216 c-13 -13 -24 -36 -24 -51 0 -14 -13 -31 -30 -38 -16 -6
-30 -19 -30 -28 0 -9 -22 -41 -50 -71 -108 -117 -27 -243 267 -414 333 -195
418 -200 504 -32 85 166 60 212 -181 338 -136 71 -247 147 -316 215 -121 120
-109 112 -140 81z m134 -156 c13 0 28 -13 35 -30 6 -16 19 -30 29 -30 9 0 69
-33 132 -73 63 -41 126 -74 139 -74 14 0 20 -9 13 -20 -8 -12 1 -15 21 -7 36
14 46 -16 13 -36 -29 -18 -109 -175 -103 -203 7 -42 -34 -50 -92 -18 l-55 31
60 -11 c59 -11 59 -10 -9 21 -38 17 -74 39 -80 47 -6 9 -42 33 -81 55 -38 21
-82 54 -97 74 -15 20 -40 32 -55 26 -15 -6 -25 -1 -23 11 3 12 -8 27 -23 32
-19 7 -23 2 -12 -17 9 -16 10 -22 2 -15 -9 8 -12 18 -9 22 4 5 -5 24 -20 42
-36 43 -14 133 33 133 19 0 46 -18 59 -40 14 -22 39 -40 55 -40 17 0 30 -7 30
-17 0 -16 140 -112 235 -161 35 -18 45 -18 45 2 1 18 7 17 21 -4 15 -22 17
-15 9 30 -5 33 -5 49 2 35 6 -14 21 -25 34 -25 15 0 14 8 -2 24 -14 14 -45 25
-69 25 -25 1 -45 14 -45 29 0 16 -13 33 -28 38 -17 6 -22 0 -14 -13 9 -15 2
-18 -22 -9 -33 12 -33 10 -6 -25 28 -36 27 -37 -4 -12 -19 15 -34 33 -33 40 5
40 -7 62 -43 73 -22 7 -40 25 -40 39 0 15 -15 25 -33 24 -21 -2 -34 14 -37 45
-3 42 -1 44 20 15 14 -18 35 -33 48 -33z m514 -310 c22 -89 -80 -270 -151
-270 -54 0 -63 47 -29 146 53 156 154 226 180 124z"/>
<path d="M2295 3738 c-67 -39 -129 -218 -75 -218 29 0 82 90 100 170 9 38 14
70 13 69 -2 0 -19 -9 -38 -21z"/>
<path d="M2834 4074 c-40 -79 -130 -252 -199 -384 -69 -132 -174 -361 -235
-509 -156 -380 -203 -472 -245 -468 -19 1 -30 -5 -25 -14 14 -21 -66 -100
-579 -574 -32 -30 -67 -53 -76 -50 -10 4 -12 -3 -5 -15 7 -11 5 -20 -5 -20 -9
0 -68 -50 -130 -112 -69 -67 -123 -105 -137 -96 -15 9 -19 6 -10 -9 18 -30
-28 -30 -272 1 -430 53 -737 -74 -871 -361 -137 -294 86 -623 422 -623 240 0
307 44 622 401 115 131 320 351 455 490 135 139 249 263 253 276 10 38 -492
-479 -716 -737 -339 -391 -541 -490 -768 -379 -131 63 -183 123 -192 219 -1
11 -10 7 -20 -8 -13 -22 -25 -11 -49 45 -32 77 -38 219 -9 201 9 -5 12 3 6 19
-7 15 8 63 31 106 l43 77 -12 -70 c-10 -57 -9 -63 10 -34 12 20 17 59 11 85
-12 44 -8 47 36 30 44 -17 48 -14 44 40 -3 47 4 59 36 59 61 0 214 81 199 105
-9 14 -1 17 19 9 18 -7 38 -4 45 7 6 11 114 18 245 16 188 -3 214 -6 134 -18
-87 -13 -80 -15 60 -12 125 2 159 -3 154 -24 -6 -28 139 49 153 81 3 9 16 16
27 16 11 0 67 47 125 105 214 215 618 585 639 585 36 0 37 -123 2 -184 -30
-51 -29 -32 2 44 22 55 -28 31 -89 -42 -38 -47 -68 -67 -84 -57 -17 10 -20 7
-10 -10 17 -27 -164 -226 -190 -210 -8 5 -27 -7 -42 -25 -18 -23 -19 -29 -2
-19 51 31 23 -21 -51 -93 -42 -41 -83 -68 -92 -59 -8 8 -12 1 -9 -15 4 -17 -5
-28 -19 -25 -15 4 -22 -2 -16 -12 11 -17 -59 -93 -85 -93 -7 0 -10 -12 -6 -28
4 -18 -5 -23 -27 -15 -17 7 -27 4 -21 -6 11 -17 -64 -103 -399 -458 -77 -81
-138 -156 -135 -165 2 -9 -7 -12 -22 -6 -15 5 -38 -4 -52 -21 -41 -50 -230
-96 -324 -80 -101 16 -90 -17 16 -52 200 -66 382 37 673 381 79 94 312 344
519 557 223 230 370 396 362 410 -7 12 -6 16 3 8 9 -8 28 -5 43 8 66 54 17
-17 -86 -124 -62 -66 -104 -119 -94 -119 11 0 50 31 87 70 94 97 93 85 -16
-172 -54 -125 -116 -282 -139 -348 -23 -66 -96 -257 -163 -423 -248 -623 -264
-864 -65 -1031 390 -328 900 91 794 654 -13 72 -88 213 -202 383 -115 171
-115 176 114 859 l206 618 132 140 c72 77 188 212 257 300 69 88 165 210 213
270 49 61 150 188 226 284 76 96 143 170 150 165 7 -5 9 -3 3 4 -5 7 2 27 15
44 32 40 -90 -45 -124 -86 -21 -25 -33 -27 -59 -7 -28 21 -28 20 1 -12 31 -34
23 -48 -130 -242 -90 -113 -214 -272 -277 -353 -122 -156 -395 -456 -396 -434
-1 37 88 292 112 319 15 17 24 36 18 41 -6 6 45 167 112 359 214 611 263 773
241 786 -9 5 -48 -55 -89 -134z m-23 -197 c-29 -81 -58 -160 -65 -177 -6 -16
-15 -48 -20 -70 -4 -21 -16 -48 -28 -60 -14 -14 -16 -7 -7 20 10 31 8 34 -8
11 -14 -20 -14 -38 -1 -53 13 -16 10 -33 -10 -54 -17 -16 -26 -33 -21 -38 18
-19 -135 -436 -156 -423 -12 7 -15 4 -8 -8 7 -12 -9 -92 -35 -178 -27 -86 -55
-193 -63 -237 -11 -64 -17 -72 -29 -40 -8 22 -5 60 5 84 45 99 -39 145 -98 54
-34 -52 -5 -108 55 -108 8 0 -15 -74 -50 -165 -36 -91 -95 -259 -131 -375 -36
-115 -101 -306 -145 -424 -58 -156 -74 -223 -60 -248 15 -27 25 -14 53 70 41
124 58 128 25 7 -28 -108 2 -233 87 -356 51 -75 55 -89 28 -104 -29 -16 -28
-31 10 -141 66 -198 42 -355 -90 -574 -75 -125 -83 -147 -42 -113 15 13 34 16
43 8 9 -8 11 -5 4 7 -7 13 6 40 29 60 142 129 193 425 107 620 -57 129 -57
128 -30 128 45 0 126 -210 134 -350 9 -149 -49 -366 -95 -355 -12 4 -16 -4 -9
-16 16 -26 -48 -103 -72 -87 -10 5 -13 -2 -8 -16 12 -31 -98 -109 -192 -137
-73 -21 -258 9 -258 43 0 10 -19 18 -43 18 -42 0 -177 124 -177 164 0 11 19
-1 41 -27 l41 -47 -22 46 c-13 26 -33 50 -46 55 -16 7 -22 59 -19 164 6 207 9
225 30 225 10 0 12 19 4 43 -9 30 -6 38 11 27 17 -11 21 -3 11 25 -7 24 -1 52
15 68 15 15 23 40 18 55 -6 17 0 22 13 14 14 -9 18 -3 11 15 -6 16 -1 35 11
42 12 8 16 22 10 32 -6 11 -2 19 9 19 11 0 16 14 9 30 -6 17 -2 30 10 30 12 0
16 15 9 33 -8 20 -5 29 7 21 21 -12 88 106 86 152 0 13 -13 -3 -28 -36 -34
-74 -39 -58 -9 27 12 35 29 59 37 54 23 -15 62 84 47 122 -8 21 -5 29 9 20 13
-8 18 1 11 25 -5 20 0 44 12 51 12 7 22 37 22 66 0 28 6 46 13 39 26 -26 64
57 52 114 -8 41 -4 54 12 44 15 -9 23 3 23 35 0 28 12 62 27 77 14 14 22 38
18 51 -5 14 2 25 15 25 12 0 17 8 11 19 -11 17 44 180 68 201 6 6 13 24 16 40
20 105 73 182 119 171 25 -7 46 -3 46 9 0 11 -18 20 -40 20 -22 0 -40 2 -40 5
0 24 106 288 151 375 31 61 58 120 60 131 7 37 269 635 311 709 21 39 72 135
112 215 91 180 105 173 37 -18z m-482 -1476 c-18 -58 -36 -101 -41 -95 -6 5 5
56 23 113 44 134 58 119 18 -18z m-129 -391 c-46 -139 -87 -249 -91 -246 -4 4
30 122 75 262 44 141 85 251 91 246 5 -5 -29 -123 -75 -262z"/>
<path d="M1843 1453 c-12 -49 -28 -103 -35 -120 -7 -18 -3 -33 9 -33 24 0 36
37 53 155 15 110 1 109 -27 -2z"/>
<path d="M1764 1095 c-22 -36 -46 -87 -55 -115 -8 -27 -29 -62 -47 -76 -18
-15 -21 -21 -7 -14 28 14 30 -2 5 -60 -17 -40 -17 -40 -19 0 -8 136 -53 -133
-52 -308 2 -205 2 -206 65 -263 38 -33 54 -60 40 -65 -13 -4 1 -8 32 -9 32 0
67 -10 78 -21 62 -62 228 91 298 273 111 289 -34 723 -241 723 -44 0 -67 -16
-97 -65z m216 -48 c286 -325 72 -1006 -254 -808 -127 78 -139 260 -36 581 106
334 159 376 290 227z"/>
<path d="M1533 558 c-7 -35 -12 -87 -11 -115 l1 -53 15 50 c30 99 41 180 24
180 -9 0 -23 -28 -29 -62z"/>
<path d="M3210 3680 c-7 -12 -21 -15 -32 -9 -10 7 -17 4 -13 -5 3 -9 -76 -90
-175 -179 -241 -218 -392 -374 -397 -412 -3 -17 -15 -43 -26 -58 -146 -181 40
-65 211 133 29 32 126 140 217 240 90 99 164 187 165 196 0 9 25 38 55 64 30
27 44 49 31 49 -13 1 -29 -8 -36 -19z m-322 -357 c-76 -76 -174 -167 -218
-203 -44 -37 15 29 130 145 116 116 214 207 218 203 5 -5 -53 -70 -130 -145z"/>
<path d="M3251 3167 c-69 -73 -154 -237 -140 -271 6 -14 99 -66 205 -116 138
-64 224 -120 297 -192 102 -100 103 -101 149 -66 26 19 54 30 63 25 9 -6 14
-3 11 7 -9 25 128 206 147 194 68 -42 -9 67 -131 185 -250 241 -501 339 -601
234z m136 -16 c38 12 241 -100 265 -147 13 -26 28 -36 40 -25 11 11 40 -1 73
-29 51 -45 52 -48 15 -60 -52 -17 -204 50 -191 83 5 14 1 31 -10 38 -10 6 -19
1 -19 -12 0 -13 -14 -18 -32 -11 -24 9 -29 4 -20 -21 11 -28 8 -29 -20 -6 -20
17 -24 30 -10 35 33 11 27 44 -8 44 -16 0 -30 -10 -30 -21 0 -12 -10 -15 -22
-8 -16 10 -15 18 2 29 27 17 11 60 -22 60 -11 0 -15 -9 -8 -20 7 -11 -3 -20
-21 -20 -29 0 -30 5 -6 34 23 29 23 32 -6 21 -20 -7 -38 -1 -44 14 -13 35 9
57 33 33 10 -10 29 -15 41 -11z m37 -201 c66 -49 131 -90 144 -90 22 0 53 -20
199 -130 29 -22 53 -56 53 -75 0 -63 -56 -61 -134 3 -82 68 -127 82 -83 27 24
-32 24 -32 -8 -8 -19 15 -30 35 -24 45 6 9 -35 42 -92 73 -231 125 -277 160
-265 204 17 64 79 50 210 -49z"/>
<path d="M630 1658 c-77 -9 -151 -13 -165 -8 -14 5 -25 -1 -25 -13 0 -12 -15
-16 -34 -8 -19 7 -29 7 -21 -1 8 -7 -14 -28 -49 -46 -112 -57 -174 -254 -115
-365 16 -29 15 -48 -5 -73 -23 -30 -22 -31 5 -10 40 31 94 -42 61 -82 -16 -19
12 -23 124 -20 166 6 236 13 224 25 -5 4 43 42 106 82 116 76 270 220 358 335
129 168 -41 235 -464 184z m425 -41 c84 -26 82 -52 -12 -170 -144 -179 -404
-371 -536 -396 -268 -51 -385 411 -132 521 154 67 526 91 680 45z"/>
</g>
</svg>
