<?xml version="1.0" standalone="no"?>
<!DOCTYPE svg PUBLIC "-//W3C//DTD SVG 20010904//EN"
 "http://www.w3.org/TR/2001/REC-SVG-20010904/DTD/svg10.dtd">
<svg version="1.0" xmlns="http://www.w3.org/2000/svg"
 width="300.000000pt" height="247.000000pt" viewBox="0 0 300.000000 247.000000"
 preserveAspectRatio="xMidYMid meet">
<metadata>
Created by potrace 1.10, written by Peter Selinger 2001-2011
</metadata>
<g transform="translate(0.000000,247.000000) scale(0.100000,-0.100000)"
fill="#fff" stroke="#fff">
<path d="M2448 2453 c-9 -10 -46 -58 -82 -107 -37 -49 -77 -97 -89 -106 -46
-37 -65 -57 -105 -111 -43 -59 -130 -128 -247 -196 -178 -102 -488 -253 -605
-293 -19 -7 -44 -16 -55 -20 -52 -21 -167 -61 -235 -81 -110 -32 -124 -48
-219 -249 -4 -8 -15 -49 -25 -90 -10 -41 -22 -89 -27 -106 -5 -17 -9 -49 -9
-71 0 -38 5 -45 81 -114 83 -77 104 -92 129 -96 25 -3 219 65 276 97 44 26 60
30 91 24 55 -10 225 -72 241 -88 14 -13 23 -74 42 -266 12 -127 20 -183 50
-345 18 -97 23 -113 50 -137 26 -24 39 -28 90 -28 32 0 62 5 65 10 3 5 19 10
36 10 16 0 29 5 29 10 0 6 9 10 20 10 14 0 27 -16 45 -55 l26 -55 154 0 c148
0 154 1 169 22 40 57 2 111 -97 139 -26 7 -58 24 -70 37 -22 23 -22 29 -24
346 -2 321 4 395 35 452 6 11 42 60 81 109 61 77 82 111 121 195 4 9 11 34 15
57 3 23 19 61 34 85 36 57 187 215 222 234 17 8 57 14 102 14 42 0 90 6 109
14 37 16 108 83 108 102 0 7 5 14 11 16 6 2 9 21 7 43 l-3 40 -24 -45 c-62
-119 -92 -135 -263 -141 l-67 -2 -80 -81 c-142 -143 -159 -168 -191 -276 -30
-101 -49 -136 -127 -232 -83 -104 -99 -131 -113 -192 -15 -66 -14 -697 0 -742
9 -27 20 -36 58 -49 113 -40 135 -51 143 -72 7 -19 3 -26 -18 -40 -37 -24
-227 -26 -262 -3 -35 24 -80 178 -86 298 -3 52 -7 107 -10 121 -2 14 -7 46
-10 71 -31 228 -47 286 -77 296 -26 8 -38 -10 -38 -56 0 -47 -22 -126 -53
-194 -14 -30 -24 -63 -22 -73 2 -10 11 -59 20 -110 19 -104 40 -133 132 -185
32 -18 50 -34 47 -43 -14 -36 -192 -65 -227 -37 -8 7 -18 32 -22 55 -3 23 -13
76 -20 117 -8 41 -17 98 -21 125 -3 28 -8 58 -10 68 -4 23 -13 113 -19 190 -6
82 -21 197 -28 203 -2 2 -61 24 -133 50 -157 56 -198 59 -243 22 -18 -16 -58
-35 -89 -44 -31 -9 -85 -28 -120 -41 l-63 -25 -47 49 c-27 28 -67 63 -91 79
l-43 28 6 51 c17 127 73 287 137 386 32 51 37 54 117 75 194 52 620 234 842
361 19 11 60 34 90 51 95 54 194 135 230 189 19 28 58 70 87 92 34 27 76 78
125 151 l73 110 5 -35 5 -35 43 40 43 40 -59 0 c-44 0 -63 -5 -74 -17z m-545
-1890 c3 -16 8 -44 11 -63 11 -62 24 -232 19 -251 -7 -26 -15 -24 -62 18 -37
33 -45 48 -62 117 -24 100 -24 114 5 180 13 29 27 68 31 85 4 17 14 39 23 48
16 16 17 13 24 -45 4 -34 9 -74 11 -89z"/>
<path d="M2589 2428 c-1 -65 -8 -97 -31 -141 -18 -35 -18 -42 -5 -51 8 -6 44
-32 80 -58 65 -46 87 -82 87 -140 0 -17 19 -26 168 -73 45 -15 89 -33 97 -42
13 -13 15 -12 15 11 0 19 -8 29 -32 40 -55 24 -156 55 -162 49 -9 -9 -66 55
-66 73 0 31 -34 74 -92 115 -32 24 -58 46 -58 50 0 4 5 20 11 36 16 38 19 69
12 126 -6 59 -23 62 -24 5z"/>
<path d="M516 2266 c-51 -19 -101 -60 -156 -128 -46 -57 -105 -164 -114 -209
-3 -13 -10 -41 -15 -62 -11 -45 2 -163 25 -221 19 -49 91 -159 138 -210 20
-21 36 -42 36 -46 0 -4 -18 -29 -39 -55 -61 -74 -92 -139 -98 -204 -7 -78 13
-101 89 -102 240 -3 279 5 291 53 36 151 81 282 128 376 11 20 19 42 19 48 0
18 -48 49 -106 68 -57 19 -127 73 -149 117 -24 46 -30 138 -12 182 9 20 22 37
29 38 66 6 150 -24 303 -105 183 -98 343 -139 399 -103 59 39 42 108 -55 211
-125 134 -278 253 -405 317 -74 37 -91 41 -175 45 -67 3 -105 0 -133 -10z
m237 -40 c179 -63 537 -375 537 -469 0 -30 -11 -35 -67 -32 -84 5 -151 28
-318 110 -197 97 -255 117 -316 113 -40 -3 -46 -7 -63 -41 -25 -52 -25 -160 1
-218 37 -83 125 -146 230 -164 l43 -7 -34 -61 c-42 -76 -88 -205 -111 -312
l-17 -80 -160 0 -160 -1 5 53 c6 59 34 123 75 169 15 17 42 48 59 69 l33 38
-34 31 c-57 52 -128 147 -159 215 -74 158 -32 345 113 505 73 78 133 106 224
102 39 -2 92 -11 119 -20z"/>
<path d="M370 1003 c-154 -50 -268 -138 -333 -254 -34 -61 -37 -71 -36 -145
l1 -79 9 55 c31 188 200 356 394 391 229 42 466 -100 546 -327 27 -76 29 -225
4 -299 -62 -183 -221 -315 -405 -335 -64 -7 -63 -7 34 -9 l99 -1 71 44 c165
104 237 227 253 435 5 62 0 88 -33 195 -47 148 -179 267 -363 325 -34 11 -212
14 -241 4z"/>
<path d="M400 780 c-74 -22 -156 -95 -189 -170 -27 -62 -27 -178 0 -240 26
-58 81 -115 144 -148 42 -22 63 -27 130 -27 67 0 89 5 137 28 64 32 111 80
142 146 29 66 28 190 -2 248 -33 63 -74 106 -134 138 -44 24 -66 30 -128 31
-41 1 -86 -1 -100 -6z m217 -60 c88 -50 133 -129 132 -227 0 -73 -24 -133 -74
-184 -52 -54 -87 -71 -162 -77 -96 -7 -148 11 -214 77 -66 67 -85 128 -70 223
12 69 29 103 73 145 64 60 96 73 183 73 70 0 86 -4 132 -30z"/>
<path d="M3 480 c0 -25 2 -35 4 -22 2 12 2 32 0 45 -2 12 -4 2 -4 -23z"/>
<path d="M1 358 c-1 -43 3 -78 7 -78 4 0 13 -15 20 -34 19 -53 126 -162 202
-206 67 -39 70 -40 162 -39 l93 2 -70 8 c-187 24 -368 193 -404 379 -8 42 -9
41 -10 -32z"/>
</g>
</svg>
