<?xml version="1.0" standalone="no"?>
<!DOCTYPE svg PUBLIC "-//W3C//DTD SVG 20010904//EN"
 "http://www.w3.org/TR/2001/REC-SVG-20010904/DTD/svg10.dtd">
<svg version="1.0" xmlns="http://www.w3.org/2000/svg"
 width="900.000000pt" height="966.000000pt" viewBox="0 0 900.000000 966.000000"
 preserveAspectRatio="xMidYMid meet">
<metadata>
Created by potrace 1.10, written by Peter Selinger 2001-2011
</metadata>
<g transform="translate(0.000000,966.000000) scale(0.100000,-0.100000)"
fill="#000000" stroke="none">
<path d="M324 9570 c-52 -25 -100 -79 -113 -127 -15 -62 -34 -164 -41 -228 -4
-33 -12 -98 -18 -145 -34 -250 -62 -694 -62 -970 0 -178 18 -583 32 -690 5
-47 13 -130 18 -185 8 -105 19 -190 50 -365 10 -58 23 -136 30 -175 10 -66 21
-119 56 -275 23 -99 67 -275 90 -350 48 -164 78 -259 90 -288 8 -18 14 -39 14
-47 0 -8 6 -29 14 -47 13 -32 31 -76 63 -163 36 -95 46 -122 59 -150 7 -16 22
-55 34 -85 12 -30 34 -80 47 -110 14 -30 36 -80 50 -110 33 -74 182 -369 227
-450 19 -36 39 -72 43 -80 7 -15 84 -151 103 -180 5 -8 34 -57 65 -108 147
-243 431 -648 623 -887 66 -82 228 -279 247 -299 5 -6 39 -45 75 -86 251 -291
667 -710 889 -896 39 -32 71 -66 71 -76 0 -9 -21 -28 -47 -44 -51 -29 -180
-113 -253 -165 -157 -111 -411 -350 -540 -509 -25 -30 -47 -57 -50 -60 -24
-21 -204 -280 -223 -320 -4 -8 -16 -28 -27 -45 -10 -16 -30 -52 -45 -80 -14
-27 -29 -57 -34 -65 -37 -60 -151 -332 -151 -359 0 -7 -20 -73 -45 -147 -44
-126 -45 -135 -30 -158 31 -47 93 -40 123 15 9 17 41 67 69 112 29 45 53 87
53 93 0 6 12 24 27 40 16 16 46 57 68 91 52 80 214 261 352 393 121 117 137
130 235 206 88 68 326 230 373 254 11 6 47 26 80 45 85 49 305 157 400 195 44
17 95 38 113 46 18 8 39 14 47 14 8 0 29 6 47 14 80 34 293 86 508 123 152 26
718 26 865 0 239 -43 342 -65 442 -93 29 -8 79 -22 110 -30 32 -9 73 -23 91
-30 18 -8 39 -14 47 -14 8 0 29 -6 47 -14 18 -8 53 -22 78 -31 266 -100 519
-241 765 -424 129 -97 152 -117 320 -286 158 -157 179 -181 281 -315 39 -53
79 -102 88 -109 9 -7 16 -17 16 -22 0 -5 19 -37 43 -72 24 -34 46 -69 50 -77
34 -69 79 -137 98 -147 30 -15 69 -7 92 19 21 24 22 47 3 90 -17 42 -35 94
-46 133 -45 163 -202 504 -301 653 -16 24 -29 46 -29 49 0 3 -13 22 -30 43
-16 21 -30 41 -30 45 0 9 -78 110 -169 220 -71 86 -250 269 -336 345 -168 148
-431 328 -618 424 -20 11 -37 23 -37 27 0 4 100 108 223 231 247 248 291 294
427 453 52 61 97 112 100 115 3 3 25 30 50 60 59 72 83 100 95 114 18 19 218
275 258 329 75 103 212 302 269 390 56 88 57 93 7 143 -48 49 -75 55 -89 22
-6 -13 -19 -36 -30 -53 -11 -16 -23 -37 -27 -45 -7 -15 -40 -66 -152 -235
-132 -199 -300 -430 -430 -590 -123 -153 -137 -169 -236 -284 -110 -128 -125
-146 -344 -378 -147 -156 -155 -163 -192 -163 -57 0 -66 23 -46 119 9 42 23
114 32 161 9 47 23 114 30 150 7 36 16 83 20 105 3 22 10 54 15 70 5 17 16 66
25 110 27 131 47 217 61 270 18 69 64 253 74 295 10 48 60 228 94 340 8 28 22
73 30 100 8 28 22 73 30 100 8 28 22 74 31 103 9 28 20 69 26 90 5 21 13 45
18 55 5 9 25 67 44 127 20 61 47 142 61 180 14 39 26 79 26 91 0 11 13 47 29
80 16 32 37 86 47 119 10 33 26 71 36 84 23 30 19 42 -50 155 -64 105 -147
259 -197 364 -106 221 -118 252 -96 252 5 0 45 -53 88 -117 104 -154 146 -215
158 -229 50 -56 67 -78 113 -137 29 -38 52 -71 52 -75 0 -4 37 -43 81 -87 45
-44 103 -102 128 -129 25 -28 73 -76 106 -109 33 -32 63 -61 67 -65 135 -138
368 -371 413 -412 99 -91 202 -180 209 -180 4 0 86 -60 184 -133 181 -136 287
-208 357 -247 22 -12 56 -30 75 -42 260 -150 454 -178 535 -75 64 80 84 248
51 432 -8 44 -22 125 -31 180 -19 116 -38 225 -55 310 -7 33 -16 83 -20 110
-4 28 -12 70 -17 95 -6 25 -18 81 -28 125 -9 44 -23 103 -31 131 -8 28 -14 59
-14 69 0 10 -6 41 -14 69 -8 28 -22 80 -31 116 -37 144 -48 186 -57 215 -6 17
-14 46 -18 65 -14 62 -53 167 -93 250 -71 147 -147 227 -307 321 -229 135
-451 217 -745 276 -130 25 -535 26 -650 0 -138 -31 -217 -58 -320 -109 -98
-49 -205 -139 -253 -213 -33 -50 -92 -171 -92 -188 0 -7 -5 -18 -11 -24 -6 -6
-14 -26 -19 -44 -5 -19 -19 -65 -33 -104 -34 -100 -67 -216 -101 -352 -9 -35
-23 -89 -31 -120 -8 -32 -19 -83 -25 -113 -6 -30 -20 -82 -31 -115 -10 -33
-19 -77 -19 -98 0 -21 -6 -50 -13 -65 -8 -15 -19 -54 -26 -87 -6 -33 -16 -77
-21 -97 -6 -21 -14 -55 -20 -75 -23 -91 -82 -371 -115 -543 -9 -47 -23 -116
-31 -155 -8 -38 -14 -79 -14 -90 0 -11 -6 -51 -14 -90 -18 -86 -36 -199 -46
-285 -4 -36 -13 -96 -19 -135 -35 -235 -89 -727 -100 -920 l-6 -100 -30 -3
c-16 -2 -61 3 -100 12 -131 29 -240 46 -300 46 -33 0 -89 5 -125 11 -84 14
-374 12 -560 -5 -121 -10 -343 -51 -450 -82 -25 -7 -58 -14 -75 -16 -29 -3
-30 -2 -37 57 -4 33 -11 67 -14 75 -8 22 -34 182 -43 271 -4 42 -11 81 -16 88
-4 7 -11 54 -15 105 -5 50 -13 118 -20 151 -6 33 -18 96 -26 140 -50 267 -127
629 -180 840 -9 33 -22 86 -30 118 -35 143 -46 186 -60 237 -8 30 -22 80 -30
110 -8 30 -22 76 -30 101 -7 26 -14 55 -14 66 0 10 -6 27 -13 38 -7 11 -23 54
-36 95 -13 41 -27 86 -32 100 -5 14 -17 61 -28 105 -19 77 -32 121 -54 175 -5
14 -13 39 -18 55 -9 35 -59 177 -89 255 -12 30 -25 69 -30 85 -4 17 -12 41
-18 55 -5 14 -18 45 -27 70 -10 25 -23 59 -30 75 -7 17 -20 48 -28 70 -20 54
-75 193 -92 230 -7 17 -30 71 -50 120 -21 50 -48 114 -61 143 -13 28 -36 78
-50 110 -14 31 -35 77 -46 102 -34 73 -198 414 -208 430 -5 8 -34 65 -65 125
-84 163 -165 312 -222 410 -16 28 -32 57 -36 65 -4 8 -16 29 -27 45 -10 17
-25 41 -33 55 -16 31 -155 261 -179 298 -10 15 -21 34 -25 42 -4 8 -14 26 -24
40 -9 14 -91 138 -183 275 -299 449 -470 678 -710 950 -141 159 -289 305 -331
325 -52 25 -108 25 -161 0z m528 -2271 c37 -38 68 -74 68 -80 0 -11 86 -130
105 -144 7 -6 43 -55 80 -110 37 -55 77 -111 90 -125 19 -21 104 -144 175
-255 8 -13 31 -47 51 -77 110 -163 200 -305 308 -488 67 -113 126 -212 132
-220 5 -8 13 -24 19 -35 5 -11 25 -47 44 -80 51 -88 80 -142 223 -425 72 -140
140 -271 152 -290 12 -19 24 -46 27 -60 6 -24 24 -64 71 -153 12 -23 22 -50
22 -59 1 -9 8 -29 16 -45 26 -51 75 -163 75 -172 0 -5 6 -22 14 -38 16 -32 26
-56 56 -133 12 -30 26 -64 30 -75 17 -40 65 -163 96 -247 8 -21 21 -55 29 -75
21 -56 59 -166 130 -383 67 -201 80 -243 110 -345 10 -33 24 -78 30 -100 25
-77 64 -217 90 -315 9 -36 23 -87 30 -115 19 -69 41 -157 60 -240 9 -38 22
-95 30 -125 40 -166 43 -188 23 -208 -37 -37 -110 9 -278 173 -354 345 -746
781 -966 1076 -10 14 -37 50 -60 80 -61 81 -108 149 -219 315 -115 173 -109
164 -172 269 -60 99 -62 103 -94 162 -15 26 -36 64 -47 83 -59 100 -205 404
-267 555 -20 50 -41 99 -47 109 -6 11 -14 31 -19 45 -8 28 -25 74 -59 161 -12
30 -25 69 -30 85 -5 17 -20 64 -34 105 -107 309 -203 720 -250 1060 -40 298
-46 350 -47 415 0 39 -4 102 -10 140 -5 39 -11 141 -12 227 l-4 158 33 35 c28
31 38 35 80 35 46 0 50 -2 116 -71z"/>
</g>
</svg>
