<?xml version="1.0" standalone="no"?>
<!DOCTYPE svg PUBLIC "-//W3C//DTD SVG 20010904//EN"
 "http://www.w3.org/TR/2001/REC-SVG-20010904/DTD/svg10.dtd">
<svg version="1.0" xmlns="http://www.w3.org/2000/svg"
 width="900.000000pt" height="987.000000pt" viewBox="0 0 900.000000 987.000000"
 preserveAspectRatio="xMidYMid meet">
<metadata>
Created by potrace 1.10, written by Peter Selinger 2001-2011
</metadata>
<g transform="translate(0.000000,987.000000) scale(0.100000,-0.100000)"
fill="#000000" stroke="none">
<path d="M2640 9244 c-14 -7 -32 -14 -41 -14 -42 0 -262 -110 -388 -193 -156
-104 -390 -344 -488 -502 -40 -64 -113 -187 -113 -191 0 -9 -158 -267 -219
-358 -36 -54 -70 -105 -76 -115 -5 -9 -12 -18 -15 -21 -3 -3 -18 -23 -33 -46
-15 -22 -35 -49 -45 -60 -9 -11 -35 -42 -57 -69 -34 -43 -108 -131 -189 -225
-353 -409 -578 -738 -661 -970 -57 -158 -58 -302 -4 -425 18 -40 88 -132 136
-176 65 -61 226 -175 308 -219 11 -6 32 -18 47 -28 15 -9 60 -37 100 -61 105
-64 188 -121 223 -153 17 -15 33 -28 37 -28 15 0 141 -170 169 -228 47 -101
83 -207 100 -299 5 -29 14 -64 19 -78 6 -15 10 -40 10 -56 0 -16 6 -58 14 -92
8 -34 22 -98 31 -142 38 -175 110 -352 168 -413 78 -82 145 -75 235 24 32 34
68 81 80 105 13 24 27 51 32 59 5 8 24 47 41 85 17 39 35 78 40 88 16 30 69
188 88 262 100 382 102 729 10 1470 -6 50 -15 133 -20 185 -4 52 -11 106 -14
120 -16 72 -38 404 -42 625 -5 256 7 430 43 635 28 162 67 323 90 378 8 18 14
39 14 47 0 8 6 29 14 47 8 18 22 53 31 78 48 128 131 294 194 390 67 102 78
125 53 111 -60 -35 -215 -210 -301 -341 -59 -91 -170 -305 -171 -330 0 -8 -7
-24 -15 -34 -8 -11 -15 -28 -15 -38 0 -9 -6 -32 -14 -50 -52 -123 -99 -362
-117 -606 -12 -158 -1 -433 23 -582 6 -36 14 -112 18 -170 5 -58 13 -148 19
-200 50 -448 63 -1203 25 -1425 -7 -44 -14 -93 -14 -109 0 -73 -68 -253 -113
-303 -36 -40 -61 -30 -80 32 -9 31 -17 63 -17 73 0 9 -6 37 -14 62 -8 25 -21
68 -30 96 -9 29 -16 59 -16 68 0 8 -6 30 -14 48 -13 31 -22 55 -62 161 -19 49
-34 85 -64 147 -77 163 -222 313 -453 468 -43 28 -80 52 -82 52 -4 0 -69 42
-200 129 -88 58 -214 182 -245 241 -35 64 -35 224 -1 320 23 67 97 222 132
275 10 17 23 39 29 50 21 40 143 226 165 252 5 6 33 44 60 83 28 39 83 117
124 173 180 245 366 517 447 650 16 27 37 61 46 75 10 15 22 36 28 47 6 11 19
34 30 50 11 17 24 39 29 50 5 11 20 36 33 55 13 19 27 42 31 50 9 17 20 36 61
100 266 418 450 607 740 759 32 17 64 31 71 31 7 0 18 6 25 14 6 8 23 16 37
18 15 2 28 9 31 16 5 17 -55 14 -88 -4z"/>
<path d="M6180 9250 c0 -6 8 -13 18 -16 9 -3 32 -12 50 -20 286 -126 481 -291
684 -578 31 -45 61 -85 65 -91 5 -5 12 -17 16 -25 4 -8 29 -49 56 -90 49 -74
182 -291 209 -340 7 -14 21 -37 30 -52 9 -14 30 -48 46 -75 16 -26 66 -102
111 -168 45 -66 97 -142 115 -170 19 -27 54 -78 79 -112 26 -33 54 -72 63 -85
9 -12 46 -63 82 -113 115 -159 316 -453 316 -463 0 -3 6 -13 14 -21 7 -9 31
-47 51 -86 21 -38 41 -74 45 -80 11 -17 66 -157 85 -216 12 -40 16 -78 13
-135 -9 -172 -93 -262 -468 -500 -25 -16 -53 -33 -62 -39 -150 -90 -343 -263
-414 -371 -40 -60 -87 -152 -119 -234 -10 -25 -23 -58 -30 -75 -15 -36 -34
-90 -45 -130 -5 -16 -18 -61 -30 -100 -11 -38 -24 -88 -29 -110 -22 -100 -42
-161 -59 -173 -15 -12 -21 -9 -49 24 -106 121 -153 400 -153 904 0 315 29 796
66 1095 8 66 14 138 14 160 0 22 7 76 15 120 21 116 21 536 0 675 -43 284
-100 476 -206 695 -32 64 -38 75 -81 143 -16 24 -28 45 -28 48 0 3 -30 44 -66
92 -83 111 -245 278 -256 266 -3 -3 20 -44 52 -92 83 -125 166 -293 225 -452
7 -19 19 -53 28 -75 104 -282 169 -761 153 -1128 -14 -321 -23 -422 -61 -737
-14 -111 -28 -234 -60 -520 -21 -193 -21 -698 1 -840 8 -58 22 -128 30 -156 8
-28 14 -57 14 -65 0 -46 126 -377 182 -477 73 -133 142 -210 207 -231 29 -10
43 -10 73 3 40 17 113 102 134 156 3 8 12 27 20 42 8 14 14 33 14 42 0 8 6 30
14 48 8 18 21 60 29 93 9 33 21 80 28 105 6 25 15 70 19 100 18 130 46 256 76
350 8 25 14 51 14 58 0 7 21 57 47 110 81 169 170 265 351 378 35 21 75 47 90
56 15 10 36 22 47 28 11 6 34 19 50 30 17 11 37 23 45 27 8 4 43 26 78 50 35
24 66 43 69 43 3 0 42 29 87 64 125 98 184 170 227 279 29 73 29 237 0 328
-48 151 -92 241 -189 387 -31 48 -59 91 -61 96 -5 12 -102 145 -179 245 -48
63 -108 135 -216 261 -30 36 -155 180 -180 210 -41 47 -231 305 -277 375 -49
75 -161 260 -172 285 -4 8 -16 29 -27 45 -11 17 -24 40 -29 52 -45 101 -242
362 -357 474 -159 153 -389 304 -534 350 -14 4 -56 19 -95 33 -74 27 -115 33
-115 16z"/>
<path d="M3717 8084 c-3 -4 23 -33 58 -66 112 -104 205 -239 247 -361 28 -80
29 -251 3 -335 -43 -138 -90 -235 -199 -415 -39 -65 -76 -125 -81 -135 -6 -9
-28 -44 -50 -77 -22 -33 -44 -67 -50 -76 -55 -90 -133 -216 -147 -237 -10 -15
-21 -34 -25 -42 -4 -8 -26 -46 -48 -85 -50 -84 -135 -258 -135 -277 0 -7 -7
-22 -15 -32 -8 -11 -15 -29 -15 -41 0 -12 -4 -25 -10 -31 -5 -5 -14 -30 -19
-54 -5 -25 -14 -63 -20 -85 -17 -64 -14 -264 5 -326 9 -30 18 -60 20 -67 2 -7
8 -10 14 -7 6 4 10 53 10 116 0 188 75 419 209 639 11 19 25 44 31 55 12 24
85 135 159 242 30 43 77 111 105 151 28 41 56 81 61 90 6 9 22 33 36 52 62 85
209 358 209 389 0 6 6 25 14 43 36 84 66 237 66 339 0 154 -56 316 -146 421
-56 66 -157 151 -211 178 -23 12 -45 25 -48 31 -7 10 -19 12 -28 3z"/>
<path d="M5148 8073 c-1 -5 -19 -17 -39 -28 -68 -37 -157 -113 -208 -177 -98
-124 -140 -248 -141 -417 0 -129 18 -214 86 -404 29 -79 134 -267 223 -397
266 -390 318 -468 324 -481 4 -8 16 -27 26 -44 47 -73 151 -275 151 -293 0 -8
6 -28 13 -45 36 -83 66 -230 68 -328 1 -30 4 -67 8 -83 5 -24 8 -26 17 -15 6
8 14 28 17 44 3 17 10 59 17 95 11 64 10 94 -11 220 -12 67 -46 178 -61 194
-4 6 -8 17 -8 25 0 9 -7 29 -15 45 -8 15 -15 33 -15 38 0 15 -95 200 -149 288
-11 19 -25 44 -31 55 -6 11 -19 34 -30 50 -11 17 -23 37 -27 45 -4 8 -25 42
-48 75 -23 34 -44 67 -48 75 -4 8 -29 49 -56 90 -142 216 -272 451 -307 554
-44 136 -54 246 -29 351 34 147 88 236 244 398 59 61 70 77 54 77 -12 0 -23
-3 -25 -7z"/>
<path d="M3165 7555 c-48 -12 -94 -31 -143 -59 -34 -20 -150 -124 -162 -146
-9 -17 -8 -19 7 -13 10 4 32 17 48 29 17 12 56 36 88 53 154 83 280 93 387 30
8 -5 22 -12 30 -16 26 -11 128 -113 157 -157 15 -22 31 -43 34 -46 3 -3 8 -13
12 -22 3 -10 11 -18 17 -18 13 0 13 7 -3 38 -8 15 -23 45 -33 67 -65 136 -171
234 -283 261 -67 16 -90 16 -156 -1z"/>
<path d="M5584 7555 c-71 -17 -156 -76 -208 -144 -23 -31 -46 -63 -49 -71 -4
-8 -18 -35 -32 -59 -25 -45 -32 -71 -17 -71 5 0 29 29 56 65 135 184 283 250
442 199 59 -19 153 -66 212 -105 24 -16 47 -29 52 -29 4 0 10 -6 13 -12 2 -7
7 -10 11 -7 20 18 -188 199 -228 199 -6 0 -17 5 -23 11 -12 12 -125 39 -158
38 -11 -1 -43 -7 -71 -14z"/>
<path d="M3094 7201 c-28 -9 -57 -21 -65 -26 -8 -6 -32 -19 -54 -30 -42 -21
-225 -195 -225 -214 0 -7 22 -11 54 -11 l54 0 22 -45 c22 -46 93 -115 145
-142 63 -33 145 -45 215 -32 106 20 174 66 239 162 19 28 39 47 51 47 33 0 33
19 -1 88 -45 92 -136 182 -208 205 -65 21 -159 20 -227 -2z m26 -93 c24 -26
25 -46 4 -76 -28 -40 -93 -20 -94 29 0 22 38 69 55 69 8 0 23 -10 35 -22z
m-133 -202 c68 -64 113 -79 228 -80 80 -1 106 3 128 17 14 9 32 17 38 17 7 0
21 7 31 17 17 15 18 15 18 0 0 -10 -4 -17 -10 -17 -5 0 -10 -6 -10 -13 0 -17
-82 -69 -134 -84 -75 -23 -169 -10 -237 33 -47 29 -109 105 -109 133 0 11 -4
21 -10 21 -5 0 -10 5 -10 11 0 13 16 2 77 -55z"/>
<path d="M5581 7201 c-71 -29 -154 -111 -195 -192 -38 -76 -38 -94 0 -103 14
-4 29 -18 34 -32 13 -34 97 -115 145 -140 68 -36 160 -48 230 -31 33 8 75 23
94 33 46 23 121 99 146 147 19 37 21 38 69 36 33 -2 51 1 54 9 5 15 -164 187
-199 202 -13 5 -39 19 -57 30 -97 59 -234 76 -321 41z m273 -90 c18 -20 24
-69 12 -90 -13 -20 -64 -13 -80 11 -21 30 -20 54 4 78 25 25 42 25 64 1z m136
-170 c0 -10 -7 -24 -15 -31 -8 -7 -15 -17 -15 -23 0 -15 -71 -87 -85 -87 -6 0
-16 -5 -23 -12 -15 -15 -97 -37 -140 -38 -64 0 -139 29 -189 75 -27 24 -45 46
-42 49 3 3 30 -6 60 -21 48 -24 66 -27 154 -27 89 0 106 3 150 26 28 14 68 44
90 66 45 46 55 50 55 23z"/>
<path d="M4310 5890 c-199 -32 -249 -45 -351 -93 -181 -84 -273 -209 -272
-367 1 -64 25 -204 42 -238 4 -9 16 -35 27 -57 36 -79 116 -169 195 -222 54
-36 177 -85 271 -107 92 -22 363 -22 462 0 39 9 87 22 106 29 19 7 50 19 68
26 116 43 249 169 300 284 43 96 54 149 56 258 1 99 -2 118 -23 162 -24 50
-74 118 -118 159 -22 20 -119 73 -188 102 -128 53 -430 87 -575 64z m-78 -548
c42 -24 61 -73 53 -133 -6 -42 -15 -58 -54 -97 -50 -50 -110 -72 -195 -72 -77
0 -199 51 -183 77 4 6 44 8 102 5 90 -4 97 -3 120 18 35 33 31 47 -19 77 -68
41 -79 83 -31 123 38 31 154 32 207 2z m652 -2 c19 -17 26 -34 26 -60 0 -33
-4 -38 -45 -58 -51 -25 -58 -49 -24 -83 19 -19 30 -21 117 -17 106 3 127 -8
70 -39 -79 -42 -161 -53 -255 -33 -68 15 -125 69 -146 138 -15 48 -15 56 -1
92 25 63 81 88 186 86 35 -1 54 -8 72 -26z"/>
<path d="M2527 5113 c9 -16 35 -53 58 -83 51 -70 56 -79 100 -170 73 -152 80
-172 140 -445 8 -38 15 -86 15 -105 0 -19 7 -62 15 -95 8 -33 14 -73 15 -89 0
-32 19 -121 61 -291 6 -22 14 -44 20 -50 5 -5 9 -18 9 -28 0 -10 6 -31 14 -45
7 -15 22 -45 32 -67 31 -67 105 -177 152 -227 83 -88 217 -158 304 -158 121 0
244 95 332 255 44 79 45 80 92 36 82 -79 203 -143 348 -186 82 -24 359 -25
426 -1 25 9 53 16 63 16 11 0 31 6 45 14 15 7 50 24 77 36 28 13 83 48 124 79
40 31 81 62 91 69 15 11 21 4 56 -65 47 -93 137 -189 208 -222 134 -62 274
-22 413 117 100 99 187 256 237 427 10 33 22 75 28 93 5 19 14 57 18 85 5 29
14 84 20 122 6 39 18 113 26 165 43 266 87 426 156 565 36 73 135 225 146 225
4 0 12 11 19 25 6 14 10 25 9 25 -20 0 -86 -48 -142 -104 -84 -85 -106 -115
-168 -244 -20 -40 -36 -78 -36 -85 0 -7 -4 -17 -9 -23 -4 -5 -18 -43 -31 -84
-12 -41 -28 -90 -36 -108 -8 -18 -14 -40 -14 -48 0 -9 -7 -37 -14 -63 -8 -25
-22 -73 -32 -106 -67 -245 -74 -267 -120 -387 -45 -118 -133 -259 -195 -312
-94 -80 -187 -97 -255 -48 -76 55 -136 136 -235 317 -125 228 -228 354 -336
408 -58 29 -133 41 -170 26 l-28 -11 30 -10 c165 -51 283 -187 380 -438 18
-49 32 -82 60 -145 l17 -40 -42 -36 c-96 -83 -272 -148 -461 -169 -229 -26
-511 43 -661 162 -43 33 -47 57 -22 115 27 62 41 94 75 178 18 44 38 87 44 95
6 8 20 32 30 53 40 77 180 199 245 213 42 9 50 13 50 23 0 27 -110 19 -185
-14 -67 -29 -193 -166 -268 -292 -37 -62 -67 -115 -67 -118 0 -5 -84 -145
-116 -192 -67 -99 -137 -153 -200 -153 -151 0 -303 181 -403 480 -48 145 -70
217 -92 310 -4 19 -17 67 -29 105 -12 39 -25 86 -30 105 -7 33 -13 51 -45 140
-25 68 -79 195 -89 209 -14 18 -33 51 -46 80 -15 35 -159 175 -199 194 -44 22
-45 22 -24 -10z"/>
<path d="M6794 3894 c-12 -27 -30 -69 -39 -94 -25 -64 -50 -118 -116 -255
-166 -347 -210 -459 -235 -605 -23 -130 -18 -247 18 -418 6 -28 9 -54 6 -57
-6 -6 -99 17 -143 35 -167 70 -221 105 -421 278 -40 34 -75 62 -78 62 -10 0
-7 -79 9 -184 64 -450 89 -871 82 -1376 -5 -343 -16 -476 -53 -683 -12 -63
-13 -92 -6 -99 8 -8 13 -2 17 18 3 16 13 44 21 62 8 18 14 41 14 51 0 9 6 37
14 62 13 41 29 116 56 269 7 36 16 106 20 155 5 50 14 126 20 170 15 114 14
896 -1 1032 -18 154 -18 169 4 165 9 -2 36 -15 60 -30 23 -16 60 -36 82 -47
22 -10 52 -24 67 -32 14 -7 33 -13 41 -13 8 0 28 -7 43 -15 16 -8 39 -15 51
-15 12 0 48 -7 80 -15 66 -17 248 -20 258 -4 4 5 1 25 -6 42 -6 18 -17 46 -24
62 -28 71 -38 103 -46 152 -5 29 -14 64 -19 78 -16 42 -12 323 6 412 22 109
59 235 104 353 12 30 25 66 30 80 5 14 18 50 30 80 58 151 83 259 78 329 l-3
45 -21 -50z"/>
<path d="M2096 3923 c-10 -10 -7 -105 5 -143 6 -19 15 -51 19 -70 4 -19 18
-60 30 -90 12 -30 25 -66 30 -80 5 -14 18 -50 30 -80 12 -30 26 -68 31 -85 5
-16 13 -39 17 -50 66 -153 111 -433 92 -573 -22 -168 -37 -234 -81 -342 -12
-30 -22 -66 -23 -80 -1 -25 0 -25 94 -28 90 -3 198 13 275 39 17 6 44 14 60
18 17 4 39 13 50 19 11 6 40 20 65 32 25 12 59 30 75 41 46 29 56 32 65 23 5
-5 5 -76 -1 -169 -26 -415 -21 -878 12 -1130 6 -44 14 -114 19 -155 4 -41 13
-100 19 -130 7 -30 19 -89 28 -130 8 -41 21 -95 29 -120 7 -25 16 -57 19 -72
3 -16 10 -28 15 -28 14 0 12 79 -4 190 -23 149 -46 498 -46 690 0 184 21 562
45 815 8 83 17 168 19 190 8 92 29 255 41 325 8 44 10 79 5 84 -9 9 -56 -25
-120 -85 -100 -93 -233 -183 -340 -229 -61 -26 -166 -60 -185 -60 -10 0 -4 58
11 105 24 75 24 326 0 425 -22 87 -48 160 -88 246 -15 33 -28 64 -28 69 0 4
-29 67 -64 139 -81 166 -118 247 -146 316 -12 30 -28 70 -36 88 -8 18 -14 41
-14 52 0 20 -13 33 -24 23z"/>
<path d="M3088 495 c2 -14 6 -25 8 -25 2 0 4 11 4 25 0 14 -4 25 -9 25 -4 0
-6 -11 -3 -25z"/>
</g>
</svg>
