<?xml version="1.0" standalone="no"?>
<!DOCTYPE svg PUBLIC "-//W3C//DTD SVG 20010904//EN"
 "http://www.w3.org/TR/2001/REC-SVG-20010904/DTD/svg10.dtd">
<svg version="1.0" xmlns="http://www.w3.org/2000/svg"
 width="300.000000pt" height="218.000000pt" viewBox="0 0 300.000000 218.000000"
 preserveAspectRatio="xMidYMid meet">
<metadata>
Created by potrace 1.10, written by Peter Selinger 2001-2011
</metadata>
<g transform="translate(0.000000,218.000000) scale(0.100000,-0.100000)"
fill="#fff" stroke="none">
<path d="M1460 2170 c0 -5 -7 -10 -15 -10 -8 0 -15 -4 -15 -10 0 -5 -16 -20
-35 -32 -19 -13 -36 -28 -37 -34 -2 -6 -74 -75 -162 -155 -169 -154 -206 -175
-225 -127 -6 13 -10 19 -10 15 -1 -11 -71 63 -168 179 -50 60 -98 107 -119
117 -20 10 -74 20 -123 24 -75 5 -97 2 -155 -17 -74 -24 -154 -84 -156 -115
-1 -28 -9 -37 -50 -56 -19 -9 -48 -22 -65 -30 -16 -8 -51 -27 -77 -42 -67 -40
-66 -51 10 -220 15 -33 24 -40 77 -56 34 -10 64 -14 70 -10 5 5 14 9 20 9 5 0
4 -4 -4 -9 -10 -7 -1 -11 32 -16 25 -4 52 -5 59 -2 7 3 -4 6 -24 6 -20 1 -40
6 -44 13 -5 8 -2 9 10 5 10 -4 36 -7 59 -7 32 0 38 -3 27 -11 -11 -7 -5 -9 25
-8 104 3 112 1 124 -32 6 -18 11 -48 11 -68 0 -20 11 -67 25 -106 13 -38 25
-88 25 -110 0 -34 4 -42 28 -53 31 -13 260 -23 318 -13 32 6 120 75 199 157
17 17 44 40 60 50 28 18 29 18 15 0 -16 -20 -23 -48 -22 -86 0 -14 0 -124 0
-245 0 -267 0 -294 7 -321 5 -21 -16 -35 -40 -27 -6 2 -9 73 -7 193 4 258 27
237 -246 234 -189 -2 -246 -8 -279 -29 -7 -4 30 -95 38 -95 4 0 6 -7 3 -15 -4
-10 0 -15 11 -15 9 0 14 -3 12 -7 -8 -13 57 -126 78 -137 31 -18 44 -39 45
-73 0 -17 4 -34 9 -37 8 -5 27 -264 25 -351 -2 -88 -18 -181 -35 -207 -11 -14
-19 -31 -19 -37 0 -6 -10 -13 -23 -16 -30 -8 -53 -76 -35 -105 11 -18 24 -20
102 -20 69 0 94 4 107 16 17 15 20 15 43 0 18 -12 48 -16 110 -16 93 0 92 0
166 82 42 47 46 58 57 156 3 30 9 49 13 43 3 -6 5 51 4 126 -3 157 4 246 20
268 10 13 69 34 145 51 13 3 35 11 50 18 14 7 46 19 71 26 25 7 50 17 57 22
13 10 68 28 100 33 12 2 26 6 32 9 5 3 12 -6 16 -21 3 -16 26 -50 51 -78 25
-27 53 -62 62 -78 9 -15 20 -27 24 -27 4 0 31 -22 59 -50 28 -27 58 -50 66
-50 7 0 16 -7 20 -15 3 -9 35 -36 72 -60 127 -85 138 -102 140 -207 2 -77 2
-78 -23 -78 -21 0 -26 -5 -26 -25 0 -14 -4 -25 -9 -25 -5 0 -12 -21 -16 -46
-9 -65 5 -73 128 -74 l97 0 30 47 c17 26 28 53 26 60 -3 7 -2 13 2 13 4 0 6
58 4 130 -3 120 -2 130 15 130 10 0 23 -4 29 -8 15 -10 36 -67 33 -88 -2 -11
0 -25 4 -32 5 -6 4 -12 -2 -12 -5 0 -11 -21 -13 -47 -2 -38 -8 -50 -25 -59
-13 -6 -20 -14 -15 -19 4 -5 1 -5 -5 -1 -12 7 -18 -17 -14 -53 2 -8 -2 -10
-11 -5 -7 5 -2 -6 12 -23 25 -32 26 -32 116 -32 63 -1 101 4 120 14 16 8 25
15 19 15 -5 0 -4 4 3 9 10 6 15 56 19 196 6 228 0 258 -64 312 -50 43 -83 91
-83 121 0 12 -10 28 -22 36 -12 9 -18 16 -13 16 6 0 10 43 10 105 -1 98 7 128
22 88 4 -9 21 -32 39 -52 19 -19 40 -48 49 -65 22 -44 40 -66 56 -66 8 0 20
-9 26 -19 13 -20 81 -45 149 -55 47 -7 54 3 54 81 0 55 -15 92 -51 125 -17 15
-46 49 -66 75 -45 59 -54 70 -75 94 -10 10 -18 24 -18 29 0 6 -13 36 -30 67
-16 31 -30 61 -30 68 0 6 -8 20 -17 31 -10 10 -26 36 -35 56 -9 20 -31 47 -49
60 -17 13 -35 34 -40 46 -5 13 -18 26 -29 29 -11 3 -20 12 -20 20 0 8 -3 12
-7 10 -14 -8 -53 12 -48 25 4 11 -71 61 -95 64 -3 0 -20 4 -38 8 -40 9 -59 12
-242 30 -80 8 -277 16 -438 18 -249 2 -294 1 -302 -12 -5 -8 -11 -12 -15 -9
-6 7 182 184 241 227 22 16 81 70 131 120 50 49 100 93 111 96 21 7 66 67 77
103 4 15 0 28 -14 42 -20 20 -33 21 -231 21 -133 0 -210 -4 -210 -10z m421
-32 c14 -25 15 -24 -581 -567 l-385 -350 -162 -1 c-90 0 -163 2 -163 4 0 13
-54 253 -72 317 l-21 77 -164 7 c-138 6 -170 11 -206 29 -46 24 -82 82 -93
152 l-6 41 88 32 c122 42 134 50 149 94 34 99 144 145 310 131 90 -7 93 -10
202 -146 66 -81 222 -240 233 -236 4 2 114 101 245 221 l238 217 188 0 c183 0
189 -1 200 -22z m34 -583 c382 -8 493 -42 647 -196 68 -68 84 -92 143 -213 58
-119 77 -148 156 -233 89 -97 129 -159 129 -201 0 -27 -24 -29 -98 -7 -71 21
-147 94 -230 220 -37 56 -71 109 -77 119 -7 12 -11 -38 -13 -166 -3 -227 0
-238 104 -338 l75 -72 -3 -181 c-3 -158 -6 -187 -23 -222 l-20 -40 -81 -3
c-62 -2 -84 1 -93 12 -18 21 5 65 46 91 l32 20 1 97 0 96 -47 47 c-27 26 -100
87 -163 135 -63 48 -136 110 -162 136 -56 59 -146 184 -173 242 -12 24 -27 42
-37 42 -40 0 -256 -63 -398 -118 -185 -70 -247 -88 -360 -102 -46 -5 -86 -10
-87 -10 -2 0 -3 147 -3 328 l-1 327 108 102 108 102 135 -4 c74 -3 248 -7 385
-10z m-835 -641 l0 -201 -23 4 c-22 4 -25 0 -35 -54 -6 -32 -15 -153 -19 -269
l-8 -211 -61 -79 -61 -79 -73 -3 c-40 -2 -77 1 -83 7 -17 17 2 60 34 77 21 10
39 34 57 72 27 56 27 60 25 250 -1 106 -7 235 -12 287 l-10 95 -50 57 c-28 31
-68 91 -90 132 -66 129 -86 116 179 116 l230 0 0 -201z m965 -61 c77 -134 202
-268 343 -373 l74 -53 -4 -161 c-3 -143 -6 -166 -26 -204 l-22 -42 -79 0 c-58
0 -82 4 -91 15 -19 23 4 69 46 91 l34 19 0 92 0 93 -42 47 c-24 25 -88 80
-143 121 -133 101 -206 171 -277 266 -32 43 -57 80 -56 82 5 4 190 53 205 54
6 0 23 -21 38 -47z m-770 -185 c-4 -13 -10 -123 -15 -245 -5 -136 -13 -230
-20 -245 -14 -27 -100 -140 -115 -151 -5 -4 -44 -6 -85 -5 -72 3 -75 4 -75 28
0 17 10 31 32 45 20 12 44 42 60 75 l28 55 -1 227 -1 227 96 4 c53 1 98 4 100
5 2 1 0 -8 -4 -20z m-216 -288 c1 -127 -4 -170 -20 -170 -11 0 -12 136 -2 275
6 85 8 94 14 60 5 -22 8 -96 8 -165z"/>
<path d="M1624 2080 l-101 -5 -221 -200 -220 -200 -1 -99 c-1 -94 0 -97 17
-78 9 11 100 96 202 188 212 191 398 361 419 380 8 8 13 15 10 16 -2 2 -49 1
-105 -2z m-4 -63 c-19 -17 -81 -74 -138 -128 -56 -54 -123 -115 -150 -136 -26
-21 -78 -68 -117 -105 -38 -38 -75 -68 -82 -68 -6 0 -14 -6 -16 -12 -3 -7 -6
10 -6 38 l-1 52 108 97 c59 54 154 142 211 195 l104 98 60 0 61 0 -34 -31z"/>
<path d="M386 1958 c-23 -117 -22 -249 3 -279 17 -22 21 -22 61 -10 59 17 113
55 144 99 34 51 51 91 41 100 -4 4 -10 1 -12 -6 -17 -47 -56 -102 -92 -129
-44 -34 -116 -61 -129 -49 -15 15 -14 173 2 257 19 100 19 99 7 99 -4 0 -16
-37 -25 -82z"/>
<path d="M1060 1291 c-13 -9 -37 -29 -51 -46 l-27 -30 44 -14 c35 -11 47 -11
59 -1 15 13 18 48 7 86 -7 21 -8 21 -32 5z m20 -40 c0 -23 -5 -30 -27 -34 -16
-3 -30 -3 -32 -1 -4 4 49 64 56 64 2 0 3 -13 3 -29z"/>
</g>
</svg>
