<?xml version="1.0" standalone="no"?>
<!DOCTYPE svg PUBLIC "-//W3C//DTD SVG 20010904//EN"
 "http://www.w3.org/TR/2001/REC-SVG-20010904/DTD/svg10.dtd">
<svg version="1.0" xmlns="http://www.w3.org/2000/svg"
 width="900.000000pt" height="897.000000pt" viewBox="0 0 900.000000 897.000000"
 preserveAspectRatio="xMidYMid meet">
<metadata>
Created by potrace 1.10, written by Peter Selinger 2001-2011
</metadata>
<g transform="translate(0.000000,897.000000) scale(0.100000,-0.100000)"
fill="#000000" stroke="none">
<path d="M7379 8299 c-5 -3 -10 -1461 -11 -3525 l-3 -3519 -250 0 -250 0 -5
635 -5 635 -85 3 c-71 2 -87 0 -97 -15 -11 -14 -13 -146 -13 -628 0 -335 0
-616 0 -622 0 -10 -50 -13 -215 -13 l-215 0 -2 638 -3 637 -90 3 c-76 2 -92 0
-102 -14 -10 -14 -13 -154 -13 -641 l0 -623 -212 2 -213 3 -5 635 -5 635 -95
0 -95 0 -5 -635 -5 -635 -215 0 -215 0 -5 635 c-3 349 -6 636 -8 638 -1 1 -42
2 -92 2 -49 0 -91 -1 -92 -2 -2 -2 -5 -289 -8 -638 l-5 -635 -215 0 -215 0 -5
635 -5 635 -95 0 -95 0 -5 -635 -5 -635 -212 -3 -213 -2 0 898 c0 709 -3 902
-13 916 -10 14 -26 16 -102 14 l-90 -3 -3 -913 -2 -912 -218 2 -217 3 -2 620
c-1 341 -4 628 -7 638 -3 14 -17 17 -91 17 -74 0 -88 -3 -91 -17 -3 -10 -6
-297 -7 -638 l-2 -620 -220 0 -220 0 -5 635 -5 635 -85 3 c-71 2 -87 0 -97
-14 -10 -14 -13 -153 -13 -641 l0 -623 -215 0 -215 0 0 624 c0 343 -3 631 -6
640 -9 24 -189 24 -198 0 -3 -9 -6 -297 -6 -640 l0 -624 -255 0 -255 0 0 2728
c0 1500 -4 2733 -8 2740 -6 9 -34 12 -103 10 l-94 -3 -3 -2737 -2 -2738 -223
0 c-122 0 -229 -5 -237 -10 -12 -7 -15 -35 -15 -139 0 -71 3 -132 6 -135 4 -4
4249 -8 7277 -6 l22 0 0 3669 0 3670 -136 3 c-75 2 -140 0 -145 -3z"/>
<path d="M6175 7826 c-59 -15 -152 -58 -211 -97 -22 -16 -73 -71 -113 -123
-70 -94 -191 -287 -191 -306 0 -5 -9 -26 -19 -47 -11 -21 -31 -64 -46 -96 -79
-170 -249 -324 -480 -435 -124 -60 -154 -72 -180 -72 -13 0 -59 -7 -102 -16
-43 -8 -112 -21 -153 -29 -41 -8 -115 -22 -165 -32 -78 -15 -156 -17 -585 -18
-498 -1 -640 -8 -755 -40 -27 -8 -61 -16 -75 -19 -47 -8 -129 -42 -193 -80
-15 -9 -27 -2 -73 47 -30 31 -54 63 -54 69 0 6 -6 19 -13 27 -7 9 -21 40 -31
69 -17 49 -17 56 -2 105 23 73 43 121 83 202 52 106 74 137 157 229 20 22 33
42 30 45 -4 3 -9 0 -11 -6 -3 -7 -11 -13 -18 -13 -8 0 -44 -21 -82 -46 -231
-158 -361 -305 -397 -451 -17 -69 -18 -76 -1 -140 9 -38 24 -86 33 -108 17
-42 105 -167 141 -199 21 -20 29 -70 12 -81 -6 -3 -20 -27 -32 -53 -12 -26
-25 -55 -30 -64 -9 -19 -42 -118 -63 -193 -35 -126 -46 -197 -47 -300 0 -60
-5 -135 -10 -165 -5 -30 -13 -107 -18 -170 -5 -63 -14 -131 -20 -150 -6 -19
-11 -48 -11 -64 0 -47 -56 -139 -110 -180 -27 -21 -74 -65 -105 -97 l-55 -60
1 -127 c1 -70 6 -224 12 -342 l12 -215 178 -3 c195 -3 207 1 172 55 -37 55
-72 79 -112 74 -25 -3 -42 45 -49 139 l-7 95 48 70 c116 169 185 240 367 377
51 38 95 73 96 78 2 6 8 10 13 10 24 0 179 176 332 379 99 130 123 156 145
156 30 0 39 -17 18 -38 -9 -8 -59 -66 -113 -129 -156 -181 -335 -366 -449
-463 -104 -91 -104 -90 -97 -127 3 -18 10 -41 15 -51 5 -10 13 -39 18 -65 18
-97 71 -276 83 -284 6 -4 63 -8 126 -8 98 0 118 3 147 21 63 39 35 97 -49 100
-25 1 -50 5 -55 8 -20 13 -30 124 -18 196 15 83 24 103 97 215 31 47 59 92 62
100 4 8 19 35 33 60 36 62 122 224 186 350 29 58 54 107 55 109 6 9 72 -27
171 -93 59 -39 125 -80 147 -90 22 -10 52 -25 67 -33 14 -7 38 -13 53 -13 14
0 35 -5 45 -10 29 -15 234 -39 437 -50 98 -5 234 -15 303 -21 71 -6 220 -9
348 -7 164 4 225 2 232 -7 5 -7 13 -27 16 -46 4 -19 11 -42 15 -51 23 -44 66
-319 78 -495 5 -66 12 -127 17 -134 4 -7 11 -29 15 -48 9 -44 26 -93 53 -149
37 -76 45 -89 91 -140 38 -42 54 -52 88 -57 76 -10 319 -24 334 -18 11 4 13
15 8 41 -12 64 -50 96 -142 121 -58 16 -103 55 -103 90 0 15 -7 50 -15 77 -8
27 -15 72 -15 99 0 28 -7 81 -15 120 -16 76 -21 331 -6 353 10 17 21 -42 21
-121 0 -70 32 -171 85 -267 8 -14 32 -45 54 -70 l39 -45 129 -6 c70 -4 135 -9
143 -13 9 -4 23 -1 33 6 16 12 16 16 2 53 -16 39 -59 75 -91 75 -7 0 -31 9
-53 21 -37 19 -40 25 -55 91 -9 39 -16 85 -16 102 0 17 -7 56 -15 86 -11 42
-15 117 -15 314 l0 259 60 55 c80 71 142 154 191 252 66 131 69 153 79 490 9
298 15 359 51 460 24 69 41 115 49 131 64 126 123 213 170 251 55 44 162 67
310 68 113 1 200 8 300 26 57 10 98 49 135 127 18 40 40 97 49 128 19 67 21
162 4 177 -7 6 -51 13 -98 17 -47 3 -107 10 -135 16 -27 5 -99 13 -158 19
-143 13 -160 21 -169 84 -19 132 -177 207 -431 205 -62 0 -134 -6 -162 -13z"/>
</g>
</svg>
