<?xml version="1.0" standalone="no"?>
<!DOCTYPE svg PUBLIC "-//W3C//DTD SVG 20010904//EN"
 "http://www.w3.org/TR/2001/REC-SVG-20010904/DTD/svg10.dtd">
<svg version="1.0" xmlns="http://www.w3.org/2000/svg"
 width="900.000000pt" height="924.000000pt" viewBox="0 0 900.000000 924.000000"
 preserveAspectRatio="xMidYMid meet">
<metadata>
Created by potrace 1.10, written by Peter Selinger 2001-2011
</metadata>
<g transform="translate(0.000000,924.000000) scale(0.100000,-0.100000)"
fill="#000000" stroke="none">
<path d="M3770 9154 c-172 -39 -348 -115 -368 -159 -28 -62 6 -461 54 -631 8
-28 14 -60 14 -72 0 -12 6 -39 14 -59 7 -21 21 -65 31 -98 9 -33 23 -77 31
-97 44 -120 46 -125 89 -223 23 -54 116 -239 151 -300 18 -33 38 -69 44 -80 6
-11 19 -33 30 -50 11 -16 24 -39 30 -50 11 -23 19 -35 78 -123 23 -35 42 -66
42 -69 0 -3 14 -22 30 -43 17 -21 30 -41 30 -44 0 -7 80 -119 117 -164 16 -19
36 -50 46 -70 9 -20 26 -45 36 -56 10 -12 35 -47 55 -78 20 -32 40 -58 45 -58
5 0 16 -17 25 -37 9 -21 24 -50 34 -65 60 -93 170 -282 204 -351 22 -45 44
-91 50 -101 6 -11 14 -31 18 -45 5 -14 18 -51 29 -81 53 -140 91 -345 91 -495
0 -206 -56 -423 -159 -615 -80 -150 -173 -272 -297 -390 -70 -67 -235 -200
-248 -200 -2 0 -28 -16 -58 -35 -55 -37 -243 -131 -313 -158 -123 -46 -156
-56 -290 -91 -142 -36 -498 -76 -679 -76 -66 0 -237 -17 -406 -41 -41 -6 -104
-14 -140 -19 -36 -4 -87 -13 -115 -20 -167 -40 -248 -63 -302 -86 -90 -38
-137 -60 -208 -98 -28 -15 -133 -95 -174 -131 -44 -39 -131 -155 -147 -195 -3
-8 -12 -28 -19 -45 -18 -42 -39 -100 -59 -165 -70 -224 -128 -297 -309 -390
-119 -61 -123 -63 -187 -104 -160 -103 -317 -260 -414 -414 -33 -52 -87 -157
-102 -197 -43 -114 -84 -255 -84 -286 0 -13 -7 -56 -15 -94 -38 -178 -6 -636
61 -871 8 -28 14 -62 14 -75 0 -13 6 -44 14 -69 8 -25 22 -74 32 -110 9 -36
22 -83 29 -105 7 -22 21 -67 30 -100 10 -33 24 -75 31 -93 8 -18 14 -40 14
-48 0 -18 67 -84 86 -84 6 0 17 -6 23 -14 16 -20 71 -28 181 -29 116 -1 155 7
248 50 72 34 212 151 212 178 0 7 7 18 15 25 19 15 19 73 2 108 -8 15 -21 43
-29 62 -8 19 -23 52 -32 72 -15 36 -25 59 -56 133 -7 17 -16 44 -21 60 -4 17
-18 62 -32 100 -46 134 -87 340 -87 435 1 122 52 274 123 364 44 55 53 64 122
116 118 88 171 112 252 114 62 1 63 1 114 -49 28 -27 84 -93 125 -145 40 -52
97 -124 126 -160 70 -87 313 -336 363 -372 41 -29 75 -58 159 -134 27 -24 55
-44 61 -44 6 0 24 -14 40 -30 16 -17 35 -30 42 -30 7 0 21 -7 31 -15 46 -41
90 -75 95 -75 4 0 23 -12 44 -26 21 -14 47 -30 58 -35 11 -5 34 -18 50 -29 29
-18 267 -138 332 -166 61 -27 98 -42 143 -59 25 -9 60 -23 78 -31 18 -8 39
-14 47 -14 8 0 29 -6 47 -14 18 -7 60 -21 93 -30 33 -10 76 -22 95 -28 19 -7
53 -15 75 -18 22 -4 60 -12 85 -18 284 -69 663 -96 1047 -76 211 11 258 16
463 50 242 40 611 138 800 212 14 5 43 17 65 25 56 21 191 76 245 100 50 22
337 163 360 177 8 5 78 47 154 92 145 87 149 89 243 152 69 47 247 180 283
212 14 12 61 53 105 90 286 242 597 597 815 929 14 21 132 218 157 260 21 38
161 320 182 370 12 28 28 64 35 80 22 49 71 180 116 305 6 19 16 51 20 70 4
19 13 49 18 65 16 45 39 132 56 205 38 167 45 201 60 285 62 372 81 746 56
1150 -11 182 -35 405 -52 495 -6 30 -14 82 -18 115 -4 33 -13 80 -18 105 -16
66 -32 140 -41 185 -4 22 -12 56 -18 75 -6 19 -19 62 -28 95 -39 135 -53 178
-90 275 -9 25 -24 63 -32 85 -32 84 -159 346 -193 400 -11 17 -24 39 -30 50
-14 26 -29 51 -65 105 -161 245 -425 505 -647 635 -40 24 -227 114 -268 130
-25 9 -60 23 -78 31 -18 8 -40 14 -48 14 -9 0 -37 7 -63 15 -118 36 -332 65
-491 65 -157 0 -408 -30 -555 -67 -185 -45 -261 -67 -313 -89 -18 -8 -41 -14
-50 -14 -10 0 -27 -7 -38 -15 -10 -8 -27 -15 -37 -15 -11 0 -31 -6 -45 -14
-15 -8 -52 -24 -82 -36 -75 -30 -150 -65 -245 -112 -124 -62 -178 -78 -266
-78 -87 0 -125 13 -199 68 -117 88 -216 286 -274 557 -9 39 -23 100 -31 137
-8 37 -15 79 -15 94 0 15 -7 66 -15 113 -7 47 -21 145 -29 216 -9 72 -23 188
-32 258 l-17 129 -36 24 c-20 13 -44 24 -54 24 -11 0 -40 6 -66 14 -148 46
-423 61 -561 30z m449 -180 c25 -8 55 -14 66 -14 38 -1 49 -17 56 -82 25 -245
52 -465 71 -563 6 -33 14 -82 18 -110 13 -91 70 -307 107 -400 85 -220 201
-368 341 -438 26 -13 83 -32 127 -42 68 -16 89 -17 150 -7 127 20 148 28 300
101 83 40 164 78 180 85 17 7 46 20 65 28 19 9 55 23 80 33 25 9 60 23 78 31
18 8 39 14 47 14 8 0 29 6 47 14 34 14 103 35 198 60 336 88 684 101 960 34
25 -6 61 -14 80 -18 44 -10 97 -29 132 -46 14 -8 31 -14 38 -14 16 0 183 -84
245 -123 243 -153 515 -447 654 -706 13 -24 31 -58 41 -75 48 -81 173 -363
185 -416 4 -16 11 -32 16 -35 5 -4 9 -15 9 -25 0 -11 6 -34 14 -52 17 -40 59
-187 89 -313 138 -564 176 -1321 92 -1816 -8 -47 -15 -100 -15 -117 0 -17 -5
-43 -10 -58 -6 -14 -15 -54 -20 -88 -10 -61 -20 -108 -45 -201 -7 -27 -21 -79
-30 -115 -9 -36 -22 -76 -27 -90 -6 -14 -14 -38 -18 -55 -14 -53 -73 -216
-107 -292 -7 -18 -20 -47 -28 -65 -29 -69 -106 -234 -115 -248 -5 -8 -19 -35
-31 -60 -13 -25 -42 -78 -66 -118 -24 -41 -43 -75 -43 -77 0 -3 -36 -59 -119
-185 -284 -432 -712 -858 -1168 -1162 -140 -94 -144 -96 -168 -108 -11 -6 -33
-19 -50 -29 -79 -51 -337 -186 -430 -226 -22 -9 -56 -24 -75 -32 -66 -29 -105
-45 -222 -89 -24 -9 -58 -22 -76 -30 -18 -8 -39 -14 -47 -14 -8 0 -29 -6 -47
-14 -132 -55 -510 -145 -763 -180 -328 -46 -810 -45 -1105 3 -159 25 -382 77
-485 113 -16 5 -43 13 -60 18 -46 13 -152 50 -212 76 -18 8 -48 20 -65 27
-134 56 -288 136 -426 221 -45 28 -100 61 -123 72 -22 12 -59 39 -82 59 -23
21 -67 54 -97 73 -60 38 -116 90 -310 282 -117 117 -182 191 -288 329 -125
163 -195 234 -270 274 -115 60 -268 27 -460 -101 -144 -95 -247 -233 -307
-411 -26 -78 -27 -415 -2 -511 32 -119 48 -175 59 -205 5 -16 13 -43 18 -60
15 -53 95 -253 131 -327 17 -34 9 -57 -33 -91 -83 -66 -163 -97 -254 -97 -66
0 -133 21 -138 44 -2 6 -9 27 -15 46 -7 19 -17 51 -21 70 -4 19 -13 49 -18 65
-21 62 -62 221 -87 335 -9 41 -23 95 -31 120 -8 25 -14 64 -14 87 0 23 -7 77
-15 120 -10 54 -15 144 -15 295 0 219 9 305 45 419 8 26 15 54 15 62 0 8 6 28
14 44 7 15 21 46 31 68 9 22 21 47 26 55 4 8 17 32 29 54 33 60 132 185 197
247 60 58 176 149 189 149 4 0 15 6 23 14 16 14 124 74 211 117 56 27 123 80
172 133 34 38 128 209 128 235 0 5 6 25 14 43 8 18 24 65 36 103 52 168 127
266 280 366 56 36 182 99 200 99 5 0 24 6 42 14 184 77 553 129 1193 166 77 5
167 14 200 20 181 34 298 63 353 86 18 8 39 14 47 14 8 0 31 7 52 16 21 9 54
23 73 31 93 40 171 76 200 93 8 5 22 11 30 15 21 8 40 20 158 98 171 113 316
247 448 413 35 45 64 84 64 87 0 3 12 25 28 49 55 88 72 120 135 268 52 121
97 366 97 523 0 174 -43 419 -96 545 -8 18 -14 39 -14 47 0 7 -6 26 -14 42 -8
15 -44 89 -81 163 -36 74 -75 149 -85 165 -11 17 -24 39 -30 50 -6 11 -19 34
-30 50 -11 17 -23 36 -26 44 -8 15 -184 278 -259 386 -27 39 -71 103 -99 143
-28 40 -56 80 -61 90 -6 9 -36 55 -66 102 -174 265 -320 544 -404 770 -7 19
-19 53 -28 75 -64 173 -137 563 -137 727 l0 47 56 26 c72 34 152 56 234 66 91
10 314 0 369 -17z"/>
<path d="M6530 7610 c-58 -5 -121 -13 -140 -19 -19 -6 -47 -11 -61 -11 -15 0
-49 -6 -75 -14 -51 -15 -115 -31 -174 -46 -33 -8 -56 -15 -142 -46 -156 -57
-214 -80 -328 -132 -312 -142 -408 -211 -531 -377 -72 -96 -122 -212 -145
-335 -29 -158 -10 -338 51 -485 25 -61 43 -111 59 -167 65 -227 76 -307 76
-518 0 -199 -20 -333 -72 -485 -5 -16 -13 -43 -17 -60 -10 -37 -77 -186 -114
-250 -53 -91 -80 -133 -145 -220 -101 -135 -235 -267 -397 -393 -27 -21 -186
-123 -235 -150 -100 -56 -263 -132 -283 -132 -7 0 -22 -7 -33 -15 -10 -8 -27
-15 -36 -15 -10 0 -32 -6 -50 -14 -18 -8 -60 -22 -93 -31 -33 -9 -81 -23 -106
-31 -26 -8 -55 -14 -65 -14 -11 0 -50 -6 -89 -15 -105 -22 -328 -45 -440 -45
-55 0 -154 -7 -220 -15 -66 -8 -140 -15 -165 -15 -77 0 -320 -40 -465 -77
-229 -59 -406 -154 -502 -270 -44 -54 -92 -150 -117 -234 -32 -110 -19 -386
25 -514 6 -16 15 -48 20 -70 6 -22 14 -44 20 -50 5 -5 9 -17 9 -26 0 -10 6
-30 14 -46 14 -27 67 -141 80 -173 10 -24 68 -125 110 -192 104 -166 320 -415
487 -563 56 -49 107 -95 113 -100 56 -52 334 -245 386 -269 8 -3 29 -15 45
-25 68 -43 299 -153 415 -196 25 -9 60 -23 78 -31 18 -8 39 -14 47 -14 8 0 29
-6 47 -14 105 -44 427 -117 603 -136 39 -4 114 -13 167 -20 117 -15 584 -8
728 10 327 41 584 98 840 186 41 14 89 29 105 33 17 5 51 20 77 35 26 14 58
26 72 26 13 0 31 7 40 15 8 8 23 15 34 15 11 0 30 8 43 18 13 10 43 24 65 30
23 7 47 19 54 27 7 8 21 15 32 15 11 0 31 9 45 20 14 11 32 20 39 20 7 0 34
11 59 25 25 14 66 37 93 51 54 30 172 101 211 126 14 10 33 21 41 25 8 3 31
19 51 35 20 15 40 28 43 28 15 0 304 224 408 317 83 73 355 349 416 420 70 83
272 349 272 359 0 3 14 23 30 44 17 21 30 40 30 43 0 3 13 25 29 49 16 24 39
61 50 83 12 22 26 47 30 55 5 8 13 26 19 40 20 49 23 55 36 77 7 13 20 31 28
40 9 10 24 42 33 71 10 28 21 52 25 52 7 0 93 187 110 240 5 14 18 50 30 80
12 30 30 84 42 120 11 36 27 80 34 98 8 18 14 40 14 48 0 9 7 37 15 63 41 131
90 377 121 606 15 106 18 201 18 515 0 431 -14 605 -76 935 -6 33 -14 80 -18
105 -16 103 -104 425 -136 498 -8 18 -14 39 -14 47 0 8 -7 31 -16 52 -9 21
-24 54 -32 73 -8 19 -21 48 -28 63 -8 16 -14 33 -14 39 0 5 -13 30 -30 55 -16
24 -30 48 -30 52 0 9 -35 85 -53 116 -35 58 -66 102 -81 114 -10 8 -24 30 -32
49 -19 47 -101 150 -198 250 -89 91 -201 182 -322 259 -33 21 -222 113 -233
113 -6 0 -25 6 -43 14 -155 66 -450 97 -718 76z m420 -178 c121 -15 372 -98
421 -139 8 -7 20 -13 26 -13 5 0 29 -13 51 -30 23 -16 45 -30 49 -30 9 0 150
-116 194 -160 19 -19 66 -71 104 -115 38 -44 75 -84 82 -90 7 -5 19 -27 28
-47 8 -21 20 -38 25 -38 6 0 18 -17 27 -37 10 -21 30 -54 45 -74 16 -20 28
-43 28 -51 0 -8 11 -29 24 -47 14 -19 28 -48 32 -65 3 -17 12 -42 19 -56 7
-14 20 -42 29 -62 9 -21 22 -53 30 -70 8 -18 23 -60 34 -93 12 -34 25 -72 30
-85 9 -23 21 -67 56 -193 66 -240 119 -547 137 -797 45 -623 6 -1074 -138
-1590 -9 -30 -20 -66 -26 -80 -5 -14 -13 -38 -17 -55 -16 -61 -55 -165 -104
-277 -8 -18 -21 -54 -30 -81 -8 -26 -22 -54 -30 -63 -9 -8 -16 -24 -16 -35 0
-10 -13 -38 -30 -61 -16 -22 -30 -47 -30 -53 0 -7 -7 -18 -15 -25 -8 -7 -15
-23 -15 -35 0 -13 -6 -25 -13 -28 -7 -3 -19 -24 -27 -47 -7 -22 -22 -46 -32
-51 -10 -5 -18 -14 -18 -19 0 -5 -20 -38 -45 -74 -25 -37 -45 -69 -45 -72 0
-2 -5 -10 -10 -17 -6 -7 -56 -73 -111 -147 -132 -176 -183 -234 -364 -416
-162 -163 -262 -250 -450 -390 -113 -85 -283 -202 -315 -217 -8 -4 -28 -16
-45 -26 -37 -24 -79 -48 -169 -95 -38 -20 -84 -48 -102 -61 -18 -14 -40 -25
-50 -25 -10 0 -45 -15 -78 -33 -34 -18 -81 -39 -106 -47 -25 -7 -52 -20 -61
-27 -9 -8 -47 -22 -85 -33 -38 -11 -78 -24 -89 -28 -29 -13 -85 -33 -120 -42
-16 -5 -43 -13 -60 -18 -28 -10 -75 -23 -197 -56 -29 -8 -87 -21 -128 -29 -41
-9 -109 -23 -150 -31 -41 -9 -88 -16 -105 -16 -16 0 -68 -7 -115 -16 -128 -24
-697 -24 -874 0 -70 10 -149 24 -175 32 -25 7 -57 14 -70 14 -13 0 -47 6 -75
14 -28 8 -78 22 -111 30 -94 26 -167 47 -210 63 -22 9 -56 21 -75 28 -91 34
-239 97 -270 115 -8 5 -35 19 -60 31 -155 77 -398 241 -545 369 -187 162 -471
488 -535 615 -6 11 -19 34 -29 50 -30 46 -121 233 -121 248 0 7 -6 21 -14 32
-7 11 -16 31 -19 45 -3 14 -10 39 -15 55 -39 112 -47 163 -47 310 0 156 2 167
54 274 36 74 175 176 306 224 191 70 502 120 845 137 291 14 527 40 660 72 25
6 63 14 85 19 22 4 69 16 105 27 36 11 83 25 105 32 22 7 44 16 49 21 6 5 19
9 29 9 10 0 31 6 45 13 15 8 43 21 62 29 61 26 244 118 275 138 17 11 37 23
45 27 8 4 35 21 60 37 275 183 519 432 675 688 14 24 115 227 130 263 58 137
96 286 121 479 37 286 -9 603 -136 936 -62 162 -76 302 -41 433 43 165 124
283 266 388 51 38 232 133 355 186 19 8 44 20 54 25 11 6 31 14 45 18 14 5 51
18 81 30 30 11 84 30 120 41 36 12 81 27 100 34 78 28 283 70 415 84 94 10
294 6 405 -7z"/>
<path d="M4960 3939 c-14 -6 -43 -14 -65 -19 -22 -4 -56 -14 -75 -20 -82 -30
-107 -39 -150 -55 -25 -9 -58 -23 -75 -30 -16 -7 -39 -15 -50 -18 -11 -3 -45
-15 -75 -27 -30 -12 -69 -25 -86 -29 -53 -14 -74 -40 -74 -92 0 -44 3 -49 36
-70 33 -20 40 -21 68 -10 17 7 45 16 61 21 17 5 55 18 85 30 30 12 66 24 80
27 14 3 30 9 35 14 12 9 57 25 210 77 103 34 118 36 230 36 115 0 123 -2 190
-34 87 -41 166 -104 270 -212 73 -76 167 -154 222 -185 139 -78 349 -70 568
23 31 13 114 50 233 105 37 17 83 38 102 46 19 9 48 22 63 29 16 8 37 14 47
14 9 0 34 7 53 15 49 20 153 19 194 -3 17 -9 54 -46 81 -82 105 -139 185 -197
332 -246 79 -26 294 -26 370 0 103 35 137 49 242 96 45 20 98 70 98 91 0 24
-33 70 -60 84 -27 14 -33 13 -79 -5 -28 -11 -58 -24 -68 -29 -103 -53 -231
-91 -306 -91 -52 0 -172 23 -212 41 -52 23 -113 78 -174 157 -80 105 -124 138
-213 162 -68 18 -245 3 -318 -27 -14 -6 -45 -19 -70 -28 -25 -10 -74 -31 -110
-48 -361 -166 -402 -179 -535 -180 -137 -1 -170 17 -342 186 -148 146 -208
194 -288 232 -110 52 -171 65 -300 64 -66 0 -131 -5 -145 -10z"/>
<path d="M4875 3259 c-79 -40 -136 -97 -174 -175 -28 -58 -31 -73 -31 -159 0
-87 3 -101 32 -161 36 -74 101 -139 176 -176 41 -20 61 -23 157 -22 97 0 116
3 156 25 83 44 147 113 184 199 26 58 27 226 1 264 -9 14 -16 30 -16 36 0 18
-67 100 -102 127 -71 53 -134 73 -232 73 -81 -1 -98 -4 -151 -31z m214 -145
c19 -4 50 -25 76 -50 110 -111 67 -284 -83 -328 -48 -14 -57 -14 -102 1 -111
36 -162 137 -129 256 12 43 78 113 112 120 37 7 93 7 126 1z"/>
<path d="M3565 2965 c-71 -18 -102 -33 -168 -83 -104 -79 -167 -209 -167 -346
0 -71 26 -176 48 -198 7 -7 12 -16 12 -21 0 -17 70 -100 112 -130 64 -47 85
-58 157 -78 83 -24 139 -24 221 0 89 26 122 44 189 107 103 95 150 231 132
382 -4 35 -12 67 -18 70 -6 4 -14 18 -18 32 -9 29 -43 84 -73 120 -12 14 -31
37 -41 51 -11 14 -44 38 -73 53 -100 53 -210 67 -313 41z m193 -174 c129 -52
199 -181 171 -312 -7 -29 -18 -61 -26 -70 -7 -8 -13 -21 -13 -27 0 -12 -69
-68 -117 -95 -49 -27 -161 -23 -221 7 -51 26 -96 71 -126 124 -28 51 -25 183
4 240 62 119 213 180 328 133z"/>
<path d="M2285 2905 c-77 -38 -165 -128 -165 -170 0 -9 -7 -27 -16 -41 -13
-19 -16 -40 -12 -92 3 -37 10 -76 15 -87 6 -11 18 -36 28 -55 46 -90 164 -160
269 -160 170 0 316 145 316 315 0 75 -19 131 -67 195 -62 81 -142 120 -247
120 -55 -1 -83 -6 -121 -25z m218 -183 c32 -32 49 -91 41 -139 -3 -17 -22 -48
-42 -67 -33 -34 -40 -36 -98 -36 -59 0 -63 1 -98 40 -33 36 -36 45 -36 98 0
52 3 62 32 91 43 44 64 52 123 46 37 -3 56 -12 78 -33z"/>
<path d="M6970 2793 c-106 -47 -139 -77 -176 -161 -59 -134 -12 -280 118 -363
49 -32 57 -34 143 -34 86 0 94 2 143 34 56 36 97 83 125 144 24 54 23 161 -4
221 -58 132 -232 211 -349 159z m162 -191 c27 -25 32 -36 32 -78 2 -86 -66
-140 -143 -114 -52 17 -75 53 -74 114 1 43 5 54 32 78 44 40 108 39 153 0z"/>
<path d="M6030 2702 c-96 -46 -162 -116 -200 -212 -18 -44 -21 -70 -18 -135 5
-97 36 -169 103 -238 53 -53 88 -73 163 -93 157 -42 316 29 394 175 78 145 50
312 -72 431 -70 68 -108 82 -235 86 -78 2 -108 -1 -135 -14z m233 -178 c34
-26 75 -90 83 -131 7 -38 -15 -106 -46 -146 -28 -35 -94 -67 -138 -67 -47 0
-106 34 -145 82 -27 33 -30 45 -30 107 0 63 3 73 31 109 45 57 84 74 158 69
40 -3 71 -11 87 -23z"/>
<path d="M4877 2098 c-53 -29 -104 -93 -122 -154 -19 -65 -19 -73 1 -142 29
-98 139 -182 238 -182 85 1 184 62 225 140 28 53 30 176 4 223 -27 48 -74 97
-115 118 -53 27 -178 26 -231 -3z m169 -162 c30 -22 27 -97 -6 -125 -14 -11
-35 -20 -46 -21 -23 0 -84 61 -84 83 0 14 28 58 44 69 18 13 71 9 92 -6z"/>
<path d="M3130 1850 c-63 -6 -88 -19 -148 -75 -69 -64 -85 -105 -86 -210 0
-88 0 -91 37 -147 42 -63 82 -97 145 -121 142 -56 321 30 368 178 22 72 23
116 4 175 -19 60 -37 88 -79 128 -68 63 -133 82 -241 72z m84 -174 c79 -33
100 -118 45 -181 -28 -32 -36 -35 -83 -35 -55 0 -78 15 -105 67 -26 50 4 122
61 147 42 18 43 18 82 2z"/>
<path d="M5611 1617 c-48 -15 -123 -94 -138 -145 -37 -121 18 -240 133 -291
59 -26 116 -26 174 0 62 28 98 64 126 128 29 64 30 99 7 164 -43 120 -177 184
-302 144z m121 -174 c20 -18 24 -73 6 -91 -21 -21 -75 -15 -92 10 -21 30 -20
47 6 75 25 27 54 29 80 6z"/>
<path d="M4173 1499 c-52 -24 -113 -84 -142 -140 -32 -61 -33 -184 -2 -251 55
-121 197 -193 321 -163 76 18 114 39 155 88 54 63 75 118 74 196 -1 117 -65
221 -164 267 -69 31 -178 32 -242 3z m203 -181 c13 -13 24 -30 24 -38 0 -9 5
-21 11 -27 13 -13 -7 -79 -33 -105 -23 -23 -73 -48 -95 -48 -31 0 -88 55 -101
98 -18 58 10 120 63 143 33 14 105 1 131 -23z"/>
</g>
</svg>
