<?xml version="1.0" standalone="no"?>
<!DOCTYPE svg PUBLIC "-//W3C//DTD SVG 20010904//EN"
 "http://www.w3.org/TR/2001/REC-SVG-20010904/DTD/svg10.dtd">
<svg version="1.0" xmlns="http://www.w3.org/2000/svg"
 width="628.000000pt" height="630.000000pt" viewBox="0 0 628.000000 630.000000"
 preserveAspectRatio="xMidYMid meet">

<g transform="translate(0.000000,630.000000) scale(0.100000,-0.100000)"
fill="#000000" stroke="none">
<path d="M2871 6189 c-125 -11 -365 -53 -487 -85 -847 -219 -1560 -790 -1958
-1567 -403 -786 -445 -1700 -116 -2522 307 -766 931 -1389 1700 -1697 921
-369 1987 -261 2805 285 626 418 1071 1032 1268 1752 222 809 92 1689 -354
2403 -463 742 -1219 1251 -2077 1397 -258 44 -535 56 -781 34z m569 -573 c139
-19 295 -51 400 -83 807 -243 1440 -876 1683 -1683 66 -217 97 -442 97 -700 0
-402 -78 -740 -253 -1095 -323 -655 -953 -1159 -1657 -1323 -202 -48 -292 -56
-570 -56 -278 0 -368 8 -570 56 -704 164 -1334 668 -1657 1323 -175 355 -253
693 -253 1095 0 258 31 483 97 700 243 807 876 1440 1683 1683 101 31 259 64
390 82 130 18 478 18 610 1z"/>
<path d="M3065 4798 c-51 -19 -102 -55 -130 -92 -54 -71 -55 -80 -55 -713 l0
-583 -583 0 c-646 0 -649 0 -723 -63 -120 -104 -120 -290 0 -394 74 -63 77
-63 723 -63 l583 0 0 -583 c0 -670 -1 -656 79 -737 109 -109 277 -102 378 14
63 74 63 77 63 723 l0 583 583 0 c646 0 649 0 723 63 120 104 120 290 0 394
-74 63 -77 63 -723 63 l-583 0 0 583 c0 646 0 649 -63 723 -64 74 -191 113
-272 82z"/>
</g>
</svg>
