<?xml version="1.0" standalone="no"?>
<!DOCTYPE svg PUBLIC "-//W3C//DTD SVG 20010904//EN"
 "http://www.w3.org/TR/2001/REC-SVG-20010904/DTD/svg10.dtd">
<svg version="1.0" xmlns="http://www.w3.org/2000/svg"
 width="900.000000pt" height="1188.000000pt" viewBox="0 0 900.000000 1188.000000"
 preserveAspectRatio="xMidYMid meet">
<metadata>
Created by potrace 1.10, written by Peter Selinger 2001-2011
</metadata>
<g transform="translate(0.000000,1188.000000) scale(0.100000,-0.100000)"
fill="#000000" stroke="none">
<path d="M3970 11840 c-123 -22 -220 -91 -292 -206 -37 -58 -83 -179 -101
-264 -38 -178 -47 -226 -47 -245 0 -11 -6 -51 -14 -90 -47 -226 -96 -580 -120
-870 -14 -163 -22 -264 -57 -760 -6 -82 -14 -294 -20 -470 -5 -176 -13 -473
-18 -660 -6 -187 -10 -470 -11 -628 0 -474 -55 -766 -164 -882 -39 -40 -76
-52 -116 -35 -39 16 -64 52 -88 126 -62 185 -79 520 -72 1434 12 1648 -4 2355
-60 2575 -31 124 -72 204 -142 280 -96 104 -223 155 -386 155 -84 0 -99 -3
-158 -32 -118 -57 -226 -199 -267 -349 -22 -79 -44 -323 -62 -659 -34 -678
-51 -2596 -28 -3115 17 -364 -1 -710 -46 -914 -22 -101 -47 -150 -85 -170 -21
-12 -28 -10 -57 10 -63 44 -81 64 -111 124 -16 33 -39 78 -51 99 -11 22 -24
56 -28 75 -4 20 -17 61 -29 91 -12 30 -26 69 -30 85 -58 199 -82 287 -90 330
-4 22 -12 58 -18 80 -13 51 -58 261 -86 410 -36 187 -59 318 -91 520 -9 55
-22 136 -31 180 -8 44 -14 93 -14 109 0 16 -7 68 -15 115 -25 151 -44 313 -50
436 -9 182 -32 373 -53 440 -58 186 -130 245 -345 286 -155 29 -283 -39 -355
-188 -13 -26 -30 -61 -38 -76 -8 -16 -14 -41 -14 -57 0 -16 -5 -41 -11 -57
-28 -68 -41 -163 -52 -368 -17 -309 -2 -619 49 -1045 23 -189 56 -419 89 -605
7 -44 21 -125 30 -180 9 -55 23 -129 30 -165 7 -36 21 -103 30 -150 20 -107
43 -218 60 -295 7 -33 21 -96 30 -140 22 -105 43 -197 60 -265 37 -156 61
-259 75 -325 5 -22 6 -69 4 -105 -34 -533 -36 -600 -32 -1095 5 -508 15 -728
45 -965 9 -69 19 -161 22 -205 3 -44 9 -85 13 -91 4 -5 12 -62 18 -125 11
-112 18 -166 40 -284 22 -124 66 -330 85 -400 8 -27 21 -79 31 -115 19 -77 29
-107 93 -305 47 -144 56 -170 88 -242 7 -18 20 -47 28 -65 196 -460 453 -813
762 -1050 103 -79 242 -168 263 -168 6 0 44 -16 83 -36 40 -20 104 -47 142
-59 39 -13 84 -30 100 -39 17 -9 45 -16 63 -16 18 0 42 -5 53 -11 46 -24 320
-79 384 -77 17 0 82 -5 145 -12 290 -31 659 -22 965 26 261 40 532 103 643
150 18 8 39 14 47 14 8 0 31 7 52 16 21 9 52 23 68 30 222 94 495 257 685 408
250 199 484 426 785 760 44 49 85 94 91 100 8 9 210 244 298 346 94 111 397
499 590 759 56 75 209 279 340 454 258 346 331 427 616 683 203 181 491 469
566 565 118 149 190 272 236 399 19 55 23 84 23 195 -1 108 -4 140 -23 193
-45 127 -110 208 -202 253 -165 81 -412 46 -710 -98 -195 -95 -350 -193 -549
-350 -81 -64 -244 -235 -331 -346 -118 -151 -144 -183 -187 -232 -21 -23 -69
-79 -108 -123 -102 -119 -358 -368 -445 -434 -41 -31 -106 -73 -144 -94 -59
-32 -79 -38 -134 -38 l-64 -1 -50 54 c-27 30 -54 64 -59 75 -5 12 -13 28 -17
36 -35 60 -61 140 -86 255 -64 301 -55 815 24 1425 6 41 17 127 25 190 17 141
30 224 50 315 20 98 34 167 52 260 33 172 66 337 88 440 7 33 20 96 30 140 9
44 23 109 31 145 9 36 22 92 29 125 8 33 21 94 31 135 9 41 23 95 30 119 8 25
14 53 14 64 0 11 6 43 14 71 14 48 27 98 60 234 8 31 20 77 27 102 6 25 15 61
19 80 4 19 17 71 30 115 12 44 35 132 52 195 45 171 44 169 68 255 34 124 51
187 60 220 4 17 12 44 18 60 5 17 17 59 27 95 9 36 23 83 30 105 7 22 20 69
30 105 10 36 23 83 30 105 7 22 20 67 30 100 10 33 23 80 31 105 7 25 28 92
45 150 31 104 50 169 74 245 7 22 20 67 30 100 10 33 23 76 30 95 40 114 45
139 45 240 0 136 -23 209 -95 305 -42 55 -70 80 -141 120 -71 41 -188 74 -259
75 -69 0 -172 -31 -236 -72 -93 -60 -193 -185 -241 -303 -50 -124 -141 -344
-153 -370 -17 -40 -74 -181 -91 -227 -8 -21 -21 -55 -29 -75 -18 -48 -94 -268
-105 -308 -4 -16 -13 -43 -19 -60 -38 -104 -71 -212 -71 -231 0 -12 -13 -51
-29 -86 -16 -36 -36 -101 -46 -146 -10 -45 -24 -87 -31 -93 -8 -6 -14 -18 -14
-25 0 -8 -13 -56 -29 -107 -16 -50 -44 -139 -61 -197 -18 -58 -38 -123 -44
-145 -19 -61 -58 -190 -92 -310 -9 -33 -23 -80 -30 -105 -13 -47 -34 -121 -58
-205 -7 -27 -21 -79 -31 -115 -9 -36 -23 -85 -30 -110 -7 -25 -20 -70 -29
-100 -95 -335 -205 -561 -320 -655 -59 -48 -106 -49 -128 -2 -36 73 -66 234
-89 472 -20 210 -23 946 -5 1390 23 561 22 552 35 730 6 88 18 266 27 395 22
344 66 904 90 1140 52 526 -26 808 -260 939 -82 46 -138 61 -246 66 -58 2
-125 0 -150 -5z m-1456 -6356 c38 -4 81 -13 95 -20 14 -8 31 -14 37 -14 44 0
182 -91 255 -167 165 -171 229 -385 184 -613 -18 -93 -31 -130 -71 -200 -85
-150 -219 -262 -380 -319 -273 -97 -591 -2 -769 230 -52 67 -84 128 -116 219
-31 88 -33 305 -5 390 40 117 95 211 169 288 78 81 148 126 277 180 42 17 194
41 230 36 14 -2 56 -6 94 -10z m1780 5 c143 -26 266 -92 369 -196 85 -87 125
-152 170 -278 18 -51 22 -82 22 -205 0 -126 -3 -153 -24 -210 -82 -232 -220
-366 -466 -453 -85 -30 -291 -30 -385 0 -222 71 -390 232 -459 441 -76 227
-35 457 116 654 144 189 417 291 657 247z m992 -1435 c159 -52 270 -146 341
-285 139 -277 -4 -635 -296 -746 -73 -28 -99 -33 -175 -33 -84 0 -122 8 -231
48 -74 26 -100 44 -161 107 -74 78 -82 90 -124 190 -31 75 -33 87 -32 195 0
98 4 125 26 184 59 159 179 276 345 333 83 28 231 31 307 7z m-3711 -14 c158
-32 304 -152 376 -310 8 -19 24 -74 34 -122 17 -84 17 -91 0 -180 -19 -101
-60 -190 -122 -264 -42 -50 -132 -119 -183 -139 -8 -4 -30 -13 -49 -21 -44
-20 -211 -29 -281 -16 -84 16 -124 33 -198 82 -99 67 -165 155 -216 289 -25
64 -23 248 3 321 98 275 349 417 636 360z m1855 -531 c36 -6 81 -15 100 -20
145 -41 182 -54 235 -84 33 -18 69 -42 80 -52 11 -10 40 -33 65 -50 64 -45
190 -168 190 -185 0 -8 14 -27 30 -43 17 -16 30 -33 30 -39 0 -12 60 -76 72
-76 21 0 200 -204 306 -350 83 -114 179 -273 264 -440 163 -317 194 -443 149
-602 -58 -201 -211 -347 -437 -420 -59 -19 -91 -22 -224 -21 -96 0 -193 6
-255 17 -169 28 -275 45 -385 63 -148 24 -515 24 -660 0 -190 -31 -294 -49
-365 -62 -154 -29 -321 -39 -418 -26 -104 15 -140 26 -247 79 -90 44 -210 159
-254 242 -32 63 -66 186 -66 245 0 58 47 231 79 293 5 9 37 76 72 147 52 109
114 223 158 295 65 105 98 153 175 255 89 118 109 144 235 294 284 337 517
491 821 541 41 7 80 14 85 16 12 4 76 -3 165 -17z"/>
</g>
</svg>
