<?xml version="1.0" standalone="no"?>
<!DOCTYPE svg PUBLIC "-//W3C//DTD SVG 20010904//EN"
 "http://www.w3.org/TR/2001/REC-SVG-20010904/DTD/svg10.dtd">
<svg version="1.0" xmlns="http://www.w3.org/2000/svg"
 width="900.000000pt" height="816.000000pt" viewBox="0 0 900.000000 816.000000"
 preserveAspectRatio="xMidYMid meet">
<metadata>
Created by potrace 1.10, written by Peter Selinger 2001-2011
</metadata>
<g transform="translate(0.000000,816.000000) scale(0.100000,-0.100000)"
fill="#000000" stroke="none">
<path d="M4865 7599 c-22 -5 -60 -13 -85 -18 -68 -14 -168 -55 -285 -119 -19
-10 -31 -10 -67 3 -123 45 -250 73 -388 86 -143 14 -419 5 -520 -17 -115 -24
-192 -44 -228 -60 -18 -8 -39 -14 -46 -14 -23 0 -254 -107 -318 -148 -85 -54
-178 -125 -259 -199 l-47 -42 -43 16 c-63 22 -307 22 -369 0 -25 -9 -57 -17
-71 -17 -14 0 -34 -7 -45 -15 -10 -8 -27 -15 -36 -15 -9 0 -23 -6 -30 -13 -7
-8 -30 -19 -49 -26 -40 -13 -155 -96 -210 -151 -51 -50 -114 -138 -133 -185
-20 -47 -30 -55 -75 -55 -137 0 -371 -74 -516 -163 -122 -75 -261 -208 -339
-325 -105 -159 -154 -291 -185 -498 l-16 -111 -61 -69 c-56 -64 -110 -138
-127 -174 -4 -8 -16 -28 -26 -45 -30 -46 -76 -144 -104 -220 -130 -357 -142
-823 -30 -1215 26 -91 76 -236 92 -268 5 -9 17 -35 27 -57 28 -59 132 -234
168 -280 93 -122 265 -291 321 -316 11 -5 34 -18 50 -29 48 -31 147 -77 211
-98 183 -61 435 -51 587 24 37 18 81 18 97 -1 7 -8 19 -15 27 -15 8 0 27 -6
41 -14 111 -57 285 -75 515 -54 31 3 24 16 82 -163 8 -26 15 -52 15 -58 0 -19
60 -139 96 -193 135 -200 251 -316 412 -411 62 -37 118 -67 125 -67 6 0 21 -7
31 -15 11 -8 28 -15 38 -15 9 0 32 -6 50 -14 92 -39 315 -58 403 -35 22 6 57
14 78 18 21 5 44 14 50 20 14 14 52 14 80 -1 25 -13 73 -26 137 -38 50 -9 100
-25 143 -46 16 -8 34 -14 41 -14 7 0 21 -9 31 -20 10 -11 25 -20 33 -20 7 0
26 -6 40 -14 15 -8 56 -28 92 -44 103 -47 151 -71 215 -107 33 -19 67 -37 75
-41 22 -11 177 -113 192 -127 8 -7 43 -37 78 -67 190 -160 330 -357 423 -595
46 -119 107 -366 107 -434 0 -45 32 -95 74 -115 29 -14 87 -16 431 -16 372 0
399 2 434 20 23 11 43 31 50 49 14 33 9 121 -14 236 -8 39 -21 115 -30 170 -9
55 -23 134 -30 175 -13 71 -34 197 -38 230 -2 13 31 16 223 21 124 3 250 11
280 18 30 6 75 17 100 23 25 6 61 14 80 18 35 8 66 18 145 48 38 14 216 100
260 126 158 91 375 294 466 436 69 107 73 115 99 170 12 25 26 53 31 62 12 24
43 120 62 193 38 147 48 329 25 453 -12 62 -11 65 11 83 13 11 31 19 41 19 10
0 31 7 47 15 15 7 48 24 73 35 245 115 447 328 545 575 63 157 85 272 85 434
0 178 -38 350 -102 461 -4 8 -11 20 -14 27 -3 7 6 37 20 66 112 238 129 547
43 802 -35 104 -62 167 -97 220 -11 17 -23 37 -27 45 -14 32 -94 128 -155 188
-80 78 -174 147 -261 192 -55 28 -68 40 -82 74 -22 54 -74 167 -86 186 -5 8
-14 24 -19 35 -6 11 -19 34 -30 50 -11 17 -23 37 -27 45 -4 8 -40 59 -80 113
-96 127 -223 254 -348 348 -87 65 -122 88 -220 146 -32 19 -121 61 -207 97
-18 8 -60 22 -93 31 -33 10 -67 20 -77 24 -9 3 -48 48 -87 99 -40 50 -76 92
-81 92 -6 0 -10 5 -10 11 0 20 -139 140 -215 186 -74 45 -211 106 -285 126
-213 60 -372 60 -612 2 -22 -6 -35 2 -87 49 -33 31 -67 56 -75 56 -8 0 -16 3
-18 8 -14 32 -211 124 -308 143 -143 29 -232 34 -305 18z m305 -244 c111 -42
172 -81 251 -156 87 -85 118 -128 192 -277 9 -19 17 -40 17 -47 0 -8 6 -29 14
-47 32 -76 48 -180 52 -330 2 -84 3 -158 4 -164 0 -7 13 -26 29 -43 25 -26 36
-31 78 -31 57 0 94 28 113 86 22 65 2 316 -37 464 -23 90 -46 163 -58 190 -45
93 -53 116 -47 122 11 10 193 29 232 23 19 -2 62 -7 95 -11 33 -4 75 -13 94
-20 18 -8 41 -14 50 -14 9 0 55 -20 102 -44 140 -70 271 -181 347 -292 23 -34
42 -65 42 -68 0 -4 11 -22 25 -40 19 -25 40 -37 87 -50 212 -59 309 -101 441
-188 32 -21 61 -38 64 -38 5 0 55 -39 122 -95 30 -26 160 -155 186 -186 34
-40 119 -161 151 -214 48 -79 118 -230 128 -275 8 -36 43 -90 64 -96 96 -31
261 -143 344 -233 132 -142 200 -288 234 -498 18 -111 18 -114 -3 -235 -11
-68 -27 -139 -34 -158 -29 -81 -134 -281 -170 -323 -86 -100 -204 -148 -308
-125 -132 29 -214 127 -227 270 -9 98 -30 128 -97 135 -140 16 -167 -153 -59
-373 23 -48 104 -137 155 -171 118 -79 289 -110 407 -74 61 18 131 51 154 73
11 10 23 18 28 18 5 0 29 20 55 45 57 56 76 55 84 -5 4 -25 12 -80 19 -122 13
-76 10 -127 -19 -278 -11 -56 -43 -147 -72 -200 -40 -76 -56 -101 -94 -150
-75 -97 -198 -201 -300 -252 -109 -55 -153 -66 -161 -41 -55 171 -169 355
-308 496 -59 59 -216 187 -230 187 -3 0 -27 13 -53 28 -26 15 -68 36 -93 46
-25 10 -58 24 -75 31 -28 12 -63 23 -195 58 -30 9 -91 18 -135 22 -91 8 -115
17 -115 45 0 18 -12 52 -48 130 -29 63 -130 180 -156 180 -5 0 -25 12 -45 28
-54 41 -98 55 -181 57 -41 1 -79 4 -85 6 -27 9 -71 -12 -89 -42 -49 -82 12
-169 118 -169 138 0 276 -142 276 -284 0 -138 -133 -286 -257 -286 -67 0 -133
-56 -133 -113 0 -45 34 -92 75 -104 54 -17 232 20 267 55 7 7 18 12 26 12 7 0
46 33 85 73 64 65 102 122 121 180 5 16 16 18 88 15 223 -10 484 -127 669
-299 71 -67 229 -294 229 -330 0 -6 6 -23 14 -37 40 -77 76 -316 76 -508 0
-140 -1 -149 -47 -289 -16 -48 -71 -168 -96 -210 -57 -93 -222 -279 -239 -269
-4 3 -8 22 -8 43 0 52 -25 135 -63 210 -43 85 -135 170 -235 217 -75 36 -80
37 -199 38 -114 1 -123 0 -146 -22 -33 -31 -51 -75 -43 -106 3 -13 20 -38 37
-55 30 -30 33 -31 119 -31 97 0 136 -12 203 -64 119 -90 141 -274 49 -396 -45
-59 -63 -70 -202 -119 -68 -24 -146 -42 -275 -61 -146 -22 -237 -24 -340 -9
-236 34 -259 32 -295 -26 -24 -39 -24 -50 -6 -140 8 -38 22 -115 31 -170 24
-148 45 -270 60 -360 23 -131 28 -182 16 -189 -6 -4 -127 -7 -268 -6 -205 0
-260 3 -268 14 -6 7 -16 42 -23 77 -13 66 -35 151 -54 204 -5 17 -14 44 -18
60 -11 38 -37 110 -49 133 -5 9 -26 51 -47 92 -53 106 -54 107 -106 185 -25
39 -91 122 -145 185 -54 64 -103 125 -110 135 -48 78 -83 194 -83 271 1 64 31
176 65 239 34 64 161 185 228 218 59 29 167 57 218 57 39 0 169 -31 214 -51
34 -15 104 -66 122 -89 7 -8 15 -31 19 -50 7 -32 27 -81 59 -140 17 -31 124
-137 156 -155 101 -57 194 -76 253 -51 41 17 42 19 51 79 7 46 6 48 -31 83
-21 19 -50 37 -64 40 -79 17 -154 74 -193 148 -18 34 -22 57 -21 136 0 91 1
97 33 145 35 53 94 101 151 124 19 7 74 14 122 15 82 1 89 3 118 31 24 23 30
37 30 72 0 35 -6 48 -36 78 l-36 36 -111 -3 c-62 -2 -128 -10 -147 -18 -86
-33 -128 -59 -192 -119 -66 -62 -80 -80 -112 -148 -14 -31 -42 -43 -60 -26 -3
4 -23 13 -44 20 -114 42 -162 53 -229 53 -40 0 -75 5 -78 11 -4 5 8 40 26 77
74 153 105 268 116 432 7 110 -26 299 -72 405 -7 17 -21 50 -31 75 -10 25 -24
52 -31 61 -7 8 -13 19 -13 23 0 4 -16 31 -35 60 -43 66 -87 85 -148 65 -72
-24 -96 -95 -56 -166 120 -212 149 -309 149 -494 0 -131 -8 -180 -47 -284 -60
-159 -139 -271 -313 -445 -102 -102 -120 -125 -161 -210 -59 -120 -79 -195
-79 -298 0 -97 -9 -106 -67 -69 -56 35 -287 147 -304 147 -9 0 -24 7 -35 15
-10 8 -29 15 -41 15 -12 0 -29 7 -37 16 -9 8 -37 22 -63 31 -27 9 -60 24 -75
34 -14 11 -34 19 -45 19 -10 0 -47 14 -81 30 -35 17 -79 30 -97 30 -19 0 -37
5 -40 11 -4 5 -17 15 -28 20 -84 38 -181 134 -223 220 -84 169 -84 300 -2 463
64 128 152 202 308 261 36 13 72 16 186 13 130 -3 144 -1 164 17 31 28 42 63
35 108 -6 30 -15 44 -47 65 -39 26 -45 26 -192 27 -158 0 -188 -6 -306 -58
-113 -51 -222 -141 -292 -242 -38 -55 -98 -177 -98 -199 0 -7 -7 -30 -15 -49
-21 -51 -21 -293 0 -344 8 -19 15 -42 15 -49 0 -25 63 -148 102 -200 60 -80
55 -88 -49 -81 -158 11 -216 27 -347 96 -136 71 -228 155 -347 316 -52 72 -62
87 -88 140 -41 85 -75 198 -86 280 -6 47 -4 54 28 95 146 193 159 383 41 602
-22 41 -102 119 -161 157 -67 43 -145 70 -205 71 -42 0 -50 -4 -77 -37 -62
-75 -26 -149 91 -187 75 -24 121 -60 170 -132 32 -47 33 -53 33 -144 0 -93 -1
-96 -37 -150 -71 -106 -130 -130 -316 -131 -155 -1 -209 14 -343 94 -60 35
-114 36 -176 2 -97 -55 -158 -69 -293 -69 -126 0 -195 15 -280 59 -51 26 -109
103 -130 174 -21 68 -21 87 7 173 40 126 188 212 319 186 48 -9 59 -8 90 8 86
46 81 154 -9 197 -47 23 -209 23 -269 1 -188 -69 -301 -185 -353 -361 -11 -35
-24 -63 -29 -63 -6 0 -22 19 -36 42 -14 22 -33 53 -42 67 -18 28 -112 217
-133 266 -48 116 -88 276 -107 425 -13 105 -16 359 -5 460 15 133 55 307 83
362 8 14 14 31 14 37 0 11 61 142 83 176 49 78 140 186 205 241 77 66 230 164
257 164 7 0 16 4 19 9 8 13 130 49 225 66 57 10 148 15 293 15 l209 0 30 32
c43 48 41 102 -7 149 l-35 34 -251 -2 c-256 -1 -340 -11 -443 -50 -22 -8 -58
-22 -80 -30 -22 -9 -61 -26 -87 -40 -27 -13 -52 -22 -57 -19 -19 12 30 159 82
241 25 40 101 141 131 174 38 40 162 134 216 162 22 12 43 25 46 30 3 5 13 9
22 9 9 1 35 9 57 20 22 11 49 19 60 20 12 0 26 5 31 10 6 6 71 13 145 16 74 3
146 10 161 16 26 10 68 63 68 86 0 24 75 137 131 196 59 64 148 116 274 162
72 26 217 25 266 -2 126 -70 206 -252 179 -407 -17 -92 -41 -133 -131 -222
-85 -84 -160 -198 -191 -290 -23 -69 -33 -191 -19 -242 19 -70 97 -104 151
-66 51 35 59 54 60 130 0 99 41 197 120 286 30 34 146 122 181 136 13 6 31 15
39 20 102 58 295 101 452 101 106 0 185 -13 293 -47 213 -67 367 -212 390
-367 12 -88 47 -125 115 -126 51 0 95 31 106 76 8 30 -13 157 -32 194 -6 14
-22 47 -35 74 -29 59 -112 152 -191 212 -58 45 -220 134 -244 134 -7 0 -28 6
-46 14 -84 36 -175 48 -356 48 -183 1 -290 -13 -370 -48 -56 -24 -59 -21 -65
64 -4 42 -13 104 -20 137 -15 63 -70 189 -87 200 -5 3 -10 10 -10 14 0 23 232
231 258 231 5 0 14 6 20 13 12 14 172 94 242 122 25 9 60 23 78 31 18 8 40 14
50 14 9 0 37 6 62 14 151 48 476 63 645 30 119 -23 257 -64 309 -91 15 -8 50
-16 76 -16 39 -1 56 5 86 29 80 61 183 110 264 124 75 14 279 5 330 -15z"/>
<path d="M5044 6986 c-48 -21 -74 -72 -74 -145 0 -119 -79 -219 -205 -258 -90
-28 -185 -6 -260 60 -59 51 -105 137 -105 193 0 62 -73 116 -135 100 -34 -9
-75 -72 -75 -117 0 -37 38 -166 56 -190 5 -8 19 -31 29 -52 11 -21 45 -62 75
-91 198 -190 512 -179 702 23 32 35 63 73 69 85 5 11 13 28 18 36 23 38 40 91
50 165 10 66 10 87 -2 120 -23 65 -85 96 -143 71z"/>
<path d="M6802 6203 c-22 -4 -103 -95 -123 -138 -5 -11 -18 -33 -29 -50 -10
-16 -35 -64 -56 -105 -20 -41 -43 -87 -50 -102 -8 -14 -14 -35 -14 -45 0 -10
-4 -23 -9 -29 -10 -10 -40 -119 -48 -169 -3 -16 -11 -65 -19 -109 -25 -142
-13 -355 31 -511 8 -27 16 -59 19 -70 11 -46 71 -193 96 -235 5 -8 19 -35 32
-60 12 -25 49 -85 81 -133 81 -120 128 -147 197 -112 31 16 60 61 60 93 0 10
-24 54 -52 98 -71 107 -70 105 -127 221 -28 56 -51 108 -51 116 0 7 -7 22 -15
33 -8 10 -15 29 -15 42 0 13 -5 33 -11 44 -11 21 -19 62 -40 225 -10 79 -10
108 6 210 9 65 23 136 30 158 7 22 20 65 30 95 18 57 72 173 106 225 10 17 22
37 26 45 3 8 26 41 50 72 32 42 43 66 43 92 0 67 -71 115 -148 99z"/>
<path d="M5040 5990 c-62 -10 -125 -31 -142 -48 -7 -7 -16 -12 -20 -12 -16 0
-114 -80 -145 -117 -46 -58 -59 -103 -42 -144 20 -50 47 -68 100 -69 49 0 50
1 136 92 74 79 203 109 300 70 159 -65 233 -246 161 -393 -16 -31 -28 -60 -28
-66 0 -5 -12 -28 -27 -50 -40 -56 -52 -76 -59 -93 -3 -8 -12 -28 -19 -45 -46
-105 -61 -294 -30 -380 8 -22 15 -46 15 -53 0 -24 79 -177 118 -229 129 -173
193 -207 267 -142 31 27 35 37 35 79 0 44 -4 53 -51 102 -87 91 -148 201 -174
316 -16 68 -16 76 0 145 27 107 69 178 165 274 91 92 225 186 372 260 51 26
96 56 108 73 29 41 26 89 -8 130 -26 30 -34 34 -78 33 -45 0 -115 -29 -209
-86 -10 -7 -37 -23 -60 -37 -65 -40 -84 -49 -88 -42 -2 4 -12 36 -22 72 -10
36 -23 72 -29 80 -6 8 -20 32 -31 53 -10 21 -47 65 -81 97 -118 109 -270 155
-434 130z"/>
<path d="M7420 5425 c-165 -41 -274 -126 -344 -271 -32 -65 -39 -90 -40 -142
-1 -60 1 -65 32 -93 36 -33 93 -39 126 -14 29 22 56 67 56 93 0 54 84 159 157
196 49 25 192 22 244 -5 110 -56 170 -165 167 -301 -2 -71 0 -79 25 -104 22
-22 36 -26 79 -26 46 0 54 3 80 33 26 33 27 38 28 144 0 78 -4 118 -15 139 -8
15 -15 37 -15 47 0 10 -4 20 -9 23 -5 4 -19 26 -31 51 -44 91 -201 206 -310
227 -79 16 -173 17 -230 3z"/>
<path d="M1354 5308 c-41 -31 -44 -37 -44 -92 0 -37 7 -58 30 -93 17 -24 30
-46 30 -49 0 -17 138 -184 223 -270 108 -111 116 -126 117 -246 0 -51 -4 -61
-39 -105 -44 -55 -57 -67 -128 -116 l-52 -36 -73 8 c-40 5 -90 16 -112 26 -47
20 -130 101 -149 146 -23 54 -51 73 -108 73 -106 0 -135 -92 -65 -210 80 -137
229 -234 381 -248 85 -8 248 24 281 55 11 10 27 19 36 19 19 0 136 113 160
155 10 17 22 37 27 45 6 8 20 48 32 88 26 86 32 88 134 37 39 -19 75 -35 82
-35 7 0 27 -6 45 -14 42 -18 123 -40 220 -61 106 -23 455 -23 552 -1 37 9 78
16 91 16 42 0 86 49 92 101 5 41 2 50 -25 80 -28 31 -34 34 -89 32 -32 -1 -98
-8 -148 -17 -195 -34 -473 -8 -633 60 -18 8 -37 14 -42 14 -16 0 -153 67 -193
94 -21 14 -40 26 -43 26 -13 0 -135 101 -200 165 -83 83 -198 233 -224 293 -5
13 -24 36 -42 53 -40 36 -83 38 -124 7z"/>
<path d="M3345 5031 c-75 -33 -84 -140 -16 -187 28 -19 48 -24 99 -24 117 0
232 -52 331 -150 107 -106 161 -246 147 -387 -10 -108 -18 -146 -32 -161 -8
-7 -14 -21 -14 -30 0 -25 -31 -71 -83 -122 -68 -68 -83 -80 -94 -80 -5 0 -18
-9 -27 -19 -9 -10 -27 -21 -39 -24 -12 -3 -58 -15 -102 -26 -44 -11 -94 -21
-111 -21 -89 0 -124 -130 -51 -191 28 -23 152 -25 212 -4 22 8 49 15 61 15 11
0 29 7 40 15 10 8 24 15 31 15 51 1 252 166 303 249 14 22 31 43 38 46 8 3 30
-8 50 -23 41 -32 75 -51 141 -78 64 -27 258 -27 322 0 109 45 177 95 238 174
53 69 78 125 97 212 18 81 18 118 0 201 -23 110 -55 148 -126 149 -73 0 -123
-60 -105 -128 4 -15 10 -67 12 -115 4 -74 1 -94 -17 -131 -84 -175 -319 -221
-457 -89 -56 54 -63 74 -63 185 0 57 -5 121 -11 143 -6 22 -14 56 -18 75 -7
31 -49 124 -86 189 -25 44 -115 140 -173 184 -61 46 -157 95 -237 121 -59 18
-231 30 -260 17z"/>
</g>
</svg>
