<?xml version="1.0" standalone="no"?>
<!DOCTYPE svg PUBLIC "-//W3C//DTD SVG 20010904//EN"
 "http://www.w3.org/TR/2001/REC-SVG-20010904/DTD/svg10.dtd">
<svg version="1.0" xmlns="http://www.w3.org/2000/svg"
 width="900.000000pt" height="1053.000000pt" viewBox="0 0 900.000000 1053.000000"
 preserveAspectRatio="xMidYMid meet">
<metadata>
Created by potrace 1.10, written by Peter Selinger 2001-2011
</metadata>
<g transform="translate(0.000000,1053.000000) scale(0.100000,-0.100000)"
fill="#000000" stroke="none">
<path d="M4487 9511 c-26 -10 -61 -31 -78 -47 -24 -23 -228 -317 -249 -359 -3
-5 -36 -57 -75 -115 -38 -58 -72 -109 -75 -115 -3 -5 -23 -37 -45 -70 -45 -67
-61 -93 -71 -115 -4 -8 -26 -41 -49 -75 -23 -33 -44 -67 -48 -75 -4 -8 -15
-27 -25 -42 -9 -15 -37 -59 -62 -98 -25 -39 -53 -83 -62 -98 -10 -15 -22 -36
-28 -47 -6 -11 -18 -32 -28 -47 -9 -15 -83 -136 -163 -270 -193 -320 -187
-310 -199 -333 -6 -11 -19 -33 -30 -50 -11 -16 -23 -37 -27 -45 -8 -17 -89
-158 -103 -180 -6 -8 -14 -24 -20 -35 -5 -11 -25 -47 -44 -80 -19 -33 -46 -80
-59 -105 -14 -25 -34 -61 -45 -80 -12 -19 -33 -57 -47 -85 -14 -27 -35 -66
-47 -85 -21 -36 -95 -174 -179 -335 -62 -119 -287 -571 -329 -660 -106 -227
-128 -277 -190 -425 -29 -69 -58 -138 -65 -155 -7 -16 -21 -50 -30 -75 -9 -25
-23 -58 -30 -75 -7 -16 -15 -39 -18 -50 -3 -11 -15 -45 -27 -75 -23 -58 -76
-215 -90 -265 -5 -16 -19 -61 -30 -100 -12 -38 -25 -88 -30 -110 -5 -22 -13
-58 -19 -80 -63 -253 -80 -490 -53 -750 15 -143 38 -281 58 -351 8 -28 14 -59
14 -70 0 -10 6 -36 14 -59 7 -22 21 -67 31 -100 43 -149 183 -465 256 -580 10
-16 22 -37 26 -45 24 -51 176 -262 256 -355 132 -155 206 -229 353 -355 41
-36 232 -180 238 -180 3 0 33 -19 68 -43 35 -23 73 -47 84 -54 33 -21 337
-169 384 -188 25 -9 56 -21 68 -26 33 -13 136 -46 202 -65 30 -9 75 -22 100
-30 25 -8 55 -14 68 -14 12 0 48 -6 80 -14 140 -35 280 -47 544 -47 262 0 351
8 548 47 138 28 284 67 338 90 18 8 39 14 47 14 8 0 31 7 52 16 21 9 54 23 73
31 19 8 49 21 65 28 504 216 966 604 1256 1055 86 133 92 142 120 195 81 150
127 256 203 463 38 103 92 326 116 477 33 205 35 568 4 703 -8 35 -14 64 -14
65 0 1 48 51 106 111 91 94 224 254 224 270 0 3 12 24 28 48 45 70 50 80 88
158 53 111 60 126 104 250 6 19 15 51 20 70 4 19 13 55 19 80 58 235 56 562
-5 805 -26 101 -46 169 -59 200 -7 17 -20 50 -30 75 -23 59 -81 177 -106 215
-10 17 -22 37 -26 45 -4 8 -27 44 -51 80 -285 419 -755 709 -1257 775 -199 26
-256 28 -358 10 -105 -18 -118 -15 -138 30 -5 11 -18 34 -29 50 -11 17 -23 37
-27 45 -4 8 -26 47 -48 85 -23 39 -44 77 -48 85 -4 8 -16 29 -27 45 -11 17
-24 39 -30 50 -6 11 -19 34 -30 50 -10 17 -26 42 -34 58 -15 29 -329 550 -358
595 -10 15 -22 36 -28 47 -17 31 -31 55 -78 123 -23 35 -42 65 -42 68 0 2 -20
33 -45 70 -25 36 -45 68 -45 71 0 3 -13 22 -30 43 -16 21 -30 41 -30 45 0 3
-19 32 -43 63 -23 31 -51 69 -60 85 -31 49 -149 191 -195 235 -46 44 -117 83
-149 81 -10 0 -39 -9 -66 -18z m101 -671 c12 -16 22 -31 22 -33 0 -3 33 -54
74 -115 40 -60 76 -116 80 -123 3 -8 14 -26 24 -41 9 -15 36 -57 60 -95 24
-37 65 -102 93 -143 27 -41 54 -84 59 -95 6 -11 18 -32 28 -47 27 -42 255
-415 276 -451 10 -18 54 -91 97 -163 43 -73 79 -138 79 -146 0 -8 -33 -29 -72
-48 -261 -119 -507 -319 -693 -560 -45 -59 -147 -227 -182 -300 -42 -89 -73
-163 -73 -176 0 -7 -6 -28 -14 -46 -40 -95 -72 -255 -87 -425 -24 -273 23
-580 126 -828 19 -45 100 -209 118 -240 122 -202 296 -396 481 -533 52 -40 97
-72 100 -72 3 0 24 -12 48 -28 79 -50 96 -59 219 -115 90 -42 203 -80 284 -96
22 -5 60 -13 85 -19 67 -16 192 -32 306 -39 169 -10 456 36 634 102 77 29 146
58 157 67 27 22 33 -5 33 -145 0 -172 -18 -305 -70 -507 -6 -25 -15 -61 -20
-80 -4 -19 -14 -51 -20 -70 -34 -94 -43 -117 -56 -143 -8 -16 -14 -33 -14 -38
0 -18 -93 -202 -154 -304 -169 -285 -432 -564 -716 -757 -36 -24 -72 -47 -80
-51 -8 -4 -28 -16 -45 -27 -37 -24 -274 -140 -335 -164 -25 -10 -56 -23 -70
-28 -14 -6 -38 -14 -55 -18 -16 -5 -43 -13 -60 -19 -86 -29 -261 -66 -405 -86
-219 -29 -595 -14 -756 31 -28 8 -60 14 -71 14 -11 0 -39 6 -64 14 -24 7 -71
21 -104 31 -57 16 -92 28 -180 63 -56 22 -294 139 -330 162 -16 11 -37 23 -45
27 -47 22 -234 161 -315 233 -90 80 -242 240 -299 315 -33 44 -64 85 -68 90
-27 33 -75 102 -81 115 -4 8 -16 29 -26 45 -20 30 -48 81 -93 165 -23 44 -75
164 -105 245 -42 110 -40 105 -87 290 -46 187 -72 473 -56 641 11 110 31 228
54 319 35 133 49 183 61 215 24 65 66 195 75 229 5 18 13 38 19 44 6 6 11 19
11 28 0 10 6 30 14 46 8 15 22 48 31 73 9 25 23 59 30 75 7 17 30 71 50 120
33 80 51 121 99 230 43 95 248 525 266 555 5 8 41 78 80 155 76 148 148 285
196 373 16 30 43 79 60 110 58 107 85 157 106 192 11 19 31 55 45 80 13 25 34
61 45 80 11 19 31 55 45 80 13 25 28 52 33 60 20 31 126 216 133 230 4 8 16
29 27 45 11 17 24 39 30 50 6 11 19 34 30 50 11 17 24 39 30 50 6 11 19 34 29
50 11 17 29 48 41 70 12 22 34 58 49 80 15 22 30 47 34 55 4 8 16 29 27 45 11
17 24 39 30 50 6 11 19 34 30 50 11 17 24 39 30 50 6 11 18 32 28 47 9 15 37
59 62 98 25 39 53 83 62 98 10 15 21 34 25 42 4 8 25 42 48 75 23 34 45 67 49
75 10 22 26 48 71 115 22 33 42 65 45 71 12 26 155 234 160 234 4 0 16 -13 28
-30z m1747 -1795 c142 -17 227 -38 360 -90 202 -78 426 -249 571 -437 24 -31
44 -59 44 -62 0 -3 13 -24 29 -48 82 -123 157 -315 182 -468 24 -150 29 -188
29 -255 0 -115 -40 -338 -76 -423 -8 -18 -14 -39 -14 -47 0 -7 -6 -26 -14 -42
-8 -15 -23 -46 -33 -68 -106 -231 -307 -452 -535 -590 -9 -5 -52 -27 -95 -49
-43 -21 -87 -43 -98 -49 -11 -6 -33 -14 -50 -18 -16 -4 -43 -12 -60 -18 -102
-34 -276 -61 -401 -61 -130 0 -317 32 -435 74 -92 32 -116 42 -176 73 -94 49
-100 53 -203 129 -268 201 -433 453 -520 794 -31 123 -36 461 -9 551 5 19 14
54 18 79 18 94 100 292 156 374 14 20 25 39 25 42 0 12 99 134 165 203 87 91
255 220 328 251 12 6 29 14 37 19 31 20 151 71 165 71 8 0 29 6 47 14 49 21
131 38 238 51 133 17 188 17 325 0z"/>
<path d="M2783 4191 c-45 -11 -98 -54 -131 -104 -27 -41 -27 -45 -25 -187 2
-138 16 -251 49 -385 95 -381 290 -711 579 -973 67 -62 219 -182 229 -182 2 0
28 -16 58 -35 88 -58 283 -151 393 -186 198 -64 341 -92 551 -106 75 -5 101
-2 144 13 63 23 112 69 140 130 30 70 27 129 -12 194 -45 75 -96 107 -178 114
-263 24 -377 42 -448 72 -18 8 -39 14 -47 14 -49 0 -314 141 -426 226 -130 99
-317 314 -383 438 -14 27 -30 54 -34 60 -8 11 -62 138 -87 206 -42 113 -75
296 -75 414 0 96 -10 134 -54 200 -44 64 -155 99 -243 77z"/>
<path d="M5416 6201 c-17 -32 -43 -100 -56 -146 -4 -16 -18 -55 -30 -85 -12
-30 -26 -68 -30 -85 -9 -30 -19 -59 -60 -165 -12 -30 -25 -68 -30 -85 -5 -16
-18 -55 -30 -85 -12 -30 -25 -68 -30 -85 -5 -16 -18 -55 -30 -85 -12 -30 -25
-68 -30 -85 -5 -16 -17 -53 -28 -82 -11 -28 -17 -54 -14 -57 3 -3 53 -6 112
-6 l107 0 15 38 c9 20 25 66 36 102 l20 65 205 3 205 2 16 -42 c8 -24 24 -70
35 -103 l20 -60 115 -3 c77 -2 116 1 116 8 0 12 -29 99 -60 180 -12 30 -25 69
-30 85 -5 17 -18 55 -30 85 -12 30 -25 69 -30 85 -5 17 -18 55 -30 85 -12 30
-25 69 -30 85 -5 17 -18 55 -30 85 -12 30 -25 69 -30 85 -5 17 -18 55 -30 85
-12 30 -24 64 -27 75 -16 63 -48 124 -67 129 -12 3 -67 6 -123 6 l-102 0 -15
-29z m148 -263 c2 -7 29 -91 60 -185 31 -95 56 -180 56 -188 0 -13 -21 -15
-130 -15 l-130 0 0 35 c0 19 6 49 14 67 17 42 35 94 46 133 33 121 73 193 84
153z"/>
<path d="M6205 6198 c-3 -13 -4 -252 -3 -533 l3 -510 300 -3 c255 -2 308 0
355 14 120 36 196 113 225 229 29 119 2 213 -84 285 -28 24 -51 46 -51 50 0 3
19 26 43 51 106 111 83 298 -48 383 -77 50 -124 56 -446 56 l-289 0 -5 -22z
m570 -179 c56 -20 81 -71 64 -128 -21 -71 -48 -82 -223 -88 -202 -8 -196 -11
-196 115 0 65 4 102 13 111 17 18 287 10 342 -10z m0 -412 c23 -6 52 -22 65
-35 21 -19 24 -31 24 -92 0 -79 -13 -101 -79 -131 -33 -15 -66 -19 -187 -19
-80 0 -153 3 -162 6 -14 5 -16 27 -16 138 0 73 3 136 7 139 12 12 306 7 348
-6z"/>
</g>
</svg>
