<?xml version="1.0" standalone="no"?>
<!DOCTYPE svg PUBLIC "-//W3C//DTD SVG 20010904//EN"
 "http://www.w3.org/TR/2001/REC-SVG-20010904/DTD/svg10.dtd">
<svg version="1.0" xmlns="http://www.w3.org/2000/svg"
 width="714.000000pt" height="543.000000pt" viewBox="0 0 714.000000 543.000000"
 preserveAspectRatio="xMidYMid meet">
<metadata>
Created by potrace 1.10, written by Peter Selinger 2001-2011
</metadata>
<g transform="translate(0.000000,543.000000) scale(0.100000,-0.100000)"
fill="#000000" stroke="none">
<path d="M916 5379 c-10 -71 3 -290 21 -378 l16 -73 -29 -24 c-16 -13 -32 -23
-37 -24 -17 0 -188 -113 -221 -145 -21 -20 -36 -44 -36 -58 0 -43 -121 -157
-167 -157 -40 0 -254 -88 -268 -109 -3 -6 -15 -11 -26 -11 -11 0 -22 -7 -25
-15 -4 -8 -17 -15 -29 -15 -13 0 -27 -5 -30 -10 -4 -6 -22 -17 -41 -25 -40
-16 -51 -37 -36 -68 6 -12 13 -33 16 -47 11 -57 33 -103 66 -141 29 -33 43
-42 80 -46 54 -7 81 -7 140 2 25 3 65 8 90 10 66 5 198 24 251 36 54 12 251
29 262 22 4 -2 7 -11 7 -19 0 -17 34 -19 47 -1 25 33 38 107 48 265 5 85 -3
94 -59 62 -33 -20 -36 -26 -36 -68 0 -26 -3 -64 -7 -85 -5 -34 -8 -38 -29 -33
-18 5 -27 0 -40 -19 -18 -28 -39 -32 -48 -10 -8 23 -31 18 -44 -10 -14 -30
-42 -33 -49 -5 -7 27 -29 25 -49 -5 -16 -24 -18 -25 -36 -9 -14 14 -21 15 -30
6 -7 -7 -25 -12 -41 -12 -17 0 -36 -8 -43 -17 -13 -17 -15 -16 -33 7 l-20 25
-26 -58 c-30 -64 -52 -70 -47 -14 3 40 -11 55 -34 36 -12 -10 -23 -10 -47 -1
-21 7 -56 8 -102 3 -38 -5 -72 -7 -73 -5 -11 9 51 152 72 166 6 4 23 8 38 8
29 0 44 26 33 59 -5 16 1 22 27 30 165 49 345 142 370 191 32 64 79 109 155
145 42 21 99 55 126 75 31 24 65 40 91 43 138 20 235 37 259 46 42 16 113 13
150 -6 89 -48 118 -83 131 -154 6 -32 1 -43 -40 -100 -49 -66 -59 -79 -84
-108 -25 -29 -52 -82 -46 -88 5 -6 20 9 76 74 5 7 10 19 10 27 0 8 10 22 23
31 20 15 23 14 36 -5 19 -28 34 -25 29 5 -5 25 15 54 26 37 3 -5 9 -53 12
-108 l7 -98 50 -60 c27 -34 52 -68 55 -76 3 -8 23 -41 45 -73 37 -55 38 -59
20 -72 -17 -13 -17 -14 0 -20 22 -9 22 -20 -2 -44 -28 -28 -9 -74 39 -98 19
-10 46 -28 59 -41 23 -21 23 -23 7 -35 -27 -20 -16 -48 32 -80 39 -27 43 -32
40 -69 -2 -42 17 -67 70 -88 12 -5 22 -17 22 -26 0 -14 7 -15 44 -10 53 8 63
-2 41 -44 -14 -28 -14 -30 2 -30 10 0 24 4 32 9 19 12 71 -26 71 -51 0 -10 4
-18 9 -18 5 0 48 34 96 76 72 64 86 80 80 98 -22 69 -12 116 25 116 27 0 45
-36 29 -56 -9 -11 -9 -18 0 -27 8 -8 18 -7 40 6 26 15 30 15 41 2 22 -26 35
-11 40 46 5 50 7 54 30 54 24 0 25 -1 22 -70 -3 -60 -1 -73 16 -89 11 -10 28
-16 38 -14 20 4 63 74 64 104 0 27 25 48 46 40 12 -4 15 -14 11 -34 -10 -51
-34 -102 -61 -131 -16 -16 -25 -34 -22 -40 25 -40 103 33 127 117 14 53 18 57
45 57 56 0 40 -65 -36 -147 -22 -24 -40 -46 -40 -50 0 -5 -6 -8 -14 -8 -22 0
-43 -41 -50 -101 -6 -44 -14 -63 -37 -85 l-29 -28 0 -155 c0 -163 -22 -374
-45 -426 -7 -16 -16 -43 -20 -60 -11 -50 -68 -154 -87 -161 -46 -14 -78 27
-43 56 8 7 15 18 15 25 0 7 6 18 14 24 8 6 16 24 19 39 2 15 9 41 15 57 32 93
83 491 69 530 -5 12 -15 9 -54 -17 -67 -43 -73 -54 -73 -122 -1 -77 -26 -297
-41 -356 -17 -67 -69 -168 -97 -190 -58 -46 -63 -11 -13 93 23 47 41 97 41
111 0 13 5 37 11 53 11 29 40 305 33 313 -11 10 -73 -35 -82 -59 -6 -14 -13
-75 -17 -136 -6 -108 -37 -245 -56 -245 -5 0 -9 -7 -9 -16 0 -11 -8 -14 -27
-12 -24 2 -29 8 -31 36 -2 18 2 40 10 49 19 24 38 82 47 148 5 33 12 72 16 88
6 21 4 27 -9 27 -23 0 -66 -45 -66 -68 0 -11 -8 -46 -19 -78 -16 -51 -36 -94
-99 -210 -8 -15 -22 -24 -37 -24 -13 0 -26 -3 -28 -7 -11 -18 16 -131 42 -183
48 -92 85 -155 101 -170 3 -3 18 -25 34 -50 59 -93 242 -250 290 -250 9 0 16
-4 16 -9 0 -5 10 -13 23 -17 12 -3 29 -13 39 -21 23 -20 31 -2 23 49 -9 52 5
61 59 37 40 -18 41 -19 48 -81 4 -35 10 -171 13 -303 4 -132 11 -247 15 -255
12 -22 45 -125 65 -203 15 -55 26 -74 59 -104 49 -44 67 -77 64 -112 -2 -20 2
-27 20 -29 28 -4 29 26 2 83 -11 22 -19 50 -20 63 0 12 -4 30 -9 40 -12 25
-39 131 -65 267 -8 39 -18 90 -24 115 -16 67 -33 158 -42 220 -4 30 -11 62
-14 71 -4 9 -10 47 -15 85 -4 38 -10 76 -12 84 -6 22 103 25 179 5 33 -8 84
-15 113 -15 30 0 79 -7 109 -15 105 -28 250 -16 355 30 94 41 197 93 245 125
31 20 62 39 70 43 18 9 40 23 167 108 210 141 284 180 384 198 91 17 156 -2
222 -65 27 -25 52 -56 58 -67 5 -12 18 -35 29 -52 11 -16 24 -39 30 -50 12
-24 18 -34 99 -157 34 -54 67 -98 72 -98 5 0 9 -4 9 -10 0 -5 26 -37 58 -71
31 -33 59 -65 60 -70 5 -12 99 -101 187 -176 123 -105 242 -189 473 -335 15
-10 34 -21 42 -25 57 -26 171 -166 232 -288 29 -58 16 -510 -15 -542 -7 -6
-28 -19 -47 -30 -64 -34 -178 -113 -209 -145 -41 -42 -39 -66 9 -105 37 -32
80 -44 80 -23 0 6 7 10 15 10 8 0 15 -4 15 -10 0 -19 43 -10 66 15 41 44 60
28 23 -19 -18 -23 -19 -27 -4 -32 9 -4 52 -4 96 -1 87 6 134 26 125 55 -3 9
-2 23 3 31 7 11 11 9 20 -8 14 -25 39 -27 67 -3 28 23 31 36 45 166 8 83 16
117 33 140 11 17 21 32 22 34 1 1 9 0 18 -4 24 -9 20 -29 -9 -42 -27 -12 -32
-27 -13 -38 6 -4 17 1 25 12 12 16 15 17 24 4 8 -11 12 -12 16 -2 8 19 40 14
46 -8 4 -17 14 -20 56 -20 37 0 53 4 60 18 8 14 13 15 30 5 12 -7 29 -13 40
-13 29 0 79 32 90 58 14 30 26 353 16 417 -7 43 -9 47 -16 25 -4 -14 -7 -76
-8 -138 -1 -75 -6 -125 -16 -148 -16 -39 -33 -41 -47 -5 -6 19 -4 24 12 28 20
5 21 12 20 117 -3 221 -24 231 -35 16 -7 -154 -16 -175 -59 -144 -32 24 -32
39 0 99 15 30 21 51 15 54 -6 4 -9 31 -8 61 1 34 -3 59 -10 65 -16 13 -5 85
14 92 7 3 22 -2 32 -11 12 -11 31 -16 53 -14 29 3 33 6 33 33 0 28 -3 30 -31
27 -23 -2 -33 2 -38 15 -7 17 -8 17 -21 0 -8 -11 -23 -17 -37 -15 -19 2 -27
17 -51 88 -26 77 -27 89 -16 125 7 22 26 60 41 84 16 24 32 58 35 75 8 44 22
58 50 51 19 -4 23 -1 23 18 0 16 -20 41 -64 80 -40 35 -72 75 -86 104 -24 50
-67 95 -137 144 -23 16 -66 58 -96 93 l-55 64 1 371 c0 263 3 371 11 371 6 0
20 -13 31 -28 24 -32 26 -141 4 -168 -12 -14 -11 -19 9 -32 23 -15 30 -56 11
-68 -14 -8 -5 -91 15 -149 10 -29 24 -45 52 -60 39 -20 62 -55 74 -110 5 -24
11 -30 33 -31 15 -1 28 -3 30 -5 1 -2 9 -17 17 -34 11 -21 23 -30 40 -30 23 0
26 -5 30 -50 3 -28 13 -62 23 -76 10 -15 20 -40 23 -55 2 -16 15 -38 28 -49
14 -11 29 -39 35 -62 8 -30 20 -47 39 -57 24 -12 28 -21 30 -66 2 -44 9 -60
47 -110 25 -32 45 -64 45 -70 0 -26 42 -70 66 -70 14 0 24 -6 24 -14 0 -8 33
-59 73 -113 68 -91 111 -133 137 -133 17 0 11 18 -9 25 -28 9 -34 63 -21 191
7 73 16 113 25 120 19 14 22 210 3 216 -12 4 -12 4 -22 123 -10 109 -34 260
-52 316 -7 26 -14 54 -14 62 0 26 -62 134 -105 185 -23 26 -48 61 -57 77 -8
17 -22 44 -32 62 -9 17 -16 38 -16 46 0 9 -7 28 -14 44 -8 15 -35 69 -60 120
-25 51 -58 112 -73 135 -15 24 -30 48 -33 53 -3 6 -45 71 -95 144 -49 73 -100
149 -113 167 -12 19 -33 39 -45 45 -32 14 -116 67 -127 79 -3 3 -16 15 -30 25
-24 19 -48 45 -175 189 -47 54 -122 114 -223 179 -43 27 -95 49 -157 67 -40
11 -92 29 -133 46 -18 8 -39 14 -46 14 -8 0 -27 7 -42 15 -16 8 -38 15 -49 15
-11 1 -31 7 -45 15 -14 8 -38 15 -55 15 -16 0 -61 7 -100 15 -82 18 -382 21
-485 5 -36 -6 -138 -14 -228 -20 -90 -5 -225 -14 -300 -20 -576 -44 -847 -52
-899 -26 -139 68 -380 113 -713 131 -138 8 -173 18 -234 71 -22 19 -45 38 -51
42 -128 93 -216 176 -293 276 -26 33 -76 87 -112 121 -138 128 -290 305 -290
339 0 6 -8 19 -17 27 -10 9 -40 40 -67 68 -57 61 -122 111 -146 111 -24 0
-218 245 -249 316 -8 18 -30 34 -48 34 -3 0 -3 -23 0 -50 5 -41 3 -52 -9 -57
-15 -6 -63 40 -64 61 0 5 -12 35 -27 67 -36 76 -58 78 -67 8z m3956 -1627 c18
-16 45 -32 61 -36 20 -5 27 -12 27 -31 0 -17 9 -29 30 -40 46 -24 151 -3 199
39 77 68 98 79 135 66 18 -6 55 -31 81 -55 36 -34 55 -45 80 -45 18 0 38 -7
45 -15 7 -8 17 -15 23 -15 6 0 24 -12 39 -27 21 -20 31 -24 40 -15 8 8 23 5
58 -13 67 -34 75 -47 46 -74 -27 -25 -46 -21 -46 10 0 10 -7 19 -15 19 -8 0
-15 -9 -15 -19 0 -29 -17 -35 -45 -17 -34 22 -75 21 -75 -2 0 -22 62 -89 94
-103 11 -5 28 -13 36 -17 54 -30 85 -42 112 -42 45 0 160 -101 250 -218 18
-24 44 -46 58 -49 14 -3 32 -12 41 -20 9 -8 29 -16 45 -19 33 -6 54 -21 54
-39 0 -12 -31 -84 -50 -115 -5 -8 -11 -22 -14 -30 -3 -8 -10 -22 -14 -30 -5
-8 -13 -24 -19 -35 -5 -11 -19 -38 -30 -60 -20 -40 -46 -97 -57 -125 -3 -8
-10 -22 -15 -30 -5 -8 -16 -33 -24 -55 -84 -219 -107 -292 -107 -341 0 -28 4
-34 21 -34 22 0 115 -68 161 -116 14 -16 41 -52 60 -80 29 -44 68 -94 131
-167 9 -11 17 -23 17 -26 0 -4 12 -20 28 -37 15 -16 59 -71 97 -122 39 -51 73
-92 78 -92 4 0 7 -6 7 -14 0 -7 7 -19 15 -26 15 -13 20 -51 8 -64 -4 -3 -28
16 -54 44 -28 30 -50 46 -54 40 -4 -6 5 -22 18 -36 14 -14 35 -42 45 -63 20
-38 20 -38 1 -55 -29 -24 -35 -21 -57 33 -12 26 -42 70 -67 97 -122 130 -185
191 -240 231 -33 25 -62 48 -65 52 -3 4 -27 24 -55 45 -148 111 -253 227 -240
265 3 10 -4 30 -17 46 l-22 28 30 23 c16 13 36 24 45 24 15 0 28 48 30 110 2
35 30 159 45 195 8 22 34 78 56 125 65 139 67 143 79 198 12 58 5 151 -14 175
-10 11 -28 13 -91 8 l-80 -6 -50 -101 c-45 -89 -99 -204 -150 -316 -9 -20 -16
-39 -16 -44 0 -4 -13 -36 -30 -71 -16 -34 -30 -68 -30 -74 0 -6 -6 -25 -13
-42 -56 -130 -78 -261 -56 -325 8 -25 7 -37 -9 -69 -11 -21 -29 -47 -41 -57
-12 -11 -21 -23 -21 -28 0 -11 47 -10 54 1 11 17 70 19 96 3 45 -28 134 -116
165 -162 17 -25 71 -99 121 -165 49 -66 100 -137 112 -157 13 -20 26 -38 30
-40 16 -7 115 -146 132 -185 11 -27 23 -29 40 -8 7 8 20 15 30 15 12 0 25 18
41 55 18 45 27 55 44 53 26 -4 33 -66 12 -117 -41 -104 -50 -149 -51 -250 -1
-106 -12 -135 -36 -92 -20 38 -58 21 -45 -20 6 -16 14 -20 43 -17 l37 3 3
-157 c2 -143 1 -162 -18 -198 -11 -23 -25 -38 -30 -35 -16 10 -12 52 5 59 14
5 15 26 12 146 -4 131 -10 172 -21 139 -3 -8 -7 -74 -8 -146 -3 -117 -6 -135
-23 -152 -20 -20 -20 -19 -47 2 -26 21 -27 25 -16 60 6 20 15 37 20 37 4 0 8
10 8 23 0 13 5 28 12 35 6 6 12 41 13 78 2 57 0 67 -16 71 -15 4 -19 15 -19
49 0 23 -4 45 -9 48 -11 7 -24 175 -16 209 4 15 13 27 21 27 8 0 14 9 14 20 0
25 -30 27 -30 3 0 -10 -12 -26 -25 -36 l-24 -17 -20 46 c-22 49 -66 110 -115
160 -17 17 -51 53 -75 79 -24 26 -90 81 -145 123 -56 42 -105 81 -111 87 -5 6
-30 27 -55 46 -78 59 -170 166 -170 199 0 4 11 19 24 33 l24 26 -29 10 c-21 7
-29 17 -29 33 0 13 -20 46 -46 76 -55 63 -53 83 14 112 25 12 50 26 54 33 4 7
8 43 8 81 0 82 22 183 62 291 29 77 43 108 93 205 38 74 52 111 71 186 16 64
16 80 5 145 -7 41 -16 97 -20 126 -11 90 -114 195 -211 216 -62 14 -137 36
-165 48 -32 14 -74 56 -75 75 0 6 -7 17 -15 24 -9 7 -15 29 -15 51 0 29 -4 39
-15 39 -30 0 -73 -29 -106 -72 -46 -58 -70 -77 -96 -78 -31 0 -29 12 7 52 17
19 29 42 28 53 -3 17 -10 20 -43 17 -35 -2 -48 -11 -100 -66 -53 -56 -90 -86
-109 -86 -3 0 -6 11 -6 25 0 18 7 28 25 35 22 8 25 16 25 55 0 36 -3 45 -17
45 -21 0 -83 -36 -83 -48 0 -15 -65 -78 -93 -90 -56 -24 -62 -10 -17 41 28 32
40 80 22 90 -22 14 -68 -11 -120 -64 -42 -44 -64 -59 -84 -59 -35 0 -35 5 2
42 49 49 34 107 -21 78 -12 -7 -40 -29 -63 -50 -49 -45 -83 -58 -92 -36 -4 9
5 24 22 39 18 16 25 30 21 40 -11 29 -38 19 -86 -33 -26 -27 -54 -50 -64 -50
-20 0 -22 -11 -5 -28 26 -26 50 -132 29 -132 -13 0 -41 47 -41 69 0 25 -96
121 -121 121 -24 0 -24 -16 2 -70 33 -68 50 -137 60 -245 10 -100 5 -180 -11
-190 -4 -3 -15 -2 -24 1 -12 5 -13 11 -6 24 12 23 12 101 0 160 -6 25 -14 68
-19 97 -18 97 -45 163 -88 211 -25 28 -29 52 -11 70 9 9 8 16 -6 30 -14 16
-15 27 -7 62 16 73 51 81 51 11 0 -33 6 -43 52 -82 28 -24 66 -56 83 -71 29
-25 32 -25 51 -10 29 23 35 45 27 97 -7 53 -32 61 -59 20 -22 -33 -60 -35 -49
-2 4 12 10 43 12 70 6 53 16 58 45 22 11 -14 30 -25 43 -25 12 0 28 -7 35 -15
7 -9 23 -15 34 -13 18 3 21 10 21 47 0 55 17 62 51 22 20 -24 31 -30 50 -25
27 7 32 -12 14 -47 -9 -16 -7 -19 10 -19 23 0 53 59 39 75 -14 15 -10 55 5 55
8 0 24 -11 37 -25 14 -14 35 -25 51 -25 31 0 44 -15 29 -34 -20 -24 -2 -46 38
-46 46 0 77 20 67 45 -6 17 -8 17 -29 -4 -33 -30 -51 -28 -41 7 4 15 8 46 9
69 0 56 10 62 43 25 17 -19 38 -32 56 -34 27 -3 30 -6 30 -43 1 -35 4 -40 24
-40 30 0 54 59 39 93 -10 23 -4 52 12 52 9 0 19 -9 49 -45 7 -8 26 -15 42 -15
38 0 47 -17 16 -31 -23 -11 -24 -13 -9 -35 10 -16 25 -24 42 -24 27 0 27 0 25
73 -2 67 1 87 11 87 2 0 19 -13 37 -28z m-1794 -41 c24 -15 -3 -80 -61 -147
-15 -18 -16 -25 -6 -48 11 -23 10 -32 -5 -57 -16 -27 -16 -32 -3 -47 38 -44
60 -267 46 -467 -12 -183 -30 -275 -75 -383 -8 -18 -14 -38 -14 -45 -1 -26
-47 -69 -71 -65 -20 2 -24 8 -22 33 2 27 10 48 49 128 8 16 14 38 14 48 0 11
4 28 9 37 14 27 41 230 41 311 0 214 -58 441 -116 455 -27 7 -32 37 -9 56 20
16 45 6 45 -19 0 -24 13 -33 34 -25 11 4 13 11 7 22 -6 12 -2 29 15 57 13 22
28 51 34 65 40 97 55 112 88 91z m107 -14 c23 -17 16 -46 -25 -108 -27 -42
-29 -49 -18 -79 9 -28 8 -35 -5 -45 -23 -16 -21 -26 8 -79 14 -25 25 -51 25
-60 0 -8 6 -27 14 -43 18 -35 33 -111 47 -227 22 -193 -34 -553 -95 -614 -40
-41 -98 -1 -73 49 18 35 34 85 58 174 18 68 21 108 21 270 0 220 -18 325 -75
443 -18 37 -19 46 -8 64 10 16 10 26 0 49 -10 25 -9 32 4 47 9 10 26 38 37 62
11 25 25 52 30 60 5 8 11 23 14 33 6 21 16 21 41 4z m380 -60 c-9 -18 -23 -44
-31 -60 -8 -15 -12 -32 -9 -37 10 -17 55 -11 62 8 17 49 70 152 80 156 7 3 22
-3 35 -13 22 -18 22 -18 3 -47 -54 -80 -58 -93 -39 -133 9 -20 20 -38 23 -41
22 -18 81 -128 81 -152 0 -9 4 -19 9 -22 11 -7 47 -126 55 -181 13 -94 -2
-327 -23 -348 -6 -6 -11 -22 -11 -34 0 -29 -36 -103 -51 -103 -20 0 -22 35 -5
79 23 60 46 199 46 281 0 78 -25 239 -40 254 -5 5 -10 19 -10 31 0 12 -7 30
-15 41 -8 10 -15 26 -15 36 0 9 -20 37 -45 62 -25 26 -45 53 -45 61 0 23 -22
29 -36 10 -12 -16 -10 -25 11 -63 14 -24 25 -52 25 -61 0 -10 7 -26 15 -37 8
-10 15 -25 15 -32 0 -8 6 -28 14 -45 64 -150 63 -436 -2 -650 -11 -37 -24 -59
-36 -63 -27 -9 -36 14 -21 50 45 109 49 137 50 336 0 161 -3 206 -19 260 -37
131 -69 201 -108 242 -16 16 -28 35 -28 43 0 38 -10 44 -43 24 -18 -10 -40
-19 -49 -19 -23 0 -23 1 7 -52 55 -98 101 -246 123 -391 15 -99 15 -120 0
-255 -23 -213 -54 -322 -90 -322 -18 0 -20 4 -14 42 4 23 11 47 15 53 12 14
32 131 41 245 11 122 -12 347 -39 399 -6 11 -11 29 -11 41 0 12 -6 34 -14 48
-8 15 -21 43 -30 63 -25 57 -88 129 -113 129 -25 0 -30 -17 -10 -34 13 -10 22
-31 60 -131 40 -104 52 -196 51 -375 -2 -177 -8 -223 -59 -410 -15 -53 -53
-99 -83 -100 -19 0 -10 79 18 155 47 130 60 315 35 515 -20 157 -37 228 -69
279 -21 32 -26 50 -21 72 6 25 3 31 -14 36 -22 6 -28 27 -11 38 5 3 29 45 52
92 44 89 58 104 84 82 20 -16 12 -46 -25 -101 -27 -40 -28 -44 -14 -60 9 -10
20 -18 24 -18 4 0 19 24 33 53 15 28 30 59 35 67 5 8 14 27 20 43 12 31 31 35
54 9 15 -17 14 -22 -18 -76 -20 -31 -33 -62 -30 -67 11 -16 40 -9 55 14 23 35
60 111 60 124 0 7 8 16 17 22 14 7 22 5 36 -10 18 -19 18 -22 2 -52z m195 -93
c0 -7 -9 -18 -19 -23 -25 -14 -50 12 -32 33 14 17 51 9 51 -10z m2106 -60 c6
-8 20 -14 31 -14 11 0 26 -7 33 -15 7 -8 19 -15 27 -15 8 0 22 -14 31 -30 10
-18 23 -28 31 -25 16 6 88 -40 102 -66 7 -14 5 -21 -10 -29 -16 -8 -30 -2 -82
40 -34 28 -68 50 -75 50 -21 0 -82 44 -87 63 -5 15 -9 16 -25 6 -16 -10 -23
-8 -41 10 -11 11 -21 28 -21 37 0 13 7 15 38 9 20 -3 42 -13 48 -21z m-2993
-284 c-3 -318 -29 -491 -97 -645 -41 -92 -75 -117 -106 -80 -11 13 -9 23 10
58 43 76 70 155 70 200 0 16 4 36 9 46 5 9 15 62 21 116 7 55 14 114 17 130 2
17 7 106 10 200 4 135 8 174 22 192 9 12 23 22 31 20 13 -2 15 -35 13 -237z
m3350 32 c37 -37 45 -50 35 -60 -21 -21 -41 -14 -85 30 -34 33 -40 45 -32 60
15 28 31 22 82 -30z m121 -155 c28 -53 29 -58 14 -73 -24 -24 -40 -13 -71 47
-35 71 -35 91 0 87 21 -2 33 -15 57 -61z m89 -167 c23 -44 27 -58 18 -77 -16
-34 -39 -28 -57 15 -9 20 -23 49 -30 64 -18 35 -18 46 4 51 29 8 35 3 65 -53z
m-2505 -46 c4 -43 -44 -144 -69 -144 -20 0 -26 24 -9 35 6 3 10 14 10 24 0 10
6 24 14 30 8 7 17 30 21 52 8 46 28 48 33 3z m2553 -91 c23 -28 49 -80 49 -96
0 -14 -20 -27 -40 -27 -5 0 -20 25 -35 56 -21 44 -24 58 -14 70 15 18 23 18
40 -3z m84 -190 c10 -23 12 -40 6 -47 -6 -8 -1 -20 16 -36 32 -30 42 -58 36
-93 -3 -15 -1 -27 5 -27 14 0 52 -66 52 -90 0 -59 -46 -10 -74 80 -10 30 -24
63 -32 74 -8 11 -14 30 -14 42 0 12 -7 24 -15 28 -8 3 -15 14 -15 25 0 11 -5
23 -11 26 -19 12 -31 58 -17 66 19 12 47 -9 63 -48z m-2823 -38 c-2 -50 -41
-119 -70 -123 -29 -4 -28 7 8 68 17 28 30 61 30 74 0 12 3 26 7 30 13 13 26
-14 25 -49z m-1396 -39 c3 -8 -14 -44 -38 -80 -31 -47 -49 -66 -65 -66 -36 0
-34 14 12 65 25 28 45 57 45 66 0 30 36 42 46 15z m1274 -49 c0 -29 -84 -167
-102 -167 -19 0 -20 33 -2 66 10 18 21 34 24 34 6 0 44 74 54 105 6 16 9 17
16 5 6 -8 10 -28 10 -43z m-1112 -39 c2 -31 -2 -49 -13 -58 -8 -7 -15 -18 -15
-24 0 -22 -75 -96 -98 -96 -33 0 -28 29 14 74 48 52 84 111 84 137 0 41 25 12
28 -33z m926 6 c19 -50 -20 -132 -101 -214 l-35 -34 -19 23 c-19 24 -19 24 13
56 78 78 88 93 112 168 7 21 22 22 30 1z m-766 -16 c16 -16 15 -50 -2 -83 -21
-40 -105 -145 -116 -145 -5 0 -14 9 -20 21 -10 17 -6 26 22 57 42 47 74 99 83
135 8 30 15 33 33 15z m207 -24 c14 -35 14 -38 -12 -87 -33 -59 -118 -151
-133 -142 -19 12 -10 52 21 86 58 63 89 112 89 139 0 23 7 40 17 40 1 0 10
-16 18 -36z m233 -33 c2 -14 -6 -45 -19 -70 -27 -54 -123 -156 -138 -147 -22
14 -10 43 39 101 59 70 81 110 73 131 -4 12 0 15 18 12 17 -2 25 -11 27 -27z
m176 -22 c-1 -23 -6 -45 -13 -47 -6 -2 -11 -9 -11 -14 0 -6 -6 -18 -14 -27 -8
-9 -32 -36 -54 -60 -27 -31 -44 -42 -55 -38 -28 11 -19 37 27 87 24 26 56 71
71 99 31 62 50 62 49 0z m3431 -106 c26 -29 34 -73 13 -73 -17 1 -71 77 -63
90 10 16 23 12 50 -17z m55 -108 c5 -14 14 -25 20 -25 7 0 10 -8 8 -17 -2 -10
-9 -18 -17 -18 -20 0 -55 51 -48 69 9 24 26 19 37 -9z m60 -109 c5 -13 14 -27
19 -31 21 -12 12 -37 -11 -33 -25 3 -53 50 -44 74 8 21 25 17 36 -10z m61
-126 c6 -16 15 -30 20 -30 5 0 9 -7 9 -15 0 -28 -40 -16 -60 18 -25 41 -25 57
1 57 13 0 23 -10 30 -30z m59 -114 c5 -13 14 -27 19 -31 20 -12 12 -37 -11
-33 -21 3 -56 49 -57 76 -2 23 39 13 49 -12z m69 -127 c21 -29 23 -59 2 -59
-13 0 -72 76 -64 84 15 14 41 4 62 -25z m-649 -489 c14 -28 33 -115 40 -185 4
-38 13 -113 20 -165 9 -68 9 -103 2 -122 -12 -30 -146 -123 -163 -112 -6 3 -8
20 -5 38 3 17 13 119 21 226 9 107 20 218 26 245 6 28 12 60 15 73 5 26 32 27
44 2z m120 -535 c0 -8 5 -15 11 -15 7 0 17 -8 24 -17 11 -15 15 -15 29 -4 13
11 19 12 29 2 9 -10 4 -20 -27 -47 -22 -19 -48 -34 -58 -34 -10 0 -18 -4 -18
-8 0 -5 -14 -19 -31 -31 -31 -23 -32 -23 -42 -5 -6 11 -25 34 -44 52 -32 33
-35 52 -8 52 7 0 15 7 19 15 3 8 12 15 19 15 8 0 20 6 27 14 10 13 21 17 63
25 4 0 7 -6 7 -14z m155 -65 c3 -6 -1 -17 -9 -26 -9 -8 -16 -24 -16 -34 0 -27
-34 -44 -50 -25 -10 12 -6 22 20 55 33 41 44 47 55 30z m-611 -176 c-6 -23 -4
-25 15 -19 15 4 23 1 27 -10 5 -11 14 -15 30 -11 39 10 40 -15 1 -51 -20 -18
-41 -33 -47 -33 -20 0 -23 31 -4 45 11 7 15 17 11 22 -5 4 -14 0 -21 -10 -7
-9 -25 -17 -40 -17 -14 0 -26 -5 -26 -12 0 -6 -2 -9 -5 -7 -11 12 9 49 26 49
11 0 19 7 19 15 0 8 -6 15 -14 15 -8 0 -21 -7 -30 -15 -16 -17 -42 -20 -51 -6
-8 14 74 68 108 70 4 1 4 -11 1 -25z m-153 -64 c10 -6 19 -19 19 -29 0 -10 9
-21 20 -24 11 -3 20 -10 20 -15 0 -17 -30 -42 -51 -42 -23 0 -26 25 -3 34 8 3
12 11 8 17 -5 9 -11 7 -20 -6 -13 -17 -15 -17 -40 8 l-26 27 23 20 c29 23 26
23 50 10z m324 -52 c-9 -41 -22 -58 -46 -58 -24 0 -24 10 -1 54 10 21 24 36
35 36 16 0 17 -5 12 -32z m-425 -11 c0 -14 -35 -47 -50 -47 -15 0 -12 18 8 39
20 22 42 27 42 8z m240 -22 c0 -13 -62 -55 -81 -55 -15 0 -10 25 9 40 48 38
72 44 72 15z m-212 -3 c13 -9 6 -42 -8 -42 -5 0 -15 -3 -24 -6 -11 -4 -16 -1
-16 10 0 9 5 16 10 16 6 0 10 7 10 15 0 17 9 19 28 7z m30 -64 c-6 -18 -28
-21 -28 -4 0 9 7 16 16 16 9 0 14 -5 12 -12z"/>
<path d="M4860 3660 c-28 -28 -25 -40 9 -40 21 0 32 6 36 20 13 40 -13 52 -45
20z"/>
<path d="M5630 3545 c0 -8 7 -15 15 -15 8 0 15 7 15 15 0 8 -7 15 -15 15 -8 0
-15 -7 -15 -15z"/>
<path d="M5892 2010 c-6 -11 -12 -26 -12 -33 0 -21 207 -214 330 -307 25 -19
56 -45 70 -57 26 -24 40 -29 40 -15 0 7 -61 85 -80 102 -3 3 -37 46 -75 95
-88 115 -210 235 -239 235 -12 0 -27 -9 -34 -20z"/>
<path d="M5477 1742 c-10 -10 -17 -24 -17 -31 0 -17 134 -148 225 -221 38 -30
76 -62 85 -70 63 -61 122 -88 89 -41 -126 178 -312 381 -347 381 -11 0 -26 -8
-35 -18z"/>
<path d="M6147 1024 c-9 -9 -8 -98 2 -149 7 -36 8 -32 16 48 7 82 0 119 -18
101z"/>
<path d="M6115 470 c-8 -13 4 -32 16 -25 12 8 12 35 0 35 -6 0 -13 -4 -16 -10z"/>
<path d="M6437 583 c-13 -12 -7 -23 13 -23 13 0 20 -7 20 -20 0 -23 10 -26 28
-8 17 17 15 28 -7 28 -10 0 -21 7 -25 15 -6 16 -18 19 -29 8z"/>
<path d="M889 4701 c-56 -18 -149 -90 -149 -117 0 -6 -7 -17 -16 -25 -11 -9
-14 -22 -9 -47 10 -51 32 -79 69 -86 49 -9 86 9 140 69 50 56 71 64 109 43 12
-7 55 -13 96 -15 49 -1 79 -7 91 -18 22 -19 60 -20 60 0 0 9 -9 15 -23 15 -13
0 -29 6 -35 13 -8 7 -41 12 -82 13 -47 0 -75 6 -87 16 -10 8 -26 18 -36 21
-14 5 -17 14 -12 39 5 27 1 38 -20 61 -26 27 -49 32 -96 18z"/>
<path d="M1135 4425 c-4 -11 -13 -37 -21 -58 -30 -80 12 -115 67 -55 33 37 34
41 15 65 -8 10 -24 29 -35 43 -19 24 -20 24 -26 5z"/>
<path d="M1375 4420 c-8 -13 4 -32 16 -25 12 8 12 35 0 35 -6 0 -13 -4 -16
-10z"/>
<path d="M1346 4355 c-13 -14 -30 -25 -38 -25 -28 0 -78 -70 -78 -109 0 -33
53 -28 80 6 17 22 25 25 38 17 23 -15 26 -65 4 -89 -9 -11 -35 -29 -57 -40
-61 -31 -111 -73 -158 -134 -63 -83 -70 -91 -83 -91 -7 0 -14 -7 -18 -15 -3
-8 -13 -15 -21 -15 -9 0 -26 -5 -38 -12 -52 -29 -221 -84 -332 -108 -22 -5
-60 -14 -84 -20 -62 -15 -231 -17 -258 -2 -12 7 -29 20 -39 29 -44 44 -77 62
-95 52 -18 -9 -18 -12 -4 -39 32 -63 104 -92 225 -93 64 0 237 20 290 33 219
57 294 71 341 68 38 -3 44 -6 47 -28 3 -24 11 -55 50 -180 9 -30 22 -64 29
-75 7 -11 13 -29 13 -41 0 -12 7 -27 15 -34 8 -7 15 -20 15 -30 0 -10 7 -23
15 -30 8 -7 15 -19 15 -28 0 -16 146 -313 181 -367 10 -16 23 -40 28 -52 5
-11 15 -24 20 -28 6 -3 11 -15 11 -25 0 -10 7 -31 15 -47 7 -15 24 -50 36 -78
37 -83 174 -296 229 -357 53 -58 99 -86 178 -108 36 -9 49 -20 76 -63 33 -50
59 -80 224 -254 64 -68 80 -92 122 -191 27 -62 51 -126 55 -142 4 -16 11 -32
16 -35 5 -4 9 -16 9 -27 0 -12 13 -56 29 -97 64 -168 74 -230 51 -338 -6 -26
-14 -95 -19 -153 -10 -110 -33 -253 -49 -307 -6 -17 -20 -45 -33 -62 -20 -27
-27 -30 -68 -28 -90 4 -271 -112 -271 -173 0 -37 28 -89 54 -101 11 -6 41 -20
66 -33 56 -29 87 -19 92 27 4 42 28 48 28 8 0 -39 19 -40 64 -6 18 14 39 25
47 25 10 -1 9 -4 -3 -14 -10 -7 -18 -18 -18 -24 0 -5 -7 -13 -15 -16 -12 -4
-15 -18 -13 -53 4 -55 31 -93 65 -93 13 0 23 -4 23 -10 0 -18 31 -10 53 14 12
13 32 26 45 30 12 4 22 15 22 24 0 21 47 62 72 62 36 0 10 -40 -45 -69 -15 -8
-29 -22 -33 -33 -3 -10 -10 -18 -15 -18 -5 0 -9 -6 -9 -14 0 -10 20 -12 98 -8
53 2 101 8 107 13 5 5 9 21 10 36 0 19 6 29 19 31 15 3 17 0 12 -14 -13 -34
-11 -39 14 -42 44 -5 70 30 70 94 0 62 -18 71 -32 16 -6 -22 -15 -32 -28 -32
-26 0 -35 18 -17 38 7 9 17 25 20 35 4 12 17 17 41 17 27 0 36 5 42 23 3 12
11 28 17 36 22 27 39 88 46 167 6 66 15 96 49 164 48 94 59 139 42 169 -13 25
-30 19 -30 -9 0 -11 -11 -27 -25 -36 -14 -9 -28 -28 -32 -43 -3 -14 -10 -29
-16 -32 -5 -4 -15 -37 -23 -75 -8 -38 -21 -100 -30 -139 -8 -38 -18 -92 -21
-120 -6 -61 -16 -74 -40 -53 -10 9 -37 19 -60 23 -27 4 -43 12 -43 21 0 8 5
14 10 14 6 0 10 11 10 25 0 32 -16 33 -24 1 -3 -13 -15 -26 -26 -29 -23 -6
-28 -37 -6 -37 24 0 29 -20 10 -35 -11 -7 -15 -17 -11 -22 5 -4 14 0 21 10 16
21 66 23 66 2 0 -8 -4 -15 -8 -15 -5 0 -22 -13 -38 -29 -31 -30 -63 -29 -51 3
9 23 -9 29 -42 11 -43 -22 -46 -4 -5 30 19 16 34 32 34 37 0 13 -28 9 -37 -4
-8 -12 -47 -38 -58 -38 -3 0 -5 9 -5 19 0 18 20 34 77 60 12 6 29 24 38 41 8
16 20 30 25 30 6 0 10 10 10 23 0 12 6 32 14 43 13 17 24 110 31 249 2 28 8
68 14 90 13 49 3 102 -46 235 -47 127 -103 301 -103 319 0 38 -57 201 -71 201
-12 0 -49 70 -49 93 1 26 22 57 40 57 7 0 18 -8 25 -17 11 -15 13 -15 24 5 6
12 20 22 31 22 18 0 38 36 25 48 -3 3 -15 1 -25 -6 -25 -15 -53 -15 -68 0 -9
9 -14 4 -23 -20 -14 -41 -39 -41 -74 0 -21 24 -25 38 -21 62 8 43 -4 58 -180
232 -155 152 -190 199 -258 339 -22 44 -66 124 -98 178 -32 53 -58 109 -58
123 0 75 90 148 119 97 7 -13 23 -18 63 -18 l53 0 3 -47 c2 -27 7 -48 11 -48
5 0 18 28 31 63 12 34 26 66 31 72 12 12 11 35 -1 35 -5 0 -19 -9 -31 -21 -24
-24 -63 -22 -142 6 -35 13 -49 24 -54 43 -5 21 2 32 44 71 79 73 131 150 153
227 10 38 21 76 25 85 3 8 -3 26 -15 39 -11 13 -20 29 -20 37 0 18 -35 17 -50
-2 -7 -8 -16 -15 -19 -15 -8 0 -101 124 -101 134 0 3 18 22 40 42 48 43 54 80
15 90 -33 8 -40 1 -36 -42 4 -50 -19 -43 -52 16 -16 28 -37 56 -48 63 -10 6
-19 21 -19 32 -1 27 -41 96 -65 109 -32 19 -67 60 -81 96 -13 34 -22 46 -48
58 -24 12 -27 18 -22 47 5 22 2 36 -9 45 -8 7 -15 20 -15 29 0 30 -45 63 -94
68 l-46 6 0 98 0 99 -36 0 c-27 0 -37 5 -41 20 -7 27 -19 25 -47 -5z m1269
-3332 c4 -10 11 -36 15 -58 4 -22 11 -48 15 -57 6 -15 2 -18 -19 -18 -16 0
-26 6 -26 14 0 8 -7 16 -15 20 -11 4 -15 21 -15 61 0 47 3 55 19 55 10 0 22
-8 26 -17z m14 -173 c59 -36 66 -51 45 -92 -15 -29 -15 -34 0 -59 21 -35 21
-146 1 -173 -8 -11 -15 -28 -15 -38 0 -25 -78 -108 -101 -108 -25 0 -24 10 7
39 27 26 64 91 64 114 0 8 7 28 16 45 16 33 16 107 -1 107 -5 0 -11 -18 -13
-40 -2 -22 -9 -54 -17 -72 -8 -17 -15 -40 -15 -52 0 -24 -28 -29 -36 -6 -4 8
-17 15 -30 15 -16 0 -24 6 -25 18 -2 39 4 78 16 102 24 47 35 97 35 157 0 52
5 73 17 73 1 0 25 -14 52 -30z m-151 -323 c2 -10 -5 -20 -15 -23 -10 -3 -26
-10 -35 -15 -23 -12 -55 -12 -63 1 -3 6 -18 10 -31 10 -16 0 -24 5 -22 13 3 7
31 15 66 18 34 3 65 9 69 13 11 10 28 1 31 -17z m52 -62 c0 -9 -8 -18 -17 -21
-10 -3 -26 -10 -35 -15 -42 -22 -79 1 -45 29 29 23 97 28 97 7z m-201 -26 c-6
-11 -21 -24 -35 -29 -13 -5 -24 -14 -24 -20 0 -5 -7 -10 -15 -10 -8 0 -15 6
-15 13 0 7 -9 20 -20 30 -25 21 -18 37 16 37 21 0 23 -2 12 -20 -21 -33 -1
-34 32 -2 34 34 67 35 49 1z m-173 -30 c6 -10 -41 -58 -58 -59 -13 0 -9 20 10
45 18 26 37 32 48 14z m239 1 c8 -12 -28 -51 -62 -69 -20 -10 -23 -9 -23 6 0
20 48 73 66 73 7 0 16 -5 19 -10z m-185 -60 c0 -24 -38 -46 -53 -31 -7 7 -3
18 14 35 26 27 39 25 39 -4z m312 -57 c10 -9 18 -22 18 -28 0 -7 7 -15 15 -19
20 -7 19 -36 -2 -52 -27 -20 -45 -17 -38 5 4 13 0 23 -12 30 -10 6 -27 17 -37
26 -19 15 -19 15 0 34 24 25 33 25 56 4z m-71 -80 c7 -21 19 -43 26 -49 13 -9
13 -12 0 -23 -13 -10 -16 -9 -22 8 -7 22 -29 28 -40 11 -3 -5 -11 -10 -17 -10
-6 0 -5 7 3 17 11 13 11 17 2 20 -30 10 -11 45 34 62 1 1 7 -16 14 -36z"/>
<path d="M2581 668 c0 -33 2 -38 9 -23 12 28 12 65 0 65 -5 0 -10 -19 -9 -42z"/>
<path d="M1542 4238 c-7 -7 -12 -22 -12 -35 0 -20 4 -23 28 -17 41 10 43 13
26 40 -18 27 -25 29 -42 12z"/>
<path d="M1684 4065 c-4 -10 0 -24 10 -33 16 -16 18 -16 32 3 18 24 13 39 -14
43 -14 2 -25 -3 -28 -13z"/>
<path d="M1791 3897 c-26 -26 -2 -53 32 -35 22 11 22 20 -2 35 -14 9 -21 9
-30 0z"/>
<path d="M1887 3763 c-11 -10 -8 -41 4 -49 16 -9 43 21 36 40 -7 16 -28 21
-40 9z"/>
<path d="M2181 3428 c-7 -20 2 -58 14 -58 5 0 35 61 35 72 0 19 -41 7 -49 -14z"/>
<path d="M6626 1344 c-12 -87 -7 -177 13 -229 32 -84 45 -72 38 36 -5 78 -31
226 -41 237 -2 1 -6 -18 -10 -44z"/>
<path d="M6540 1220 c0 -16 5 -30 10 -30 6 0 10 14 10 30 0 17 -4 30 -10 30
-5 0 -10 -13 -10 -30z"/>
<path d="M2818 733 c-28 -7 -21 -21 13 -28 28 -6 29 -8 14 -25 -9 -10 -13 -24
-9 -35 4 -10 1 -21 -7 -26 -12 -8 -12 -10 1 -19 11 -7 16 -5 18 10 2 11 12 25
23 30 10 6 19 21 19 34 0 13 7 29 15 36 8 7 12 16 9 21 -5 9 -65 10 -96 2z"/>
<path d="M2785 581 c-6 -11 9 -23 19 -14 9 9 7 23 -3 23 -6 0 -12 -4 -16 -9z"/>
<path d="M2845 557 c-4 -10 -5 -21 -1 -24 10 -10 18 4 13 24 -4 17 -4 17 -12
0z"/>
<path d="M2761 485 c0 -35 2 -37 11 -19 7 15 7 28 -1 40 -9 16 -10 12 -10 -21z"/>
</g>
</svg>
