<?xml version="1.0" standalone="no"?>
<!DOCTYPE svg PUBLIC "-//W3C//DTD SVG 20010904//EN"
 "http://www.w3.org/TR/2001/REC-SVG-20010904/DTD/svg10.dtd">
<svg version="1.0" xmlns="http://www.w3.org/2000/svg"
 width="900.000000pt" height="1308.000000pt" viewBox="0 0 900.000000 1308.000000"
 preserveAspectRatio="xMidYMid meet">
<metadata>
Created by potrace 1.10, written by Peter Selinger 2001-2011
</metadata>
<g transform="translate(0.000000,1308.000000) scale(0.100000,-0.100000)"
fill="#000000" stroke="none">
<path d="M4690 12969 c-25 -4 -74 -12 -110 -17 -86 -13 -145 -28 -265 -68
-161 -54 -179 -61 -297 -121 -442 -227 -718 -523 -1098 -1183 -46 -80 -198
-397 -240 -500 -12 -30 -29 -69 -36 -87 -8 -17 -14 -37 -14 -45 0 -8 -4 -18
-9 -23 -8 -10 -97 -284 -128 -395 -8 -30 -19 -69 -24 -86 -10 -33 -22 -88 -39
-174 -7 -30 -16 -69 -21 -86 -5 -18 -13 -60 -18 -95 -5 -35 -14 -95 -21 -134
-30 -186 -40 -266 -40 -320 -1 -60 -23 -243 -31 -248 -13 -7 -75 -40 -149 -79
-47 -25 -103 -57 -125 -72 -34 -24 -41 -25 -51 -12 -13 19 -31 259 -40 541 -4
116 -8 226 -10 245 -1 19 -7 197 -13 395 -6 198 -16 389 -22 425 -32 176 -154
309 -327 356 -104 28 -182 16 -429 -66 -50 -16 -97 -30 -103 -30 -7 0 -26 -6
-43 -14 -18 -7 -66 -23 -107 -36 -276 -84 -390 -270 -346 -565 9 -60 21 -159
25 -218 5 -60 14 -150 20 -200 15 -130 30 -411 41 -777 5 -173 14 -429 20
-569 5 -140 10 -388 10 -552 0 -251 -2 -298 -15 -309 -8 -7 -15 -16 -15 -21 0
-5 -17 -37 -38 -71 -35 -58 -156 -298 -189 -375 -32 -77 -47 -110 -60 -135 -7
-14 -13 -33 -13 -41 0 -9 -7 -28 -15 -44 -16 -32 -105 -312 -105 -331 0 -7 -6
-34 -14 -60 -27 -92 -46 -181 -46 -214 0 -18 -7 -51 -15 -73 -8 -22 -14 -60
-15 -85 0 -25 -5 -61 -10 -80 -6 -19 -17 -144 -25 -278 -14 -217 -14 -267 0
-483 8 -133 18 -245 21 -250 2 -5 9 -48 15 -96 5 -48 14 -104 18 -123 5 -19
17 -71 26 -115 9 -44 23 -98 31 -120 8 -23 14 -48 14 -57 0 -10 6 -37 13 -60
8 -24 24 -77 37 -118 13 -41 27 -79 31 -84 5 -6 9 -18 9 -28 0 -9 6 -32 14
-50 8 -18 24 -58 36 -88 11 -30 26 -66 32 -80 5 -14 16 -40 24 -58 70 -168
205 -426 299 -572 23 -36 52 -83 65 -105 13 -22 42 -65 65 -97 22 -31 47 -66
55 -78 83 -121 273 -359 375 -470 237 -258 426 -443 659 -645 153 -133 398
-325 414 -325 6 0 18 -10 26 -21 17 -25 70 -59 91 -59 7 0 15 6 18 13 2 6 2 0
0 -14 -4 -26 23 -49 217 -180 36 -24 67 -47 70 -50 6 -6 378 -253 490 -324 41
-26 94 -61 117 -76 23 -16 46 -29 51 -29 6 0 17 -6 24 -13 12 -12 365 -226
398 -240 8 -4 31 -17 50 -28 19 -12 64 -38 100 -57 36 -20 83 -46 105 -58 157
-88 523 -271 700 -350 17 -7 60 -27 98 -43 37 -17 72 -31 77 -31 6 0 18 -4 28
-9 23 -13 98 -45 152 -66 25 -10 54 -21 65 -26 11 -5 54 -20 95 -33 41 -14
100 -35 130 -46 30 -12 69 -26 85 -30 17 -5 53 -16 80 -24 130 -40 245 -72
315 -87 25 -6 59 -14 75 -19 89 -27 183 -34 570 -37 247 -2 424 0 445 6 19 5
58 15 85 21 114 26 191 49 227 70 10 6 22 10 28 10 24 0 174 74 304 150 43 25
85 50 95 55 9 6 65 45 123 89 133 99 322 290 422 426 42 58 81 110 86 117 6 7
10 21 10 33 0 11 7 23 15 26 20 8 55 67 55 93 0 11 4 21 10 21 14 0 40 55 40
84 0 14 6 29 13 33 52 31 166 383 208 639 5 32 16 97 24 144 8 47 20 119 26
160 5 41 14 95 20 120 5 25 14 91 19 148 5 57 12 107 15 111 2 5 9 64 15 132
6 68 15 160 20 204 5 44 9 128 9 186 1 59 6 131 11 160 25 128 12 879 -22
1209 -5 58 -13 141 -17 185 -4 59 -12 88 -28 111 -20 28 -22 43 -21 135 2 155
-23 291 -48 266 -14 -13 -5 -179 10 -196 17 -19 33 -161 18 -161 -13 0 -84 92
-96 125 -35 93 -40 126 -29 192 16 97 24 126 39 143 27 31 39 105 25 157 -7
26 -16 66 -20 88 -8 39 -18 78 -46 180 -8 28 -21 77 -30 110 -30 114 -68 242
-91 310 -8 23 -14 47 -14 55 -1 8 -9 33 -20 55 -11 22 -19 48 -20 58 0 9 -4
25 -9 35 -6 9 -19 44 -30 77 -11 33 -30 85 -41 115 -12 30 -25 67 -30 81 -4
14 -12 34 -18 45 -6 10 -20 44 -32 74 -23 60 -35 89 -55 135 -8 17 -23 53 -35
80 -54 124 -156 334 -223 460 -169 314 -269 478 -471 770 -29 42 -112 150
-214 278 -57 72 -63 84 -59 116 48 368 52 430 52 746 -1 201 -5 343 -14 405
l-13 94 33 28 c19 16 86 65 149 110 131 93 184 146 219 215 13 26 29 57 35 68
16 30 20 224 6 286 -11 49 -35 199 -46 289 -4 33 -13 88 -48 295 -8 50 -17
110 -21 135 -28 223 -120 359 -292 430 -62 26 -84 30 -165 30 -60 0 -102 -5
-120 -14 -15 -8 -42 -17 -60 -21 -18 -4 -62 -16 -96 -27 -36 -11 -67 -16 -72
-12 -5 5 -42 74 -83 154 -95 187 -130 250 -178 322 -21 33 -39 61 -39 64 0 5
-60 92 -103 149 -29 38 -153 163 -268 270 -101 94 -298 215 -457 281 -48 20
-101 43 -119 50 -17 8 -36 14 -43 14 -7 0 -35 7 -64 16 -98 31 -117 36 -177
45 -32 5 -87 13 -121 19 -73 11 -392 11 -458 -1z m385 -450 c222 -34 312 -59
460 -132 83 -40 139 -72 187 -105 26 -18 54 -32 63 -32 8 0 19 -9 23 -20 8
-22 69 -70 89 -70 7 0 13 -6 13 -13 0 -7 10 -23 23 -37 92 -101 154 -183 218
-291 41 -68 78 -131 82 -139 4 -8 38 -74 76 -147 46 -89 65 -136 59 -146 -4
-9 -29 -25 -55 -38 -61 -29 -296 -168 -390 -231 -39 -26 -77 -48 -83 -48 -6 0
-52 42 -103 94 -83 84 -147 139 -202 173 -51 32 -204 103 -242 112 -24 6 -60
15 -80 20 -50 12 -381 7 -413 -6 -14 -6 -59 -21 -100 -34 -85 -26 -208 -86
-295 -144 -60 -40 -211 -183 -253 -240 -25 -34 -72 -102 -87 -127 -22 -36
-114 -225 -130 -268 -9 -25 -23 -60 -31 -78 -8 -18 -14 -40 -14 -48 0 -9 -7
-37 -15 -63 -26 -82 -45 -166 -45 -199 0 -17 -4 -42 -10 -57 -12 -32 -28 -194
-39 -390 -8 -134 -7 -155 11 -211 21 -67 52 -108 109 -142 31 -19 51 -22 132
-22 55 0 99 -4 102 -10 4 -6 -10 -34 -31 -63 -159 -220 -284 -432 -381 -647
-9 -19 -20 -43 -24 -52 -13 -26 -33 -82 -109 -308 -71 -209 -118 -343 -138
-393 -7 -16 -12 -32 -12 -37 0 -4 -7 -21 -15 -36 -8 -16 -15 -36 -15 -44 0 -9
-4 -20 -8 -25 -4 -6 -18 -37 -31 -70 -13 -33 -29 -73 -36 -90 -7 -16 -20 -46
-28 -65 -12 -28 -147 -302 -192 -391 -26 -51 -42 -18 -117 241 -6 19 -16 53
-24 75 -7 22 -20 74 -30 115 -9 41 -22 98 -29 125 -17 63 -42 178 -50 230 -3
22 -10 60 -15 85 -12 60 -37 216 -50 315 -16 117 -50 603 -52 725 0 58 7 184
15 280 9 96 18 204 21 240 10 135 65 454 106 620 38 155 118 413 146 477 8 17
14 37 14 45 0 8 4 18 8 24 5 5 17 32 27 59 34 97 119 278 215 460 28 55 58
107 66 116 8 8 14 19 14 23 0 4 8 19 19 34 10 15 66 99 125 187 141 211 180
260 308 387 92 91 187 167 271 216 12 7 36 21 52 32 46 29 185 96 230 110 22
7 56 18 75 26 160 58 448 88 615 63z m985 -59 c0 -5 -12 -10 -27 -9 -25 0 -26
1 -8 9 27 12 35 12 35 0z m1078 -1263 c6 -7 18 -60 27 -117 9 -58 23 -143 32
-190 8 -47 18 -114 24 -150 5 -36 13 -85 18 -110 23 -110 41 -220 41 -251 0
-30 -6 -39 -47 -66 -27 -17 -57 -38 -68 -47 -11 -8 -69 -52 -130 -97 -60 -45
-112 -85 -115 -88 -3 -4 -25 -22 -50 -41 -196 -150 -555 -494 -710 -679 -25
-30 -52 -61 -61 -70 -9 -9 -51 -63 -93 -121 -42 -58 -80 -109 -84 -115 -39
-51 -102 -156 -102 -171 0 -21 28 -54 47 -54 13 0 53 -35 53 -46 0 -3 14 -23
30 -44 17 -21 30 -45 30 -53 0 -8 7 -20 15 -27 9 -8 15 -29 15 -56 0 -24 5
-54 11 -68 14 -29 -3 -124 -32 -191 -23 -49 -65 -102 -74 -93 -4 4 0 14 9 23
9 9 16 23 16 31 0 8 6 25 14 37 27 44 41 135 28 183 -7 24 -12 55 -12 68 0 13
-7 29 -15 36 -8 7 -15 18 -15 25 0 18 -79 105 -96 105 -8 0 -17 7 -20 15 -10
26 -58 18 -81 -13 -26 -35 -21 -82 8 -82 11 0 19 -7 19 -15 0 -8 -5 -15 -11
-15 -5 0 -7 -5 -3 -11 4 -8 9 -7 15 2 10 17 39 2 54 -28 6 -12 16 -27 22 -34
5 -8 13 -25 16 -39 3 -14 10 -43 16 -65 7 -30 7 -47 -4 -70 -7 -16 -16 -42
-19 -56 -3 -14 -17 -38 -31 -53 -14 -15 -25 -31 -25 -37 0 -5 -5 -9 -11 -9 -6
0 -28 -13 -48 -29 -36 -28 -47 -32 -153 -54 -31 -7 -60 -16 -64 -20 -11 -10
-22 -104 -30 -241 -12 -207 35 -466 113 -616 34 -66 159 -196 229 -238 68 -40
203 -93 339 -132 78 -22 110 -39 113 -57 2 -11 -15 -58 -36 -104 -22 -46 -50
-109 -62 -139 -12 -30 -26 -63 -31 -73 -10 -18 -66 -176 -76 -212 -3 -11 -11
-34 -19 -52 -8 -17 -14 -37 -14 -44 0 -7 -6 -31 -14 -54 -8 -22 -22 -67 -31
-100 -9 -33 -21 -74 -26 -91 -5 -16 -13 -50 -19 -75 -5 -24 -16 -73 -24 -109
-8 -36 -20 -92 -26 -125 -22 -115 -40 -201 -56 -273 -10 -44 -14 -91 -11 -117
5 -31 2 -46 -8 -55 -8 -7 -15 -27 -15 -46 0 -50 -45 -84 -109 -84 -16 0 -34
-7 -41 -15 -7 -8 -27 -14 -46 -13 -19 1 -42 -6 -51 -14 -10 -9 -33 -19 -50
-23 -18 -3 -35 -11 -38 -16 -4 -5 -19 -9 -35 -9 -43 0 -191 -66 -310 -139 -19
-11 -41 -24 -49 -28 -100 -48 -290 -219 -376 -338 -47 -65 -135 -233 -135
-257 0 -9 -7 -33 -16 -54 -10 -24 -17 -71 -18 -122 -1 -80 0 -83 29 -107 35
-29 99 -33 133 -9 28 19 52 65 52 98 0 14 4 35 9 48 5 13 17 48 26 78 19 60
84 177 115 205 11 10 20 24 20 31 0 16 39 54 56 54 17 0 23 -60 13 -136 -5
-38 -16 -127 -24 -199 -42 -356 -99 -546 -200 -663 -57 -67 -61 -113 -16 -164
25 -28 34 -32 80 -32 47 0 55 4 96 44 46 45 125 167 125 192 0 8 4 18 8 24 30
33 97 316 126 534 26 193 45 506 34 547 -9 35 9 55 77 88 28 13 58 31 65 40 7
8 19 15 27 15 7 0 16 7 19 15 4 10 14 13 30 9 15 -4 34 0 49 10 13 9 29 16 36
16 6 0 25 6 42 14 64 28 123 45 162 48 39 3 40 2 43 -32 2 -19 -1 -69 -8 -112
-6 -43 -15 -160 -21 -260 -15 -292 -42 -529 -82 -713 -37 -168 -65 -280 -83
-320 -7 -16 -20 -57 -30 -90 -9 -33 -20 -64 -23 -70 -4 -5 -17 -37 -30 -70
-57 -151 -208 -431 -306 -566 -134 -187 -307 -375 -458 -498 -69 -56 -203
-151 -215 -151 -4 -1 -20 -11 -36 -24 -23 -19 -30 -34 -34 -74 -4 -44 -1 -53
26 -83 28 -31 35 -34 81 -32 59 1 107 28 256 140 146 111 352 309 421 407 l21
29 17 -26 c10 -14 24 -50 32 -79 8 -29 22 -75 29 -103 8 -27 20 -74 26 -103 5
-29 19 -62 30 -73 10 -10 19 -27 19 -36 0 -15 2 -15 9 -4 5 8 7 20 4 28 -3 7
3 15 13 19 11 3 31 12 46 20 38 20 69 18 75 -6 3 -11 9 -20 14 -20 14 0 22 89
11 118 -6 15 -14 43 -17 62 -3 19 -10 46 -14 60 -5 14 -15 50 -24 80 -9 30
-32 103 -52 163 -19 59 -35 118 -35 130 0 12 15 45 32 72 68 106 218 400 218
427 0 8 4 18 9 24 10 10 22 40 76 204 56 167 58 173 66 210 4 19 15 64 23 100
8 36 20 90 26 120 6 30 15 75 21 100 5 25 14 85 19 133 5 48 11 91 14 96 4 5
10 92 15 193 13 248 29 467 42 560 6 43 15 115 19 160 11 111 36 281 50 346 7
29 9 64 6 78 -4 15 -1 33 9 47 8 12 15 38 15 58 0 20 5 51 12 69 9 28 8 35 -6
45 -15 12 -15 13 3 18 12 3 23 17 26 33 3 16 12 52 19 79 15 55 34 131 47 185
27 112 34 130 49 128 21 -4 73 -112 179 -373 5 -11 14 -33 21 -50 7 -16 16
-41 20 -55 5 -14 18 -50 30 -80 22 -59 79 -231 106 -320 9 -30 22 -75 30 -100
7 -25 20 -70 28 -100 8 -30 20 -75 26 -100 21 -77 40 -163 50 -223 6 -33 13
-64 17 -70 7 -11 26 -115 43 -232 5 -38 14 -92 20 -120 5 -27 14 -91 20 -142
13 -103 17 -90 -68 -228 -59 -96 -141 -257 -197 -387 -7 -18 -21 -49 -29 -70
-9 -20 -16 -42 -16 -50 0 -8 -4 -18 -9 -24 -10 -11 -72 -211 -95 -304 -41
-173 -46 -204 -46 -268 0 -53 4 -74 19 -91 41 -47 138 -46 171 2 9 12 23 63
33 112 24 132 25 135 41 200 19 76 39 142 54 178 7 16 12 37 12 47 0 10 4 21
9 24 5 3 12 18 15 33 4 16 13 42 21 58 8 17 20 45 27 64 25 64 83 172 93 171
15 0 13 -664 -3 -840 -7 -80 -17 -194 -23 -255 -16 -169 -23 -952 -10 -1060
24 -186 44 -261 83 -303 18 -18 32 -22 79 -22 54 0 59 2 88 37 38 46 39 71 6
138 -37 75 -49 269 -41 655 7 337 14 460 28 460 16 0 89 -74 144 -147 90 -119
121 -197 139 -346 11 -86 36 -111 109 -111 51 0 59 3 81 29 21 26 24 40 25
110 0 73 -21 177 -48 240 -18 40 -53 110 -65 130 -61 100 -214 262 -310 330
-31 22 -58 45 -61 52 -3 6 0 103 7 215 20 368 10 882 -22 1118 -12 86 -29 216
-40 310 -8 63 -23 146 -43 240 -5 25 -12 59 -14 75 -6 37 -32 156 -46 210 -6
22 -16 65 -23 95 -20 84 -42 164 -90 323 -9 28 -20 70 -26 92 -6 22 -14 44
-20 50 -5 5 -9 18 -9 28 0 10 -6 33 -14 50 -8 18 -23 59 -35 92 -31 93 -65
180 -123 315 -5 14 -16 39 -23 55 -11 28 -31 70 -114 245 -40 84 -87 170 -100
183 -14 14 -14 52 -1 75 5 9 21 46 36 82 40 100 114 247 130 260 11 10 21 9
48 -4 19 -9 41 -16 49 -16 8 0 28 -7 43 -15 16 -8 38 -15 50 -15 11 0 24 -4
30 -8 5 -5 63 -26 129 -47 66 -20 128 -41 137 -46 10 -5 34 -13 55 -18 38 -9
90 -27 128 -42 11 -5 136 -47 277 -94 142 -47 268 -89 280 -94 13 -5 50 -17
83 -27 33 -10 65 -21 70 -25 6 -3 22 -9 38 -13 15 -3 27 -11 27 -17 0 -6 6
-25 14 -42 8 -18 24 -61 35 -97 12 -36 25 -74 30 -85 15 -36 79 -248 115 -378
9 -31 22 -81 30 -110 29 -105 39 -143 53 -202 24 -103 43 -198 53 -258 6 -33
13 -63 16 -68 6 -10 29 -162 44 -286 4 -39 13 -95 18 -125 6 -29 14 -93 17
-143 3 -49 10 -115 15 -145 5 -30 14 -198 21 -373 12 -329 1 -867 -22 -1022
-5 -38 -14 -124 -19 -190 -5 -66 -14 -156 -20 -200 -6 -44 -17 -132 -26 -195
-8 -63 -19 -133 -24 -155 -5 -22 -12 -65 -15 -95 -4 -30 -11 -69 -16 -86 -5
-17 -14 -59 -19 -95 -24 -167 -74 -345 -139 -494 -28 -63 -98 -199 -114 -219
-4 -6 -26 -39 -48 -72 -49 -77 -184 -232 -264 -304 -33 -29 -62 -56 -65 -60
-15 -19 -138 -104 -225 -156 -141 -84 -308 -153 -460 -190 -83 -20 -284 -43
-382 -44 -99 0 -273 16 -328 31 -22 6 -62 15 -90 19 -143 23 -450 111 -660
189 -44 16 -96 35 -115 42 -19 7 -48 18 -65 25 -16 7 -66 27 -110 45 -44 17
-108 45 -143 60 -34 16 -64 29 -66 29 -16 0 -445 211 -623 306 -178 96 -218
119 -353 198 -58 34 -112 65 -120 69 -8 4 -28 16 -45 27 -16 11 -37 23 -45 27
-8 3 -51 30 -95 58 -44 28 -100 64 -125 79 -25 15 -54 32 -65 39 -11 7 -22 15
-25 18 -3 3 -32 22 -66 42 -81 48 -344 225 -588 395 -44 31 -86 55 -93 55 -7
0 -13 4 -13 9 0 4 -8 8 -18 8 -16 0 -51 31 -62 56 -3 7 -54 49 -115 95 -60 45
-126 96 -146 113 -19 17 -57 49 -84 71 -138 112 -326 284 -480 439 -150 151
-169 171 -317 343 -82 95 -328 415 -328 426 0 4 -123 194 -137 212 -4 6 -18
30 -31 55 -13 25 -38 72 -57 105 -94 169 -105 209 -86 322 18 106 66 228 138
352 77 133 319 421 341 407 5 -3 12 -79 15 -168 3 -90 10 -185 15 -213 6 -27
15 -77 21 -110 16 -92 56 -255 70 -283 4 -9 16 -42 26 -72 72 -229 221 -471
415 -674 97 -102 315 -286 338 -286 6 0 12 -4 14 -8 2 -7 99 -66 148 -91 13
-7 43 -53 122 -188 105 -180 344 -455 458 -529 25 -16 47 -32 50 -35 13 -17
191 -100 235 -110 82 -18 212 -22 261 -9 95 27 125 121 60 186 l-33 33 -109
-1 c-75 -1 -120 3 -144 13 -76 32 -171 86 -217 124 -103 86 -273 278 -273 309
0 21 17 20 92 -4 111 -36 123 -40 169 -49 24 -6 67 -15 94 -21 201 -45 190
-44 234 -19 32 18 44 32 52 62 22 81 -26 138 -127 152 -27 4 -74 13 -104 20
-30 8 -86 21 -125 31 -69 16 -231 67 -270 84 -11 5 -45 19 -75 31 -83 33 -279
131 -291 145 -16 19 60 50 241 97 233 62 456 81 665 57 88 -10 131 -20 267
-62 77 -23 120 -19 155 14 33 31 33 125 1 155 -37 32 -194 82 -343 108 -98 17
-397 20 -495 5 -30 -5 -84 -13 -120 -18 -63 -9 -99 -18 -205 -47 -145 -41
-179 -52 -282 -92 -61 -23 -118 -43 -127 -43 -20 0 -232 211 -276 276 -94 137
-113 168 -160 265 -28 57 -56 112 -61 121 -5 10 -9 23 -9 29 0 6 -6 25 -13 42
-33 78 -51 143 -83 297 -30 148 -37 238 -38 462 -1 215 0 228 20 255 42 57
550 423 586 423 18 0 38 -73 38 -138 0 -21 7 -64 15 -95 8 -32 15 -71 15 -86
0 -16 11 -45 25 -65 14 -20 25 -43 25 -51 0 -8 5 -15 11 -15 6 0 9 7 5 15 -3
8 -1 15 4 15 6 0 10 -4 10 -10 0 -5 10 -10 23 -10 12 0 30 -8 39 -17 9 -10 32
-33 52 -52 20 -19 36 -39 36 -46 0 -7 7 -15 15 -19 8 -3 15 -14 15 -24 0 -11
6 -25 14 -31 8 -7 16 -28 19 -49 3 -20 10 -59 16 -85 9 -39 8 -56 -4 -84 -8
-19 -15 -46 -15 -59 0 -12 -4 -26 -10 -29 -18 -11 -11 -42 17 -76 67 -82 244
-249 308 -291 139 -92 266 -148 333 -148 41 0 53 5 77 30 23 24 29 40 29 75 0
54 -19 78 -94 112 -30 14 -71 33 -90 42 -34 16 -152 92 -199 130 -25 19 -24
48 1 55 7 2 38 10 68 19 134 39 173 47 296 63 123 16 136 16 228 0 111 -21
133 -18 175 25 56 55 37 143 -38 176 -48 22 -368 31 -456 13 -33 -7 -81 -16
-108 -20 -26 -5 -62 -13 -80 -19 -17 -5 -59 -17 -92 -27 -33 -9 -73 -23 -90
-30 -88 -36 -99 -37 -121 -9 -24 30 -103 174 -120 220 -66 171 -97 286 -128
470 -15 88 -26 279 -16 288 3 2 77 48 165 101 88 53 174 107 190 119 120 88
205 159 300 251 61 58 112 106 115 106 3 0 21 -24 39 -52 65 -101 149 -202
286 -348 77 -81 97 -109 109 -155 7 -28 34 -104 50 -140 7 -16 20 -46 27 -65
32 -81 169 -342 223 -425 105 -162 194 -267 238 -281 36 -11 86 6 112 37 51
60 43 102 -37 194 -81 95 -180 254 -258 414 -46 94 -43 116 13 89 83 -40 164
-67 274 -92 80 -18 360 -22 428 -6 83 19 120 75 98 148 -9 28 -22 44 -50 60
-35 19 -45 20 -98 12 -126 -21 -364 -3 -364 28 0 34 275 277 376 332 22 12 46
25 54 29 19 11 95 44 137 60 119 47 87 218 -40 215 -21 -1 -44 -7 -50 -13 -6
-6 -18 -11 -27 -11 -27 0 -200 -92 -290 -155 -51 -35 -150 -124 -248 -222
l-163 -163 -77 47 c-42 25 -108 71 -147 102 -84 68 -275 260 -275 278 0 6 -6
16 -14 20 -12 7 -32 35 -138 189 -15 23 -28 50 -28 60 1 11 17 42 36 69 78
110 111 166 182 304 62 124 166 357 219 496 9 22 22 54 29 72 8 17 14 37 14
45 0 8 4 18 9 23 5 6 14 26 20 45 11 38 61 178 79 223 7 16 12 36 12 46 0 9 4
21 8 27 5 5 26 63 47 129 21 66 41 129 46 140 4 11 20 49 35 85 48 119 137
289 212 405 150 232 194 295 282 401 14 17 39 48 55 69 128 165 300 358 500
563 111 114 403 380 498 455 29 23 60 48 69 57 9 8 51 40 94 70 42 30 97 73
123 95 135 119 722 465 787 465 9 0 36 12 62 28 49 28 52 29 202 85 108 39
123 42 138 24z m-1973 -185 c28 -10 75 -32 105 -49 65 -37 180 -148 180 -173
0 -9 -15 -28 -34 -41 -18 -13 -60 -47 -92 -75 -33 -28 -97 -85 -144 -125 -158
-137 -413 -387 -565 -553 l-78 -86 -145 0 -144 0 5 88 c7 120 46 324 75 395 7
16 12 35 12 42 0 53 136 293 212 375 78 84 214 167 333 203 70 21 217 21 280
-1z m-3723 -332 c4 -25 12 -209 17 -410 6 -201 13 -390 16 -420 3 -30 10 -174
16 -320 6 -146 12 -278 14 -295 1 -16 8 -102 15 -189 l11 -159 -23 -21 c-13
-12 -59 -52 -103 -90 -44 -38 -127 -116 -184 -173 -57 -57 -107 -103 -111
-103 -4 0 -10 93 -13 208 -19 585 -55 1282 -76 1462 -19 154 -31 254 -42 328
-7 52 -7 78 1 87 6 7 43 23 83 35 146 45 263 83 297 95 59 22 74 16 82 -35z
m5414 -1470 c-9 -193 -16 -258 -30 -263 -6 -3 -32 14 -57 37 -25 22 -67 59
-94 81 -67 56 -85 73 -85 85 0 13 208 222 235 237 32 18 38 -15 31 -177z
m-4556 -364 c0 -8 12 -28 26 -43 l26 -28 -22 -3 c-21 -4 -22 -7 -16 -60 4 -32
11 -113 16 -182 5 -69 14 -152 19 -185 6 -33 15 -96 21 -140 26 -184 30 -212
39 -255 5 -25 17 -81 26 -125 9 -44 21 -98 27 -120 5 -22 13 -61 18 -88 5 -26
13 -62 19 -80 10 -35 31 -109 57 -202 9 -33 22 -77 30 -98 8 -20 14 -45 14
-53 0 -9 6 -30 14 -47 7 -18 23 -61 34 -97 27 -83 50 -149 61 -175 38 -90 38
-87 2 -124 -29 -30 -215 -172 -241 -185 -17 -8 -38 -21 -97 -59 -24 -15 -45
-27 -47 -27 -5 0 -206 -120 -255 -152 -14 -10 -33 -21 -41 -25 -26 -12 -376
-249 -390 -263 -3 -3 -30 -23 -60 -44 -230 -164 -634 -535 -761 -701 -30 -38
-61 -78 -71 -88 -9 -11 -38 -52 -64 -93 -26 -41 -51 -74 -55 -74 -23 0 -39 65
-75 300 -36 239 -40 661 -8 895 23 169 45 296 60 344 8 25 14 53 14 63 0 11 7
43 16 71 8 29 22 75 30 102 23 78 51 165 74 225 12 30 24 64 27 75 5 20 65
149 126 275 18 36 49 94 70 129 21 35 43 74 48 85 13 30 165 259 200 301 9 11
56 70 104 130 49 61 95 117 104 126 9 9 50 52 92 96 71 73 216 209 283 264 16
13 37 31 46 40 65 62 420 306 448 308 6 1 12 -6 12 -13z m4094 -140 c178 -146
428 -406 608 -634 29 -37 56 -71 61 -77 7 -9 114 -158 145 -202 7 -10 35 -52
62 -93 27 -41 54 -80 60 -87 5 -7 10 -15 10 -18 0 -3 19 -36 43 -73 24 -37 47
-74 50 -82 4 -8 11 -22 17 -30 18 -27 95 -165 115 -205 10 -22 24 -47 30 -55
6 -8 35 -66 64 -128 60 -126 60 -148 -2 -118 -19 9 -44 16 -54 16 -10 0 -23 4
-28 9 -6 6 -28 14 -50 20 -30 8 -674 224 -755 254 -8 3 -71 23 -140 46 -153
49 -186 61 -227 78 -17 7 -38 13 -47 13 -9 0 -24 4 -34 9 -9 5 -48 19 -87 31
-38 12 -84 28 -102 36 -17 8 -35 14 -40 14 -13 1 -46 32 -74 70 -48 65 -64
154 -64 355 0 141 4 194 18 243 9 34 25 90 34 125 10 34 23 73 30 87 7 14 13
28 13 32 0 9 57 135 70 158 5 8 21 38 35 65 29 56 47 88 56 95 3 3 16 23 29
45 25 42 50 75 58 75 2 0 45 -33 96 -74z"/>
<path d="M5673 8618 c-5 -7 -17 -33 -27 -58 -11 -25 -24 -58 -32 -75 -7 -16
-15 -47 -19 -67 -7 -36 -6 -38 18 -38 19 0 26 6 30 29 3 15 4 37 1 47 -3 12 3
24 16 32 17 11 20 10 20 -7 0 -11 5 -21 12 -23 16 -6 -18 -78 -36 -78 -8 0
-19 -7 -26 -15 -9 -11 -16 -12 -25 -5 -24 20 -73 -87 -55 -120 8 -14 19 -17
57 -13 26 3 55 12 64 19 8 8 22 14 30 14 8 0 26 13 39 30 14 16 31 29 38 30 6
0 12 8 12 18 0 9 7 26 15 36 10 13 15 43 15 81 0 52 -5 68 -29 101 -45 63 -97
90 -118 62z"/>
<path d="M2340 5335 c-10 -12 -7 -32 15 -102 16 -49 34 -92 41 -96 8 -4 14
-20 14 -35 0 -15 7 -36 15 -46 19 -25 19 -73 0 -106 -8 -14 -14 -34 -15 -46 0
-11 -20 -42 -44 -68 -64 -67 -68 -88 -57 -257 15 -206 29 -326 41 -348 5 -11
10 -33 10 -50 0 -38 41 -86 86 -101 49 -16 103 12 123 64 12 33 12 49 -3 139
-24 134 -35 272 -35 435 -1 72 -5 132 -10 132 -5 0 -16 -12 -26 -26 -27 -42
-28 -20 -2 38 23 51 43 114 54 171 3 15 -2 42 -11 61 -9 19 -16 45 -16 59 0
14 -7 27 -15 31 -8 3 -15 17 -15 31 0 16 -6 25 -15 25 -8 0 -15 4 -15 10 0 9
-71 79 -95 92 -7 5 -18 1 -25 -7z"/>
<path d="M2341 5083 c-24 -91 -34 -184 -23 -195 9 -9 17 -6 32 12 17 20 20 37
20 116 0 99 -13 129 -29 67z"/>
<path d="M5488 1942 c-1 -4 -19 -18 -39 -30 -41 -25 -51 -53 -43 -122 10 -87
44 -131 52 -69 5 32 61 88 90 89 12 0 22 4 22 9 0 5 10 11 23 13 18 2 23 10
25 46 2 24 -2 50 -9 58 -12 15 -115 20 -121 6z"/>
<path d="M5600 1799 c0 -17 -40 -59 -56 -59 -5 0 -20 -16 -33 -35 -13 -19 -31
-35 -39 -35 -9 0 0 -8 20 -19 21 -10 48 -16 63 -14 29 6 75 56 75 81 0 23 -29
101 -30 81z"/>
<path d="M8713 5244 c-3 -8 -1 -25 5 -37 10 -20 11 -18 11 16 1 39 -5 48 -16
21z"/>
</g>
</svg>
