<?xml version="1.0" standalone="no"?>
<!DOCTYPE svg PUBLIC "-//W3C//DTD SVG 20010904//EN"
 "http://www.w3.org/TR/2001/REC-SVG-20010904/DTD/svg10.dtd">
<svg version="1.0" xmlns="http://www.w3.org/2000/svg"
 width="600.000000pt" height="549.000000pt" viewBox="0 0 600.000000 549.000000"
 preserveAspectRatio="xMidYMid meet">
<metadata>
Created by potrace 1.10, written by Peter Selinger 2001-2011
</metadata>
<g transform="translate(0.000000,549.000000) scale(0.100000,-0.100000)"
fill="#000000" stroke="none">
<path d="M4485 5159 c-22 -4 -60 -8 -85 -9 -25 0 -56 -7 -70 -15 -14 -8 -37
-14 -51 -15 -14 0 -34 -7 -45 -15 -10 -8 -29 -15 -41 -15 -12 0 -25 -5 -28
-11 -4 -5 -17 -15 -28 -20 -12 -5 -35 -18 -52 -29 -16 -11 -37 -23 -45 -27
-40 -18 -190 -182 -213 -233 -4 -8 -16 -28 -27 -45 -11 -16 -22 -37 -26 -45
-3 -8 -12 -27 -20 -42 -8 -14 -14 -34 -14 -45 0 -10 -7 -27 -15 -37 -8 -11
-15 -31 -15 -45 -1 -14 -7 -37 -15 -51 -8 -14 -14 -40 -15 -58 0 -19 -7 -59
-16 -90 -15 -49 -16 -95 -11 -342 7 -335 -1 -436 -44 -510 -5 -8 -12 -22 -16
-30 -27 -61 -174 -200 -211 -200 -5 0 -15 -7 -22 -15 -7 -8 -20 -15 -30 -15
-10 0 -23 -7 -30 -15 -7 -8 -23 -15 -35 -15 -12 0 -39 -7 -59 -15 -39 -16 -47
-43 -21 -65 8 -7 15 -21 15 -30 0 -10 7 -32 15 -49 8 -17 22 -45 30 -62 8 -17
15 -39 15 -49 0 -9 7 -23 15 -30 8 -7 15 -21 15 -30 0 -10 7 -32 15 -49 8 -17
22 -45 30 -62 8 -17 15 -39 15 -49 0 -9 7 -23 15 -30 8 -7 15 -23 15 -35 0
-12 7 -28 15 -35 8 -7 15 -21 15 -30 0 -10 7 -32 15 -49 8 -17 22 -45 30 -62
8 -17 15 -39 15 -49 0 -9 7 -23 15 -30 8 -7 15 -22 15 -34 0 -12 6 -31 14 -41
12 -17 27 -18 167 -16 85 1 204 9 264 16 61 8 165 15 232 15 67 0 155 5 195
11 40 5 116 13 168 17 l94 7 8 42 c4 23 12 51 17 62 6 11 11 35 11 53 0 19 7
43 15 54 8 10 15 27 15 37 0 17 14 49 41 97 5 8 13 24 18 35 27 60 137 155
180 155 10 0 35 7 54 15 20 8 60 15 89 15 29 0 85 5 123 11 39 5 126 14 195
19 247 17 350 72 350 185 0 40 7 55 45 105 25 32 45 65 45 73 0 8 7 20 15 27
8 7 15 22 15 34 1 11 7 32 15 46 20 35 20 218 0 244 -8 11 -15 28 -15 38 0 20
-39 87 -61 105 -9 6 -83 13 -194 16 -175 4 -315 20 -345 38 -8 5 -25 13 -37
19 -17 7 -23 18 -23 42 0 39 -27 226 -41 283 -6 22 -14 57 -18 78 -5 21 -14
44 -20 50 -6 6 -11 21 -11 33 0 12 -7 27 -15 34 -8 7 -15 16 -15 20 0 36 -135
180 -168 180 -5 0 -15 7 -22 15 -7 8 -22 15 -34 15 -11 0 -30 7 -40 15 -11 8
-32 15 -47 15 -14 0 -42 7 -62 15 -24 10 -95 16 -235 21 -111 4 -206 11 -213
15 -10 6 -10 16 1 51 11 31 37 65 95 123 103 101 141 135 152 135 5 0 35 23
66 51 57 51 70 82 45 107 -13 13 -82 14 -143 1z"/>
<path d="M677 3758 c-58 -57 -111 -114 -116 -128 -6 -14 -15 -32 -20 -40 -45
-79 -66 -171 -66 -285 1 -105 17 -200 42 -249 21 -40 21 -120 0 -144 -9 -10
-17 -27 -17 -38 0 -11 -7 -29 -15 -40 -8 -10 -15 -31 -15 -45 0 -15 -7 -46
-15 -69 -21 -58 -21 -304 0 -340 8 -14 14 -37 15 -51 0 -15 7 -32 15 -39 8 -7
15 -17 15 -23 0 -6 8 -19 17 -29 16 -18 14 -21 -33 -66 -28 -26 -65 -68 -84
-94 -18 -27 -37 -48 -42 -48 -4 0 -8 -7 -8 -15 0 -8 -5 -15 -10 -15 -6 0 -15
-10 -20 -22 -6 -13 -19 -36 -30 -53 -11 -16 -22 -37 -26 -45 -3 -8 -10 -22
-15 -30 -5 -8 -12 -22 -15 -30 -3 -8 -12 -27 -20 -42 -8 -14 -14 -34 -14 -45
0 -10 -7 -27 -15 -37 -8 -11 -15 -31 -15 -45 -1 -14 -7 -37 -15 -51 -8 -14
-14 -40 -15 -59 0 -19 -7 -73 -16 -119 -13 -73 -14 -99 -4 -176 7 -50 15 -118
19 -151 4 -33 12 -70 19 -82 7 -12 12 -32 12 -45 0 -13 7 -33 15 -44 8 -10 15
-27 15 -37 0 -17 9 -38 41 -97 4 -8 18 -35 30 -60 13 -25 29 -49 36 -53 7 -4
13 -13 13 -18 0 -29 165 -214 260 -291 55 -44 149 -108 160 -108 4 0 13 -7 20
-15 7 -8 20 -15 30 -15 10 0 23 -7 30 -15 7 -8 20 -15 30 -15 10 0 23 -7 30
-15 7 -8 25 -15 40 -15 15 0 33 -7 40 -15 7 -8 25 -15 39 -15 15 0 36 -7 47
-15 10 -8 33 -15 50 -15 17 0 49 -6 70 -14 54 -19 315 -29 444 -17 100 9 160
21 225 43 17 5 41 12 55 15 14 2 40 11 58 19 17 8 49 21 70 30 20 9 44 20 52
25 8 5 20 11 25 13 6 2 17 7 25 10 8 3 29 15 45 26 17 11 37 23 45 27 72 33
302 247 349 326 12 20 26 37 31 37 4 0 10 8 14 17 3 10 15 32 26 48 11 17 22
37 26 45 3 8 10 22 15 30 5 8 12 22 15 30 3 8 12 27 20 42 8 14 14 34 14 45 0
10 7 27 15 37 8 11 15 31 15 45 1 14 7 37 15 51 8 14 14 41 15 61 0 46 15 59
66 59 23 0 61 7 84 15 23 8 59 15 79 15 20 1 47 7 61 15 14 8 41 15 60 15 19
0 46 7 60 15 14 8 37 14 51 15 14 0 34 7 45 15 10 8 31 15 45 15 14 0 34 7 45
15 10 8 29 15 40 15 12 0 27 7 34 15 7 8 19 15 27 15 8 0 34 11 59 25 57 32
72 31 80 -2 4 -16 12 -39 19 -53 13 -26 36 -78 58 -132 8 -18 21 -50 30 -70 9
-21 23 -53 31 -70 35 -79 78 -175 92 -201 8 -16 14 -34 14 -42 0 -7 7 -18 15
-25 8 -7 15 -20 15 -30 0 -10 7 -23 15 -30 8 -7 15 -23 15 -35 0 -12 7 -28 15
-35 8 -7 15 -20 15 -30 0 -10 7 -23 15 -30 8 -7 15 -18 15 -25 0 -7 7 -18 15
-25 8 -7 15 -20 15 -30 0 -10 7 -23 15 -30 8 -7 15 -18 15 -26 0 -7 13 -33 30
-57 16 -25 30 -49 30 -55 0 -5 7 -12 15 -16 8 -3 15 -12 15 -20 0 -20 79 -96
100 -96 10 0 34 -7 53 -15 20 -8 53 -15 74 -15 21 -1 65 -7 98 -15 81 -20 329
-20 410 0 33 8 80 15 105 15 25 0 56 7 70 15 14 8 34 14 46 15 11 0 30 10 42
23 27 28 30 116 7 161 -8 15 -15 38 -15 51 0 12 -7 28 -15 35 -8 7 -15 18 -15
26 0 37 -126 184 -158 184 -7 0 -15 7 -18 15 -4 8 -14 15 -23 15 -10 0 -26 7
-37 15 -10 8 -35 15 -54 15 -19 1 -61 6 -94 13 -57 12 -58 13 -77 62 -10 28
-19 66 -19 85 0 19 -5 51 -11 70 -6 19 -15 85 -19 145 -5 61 -14 169 -20 240
-12 131 -8 333 9 476 5 41 11 128 13 194 l3 120 -28 3 c-15 2 -69 -4 -119 -12
-50 -9 -126 -16 -167 -16 -42 -1 -112 -7 -156 -15 -44 -8 -116 -15 -160 -15
-44 0 -116 -7 -160 -15 -44 -8 -116 -15 -160 -15 -44 0 -118 -7 -165 -15 -47
-8 -119 -15 -160 -15 -41 -1 -111 -7 -155 -15 -44 -8 -116 -15 -160 -15 -44 0
-118 -7 -165 -15 -47 -8 -115 -15 -151 -15 l-65 0 -46 63 c-25 34 -55 71 -67
81 -29 26 -18 36 42 36 29 0 95 7 147 15 52 8 142 15 200 15 58 0 150 7 205
15 55 8 133 15 174 15 71 0 73 1 66 23 -4 12 -9 34 -12 49 -3 15 -11 33 -19
39 -8 6 -14 24 -14 39 0 15 -7 33 -15 40 -8 7 -15 25 -15 40 0 15 -7 33 -15
40 -8 7 -15 22 -15 34 0 12 -7 31 -15 42 -8 10 -15 28 -15 40 0 11 -7 29 -15
40 -8 10 -15 28 -15 40 0 11 -7 29 -15 40 -8 10 -15 28 -15 40 0 11 -7 29 -15
40 -8 10 -15 28 -15 40 0 11 -7 29 -15 40 -8 10 -15 28 -15 40 0 11 -7 29 -15
40 -8 10 -15 28 -15 39 0 11 -6 30 -14 41 -8 11 -16 31 -18 44 l-3 25 -205 5
c-113 3 -232 12 -265 19 -70 15 -151 34 -215 51 -25 6 -63 15 -85 19 -22 4
-56 12 -75 18 -65 20 -125 34 -182 43 -31 4 -62 11 -69 15 -6 5 -49 12 -93 16
-45 5 -110 13 -146 18 -94 15 -216 13 -307 -4 -43 -8 -97 -15 -119 -15 -23 0
-58 -7 -77 -15 -20 -8 -51 -15 -70 -15 -18 0 -42 -7 -53 -15 -10 -8 -31 -15
-46 -15 -15 0 -38 -5 -52 -11 -48 -22 -156 43 -156 94 0 8 -7 31 -15 50 -20
47 -20 249 -1 332 19 81 24 157 10 162 -6 2 -59 -43 -117 -99z m1023 -1383
c23 -8 57 -15 75 -15 18 0 38 -6 44 -14 15 -18 5 -80 -15 -97 -8 -6 -14 -21
-14 -33 0 -11 -7 -30 -15 -40 -8 -11 -15 -30 -15 -42 0 -12 -7 -27 -15 -34 -8
-7 -15 -21 -15 -30 0 -10 -7 -32 -15 -49 -8 -17 -22 -45 -30 -62 -8 -17 -15
-37 -15 -44 0 -7 -7 -27 -15 -44 -8 -17 -22 -45 -30 -62 -8 -17 -15 -39 -15
-49 0 -9 -7 -23 -15 -30 -8 -7 -15 -22 -15 -34 0 -12 -7 -31 -15 -42 -8 -10
-15 -29 -15 -40 0 -12 -7 -27 -15 -34 -8 -7 -15 -21 -15 -30 0 -10 -7 -31 -14
-47 -8 -15 -17 -36 -20 -46 -9 -28 -26 -10 -26 27 0 19 -7 53 -15 76 -8 23
-15 59 -15 80 0 21 -7 57 -15 80 -8 23 -15 59 -15 80 0 21 -7 54 -15 73 -8 20
-15 54 -15 76 0 22 -5 52 -11 68 -6 15 -14 55 -19 88 -8 61 -23 145 -41 223
-5 24 -7 48 -4 53 11 16 356 11 405 -6z m-460 -34 c5 -11 10 -37 10 -59 0 -21
7 -61 15 -88 8 -27 15 -63 15 -81 0 -17 5 -44 11 -60 6 -15 15 -55 19 -88 9
-68 24 -151 46 -242 8 -34 14 -75 14 -91 0 -16 7 -49 15 -72 16 -44 21 -134 7
-128 -4 2 -84 84 -177 182 -94 99 -245 256 -337 350 l-167 170 22 21 c12 12
29 25 37 28 8 4 29 16 45 27 17 11 40 24 52 29 11 5 24 15 28 20 3 6 14 11 24
11 10 0 24 7 31 15 7 8 22 15 34 15 12 0 31 7 42 15 10 8 29 15 40 15 12 0 35
7 50 15 43 22 111 20 124 -4z m778 -73 c122 -62 132 -68 132 -79 0 -5 5 -9 11
-9 11 0 73 -45 116 -85 13 -11 23 -27 23 -36 0 -8 -28 -36 -62 -62 -35 -25
-78 -61 -97 -79 -19 -18 -58 -51 -86 -73 -111 -86 -236 -188 -264 -216 -9 -8
-43 -36 -76 -61 -33 -25 -79 -65 -102 -87 -23 -23 -47 -41 -53 -41 -15 0 -12
46 5 60 8 7 15 21 15 32 0 11 6 32 13 46 8 15 21 42 30 60 9 19 17 42 17 52 0
9 7 23 15 30 8 7 15 22 15 34 0 11 7 30 15 40 8 11 15 30 15 42 0 12 7 27 15
34 8 7 15 21 15 30 0 10 7 32 15 49 8 17 22 45 30 62 8 17 15 37 15 44 0 7 7
27 15 44 8 17 22 45 30 62 8 17 15 39 15 49 0 9 7 23 15 30 8 7 15 22 15 35 0
48 31 47 138 -7z m-1181 -349 c387 -393 503 -515 503 -526 0 -15 -26 -17 -35
-3 -3 6 -18 10 -33 10 -15 0 -47 6 -72 14 -58 18 -125 35 -175 45 -22 4 -50
13 -62 19 -12 7 -37 12 -55 12 -18 1 -44 7 -58 15 -14 8 -40 14 -58 15 -18 0
-43 5 -55 12 -12 6 -42 15 -67 19 -25 4 -58 11 -75 17 -41 14 -110 31 -169 42
-27 5 -56 16 -64 24 -14 14 -13 22 7 56 4 8 23 47 42 85 18 39 39 74 46 78 7
4 13 13 13 19 0 22 172 218 192 218 4 0 83 -77 175 -171z m1577 29 c20 -26 36
-51 36 -56 0 -6 7 -12 15 -16 8 -3 15 -14 15 -25 0 -11 4 -22 9 -25 11 -7 51
-88 51 -103 0 -6 7 -16 15 -23 8 -7 15 -28 15 -46 0 -29 -4 -34 -27 -39 -16
-3 -46 -10 -68 -16 -22 -6 -60 -14 -85 -19 -25 -4 -58 -12 -75 -18 -38 -13
-108 -31 -160 -41 -22 -4 -56 -12 -75 -18 -49 -16 -118 -33 -165 -42 -22 -4
-56 -12 -75 -18 -46 -15 -116 -32 -165 -42 -22 -5 -48 -12 -58 -16 -34 -14 -7
23 46 64 29 22 68 54 88 73 33 31 89 76 214 173 28 22 69 57 92 78 22 21 64
55 93 77 29 22 71 56 93 77 102 95 114 96 171 21z m-1989 -397 c22 -4 56 -12
75 -18 49 -16 118 -33 165 -42 22 -4 56 -12 75 -18 49 -16 118 -33 165 -42 22
-4 50 -13 62 -19 12 -7 37 -12 55 -12 18 -1 44 -7 58 -15 14 -8 40 -14 58 -15
18 0 43 -5 55 -12 12 -7 44 -15 70 -18 26 -3 49 -9 50 -14 3 -12 -132 -55
-238 -75 -22 -4 -56 -12 -75 -18 -49 -16 -118 -33 -165 -42 -22 -4 -56 -12
-75 -18 -57 -18 -122 -34 -170 -42 -25 -4 -55 -13 -67 -19 -12 -7 -36 -12 -53
-12 -17 0 -45 -7 -61 -16 -17 -8 -42 -14 -57 -12 -24 3 -27 9 -44 88 -26 116
-19 266 18 399 3 9 13 11 32 7 15 -4 45 -11 67 -15z m2187 -67 c22 -98 23
-221 3 -297 -8 -32 -15 -69 -15 -83 0 -34 -24 -40 -84 -22 -68 21 -132 38
-181 47 -22 4 -56 12 -75 18 -49 16 -118 33 -165 42 -22 4 -50 13 -62 19 -12
7 -37 12 -55 12 -18 1 -44 7 -58 15 -14 8 -41 15 -60 15 -19 0 -46 7 -60 15
-14 8 -38 14 -55 15 -37 0 -121 31 -124 45 -1 6 20 13 46 17 48 6 108 20 173
41 19 6 53 14 75 18 47 9 116 26 165 42 19 6 53 14 75 18 47 9 116 26 165 42
19 6 53 14 75 18 45 9 117 27 155 39 14 4 29 7 35 6 5 -1 17 -38 27 -82z
m-1302 -246 c0 -7 -33 -37 -73 -66 -40 -29 -90 -69 -111 -90 -22 -20 -63 -55
-91 -77 -109 -84 -235 -187 -263 -215 -9 -8 -38 -32 -66 -53 -28 -21 -70 -56
-93 -78 l-41 -39 -51 57 c-28 31 -51 63 -51 69 0 7 -6 17 -12 21 -16 10 -78
128 -78 147 0 7 -7 19 -15 26 -8 7 -15 24 -15 39 0 23 6 28 57 43 97 28 146
41 188 49 48 9 117 27 165 42 19 6 53 14 75 18 51 10 117 27 175 45 25 8 55
14 66 14 12 0 38 7 57 15 20 8 49 15 64 15 15 1 39 7 53 15 31 18 60 19 60 3z
m370 -2 c58 -18 125 -35 175 -45 22 -4 50 -13 62 -19 12 -7 36 -12 53 -12 17
0 41 -5 53 -12 12 -6 42 -15 67 -19 48 -8 113 -24 170 -42 19 -6 53 -14 75
-18 49 -9 113 -26 183 -47 54 -17 67 -37 37 -62 -8 -7 -15 -23 -15 -35 0 -12
-7 -28 -15 -35 -8 -7 -15 -18 -15 -26 0 -45 -217 -314 -254 -314 -8 0 -31 19
-51 43 -21 23 -169 176 -329 341 -160 164 -292 302 -294 307 -5 14 48 11 98
-5z m-44 -143 c58 -60 210 -214 338 -343 225 -228 232 -237 218 -258 -8 -12
-21 -22 -28 -22 -8 0 -14 -5 -14 -10 0 -6 -10 -15 -22 -21 -13 -5 -50 -25 -83
-44 -33 -19 -67 -37 -75 -40 -8 -3 -28 -13 -43 -21 -16 -7 -39 -14 -51 -14
-12 0 -27 -5 -33 -11 -10 -10 -37 -18 -124 -36 -31 -6 -39 8 -49 87 -9 63 -25
148 -46 237 -8 34 -14 75 -14 91 0 16 -7 49 -15 72 -8 23 -15 59 -15 80 0 21
-7 57 -15 80 -8 23 -15 59 -15 79 0 20 -7 58 -15 85 -15 49 -20 116 -9 116 3
0 53 -48 110 -107z m-266 81 c0 -9 -6 -28 -13 -42 -8 -15 -21 -42 -30 -60 -9
-19 -17 -40 -17 -47 0 -7 -7 -27 -15 -44 -8 -17 -22 -45 -30 -62 -8 -17 -15
-39 -15 -49 0 -9 -7 -23 -15 -30 -8 -7 -15 -22 -15 -34 0 -12 -7 -31 -15 -42
-8 -10 -15 -29 -15 -40 0 -12 -7 -27 -15 -34 -8 -7 -15 -21 -15 -30 0 -10 -7
-32 -15 -49 -8 -17 -22 -45 -30 -62 -8 -17 -15 -37 -15 -44 0 -7 -6 -26 -14
-42 -29 -60 -45 -99 -48 -118 -4 -25 -40 -31 -58 -10 -7 8 -23 15 -35 15 -12
0 -28 7 -35 15 -7 8 -18 15 -25 15 -7 0 -18 7 -25 15 -7 8 -21 15 -32 15 -10
0 -21 6 -24 14 -3 8 -13 17 -22 20 -43 16 -162 114 -162 134 0 7 46 50 130
120 66 55 159 131 200 162 25 19 63 51 85 72 22 20 63 54 91 75 28 21 57 45
66 53 14 14 73 64 128 109 30 25 50 27 50 5z m90 -18 c0 -18 7 -53 15 -76 8
-23 15 -59 15 -80 0 -21 7 -57 15 -80 8 -23 15 -59 15 -80 0 -21 7 -57 15 -80
8 -23 15 -59 15 -80 0 -21 7 -57 15 -80 8 -23 15 -60 15 -82 0 -21 7 -55 15
-75 8 -19 15 -53 15 -74 0 -21 5 -50 10 -65 14 -36 6 -43 -71 -55 -76 -13
-293 3 -379 28 -30 8 -61 17 -68 19 -19 5 -5 56 44 157 8 16 14 35 14 42 0 7
7 28 16 47 38 77 44 90 44 108 0 9 7 23 15 30 8 7 15 22 15 34 0 12 7 31 15
42 8 10 15 29 15 40 0 12 7 27 15 34 8 7 15 22 15 34 0 11 7 30 15 40 8 11 15
30 15 42 0 12 7 27 15 34 8 7 15 22 15 34 0 11 7 30 15 40 8 11 15 30 15 42 0
12 7 27 15 34 8 7 15 23 15 36 0 15 6 24 15 24 10 0 15 -10 15 -34z"/>
</g>
</svg>
