<?xml version="1.0" standalone="no"?>
<!DOCTYPE svg PUBLIC "-//W3C//DTD SVG 20010904//EN"
 "http://www.w3.org/TR/2001/REC-SVG-20010904/DTD/svg10.dtd">
<svg version="1.0" xmlns="http://www.w3.org/2000/svg"
 width="300.000000pt" height="114.000000pt" viewBox="0 0 300.000000 114.000000"
 preserveAspectRatio="xMidYMid meet">
<metadata>
Created by potrace 1.10, written by Peter Selinger 2001-2011
</metadata>
<g transform="translate(0.000000,114.000000) scale(0.050000,-0.050000)"
fill="#000000" stroke="none">
<path d="M346 2252 c-264 -86 -346 -211 -346 -526 0 -247 28 -327 149 -422
l52 -41 -49 -72 c-288 -425 125 -990 616 -843 178 54 307 188 379 395 67 192
26 180 1003 296 l860 103 75 73 c89 87 94 120 20 147 -30 11 -90 35 -134 54
l-78 36 133 109 c73 60 134 125 134 144 0 37 -12 41 -235 76 -168 26 -172 34
-65 119 121 96 111 148 -25 132 -122 -14 -764 -91 -1291 -155 -410 -49 -451
-45 -514 61 -164 272 -433 396 -684 314z m203 -96 c42 -61 41 -174 -2 -190
-44 -17 -175 54 -183 100 -21 107 124 177 185 90z m173 -17 c74 -38 80 -46 74
-115 -11 -136 -166 -116 -187 25 -21 138 -5 150 113 90z m-406 -44 c-5 -34
-21 -46 -71 -51 -77 -8 -81 6 -20 57 62 52 99 49 91 -6z m604 -157 c0 -29 -53
-21 -80 12 -13 16 -18 45 -11 65 14 36 91 -29 91 -77z m-716 32 c26 -57 -9
-210 -48 -210 -86 0 -115 99 -56 195 47 78 73 82 104 15z m197 9 c56 -30 48
-103 -19 -167 -70 -67 -94 -57 -123 51 -34 128 27 178 142 116z m256 -96 c5
-36 -2 -45 -30 -40 -21 4 -40 28 -44 54 -5 36 2 45 30 40 21 -4 40 -28 44 -54z
m1974 6 c-42 -32 -70 -36 -119 -17 -55 21 -13 48 74 47 78 0 81 -2 45 -30z
m-1712 -8 c37 -23 -4 -172 -55 -198 -74 -39 -174 49 -160 142 8 60 150 97 215
56z m1461 -19 c0 -23 -50 -42 -112 -42 -29 0 -48 12 -48 30 0 22 22 30 80 30
44 0 80 -8 80 -18z m-1796 -27 c84 -65 149 -253 98 -284 -114 -70 -322 9 -322
123 0 104 155 215 224 161z m447 -27 c65 -43 62 -72 -6 -64 -39 4 -57 19 -61
51 -8 54 2 55 67 13z m989 13 c0 -40 -105 -102 -133 -79 -59 49 -32 98 53 98
44 0 80 -8 80 -19z m456 -5 c74 -74 -18 -168 -114 -117 -51 27 -53 56 -9 104
38 43 88 48 123 13z m172 -26 c-11 -44 -6 -50 39 -50 104 0 74 -77 -49 -129
-87 -35 -98 -27 -98 67 1 120 19 162 73 162 41 0 46 -7 35 -50z m-808 -1 c0
-21 -15 -30 -43 -25 -64 9 -71 56 -9 56 34 0 52 -11 52 -31z m410 -9 c52 -57
9 -100 -100 -100 -109 0 -152 43 -100 100 22 24 62 40 100 40 38 0 78 -16 100
-40z m-2160 -20 c14 -43 -1 -80 -31 -80 -11 0 -19 27 -19 60 0 68 31 80 50 20z
m1610 20 c0 -46 -160 -51 -175 -5 -6 18 19 25 83 25 51 0 92 -9 92 -20z
m-1404 -117 c51 -154 -132 -220 -191 -68 -10 28 -14 27 -25 -5 -12 -35 -14
-35 -25 5 -6 24 -5 42 2 40 7 -2 44 26 81 62 86 82 121 75 158 -34z m1021 41
c10 -73 -31 -104 -139 -104 -109 0 -126 31 -66 117 46 65 195 56 205 -13z
m199 -6 c12 -104 -93 -151 -148 -67 -24 35 -23 47 4 86 46 65 136 53 144 -19z
m319 3 c125 -57 84 -180 -76 -231 -119 -38 -209 203 -94 249 64 26 75 25 170
-18z m1122 -31 c41 -39 8 -76 -54 -60 -58 14 -123 65 -123 95 0 27 143 -1 177
-35z m-1920 -37 c16 -142 -49 -194 -153 -122 -57 41 -56 79 6 141 68 68 138
59 147 -19z m1000 29 c38 -24 10 -102 -36 -102 -23 0 -40 18 -46 50 -13 70 20
91 82 52z m436 -45 c50 -41 -30 -177 -105 -177 -33 0 -78 144 -60 191 14 37
114 29 165 -14z m-1667 -17 c15 -56 -6 -120 -38 -120 -16 0 -28 21 -28 48 0
100 45 150 66 72z m1434 0 c52 -52 50 -71 -10 -132 -92 -92 -192 -15 -140 107
33 76 89 86 150 25z m-620 -85 c0 -27 -126 -8 -135 20 -14 42 81 67 110 29 14
-17 25 -39 25 -49z m1204 25 c-3 -27 -14 -53 -25 -57 -10 -3 -19 -28 -19 -55
0 -60 -42 -62 -133 -6 -119 74 -48 184 113 173 62 -4 69 -11 64 -55z m-1389
-12 c58 -38 57 -70 -6 -129 -85 -79 -245 -44 -217 49 40 134 104 157 223 80z
m-235 2 c0 -36 -95 -63 -124 -34 -32 32 0 64 65 64 39 0 59 -10 59 -30z m-731
-73 c64 -75 59 -97 -29 -142 -83 -41 -146 -13 -156 71 -16 135 95 178 185 71z
m1571 25 c0 -57 -52 -93 -90 -62 -57 47 -31 95 55 98 21 1 35 -13 35 -36z
m-1824 -6 c13 -13 24 -51 24 -85 l0 -60 -65 65 c-54 54 -60 68 -35 84 39 25
47 25 76 -4z m424 -37 c0 -49 -50 -72 -89 -40 -40 34 -16 81 41 81 35 0 48
-11 48 -41z m1928 -54 c-35 -56 -147 -114 -172 -89 -38 38 1 125 70 154 80 34
140 -5 102 -65z m-1679 31 c64 -91 10 -196 -101 -196 -85 0 -146 176 -75 217
63 37 142 27 176 -21z m212 23 c51 -27 49 -75 -4 -133 -53 -56 -109 -59 -136
-7 -58 107 33 198 140 140z m567 -11 c53 -20 36 -80 -42 -149 l-73 -64 -37 45
c-92 114 7 224 152 168z m261 -32 c36 -52 41 -147 9 -167 -34 -21 -198 50
-198 86 0 98 136 156 189 81z m398 -31 c33 -115 -69 -168 -169 -88 l-46 38 64
64 c77 77 126 73 151 -14z m-227 -11 c0 -33 -41 -74 -74 -74 -27 0 -36 63 -13
87 24 23 87 14 87 -13z m820 -24 c0 -14 19 -30 42 -36 73 -19 29 -63 -80 -81
-122 -19 -137 -11 -106 57 16 35 40 50 79 52 30 0 44 6 30 11 -14 6 -25 18
-25 28 0 10 14 13 30 6 17 -6 30 -23 30 -37z m-2264 -14 c37 -37 30 -155 -9
-170 -43 -16 -175 54 -183 98 -12 62 143 121 192 72z m664 -55 c105 -208 -43
-344 -204 -187 -94 92 -94 114 -5 199 99 92 157 89 209 -12z m1368 67 c41 -16
41 -76 1 -117 -36 -35 -209 -44 -209 -10 0 89 119 161 208 127z m-1217 -29 c7
-12 -3 -39 -23 -61 -41 -46 -104 -8 -81 50 13 36 84 43 104 11z m-1059 -81
c37 -41 37 -42 -18 -90 -109 -93 -215 -36 -131 70 56 71 97 77 149 20z m1352
21 c63 -30 126 -117 101 -142 -33 -33 -234 -12 -241 25 -19 100 50 158 140
117z m444 -45 c30 -48 -13 -73 -123 -74 -88 0 -100 15 -64 82 27 51 154 46
187 -8z m212 16 c33 -40 26 -45 -76 -62 -69 -11 -84 -7 -84 18 0 65 116 97
160 44z m-1393 -82 c39 -54 19 -108 -40 -108 -30 0 -111 157 -95 183 15 24 94
-21 135 -75z m542 41 c59 -59 25 -108 -86 -123 -76 -10 -83 -7 -83 33 0 109
97 161 169 90z m-722 -38 c67 -62 67 -97 0 -150 -88 -69 -147 -34 -147 86 0
122 58 147 147 64z m1121 17 c17 -46 16 -48 -28 -48 -22 0 -40 4 -40 8 0 25
26 72 40 72 9 0 21 -14 28 -32z m-1345 -67 c54 -44 22 -144 -50 -158 -60 -11
-191 132 -163 177 22 35 163 22 213 -19z m-367 -25 c29 -29 32 -129 5 -146
-21 -12 -101 58 -101 88 0 73 51 103 96 58z m143 -40 c53 -57 52 -72 -9 -100
-59 -26 -65 -23 -70 44 -10 114 12 129 79 56z m781 -28 c0 -7 -22 -39 -50 -72
-27 -32 -50 -73 -50 -89 0 -18 -14 -27 -35 -23 -51 9 -60 136 -13 170 36 26
148 37 148 14z m-224 -105 c11 -111 -90 -189 -135 -104 -35 65 -25 133 24 157
73 35 104 20 111 -53z m-196 -22 c36 -68 25 -121 -26 -121 -107 0 -169 102
-103 169 37 36 95 14 129 -48z m-223 4 c63 -125 27 -220 -75 -195 -72 17 -107
57 -107 119 0 93 142 153 182 76z m-256 -27 c32 -59 9 -98 -58 -98 -57 0 -82
35 -83 115 0 44 116 30 141 -17z m779 -96 c0 -8 -12 -31 -27 -52 -30 -41 -71
24 -44 69 13 20 71 6 71 -17z m-366 -45 c60 -57 62 -148 4 -163 -73 -19 -98 5
-98 95 0 122 20 136 94 68z m-325 -39 c38 -37 38 -38 -9 -87 -53 -58 -95 -38
-152 72 -44 85 76 96 161 15z m587 38 c57 -57 -13 -197 -84 -170 -91 35 -111
164 -28 180 80 15 87 15 112 -10z m-398 -103 c32 -39 7 -91 -50 -105 -87 -22
-146 68 -73 110 49 29 96 27 123 -5z m155 -124 c18 -46 -4 -57 -115 -55 -146
2 -164 36 -34 66 104 25 136 22 149 -11z"/>
<path d="M5310 2033 c-133 -44 -175 -72 -292 -195 -145 -152 -129 -152 -740
25 l-493 142 -148 -55 c-246 -93 -247 -97 -38 -223 195 -118 194 -108 7 -169
-187 -61 -192 -73 -77 -188 105 -105 110 -124 40 -142 -67 -17 -60 -90 11
-109 1030 -287 1080 -309 1080 -484 2 -320 371 -584 693 -497 317 86 499 458
369 753 -25 55 -35 101 -24 105 226 75 366 477 254 729 -104 238 -411 384
-642 308z m348 -126 c353 -175 332 -694 -34 -845 -77 -32 -77 -34 -14 -146
197 -353 -93 -764 -489 -692 -195 36 -324 179 -368 408 -51 268 -75 282 -863
490 -195 52 -198 53 -160 91 27 26 21 40 -51 123 -105 123 -106 121 74 182
198 67 200 81 23 196 -177 117 -181 125 -73 165 l86 32 506 -148 c605 -176
600 -176 769 -1 195 203 385 250 594 145z"/>
</g>
</svg>
