<?xml version="1.0" standalone="no"?>
<!DOCTYPE svg PUBLIC "-//W3C//DTD SVG 20010904//EN"
 "http://www.w3.org/TR/2001/REC-SVG-20010904/DTD/svg10.dtd">
<svg version="1.0" xmlns="http://www.w3.org/2000/svg"
 width="900.000000pt" height="969.000000pt" viewBox="0 0 900.000000 969.000000"
 preserveAspectRatio="xMidYMid meet">
<metadata>
Created by potrace 1.10, written by Peter Selinger 2001-2011
</metadata>
<g transform="translate(0.000000,969.000000) scale(0.100000,-0.100000)"
fill="#000000" stroke="none">
<path d="M7930 9515 c-19 -7 -44 -14 -56 -14 -24 -1 -170 -63 -187 -80 -6 -6
-15 -11 -20 -11 -10 0 -120 -82 -163 -122 -30 -28 -31 -28 -73 -13 -64 22
-256 20 -347 -4 -124 -33 -268 -110 -347 -185 -54 -51 -63 -54 -133 -48 -116
9 -294 -28 -404 -84 -61 -31 -155 -100 -205 -149 -25 -26 -82 -96 -131 -163
-1 -2 -29 6 -61 18 -32 12 -79 26 -105 30 -27 5 -52 11 -57 14 -5 3 -51 6
-102 6 -123 1 -222 -21 -329 -74 -67 -33 -85 -45 -139 -91 -48 -41 -57 -45
-90 -39 -20 4 -49 14 -66 22 -23 12 -64 16 -175 16 -142 1 -147 0 -229 -33
-89 -36 -156 -76 -208 -124 l-33 -30 -47 25 c-110 60 -167 73 -318 73 -143 0
-181 -8 -272 -53 -31 -16 -33 -15 -85 20 -105 72 -157 95 -288 128 -135 35
-341 23 -458 -26 -43 -18 -67 -18 -83 2 -17 21 -125 104 -135 104 -4 0 -15 6
-23 14 -31 27 -177 75 -264 87 -97 14 -246 1 -320 -27 -57 -21 -74 -18 -137
31 -174 134 -360 209 -582 236 -76 9 -120 9 -195 -1 -102 -13 -229 -45 -239
-61 -3 -5 -11 -9 -19 -9 -22 0 -125 -64 -185 -115 -139 -120 -220 -275 -256
-493 -16 -101 -14 -153 12 -262 4 -21 -3 -36 -36 -75 -23 -28 -46 -59 -51 -70
-5 -11 -19 -36 -30 -55 -31 -51 -78 -171 -100 -258 -16 -60 -20 -111 -21 -251
-1 -176 4 -212 44 -326 19 -52 21 -105 6 -123 -41 -50 -78 -251 -78 -422 0
-191 38 -373 106 -502 16 -30 19 -89 4 -104 -5 -5 -19 -45 -30 -88 -26 -103
-29 -408 -5 -514 58 -249 111 -366 264 -577 28 -38 29 -43 20 -100 -32 -216
-11 -494 47 -633 8 -18 14 -40 14 -48 0 -9 6 -28 14 -42 7 -15 31 -62 52 -105
22 -43 44 -86 49 -95 54 -90 150 -207 220 -269 52 -47 55 -52 70 -128 9 -44
22 -101 30 -126 8 -26 15 -52 15 -59 0 -20 90 -198 133 -263 90 -137 284 -305
445 -386 26 -12 59 -29 74 -37 14 -8 35 -14 45 -14 10 0 23 -4 28 -9 17 -16
126 -41 250 -57 103 -14 137 -15 240 -4 66 7 138 18 160 26 72 25 84 20 150
-60 33 -41 75 -102 94 -137 35 -63 35 -66 36 -184 0 -82 -5 -139 -17 -180 -68
-247 -82 -369 -54 -478 20 -77 69 -175 111 -224 32 -38 42 -43 78 -43 74 0
107 70 75 160 -12 36 3 142 27 190 7 14 24 48 38 75 14 28 47 93 73 145 164
325 173 547 32 840 -43 89 -66 127 -107 173 l-25 27 20 28 c50 67 104 150 104
159 0 6 6 16 14 22 8 6 16 22 19 34 3 12 15 49 27 82 70 193 64 449 -17 670
-81 221 -255 445 -428 552 -31 20 -165 83 -174 83 -19 0 -30 29 -40 100 -23
161 -50 246 -127 403 -59 118 -105 189 -166 250 -21 21 -41 49 -44 61 -3 13 1
65 9 117 20 124 22 163 13 294 -11 185 -44 310 -126 485 -23 49 -30 62 -73
129 -25 38 -27 47 -17 75 22 61 50 253 50 341 0 92 -20 235 -45 315 -7 25 -17
63 -21 84 -6 36 -5 39 12 32 40 -16 213 -27 307 -21 60 4 126 16 170 31 40 13
78 24 85 24 7 0 34 -17 60 -38 83 -66 167 -106 303 -146 83 -24 301 -22 394 4
103 28 144 44 229 90 l77 41 37 -28 c45 -34 72 -51 92 -59 8 -3 23 -10 33 -15
121 -65 392 -67 520 -3 16 8 33 14 39 14 17 0 122 72 168 116 l45 44 92 -45
c123 -61 215 -84 332 -85 108 0 216 26 291 71 8 5 22 12 30 16 24 11 123 88
154 122 34 36 48 38 102 14 59 -25 309 -25 384 1 138 48 230 103 317 193 69
69 82 73 154 47 32 -12 83 -16 184 -17 161 -1 213 11 360 86 46 23 163 107
188 135 16 17 28 19 110 15 50 -3 126 0 167 7 119 18 113 19 121 -20 16 -82
82 -222 135 -284 36 -42 37 -40 -16 -121 -11 -16 -22 -37 -26 -45 -3 -8 -9
-23 -14 -32 -21 -39 -48 -139 -60 -220 -24 -173 30 -386 132 -519 32 -42 35
-70 12 -90 -16 -13 -89 -108 -111 -144 -60 -100 -103 -252 -103 -370 0 -60 24
-194 44 -251 17 -47 60 -128 88 -163 24 -31 23 -46 -5 -64 -22 -14 -137 -148
-137 -159 0 -3 -12 -27 -27 -54 -16 -27 -34 -65 -41 -84 -18 -50 -42 -187 -42
-240 1 -81 40 -253 63 -276 15 -15 6 -43 -30 -95 -105 -153 -145 -328 -111
-494 10 -53 10 -59 -7 -71 -10 -8 -34 -14 -52 -14 -77 0 -227 -78 -320 -167
-53 -51 -106 -133 -127 -197 -5 -14 -13 -17 -34 -13 -181 35 -208 37 -282 26
-102 -16 -205 -66 -279 -135 -68 -63 -64 -63 -176 -18 -64 25 -82 27 -215 28
-149 1 -183 -6 -277 -52 -30 -15 -34 -15 -85 10 -220 107 -425 143 -613 108
-111 -20 -229 -65 -269 -102 -11 -10 -29 -21 -40 -24 -12 -4 -42 -25 -67 -48
-26 -22 -58 -49 -73 -59 -15 -10 -38 -36 -51 -57 -13 -21 -38 -53 -55 -70 -16
-17 -30 -35 -30 -41 0 -5 -12 -28 -27 -52 -96 -150 -141 -342 -128 -552 6
-107 18 -156 69 -285 4 -8 15 -28 26 -45 11 -16 23 -37 26 -45 4 -8 14 -23 23
-33 14 -16 13 -21 -2 -53 -78 -161 -96 -304 -58 -461 27 -114 95 -250 159
-318 14 -15 21 -43 26 -100 13 -154 53 -265 143 -403 21 -31 40 -61 43 -67 3
-5 17 -28 31 -50 32 -49 53 -119 93 -315 8 -40 75 -110 124 -131 37 -16 69
-19 212 -19 181 0 198 4 263 54 40 30 87 118 87 162 0 14 7 50 15 82 8 31 17
68 19 82 3 14 42 86 86 160 75 124 102 175 136 255 20 47 44 168 44 220 0 40
6 55 45 105 73 95 120 200 136 304 5 33 14 64 19 71 6 7 52 15 110 19 98 6
143 18 228 60 80 39 91 47 146 97 l55 50 63 -22 c196 -70 372 -63 553 21 76
36 225 172 258 237 21 40 36 45 88 27 57 -20 290 -14 367 9 132 40 251 122
336 234 68 89 90 137 129 288 9 36 18 51 32 53 11 2 54 20 95 40 104 51 237
183 264 262 10 30 24 62 31 70 6 8 20 37 30 65 15 41 18 76 17 196 l-2 147 42
35 c97 80 162 156 206 242 75 146 70 354 -13 530 l-27 57 39 41 c176 184 220
440 120 697 -26 67 -42 95 -85 153 l-45 59 45 46 c89 93 168 220 168 269 0 16
7 27 20 30 19 5 20 14 20 204 0 129 -4 199 -10 199 -6 0 -15 12 -21 28 -30 77
-88 177 -135 237 l-53 67 40 46 c40 48 52 66 87 137 33 69 51 119 57 163 4 26
12 42 21 42 11 0 14 23 14 115 0 92 -3 115 -14 115 -9 0 -17 16 -21 43 -11 74
-60 187 -117 266 -38 55 -47 84 -27 96 5 4 32 53 59 108 48 99 80 216 80 290
0 73 -39 218 -81 303 -24 48 -42 96 -42 107 2 19 11 42 49 120 8 16 14 38 14
48 0 11 5 29 11 40 22 43 51 262 45 346 -11 153 -46 287 -108 418 -57 120
-153 239 -258 320 -62 47 -202 118 -282 142 -73 22 -329 28 -378 8z m270 -129
c138 -22 189 -44 301 -128 108 -81 189 -192 263 -361 9 -21 16 -45 16 -55 0
-9 7 -35 15 -57 17 -48 20 -328 4 -390 -6 -22 -14 -56 -18 -75 -5 -19 -13 -46
-19 -60 -5 -14 -18 -45 -28 -70 -10 -25 -31 -66 -47 -92 l-28 -47 39 -53 c82
-109 109 -188 115 -335 4 -97 2 -118 -14 -148 -11 -19 -19 -45 -19 -56 0 -45
-197 -269 -236 -269 -8 0 -26 -7 -39 -16 -28 -19 -34 -61 -9 -71 18 -7 89 30
121 64 12 13 26 23 31 23 22 0 117 -129 144 -195 45 -109 48 -125 48 -243 0
-165 -26 -244 -121 -372 -53 -72 -101 -115 -201 -179 -53 -34 -68 -49 -68 -67
0 -36 40 -31 106 11 32 21 63 33 72 30 33 -10 114 -97 159 -170 46 -73 83
-206 83 -295 0 -59 -22 -164 -48 -230 -29 -75 -159 -231 -204 -246 -10 -3 -18
-9 -18 -13 0 -7 -69 -42 -173 -90 -39 -17 -48 -26 -45 -44 5 -34 37 -32 123 8
l77 36 25 -23 c36 -33 106 -127 125 -168 50 -107 53 -122 53 -245 0 -125 -10
-169 -60 -257 -59 -104 -216 -225 -327 -252 -36 -8 -52 -37 -34 -62 13 -17 18
-17 53 -5 21 7 62 24 90 38 51 25 54 26 72 8 11 -9 35 -52 53 -94 31 -73 32
-82 32 -206 0 -146 -4 -158 -88 -266 -62 -79 -153 -150 -268 -206 -81 -40 -98
-52 -98 -71 0 -34 23 -37 85 -11 64 27 73 22 86 -43 25 -129 -3 -247 -90 -373
-54 -79 -139 -146 -239 -190 -40 -17 -50 -18 -125 -5 -45 7 -100 13 -122 14
-36 1 -40 -1 -40 -23 0 -20 9 -27 50 -42 28 -10 60 -18 73 -18 20 -1 22 -6 22
-49 0 -66 -27 -146 -85 -251 -27 -49 -134 -140 -201 -172 -147 -68 -356 -64
-547 13 -60 24 -91 21 -95 -9 -2 -16 5 -26 27 -38 17 -8 31 -23 30 -33 -1 -31
-83 -135 -144 -185 -107 -86 -193 -117 -324 -117 -153 0 -306 61 -440 175 -56
48 -72 53 -90 31 -18 -21 0 -49 63 -96 30 -23 57 -47 60 -55 7 -19 -81 -97
-154 -137 -65 -36 -177 -67 -240 -68 -25 0 -72 7 -103 15 -32 8 -69 15 -82 15
-25 0 -25 -1 -18 -74 11 -132 -39 -286 -129 -404 -57 -73 -169 -145 -312 -199
-26 -10 -50 -24 -53 -31 -8 -18 16 -42 42 -42 25 0 157 56 195 83 13 9 30 17
37 17 39 0 18 -122 -42 -243 -49 -97 -55 -108 -96 -172 -55 -86 -87 -153 -103
-220 -10 -38 -25 -99 -33 -135 -9 -36 -25 -75 -35 -86 -43 -48 -205 -64 -306
-30 -43 15 -56 25 -72 56 -11 22 -20 52 -20 68 0 16 -7 46 -15 65 -8 20 -15
49 -15 65 0 44 -27 99 -121 242 -31 47 -68 112 -84 145 -31 65 -68 222 -57
242 5 8 27 2 77 -23 94 -46 182 -77 201 -70 10 4 14 16 12 33 -3 24 -11 31
-63 49 -54 18 -119 48 -197 90 -66 36 -147 152 -204 293 -27 66 -25 256 3 336
27 75 52 125 63 125 4 0 34 -19 67 -43 101 -72 189 -118 275 -144 51 -15 88
-6 88 22 0 17 -38 45 -62 45 -17 0 -49 12 -133 52 -161 76 -297 214 -353 358
-56 147 -59 360 -7 500 48 127 81 200 106 230 16 19 29 39 29 45 0 13 161 165
176 165 6 0 19 9 28 19 10 11 32 24 49 31 18 6 46 17 62 24 152 66 384 63 560
-7 68 -26 157 -68 175 -82 31 -24 50 -23 117 10 76 37 179 65 239 65 42 0 178
-31 209 -48 11 -5 37 -18 58 -28 41 -21 43 -28 23 -76 -18 -41 -46 -136 -46
-154 0 -7 10 -19 22 -25 18 -10 24 -8 39 10 9 11 20 40 24 64 13 77 74 187
142 255 35 34 69 62 76 62 7 0 18 5 25 12 20 20 124 48 179 48 68 0 168 -24
223 -53 l45 -24 6 -67 c6 -76 27 -109 57 -90 14 10 17 25 14 95 -4 125 26 242
80 316 28 37 130 123 146 123 6 0 23 6 39 14 81 40 199 55 273 36 69 -18 100
-23 100 -16 0 4 -10 23 -22 44 -105 172 -118 357 -40 522 24 50 92 140 106
140 6 -1 38 -25 70 -55 76 -69 136 -85 136 -35 0 10 -21 33 -47 53 -148 110
-223 252 -223 426 0 154 55 285 170 402 41 42 89 84 107 93 30 15 34 15 65 -4
105 -62 183 -77 183 -35 0 15 -20 30 -81 60 -95 47 -146 83 -194 138 -171 193
-174 507 -8 721 47 60 130 136 149 136 9 0 22 -7 29 -15 7 -8 20 -15 29 -15 9
0 25 -7 35 -15 11 -8 35 -15 53 -15 29 0 33 3 33 28 0 24 -7 30 -59 51 -242
96 -383 398 -312 667 11 40 24 80 30 90 5 11 12 26 16 34 19 48 95 149 116
155 10 4 38 -2 62 -13 49 -22 147 -37 177 -27 22 7 26 35 8 53 -7 7 -28 12
-48 12 -59 0 -158 38 -228 88 -40 29 -113 124 -134 177 -45 107 -54 198 -32
303 6 28 4 32 -14 32 -11 0 -25 -7 -32 -15 -7 -8 -18 -15 -24 -15 -7 0 -17 -5
-24 -12 -29 -29 -209 -77 -289 -78 -70 0 -93 6 -93 26 0 7 15 44 34 81 38 78
49 117 41 144 -9 29 -44 24 -57 -8 -37 -92 -93 -195 -132 -246 -57 -74 -265
-207 -325 -207 -10 0 -38 -7 -61 -15 -81 -29 -203 -15 -317 36 -48 21 -55 46
-29 97 8 15 15 54 17 87 l4 60 -30 0 c-26 0 -30 -4 -33 -30 -5 -44 -38 -147
-67 -209 -36 -77 -151 -184 -246 -228 -122 -57 -230 -77 -324 -58 -33 7 -77
15 -98 20 -68 14 -72 25 -31 108 38 76 40 98 12 116 -21 13 -31 0 -90 -112
-22 -42 -57 -99 -77 -125 -43 -58 -143 -138 -201 -162 -8 -4 -33 -14 -55 -23
-59 -25 -275 -24 -336 2 -102 43 -203 105 -214 134 -3 8 -2 20 3 26 14 18 35
123 29 140 -10 25 -37 19 -48 -11 -5 -16 -31 -70 -56 -121 -55 -111 -129 -186
-231 -234 -72 -33 -173 -58 -237 -58 -52 0 -175 26 -188 39 -6 6 -18 11 -27
11 -14 0 -101 54 -140 87 -18 15 -16 19 31 82 52 68 60 104 24 109 -15 2 -36
-16 -75 -63 -50 -60 -129 -130 -184 -162 -101 -59 -259 -103 -371 -103 -101 0
-245 37 -316 79 -19 12 -41 24 -49 27 -33 15 -100 76 -100 91 0 9 33 48 73 87
96 92 139 149 135 178 -5 39 -42 35 -74 -9 -76 -104 -225 -227 -319 -265 -42
-17 -202 -48 -245 -48 -41 0 -202 31 -245 47 -97 37 -124 50 -191 96 -69 46
-150 124 -207 199 -37 48 -55 54 -69 23 -10 -22 -7 -31 22 -73 18 -26 55 -72
81 -103 87 -102 156 -212 172 -274 3 -11 15 -45 27 -75 12 -30 25 -71 29 -90
4 -19 13 -51 19 -70 11 -36 26 -136 38 -245 5 -53 1 -100 -25 -260 -6 -37 -9
-40 -36 -39 -17 1 -61 13 -100 26 -73 26 -151 43 -245 54 -48 5 -57 3 -74 -15
-32 -35 -6 -49 119 -66 112 -14 208 -37 229 -53 6 -5 22 -12 36 -15 90 -22
205 -241 267 -507 23 -102 23 -387 -1 -442 -9 -21 -16 -51 -16 -68 0 -34 -15
-38 -58 -16 -15 7 -71 19 -125 26 -93 13 -99 13 -117 -6 -16 -16 -17 -22 -6
-37 10 -13 33 -19 97 -23 46 -3 104 -12 128 -20 25 -8 54 -14 65 -14 31 -1 66
-35 138 -132 127 -171 229 -434 232 -600 l1 -41 -180 -1 c-185 -2 -209 -6
-328 -54 -46 -19 -51 -26 -37 -52 13 -24 37 -25 82 -6 86 36 146 46 287 46
264 0 404 -57 590 -242 150 -148 223 -291 265 -516 20 -104 20 -155 0 -267
-21 -115 -45 -187 -94 -280 -43 -82 -61 -109 -122 -173 -44 -47 -44 -50 12
-112 35 -38 105 -147 136 -210 123 -250 110 -446 -51 -755 -20 -38 -46 -88
-57 -110 -11 -22 -25 -49 -31 -60 -6 -11 -13 -33 -17 -50 -3 -16 -10 -30 -15
-30 -17 0 -17 116 0 185 38 154 44 179 59 246 22 99 20 224 -3 300 -25 79 -61
142 -135 237 -34 43 -74 96 -91 117 -16 22 -38 42 -48 46 -10 3 -48 -3 -85
-15 -224 -69 -384 -70 -612 -5 -209 60 -424 214 -554 399 -56 80 -125 224
-147 310 -24 92 -23 173 0 219 36 68 80 133 154 226 34 41 35 46 20 62 -9 10
-21 18 -27 18 -23 0 -142 -148 -181 -223 -11 -21 -24 -41 -28 -44 -12 -8 -51
22 -118 89 -147 151 -253 364 -303 611 -31 154 -13 450 34 537 19 35 65 83
147 152 73 61 83 81 51 101 -20 13 -89 -37 -185 -131 -34 -34 -66 -62 -71 -62
-9 0 -95 112 -119 154 -30 55 -73 149 -96 211 -69 189 -85 493 -36 661 13 42
76 125 141 186 51 48 172 138 186 138 4 1 20 11 36 24 21 18 26 29 21 45 -3
12 -15 21 -26 21 -35 0 -199 -111 -263 -179 -41 -42 -60 -40 -83 12 -46 100
-53 119 -53 138 0 11 -5 29 -11 40 -5 11 -16 75 -24 142 -11 102 -11 142 1
247 19 176 31 214 89 272 27 27 80 70 117 95 38 26 71 50 74 55 9 14 -7 48
-23 48 -20 0 -130 -67 -135 -82 -6 -18 -37 -1 -47 24 -78 209 -85 412 -20 608
52 156 99 259 150 328 41 57 77 73 170 79 67 5 80 9 85 25 3 11 2 24 -3 29 -4
4 -53 10 -108 11 l-100 3 -3 120 c-2 87 2 133 13 167 8 26 15 52 15 58 0 6 13
38 30 71 173 349 595 459 1007 262 76 -37 184 -109 256 -172 32 -28 59 -51 61
-51 1 0 22 9 45 21 118 56 306 76 420 43 108 -31 182 -75 264 -156 42 -42 77
-82 77 -89 0 -7 6 -20 13 -28 7 -9 21 -36 31 -61 35 -89 56 -130 65 -130 12 0
41 29 41 41 0 11 -26 80 -53 142 -18 41 -19 49 -6 62 24 23 99 45 202 60 186
25 362 -19 500 -127 49 -38 81 -78 103 -128 31 -74 52 -105 72 -108 15 -2 22
2 23 15 3 40 -3 65 -26 108 -14 25 -22 51 -19 58 11 31 185 87 269 87 98 0
246 -52 329 -115 19 -14 51 -52 72 -83 45 -68 74 -102 86 -102 5 0 13 10 19
23 9 19 6 32 -17 73 -14 27 -33 56 -40 65 -24 27 -16 45 38 92 54 47 138 94
196 109 17 4 49 12 70 18 20 5 52 10 71 10 44 0 169 -28 203 -46 14 -8 31 -14
37 -14 20 0 103 -63 161 -122 44 -44 65 -59 82 -56 45 6 33 38 -47 118 l-77
77 54 47 c116 103 229 146 384 146 104 0 235 -27 250 -51 3 -5 12 -9 21 -9 8
0 35 -13 60 -30 24 -16 46 -30 49 -30 3 0 29 -20 57 -45 49 -43 89 -57 102
-35 12 19 -5 45 -55 85 -27 22 -50 48 -50 58 0 43 112 185 198 250 214 163
506 182 775 51 59 -29 69 -29 83 -6 9 13 9 22 0 34 -14 19 -159 88 -186 88
-61 0 -2 68 120 138 86 49 119 61 220 79 71 12 99 13 170 2 47 -7 97 -18 112
-26 47 -23 71 -16 118 33 88 91 206 168 310 204 37 13 168 37 210 38 14 1 63
-5 110 -12z"/>
</g>
</svg>
