<svg xmlns="http://www.w3.org/2000/svg" width="512" height="431.942" viewBox="0 0 512 431.942"><g transform="translate(0 -40.499)"><path d="M133.35,60.5a10,10,0,1,0-7.07-2.93,10,10,0,0,0,7.07,2.93Z" fill="#fff"/><path d="M337.75,452.44H58a38,38,0,0,1-38-38V98.5a38,38,0,0,1,38-38H89a10,10,0,1,0,0-20H58a58.07,58.07,0,0,0-58,58V414.44a58.07,58.07,0,0,0,58,58H337.75a10,10,0,0,0,0-20Z" fill="#fff"/><path d="M377.94,452.44a10,10,0,1,0,7.07,2.93,10,10,0,0,0-7.07-2.93Z" fill="#fff"/><path d="M454,40.5H173.5a10,10,0,0,0,0,20H454a38,38,0,0,1,38,38V414.44a38,38,0,0,1-38,38H416.33a10,10,0,0,0,0,20H454a58.07,58.07,0,0,0,58-58V98.5a58.07,58.07,0,0,0-58-58Z" fill="#fff"/><path d="M276.06,108.5h12a10,10,0,0,0,0-20h-12a10,10,0,0,0,0,20Z" fill="#fff"/><path d="M226.06,108.5a10,10,0,1,0,0-20h-12a10,10,0,0,0,0,20Z" fill="#fff"/><path d="M132,404.44a10,10,0,1,0,0,20h12a10,10,0,0,0,0-20Z" fill="#fff"/><path d="M48,190.44a10,10,0,0,0,20,0v-12a10,10,0,0,0-20,0Z" fill="#fff"/><path d="M80.06,98.5a10,10,0,0,0,10,10h12a10,10,0,1,0,0-20h-12A10,10,0,0,0,80.06,98.5Z" fill="#fff"/><path d="M58,138.44a10,10,0,0,0,10-10v-12a10,10,0,0,0-20,0v12A10,10,0,0,0,58,138.44Z" fill="#fff"/><path d="M48,314.44a10,10,0,0,0,20,0v-12a10,10,0,0,0-20,0Z" fill="#fff"/><path d="M48,376.44a10,10,0,0,0,20,0v-12a10,10,0,0,0-20,0Z" fill="#fff"/><path d="M48,252.44a10,10,0,0,0,20,0v-12a10,10,0,0,0-20,0Z" fill="#fff"/><path d="M70,424.44H82a10,10,0,0,0,0-20H70a10,10,0,0,0,0,20Z" fill="#fff"/><path d="M318,424.44h12a10,10,0,0,0,0-20H318a10,10,0,0,0,0,20Z" fill="#fff"/><path d="M444,180.56a10,10,0,0,0,20,0v-12a10,10,0,0,0-20,0Z" fill="#fff"/><path d="M392,404.44H380a10,10,0,0,0,0,20h12a10,10,0,0,0,0-20Z" fill="#fff"/><path d="M152.06,108.5h12a10,10,0,0,0,0-20h-12a10,10,0,0,0,0,20Z" fill="#fff"/><path d="M454,128.56a10,10,0,0,0,10-10v-12a10,10,0,1,0-20,0v12A10,10,0,0,0,454,128.56Z" fill="#fff"/><path d="M444,304.56a10,10,0,0,0,20,0v-12a10,10,0,1,0-20,0Z" fill="#fff"/><path d="M432,414.44a10,10,0,0,0,10,10h12a10,10,0,0,0,0-20H442A10,10,0,0,0,432,414.44Z" fill="#fff"/><path d="M444,366.56a10,10,0,1,0,20,0v-12a10,10,0,1,0-20,0Z" fill="#fff"/><path d="M444,242.56a10,10,0,0,0,20,0v-12a10,10,0,1,0-20,0Z" fill="#fff"/><path d="M412.06,108.5a10,10,0,0,0,0-20h-12a10,10,0,0,0,0,20Z" fill="#fff"/><path d="M194,404.44a10,10,0,1,0,0,20h12a10,10,0,0,0,0-20Z" fill="#fff"/><path d="M246,414.44a10,10,0,0,0,10,10h12a10,10,0,0,0,0-20H256A10,10,0,0,0,246,414.44Z" fill="#fff"/><path d="M360.06,98.5a10,10,0,0,0-10-10h-12a10,10,0,0,0,0,20h12A10,10,0,0,0,360.06,98.5Z" fill="#fff"/><rect width="248.61" height="139.91" rx="30" transform="translate(131.69 185.54)" fill="none" stroke="#fff" stroke-miterlimit="10" stroke-width="20"/></g></svg>