<svg xmlns="http://www.w3.org/2000/svg" width="477.442" height="739.322" viewBox="0 0 477.442 739.322"><g transform="translate(3.462 4)"><path d="M420.819,109.849,360.094,47.026l-62.7,60.725L236.67,44.928l-62.7,60.6-60.725-62.7-62.7,60.6L14.135,65.787l-2.592,153.54a19.131,19.131,0,0,0,18.76,19.5h0L436,245.863a19.254,19.254,0,0,0,19.625-18.884h0l2.715-153.54Z" transform="translate(0 474.454)" fill="none" stroke="#fff" stroke-miterlimit="10" stroke-width="30"/><path d="M436.724,5H30.9A19.254,19.254,0,0,0,11.65,24.254h0V375.273L48.677,412.3l61.712-61.712L172.1,412.3l61.712-61.712L295.526,412.3l61.712-61.712L418.951,412.3l37.027-37.027V24.254A19.254,19.254,0,0,0,436.724,5Z" transform="translate(1.251 45.37)" fill="none" stroke="#fff" stroke-miterlimit="10" stroke-width="30"/><path d="M120.389,5a98.74,98.74,0,1,0,98.74,98.74A98.74,98.74,0,0,0,120.389,5Z" transform="translate(114.676 45.37)" fill="none" stroke="#fff" stroke-miterlimit="10" stroke-width="30"/><path d="M40.992,173.794A12.342,12.342,0,0,1,28.65,161.452V13.342a12.342,12.342,0,1,1,24.685,0V161.452A12.342,12.342,0,0,1,40.992,173.794Z" transform="translate(194.073)" fill="#fff" stroke="#fff" stroke-miterlimit="10" stroke-width="10"/></g></svg>