<svg xmlns="http://www.w3.org/2000/svg" width="318.21" height="318.22" viewBox="0 0 318.21 318.22"><path d="M159.11,318.22C71.38,318.22,0,246.85,0,159.11S71.38,0,159.11,0s159.1,71.38,159.1,159.11S246.84,318.22,159.11,318.22Zm0-306.52c-81.28,0-147.4,66.13-147.4,147.4s66.12,147.4,147.4,147.4S306.5,240.39,306.5,159.1,240.38,11.7,159.11,11.7Z" fill="#fff"/><path d="M159.11,287.82a128.72,128.72,0,1,1,0-257.44c70.98,0,128.73,57.74,128.73,128.72S230.09,287.82,159.11,287.82Zm0-245.73a117,117,0,1,0,117,117,117,117,0,0,0-117-117Z" fill="#fff"/><path d="M198.65,234.3a34.9,34.9,0,1,1,34.9-34.9,34.9,34.9,0,0,1-34.9,34.9Zm0-58.08a23.19,23.19,0,1,0,23.19,23.18A23.19,23.19,0,0,0,198.65,176.22Z" fill="#fff"/><path d="M119.57,154.47a34.9,34.9,0,1,1,34.91-34.907,34.9,34.9,0,0,1-34.91,34.907Zm0-58.09a23.19,23.19,0,1,0,23.19,23.18,23.19,23.19,0,0,0-23.19-23.18Z" fill="#fff"/></svg>