<svg xmlns="http://www.w3.org/2000/svg" width="440.35" height="512.031" viewBox="0 0 440.35 512.031"><g transform="translate(-35.85 0.031)"><path d="M425.5,350.27h-113L342.17,96.83a86.76,86.76,0,1,0-172.34,0l29.65,253.44H86.5a50.71,50.71,0,0,0-50.65,50.65V469a10.2,10.2,0,0,0,10.2,10.2h15.4v22.6A10.2,10.2,0,0,0,71.65,512h368.7a10.2,10.2,0,0,0,10.2-10.2V479.23H466a10.2,10.2,0,0,0,10.2-10.2V400.92a50.71,50.71,0,0,0-50.7-50.65ZM190.09,94.46a66.36,66.36,0,1,1,131.82,0L292,350.27H220ZM430.15,491.6H81.85V479.23h348.3ZM56.24,458.83V448.5h125a10.2,10.2,0,0,0,0-20.4h-125V400.92A30.3,30.3,0,0,1,86.5,370.66h339a30.3,30.3,0,0,1,30.26,30.26v57.91Z" fill="#fff"/><path d="M216.06,428.1H214a10.2,10.2,0,1,0,0,20.4h2.05a10.2,10.2,0,0,0,0-20.4Z" fill="#fff"/></g></svg>