<?xml version="1.0" standalone="no"?>
<!DOCTYPE svg PUBLIC "-//W3C//DTD SVG 20010904//EN"
 "http://www.w3.org/TR/2001/REC-SVG-20010904/DTD/svg10.dtd">
<svg version="1.0" xmlns="http://www.w3.org/2000/svg"
 width="300.000000pt" height="399.000000pt" viewBox="0 0 300.000000 399.000000"
 preserveAspectRatio="xMidYMid meet">
<metadata>
Created by potrace 1.10, written by Peter Selinger 2001-2011
</metadata>
<g transform="translate(0.000000,399.000000) scale(0.100000,-0.100000)"
fill="#000000" stroke="none">
<path d="M380 3888 c-70 -73 -116 -102 -137 -85 -9 6 -18 5 -28 -3 -8 -7 -15
-9 -15 -4 0 5 -7 -2 -16 -14 -8 -12 -15 -35 -14 -50 1 -15 2 -32 1 -38 -1 -15
-99 -115 -104 -106 -2 4 -3 2 -1 -4 1 -7 -8 -21 -22 -33 -27 -24 -31 -49 -8
-58 8 -3 13 -12 10 -19 -3 -8 -2 -13 2 -11 5 1 34 -21 65 -49 l58 -51 0 -1530
c0 -842 -1 -1534 -2 -1539 -1 -5 -1 -11 0 -14 1 -3 2 -52 3 -110 1 -83 4 -108
17 -120 23 -22 261 -22 282 0 11 12 14 63 14 277 0 171 -3 259 -10 255 -5 -3
-6 -1 -2 3 14 16 33 13 33 -4 2 -430 5 -520 19 -535 12 -11 42 -15 135 -15
173 0 160 -24 163 298 1 186 5 265 13 268 9 3 11 -69 10 -266 l-1 -270 25 -14
c38 -22 248 -22 272 0 10 9 18 22 18 29 0 7 6 15 13 17 8 4 8 6 0 6 -17 1 -19
481 -1 481 9 0 9 3 -2 11 -13 9 -13 10 0 6 13 -3 15 -39 18 -226 2 -159 0
-227 -9 -237 -9 -11 -9 -14 1 -14 8 0 11 -10 8 -28 -7 -48 13 -57 147 -60 115
-3 121 -3 149 21 15 14 24 26 20 28 -5 2 -7 115 -4 252 3 153 1 247 -4 247 -6
0 -5 5 2 12 6 6 14 10 16 7 3 -3 6 -125 7 -272 l1 -268 23 -15 c27 -18 224
-19 262 -1 32 14 34 40 31 311 -2 185 0 240 10 243 9 4 12 -51 13 -251 2 -302
1 -288 13 -301 14 -16 246 -18 274 -3 l24 13 0 267 c0 228 2 268 15 268 8 0
11 -5 7 -11 -3 -6 0 -15 7 -20 8 -5 10 -9 4 -9 -6 0 -9 -86 -8 -241 2 -210 4
-244 19 -260 15 -17 31 -18 141 -16 105 2 127 5 137 19 7 10 15 16 17 14 2 -3
3 117 2 265 -2 207 1 269 10 266 9 -3 12 -70 12 -260 0 -142 4 -257 8 -257 5
0 6 -4 3 -9 -14 -22 31 -36 130 -41 56 -3 100 -1 97 3 -3 5 1 8 8 6 35 -4 59
2 59 16 0 8 3 15 8 15 4 0 6 124 4 275 l-3 274 78 4 78 3 -77 2 -78 2 0 144
c0 106 3 146 13 150 9 5 9 7 0 12 -10 4 -12 123 -13 506 0 275 -2 504 -6 509
-3 5 -2 9 3 9 4 0 7 314 6 697 l-3 698 30 33 c29 31 48 43 34 20 -5 -7 -3 -8
5 -4 7 5 10 11 7 14 -9 9 15 32 27 25 5 -3 7 -1 4 4 -4 6 4 22 18 37 22 24 23
26 5 26 -11 0 -20 -4 -20 -10 0 -5 -8 -6 -17 -3 -16 6 -16 5 -4 -10 12 -15 11
-17 -3 -17 -9 0 -16 -7 -16 -15 0 -13 -4 -14 -20 -5 -19 10 -20 9 -14 -16 5
-19 4 -25 -5 -20 -7 4 -11 0 -11 -11 -1 -16 -3 -15 -19 5 -11 12 -21 22 -23
22 -1 0 -2 -758 0 -1685 l2 -1685 -135 0 -135 0 0 268 c0 195 3 271 12 280 9
9 -2 12 -53 12 -48 -1 -60 -3 -46 -11 15 -9 17 -33 17 -279 l0 -270 -132 0
-133 0 3 280 3 280 -41 0 -40 0 0 -282 0 -283 -130 0 -131 0 3 283 3 282 -60
-1 c-33 -1 -52 -3 -42 -6 16 -4 17 -26 17 -278 l0 -274 -130 -3 -130 -3 0 283
0 282 -40 0 -40 0 0 -280 0 -280 -130 0 -131 0 3 280 3 280 -47 0 c-27 0 -50
0 -53 0 -3 0 -4 -3 -3 -7 2 -5 6 -7 10 -6 5 2 8 -114 8 -256 0 -143 3 -266 6
-275 5 -14 -10 -16 -130 -16 l-136 0 0 275 c0 219 3 275 13 273 7 -2 14 0 15
5 1 4 0 7 -3 7 -3 0 -26 0 -52 0 l-48 0 2 -280 3 -280 -134 0 -134 0 2 280 2
280 -38 0 -38 0 0 -280 0 -280 -130 0 -130 0 0 274 c0 210 3 276 13 279 9 4 9
6 0 6 -10 1 -13 290 -14 1409 0 1281 -1 1405 -16 1385 -18 -26 -38 -31 -29 -7
5 12 2 15 -10 10 -13 -5 -15 -1 -9 21 5 23 4 26 -6 16 -18 -18 -32 -16 -25 3
4 12 2 15 -9 11 -8 -4 -17 -2 -20 3 -4 6 -1 10 4 10 6 0 11 5 11 11 0 6 -7 9
-15 5 -8 -3 -15 -1 -15 4 0 6 -8 10 -17 10 -11 0 15 32 70 86 83 82 87 88 87
130 l0 44 44 0 c43 0 48 4 130 87 53 54 86 80 86 70 0 -9 5 -17 10 -17 6 0 10
-7 10 -16 0 -14 2 -15 17 -3 15 12 16 12 10 -5 -6 -14 -4 -17 9 -12 13 5 15 2
10 -19 -5 -20 -3 -23 10 -18 9 3 20 0 24 -7 4 -7 14 -10 21 -8 9 3 -2 20 -32
51 -26 26 -45 48 -44 49 2 2 -4 10 -13 18 -14 13 -15 12 -9 -3 4 -11 3 -16 -3
-12 -6 3 -10 12 -10 19 0 27 -27 10 -90 -56z"/>
<path d="M2560 3950 c0 -6 -4 -8 -10 -5 -5 3 -10 -2 -10 -12 0 -15 -2 -16 -10
-3 -7 11 -10 11 -10 2 0 -7 -11 -23 -25 -36 -14 -13 -25 -29 -25 -36 0 -7 -7
-10 -15 -6 -11 4 -17 -3 -21 -23 -4 -16 -13 -28 -22 -29 -76 -4 -1776 0 -1784
4 -5 3 -16 0 -25 -8 -12 -9 -15 -9 -9 0 11 18 -5 15 -39 -8 l-30 -20 985 0
c868 1 983 2 966 15 -11 8 -23 15 -28 15 -4 0 -8 5 -8 10 0 6 7 10 16 10 9 0
12 5 8 12 -5 8 0 9 15 5 19 -5 22 -2 18 14 -3 12 0 19 10 19 9 0 13 6 9 15 -7
18 5 20 23 3 11 -11 13 -10 8 5 -4 9 -2 17 3 17 6 0 10 7 10 15 0 8 2 15 4 15
2 0 41 -38 87 -85 81 -83 83 -85 131 -85 l48 0 0 -48 c0 -47 2 -50 79 -125 43
-42 81 -77 85 -77 12 0 1 25 -17 38 -9 7 -14 18 -11 24 4 6 3 8 -3 5 -22 -14
-117 106 -112 140 4 27 -3 63 -11 58 -5 -3 -10 -2 -10 4 0 6 -20 9 -46 7 -25
-1 -48 2 -51 7 -4 6 -1 7 7 2 9 -5 11 -4 6 4 -4 6 -11 9 -16 6 -11 -7 -32 20
-22 30 4 5 1 4 -7 0 -11 -6 -13 -4 -8 8 4 11 2 14 -7 11 -8 -3 -20 4 -28 15
-8 12 -17 19 -20 16 -3 -3 -13 6 -22 19 -19 29 -56 53 -56 36z"/>
<path d="M315 3859 c-4 -6 -5 -12 -2 -15 2 -3 7 2 10 11 7 17 1 20 -8 4z"/>
<path d="M2505 3770 c-8 -12 313 -336 323 -326 3 3 -64 75 -148 161 -84 85
-157 159 -160 166 -6 8 -9 8 -15 -1z"/>
<path d="M356 3614 c-86 -85 -156 -159 -154 -164 2 -5 75 63 163 150 87 88
157 161 154 164 -3 3 -76 -65 -163 -150z"/>
<path d="M245 3720 c-40 -42 -28 -45 15 -4 19 19 30 34 24 34 -5 0 -23 -13
-39 -30z"/>
<path d="M2740 3744 c1 -12 60 -70 60 -58 0 6 -13 23 -30 39 -16 16 -30 25
-30 19z"/>
<path d="M390 3250 l0 -330 1120 0 1120 0 0 330 0 330 -1120 0 -1120 0 0 -330z
m2216 0 c-2 -160 -5 -292 -8 -295 -9 -9 -2172 -5 -2177 4 -3 5 -4 138 -1 296
l5 287 925 0 c509 0 995 3 1080 6 85 4 160 4 166 -1 9 -6 11 -89 10 -297z"/>
<path d="M1215 3465 c-27 -7 -57 -14 -65 -16 -22 -6 -49 -43 -65 -90 -18 -49
-18 -52 -5 -44 7 4 9 -3 5 -22 -5 -21 -4 -24 4 -13 9 13 11 12 12 -5 1 -11 1
-23 0 -27 0 -4 6 -5 14 -2 8 4 15 1 15 -5 0 -6 6 -10 13 -8 6 1 11 -4 10 -10
-2 -7 0 -12 5 -11 17 4 72 -14 66 -23 -3 -5 2 -9 11 -9 10 0 15 -7 13 -17 -4
-20 -59 -24 -110 -10 -23 6 -29 3 -45 -23 -9 -16 -20 -30 -23 -30 -3 0 -6 76
-6 168 -1 93 -4 174 -8 180 -8 13 -64 16 -90 6 -9 -3 -16 -14 -16 -24 0 -11
-5 -22 -10 -25 -6 -4 -7 -12 -3 -18 10 -17 12 -276 2 -283 -5 -3 -9 -10 -9
-15 0 -6 4 -7 10 -4 6 4 7 -1 3 -11 -4 -11 -3 -15 5 -10 6 3 13 -3 17 -14 11
-36 80 -22 90 18 l7 27 30 -35 c17 -19 27 -28 22 -20 -6 12 -5 13 7 4 8 -7 46
-14 86 -16 40 -2 67 -1 62 3 -6 4 -4 9 6 13 9 3 22 3 27 -1 7 -3 8 -1 4 5 -4
7 -1 12 8 12 8 0 18 9 21 20 3 11 11 20 16 20 5 0 9 6 9 14 0 8 4 18 10 21 6
4 7 -5 4 -24 -7 -35 9 -56 50 -67 14 -3 24 -9 22 -13 -6 -9 46 -7 61 2 7 4 25
5 40 1 23 -4 25 -3 13 6 -12 9 -10 11 12 7 15 -2 25 -1 23 4 -3 4 4 10 15 14
11 3 20 11 20 16 0 6 4 7 10 4 6 -4 7 1 3 10 -3 10 -1 20 4 24 5 3 13 31 16
61 4 31 3 49 -2 42 -6 -11 -10 -10 -16 5 -5 10 -9 23 -9 28 -1 6 -8 10 -16 10
-9 0 -14 8 -12 20 2 16 1 17 -7 5 -9 -12 -14 -11 -40 8 -17 12 -37 22 -44 22
-8 0 -17 9 -20 20 -5 19 -2 20 54 15 48 -5 60 -3 65 10 3 8 9 13 13 11 11 -7
12 46 0 60 -6 7 -9 17 -6 21 8 12 -124 14 -159 3 -64 -21 -102 -94 -84 -161
11 -40 60 -86 98 -94 24 -4 62 -23 62 -31 0 -3 -4 -2 -10 1 -5 3 -10 2 -10 -4
0 -5 5 -11 11 -13 7 -2 4 -10 -7 -18 -16 -13 -17 -13 -9 0 7 13 6 13 -7 2 -12
-10 -21 -10 -42 -1 -14 7 -22 17 -19 23 4 6 -1 5 -10 -2 -9 -8 -20 -11 -26 -8
-5 3 -11 1 -13 -5 -2 -5 -10 -7 -19 -4 -10 4 -14 15 -11 34 2 16 -1 32 -7 35
-6 4 -11 13 -11 19 0 7 4 6 10 -3 5 -8 10 -10 10 -4 0 15 -25 36 -33 27 -4 -3
-7 -1 -7 5 0 7 -8 12 -17 12 -14 0 -15 2 -5 9 10 6 6 10 -14 15 -22 6 -25 9
-13 17 9 5 9 9 2 9 -6 0 -14 -4 -18 -9 -6 -10 -65 18 -65 32 0 4 3 6 8 6 19
-3 33 2 27 11 -3 6 1 10 9 10 8 0 17 -4 21 -10 3 -5 13 -6 22 -3 10 4 14 2 10
-4 -4 -6 0 -14 9 -17 8 -3 12 -2 9 4 -5 8 5 13 25 12 3 0 5 25 5 56 0 53 -2
57 -22 54 -12 -2 -30 1 -40 6 -11 6 -36 5 -68 -3z m98 -31 c15 -5 17 -12 12
-32 -9 -36 -9 -36 -48 -22 -50 19 -92 2 -92 -36 0 -26 8 -33 70 -65 83 -43
104 -78 86 -140 -20 -67 -90 -93 -200 -74 -41 7 -42 8 -35 38 8 40 10 42 26
30 41 -32 120 -24 137 14 15 32 2 50 -59 76 -71 31 -100 63 -100 113 0 51 21
80 75 99 37 14 79 13 128 -1z m290 -1 c15 -4 17 -11 12 -31 -9 -35 -5 -33 -49
-21 -54 15 -98 -4 -94 -40 2 -21 16 -33 70 -60 85 -43 109 -82 87 -145 -19
-54 -63 -79 -139 -79 -76 1 -102 15 -94 51 9 35 11 37 26 25 23 -19 78 -25
108 -13 60 25 48 68 -31 105 -86 41 -104 65 -100 131 4 69 102 105 204 77z
m-563 -183 l0 -190 -35 0 -35 0 0 190 0 190 35 0 35 0 0 -190z"/>
<path d="M803 3457 c-32 -6 -43 -13 -43 -27 0 -10 -4 -21 -8 -24 -5 -3 -15
-30 -22 -61 -7 -30 -17 -55 -21 -55 -5 0 -6 -8 -2 -17 4 -13 3 -15 -5 -8 -6 6
-12 24 -14 40 -2 17 -9 35 -17 41 -8 6 -12 18 -8 27 3 9 2 17 -4 19 -5 2 -11
14 -14 27 -2 14 -10 28 -17 33 -20 12 -104 9 -116 -4 -11 -15 -32 -222 -32
-324 0 -78 13 -94 75 -93 22 1 31 4 20 6 -17 5 -16 7 10 19 17 8 22 12 12 9
-12 -3 -16 -1 -11 7 4 7 7 29 5 50 -3 51 8 67 25 37 18 -33 17 -44 -3 -28 -16
13 -17 12 -5 -3 8 -9 11 -22 7 -27 -3 -7 0 -8 10 -5 11 4 14 2 9 -9 -3 -8 0
-18 5 -22 6 -3 9 -11 6 -16 -3 -5 1 -6 9 -3 9 3 16 1 16 -4 0 -6 9 -10 20 -9
11 1 20 6 20 11 0 5 3 7 6 3 9 -9 34 19 39 43 2 12 11 35 19 52 9 17 13 34 10
39 -3 5 -1 9 4 9 14 0 17 -17 17 -80 0 -30 5 -60 11 -66 10 -11 93 -14 95 -4
0 3 3 14 5 25 10 42 0 287 -12 307 -3 4 -1 8 4 8 7 0 8 33 2 50 -1 3 -2 8 -2
11 2 14 -65 25 -105 16z m-155 -119 c18 -57 36 -121 41 -143 4 -22 10 -33 13
-25 3 8 23 72 44 142 l39 128 46 0 46 0 7 -95 c3 -52 9 -138 12 -190 l7 -95
-37 0 -36 0 -2 78 c-1 42 -2 116 -2 164 -1 92 -6 94 -26 11 -6 -29 -27 -96
-45 -150 -32 -91 -36 -98 -61 -98 -25 0 -29 6 -60 105 -18 58 -36 124 -40 148
-13 88 -24 49 -25 -95 -1 -81 -1 -151 0 -155 0 -5 -16 -8 -37 -8 l-38 0 7 73
c4 39 10 125 14 190 l7 117 47 0 47 0 32 -102z"/>
<path d="M1712 3462 c-12 -2 -26 -11 -31 -21 -5 -9 -9 -94 -8 -189 1 -95 -2
-172 -6 -172 -4 0 0 -9 10 -19 18 -19 101 -42 91 -25 -3 5 7 21 22 36 l28 28
7 -29 c7 -34 41 -47 79 -29 29 13 28 10 30 98 1 45 5 65 14 65 6 0 12 -4 11
-9 0 -5 6 -13 15 -18 9 -5 16 -18 16 -29 0 -13 4 -18 12 -13 8 5 9 2 5 -10 -5
-11 -3 -15 5 -10 8 5 9 2 5 -10 -5 -11 -3 -15 4 -10 7 4 10 1 7 -7 -6 -17 55
-59 85 -59 13 0 29 9 37 19 7 11 16 18 19 16 3 -2 5 36 4 83 -1 49 2 78 6 67
4 -10 7 -29 5 -41 -1 -13 4 -25 12 -28 8 -3 14 -15 14 -27 0 -12 3 -20 6 -16
8 8 33 -16 27 -25 -2 -5 5 -8 15 -8 19 0 46 -23 38 -31 -2 -2 42 -4 99 -4 57
0 98 3 92 7 -8 5 -4 8 8 8 26 1 59 26 51 39 -4 5 -2 12 4 16 5 3 10 40 10 81
0 47 -4 73 -10 69 -5 -3 -7 0 -4 8 7 18 -44 38 -78 30 -18 -4 -20 -3 -8 6 9 7
10 11 3 11 -6 0 -15 -5 -19 -11 -3 -6 -19 -9 -34 -7 -22 3 -31 -1 -39 -19 -12
-27 -4 -81 12 -80 39 1 47 -4 45 -28 -2 -20 -8 -25 -30 -25 -20 0 -28 5 -28
18 0 14 -2 14 -9 3 -8 -12 -12 -12 -25 -2 -9 7 -13 17 -10 22 3 5 0 9 -7 9 -7
0 -9 10 -7 25 3 13 2 22 -2 20 -4 -3 -7 8 -6 23 2 32 36 93 48 86 5 -3 15 -1
23 6 14 12 95 11 95 -2 0 -4 10 -4 22 1 15 5 27 22 35 49 l11 41 -49 16 c-52
18 -141 14 -165 -6 -8 -6 -23 -9 -33 -6 -13 3 -21 -1 -24 -15 -4 -13 -10 -17
-18 -12 -8 4 -10 3 -5 -5 4 -6 1 -14 -8 -17 -8 -3 -18 -14 -21 -25 -4 -11 -11
-17 -16 -14 -5 3 -6 -1 -3 -9 3 -9 1 -16 -6 -16 -6 0 -8 -4 -5 -10 3 -5 1 -10
-5 -10 -8 0 -11 18 -8 54 2 34 -1 52 -7 50 -5 -3 -3 1 7 8 15 11 14 13 -9 25
-35 18 -78 16 -98 -3 -12 -13 -15 -29 -12 -65 3 -27 2 -61 -3 -77 -5 -15 -9
-20 -9 -9 -1 9 -6 17 -11 17 -11 0 -31 43 -33 71 -1 9 -6 15 -13 12 -7 -2 -17
10 -23 30 -12 34 -16 36 -84 38 -43 1 -73 -17 -57 -36 5 -6 7 -15 3 -18 -3 -4
-5 -70 -4 -147 2 -118 0 -143 -14 -156 -15 -15 -16 -3 -14 155 1 117 -2 175
-10 185 -14 17 -38 23 -69 18z m58 -212 l0 -190 -37 0 -38 0 3 190 3 190 34 0
35 0 0 -190z m215 88 c33 -56 69 -122 80 -146 l20 -44 -3 146 -4 146 33 0 34
0 0 -190 0 -190 -36 0 c-36 0 -38 2 -98 103 -33 57 -69 122 -78 145 -10 23
-20 42 -23 42 -5 0 -3 -134 3 -247 l2 -43 -37 0 -38 0 0 190 0 190 43 0 42 0
60 -102z m503 96 c17 -5 22 -13 20 -34 l-2 -27 -71 4 c-110 7 -155 -32 -155
-130 0 -73 45 -127 110 -132 62 -5 71 2 68 54 -3 45 -3 46 -35 43 -31 -3 -33
-1 -33 27 l0 31 70 0 70 0 0 -94 c0 -60 -4 -97 -11 -102 -18 -11 -143 -17
-183 -10 -51 10 -111 70 -126 125 -25 94 18 194 99 230 46 20 132 27 179 15z
m-311 -171 c-3 -10 -5 -4 -5 12 0 17 2 24 5 18 2 -7 2 -21 0 -30z"/>
<path d="M1971 3434 c0 -11 3 -14 6 -6 3 7 2 16 -1 19 -3 4 -6 -2 -5 -13z"/>
<path d="M2552 3430 c0 -14 2 -19 5 -12 2 6 2 18 0 25 -3 6 -5 1 -5 -13z"/>
<path d="M1360 3436 c0 -2 7 -7 16 -10 8 -3 12 -2 9 4 -6 10 -25 14 -25 6z"/>
<path d="M626 3017 c3 -10 9 -15 12 -12 3 3 0 11 -7 18 -10 9 -11 8 -5 -6z"/>
<path d="M875 2110 l0 -660 638 0 637 0 0 660 0 660 -637 0 -638 0 0 -660z
m1240 0 l0 -631 -133 3 -132 3 -3 140 c-2 123 -5 146 -26 193 -13 29 -41 67
-61 85 -30 26 -36 36 -29 53 4 12 12 25 18 29 6 3 11 11 11 17 0 7 -13 0 -28
-15 -34 -33 -57 -34 -144 -4 -67 22 -68 22 -68 58 0 31 4 38 30 49 30 12 68
55 67 75 -1 23 -33 39 -86 43 -66 4 -111 -10 -118 -39 -4 -14 -12 -19 -24 -16
-11 3 -19 0 -19 -6 0 -6 -3 -8 -6 -4 -3 3 -26 -3 -51 -14 -24 -10 -45 -19 -46
-19 -1 0 -3 14 -4 32 -1 17 -15 57 -30 87 -32 65 -41 151 -23 207 17 51 84
118 110 111 11 -3 20 -1 20 5 0 6 7 8 15 5 8 -4 17 -2 20 3 11 17 23 11 29
-16 10 -40 36 -73 68 -90 37 -19 45 -13 24 18 -11 15 -16 18 -16 8 -1 -18 -60
48 -60 66 0 13 89 22 136 14 22 -4 29 -11 31 -30 0 -14 1 -31 2 -37 1 -7 5
-13 10 -13 5 0 6 21 3 46 -5 45 -4 46 19 38 13 -4 32 -8 42 -8 9 0 17 -3 17
-6 0 -3 11 -6 24 -6 55 -4 98 -60 117 -152 12 -56 11 -60 -24 -147 -21 -49
-37 -98 -37 -108 0 -15 -5 -18 -22 -13 -13 3 -29 6 -36 6 -7 0 -11 4 -7 9 3 5
0 13 -6 17 -8 4 -9 3 -5 -4 9 -15 -9 -15 -34 -2 -12 6 -21 7 -25 1 -7 -13 27
-31 84 -46 41 -10 45 -14 56 -57 18 -74 97 -158 148 -158 19 0 42 62 72 196
34 149 43 265 22 294 -44 63 -253 181 -356 200 -71 13 -212 13 -287 -1 -138
-25 -364 -177 -364 -245 0 -43 28 -205 52 -303 37 -153 54 -167 125 -106 50
43 79 88 88 136 6 32 11 37 40 42 19 3 50 13 70 22 35 17 36 17 62 -9 14 -15
36 -29 47 -32 18 -4 21 -12 21 -48 0 -26 -4 -42 -10 -39 -6 2 -37 -6 -69 -17
-75 -26 -100 -25 -126 2 -11 12 -23 19 -26 15 -4 -4 0 -15 9 -25 23 -25 22
-27 -22 -71 -70 -70 -75 -87 -79 -263 l-4 -158 -134 0 -134 0 0 630 0 630 603
0 602 0 0 -630z m-293 376 c7 5 8 2 3 -6 -6 -10 -4 -12 8 -7 16 6 131 -62 122
-72 -3 -2 6 -12 19 -22 19 -15 23 -26 21 -61 -2 -24 -4 -43 -4 -43 -1 0 -4
-22 -6 -50 -7 -80 -16 -125 -26 -125 -4 0 -6 -7 -3 -15 4 -8 1 -15 -5 -15 -6
0 -10 -12 -9 -27 2 -34 -22 -113 -34 -113 -5 0 -6 -4 -3 -10 3 -6 -1 -7 -9 -4
-9 3 -16 10 -16 15 0 5 -10 13 -22 18 -25 9 -88 125 -88 160 0 23 48 162 61
176 13 14 10 105 -5 145 -16 43 -24 68 -19 57 3 -4 10 -4 15 -1z m-622 -32
c-6 -15 -11 -60 -12 -98 0 -60 5 -82 32 -139 28 -59 31 -74 25 -115 -4 -26
-10 -51 -13 -57 -4 -5 -7 -17 -7 -25 0 -8 -5 -14 -11 -13 -7 1 -17 -11 -24
-27 -11 -28 -21 -35 -43 -31 -5 1 -6 -3 -2 -9 9 -15 -4 -30 -21 -23 -8 3 -13
12 -10 19 3 8 1 14 -3 14 -14 0 -54 141 -53 190 0 32 -3 39 -8 25 -6 -15 -9
-9 -10 25 -1 25 -3 61 -3 82 -1 20 -6 34 -11 31 -24 -15 11 67 42 97 19 19 31
28 27 20 -5 -8 4 -2 18 13 24 25 87 60 95 53 1 -2 -2 -16 -8 -32z m357 -268
c3 -3 -18 -6 -48 -5 -40 1 -48 3 -29 8 28 9 67 7 77 -3z m-52 -28 c27 -4 44
-1 53 8 16 17 32 18 32 3 0 -17 -52 -63 -72 -64 -20 -2 -78 48 -78 66 0 8 4 8
13 2 6 -6 30 -13 52 -15z m-2 -202 c-3 -13 0 -27 6 -30 7 -5 11 4 11 24 0 28
2 30 21 20 11 -7 27 -9 35 -6 8 3 14 1 14 -4 0 -6 3 -9 8 -9 58 9 61 -20 5
-46 -19 -9 -44 -26 -54 -36 -14 -14 -27 -18 -42 -13 -12 3 -22 7 -23 8 -23 36
-34 48 -34 39 0 -8 -7 -10 -17 -6 -25 9 -71 53 -56 53 6 0 20 3 30 6 15 5 15
4 3 -5 -17 -12 -10 -14 14 -5 9 3 13 10 10 15 -3 5 1 6 9 4 10 -4 44 4 63 14
1 1 -1 -10 -3 -23z m201 -31 c3 -8 -2 -21 -10 -30 -9 -8 -11 -15 -5 -15 5 0
14 7 19 16 5 9 15 14 21 10 6 -4 8 -12 5 -18 -4 -6 -3 -8 3 -5 13 8 45 -31 37
-45 -5 -7 -2 -9 9 -5 13 5 19 -3 27 -34 15 -53 21 -287 9 -295 -6 -3 -5 -11 2
-20 10 -12 4 -14 -32 -14 -43 0 -45 13 -4 23 18 4 18 5 -2 6 -19 1 -23 7 -24
36 -3 66 -4 73 -20 91 -9 11 -14 25 -12 31 3 7 -7 17 -20 22 -14 6 -28 15 -33
22 -5 8 -3 9 6 4 9 -6 11 -4 6 4 -5 7 -14 10 -22 7 -9 -3 -11 0 -7 12 6 15 5
15 -10 3 -15 -12 -21 -9 -18 11 2 19 -188 26 -200 7 -3 -5 -14 -7 -24 -3 -13
5 -16 4 -11 -4 4 -7 2 -12 -3 -12 -6 0 -13 0 -16 0 -4 0 -40 -37 -72 -74 -6
-8 -9 -17 -6 -20 4 -3 1 -6 -6 -6 -7 0 -10 -4 -7 -9 4 -5 3 -17 -1 -27 -6 -16
-7 -16 -13 2 -4 10 -6 -7 -5 -38 1 -31 -2 -55 -7 -52 -4 3 -8 -4 -8 -15 0 -17
-6 -21 -31 -21 -16 0 -28 4 -24 10 3 5 6 73 7 151 1 98 5 151 14 168 8 14 14
32 14 39 0 6 5 12 11 12 5 0 7 -5 3 -12 -4 -7 -3 -8 4 -4 6 4 9 12 6 19 -6 16
39 59 57 55 8 -2 13 3 12 10 -2 6 1 12 6 12 13 0 123 -60 138 -76 17 -16 69
-19 78 -4 4 6 11 8 16 5 5 -4 9 -1 9 4 0 6 7 11 15 11 8 0 15 5 15 10 0 6 5
10 12 10 6 0 23 10 36 23 14 12 22 17 19 11 -3 -6 0 -11 8 -11 8 0 14 3 13 6
-2 23 7 27 16 6z m-124 -195 c46 -13 106 -63 129 -108 10 -21 22 -61 26 -89
l7 -53 -226 0 -226 0 0 45 c0 86 64 175 145 203 39 14 101 14 145 2z m140 -70
c0 -5 -2 -10 -4 -10 -3 0 -8 5 -11 10 -3 6 -1 10 4 10 6 0 11 -4 11 -10z"/>
<path d="M1507 2495 c8 -22 63 -50 63 -33 0 19 -20 47 -20 29 0 -11 -5 -10
-25 3 -21 14 -24 14 -18 1z"/>
<path d="M1647 2439 c7 -7 15 -10 18 -7 3 3 -2 9 -12 12 -14 6 -15 5 -6 -5z"/>
<path d="M1337 2425 c-36 -19 -63 -49 -71 -78 -5 -20 -3 -25 7 -21 8 3 20 -2
27 -11 10 -12 16 -13 26 -4 8 6 14 8 14 4 0 -4 6 -2 14 4 7 6 25 12 40 13 14
1 26 8 26 16 0 7 4 11 9 8 13 -9 0 36 -16 56 -20 23 -48 28 -76 13z m73 -44
c0 -22 -79 -58 -105 -48 -42 17 13 64 78 66 20 1 27 -4 27 -18z"/>
<path d="M1540 2431 c0 -5 -8 -7 -17 -5 -10 3 -27 -2 -38 -9 -18 -14 -26 -63
-26 -170 0 -10 -5 -15 -12 -11 -8 5 -8 3 1 -7 23 -25 37 7 39 88 2 78 11 100
37 90 12 -5 16 -26 18 -93 2 -53 7 -89 14 -91 15 -5 11 164 -4 179 -6 6 -8 17
-5 24 3 8 2 14 -1 14 -3 0 -6 -4 -6 -9z"/>
<path d="M1608 2417 c-22 -17 -12 -64 19 -84 13 -9 26 -13 30 -10 3 4 18 0 34
-8 25 -13 29 -13 37 2 6 10 16 14 26 10 14 -6 13 -1 -4 32 -18 37 -38 53 -70
56 -8 1 -24 5 -35 8 -11 3 -27 1 -37 -6z m87 -31 c34 -14 46 -38 25 -51 -13
-8 -87 15 -101 31 -27 32 18 44 76 20z"/>
<path d="M1581 2354 c0 -11 3 -14 6 -6 3 7 2 16 -1 19 -3 4 -6 -2 -5 -13z"/>
<path d="M1353 2299 c-47 -17 -18 -88 31 -75 28 7 40 31 26 56 -13 23 -30 29
-57 19z m22 -18 c7 -12 -12 -24 -25 -16 -11 7 -4 25 10 25 5 0 11 -4 15 -9z"/>
<path d="M1615 2290 c-16 -18 -17 -21 -1 -45 27 -41 76 -27 76 21 0 39 -48 53
-75 24z m35 -15 c0 -8 -7 -15 -15 -15 -8 0 -15 7 -15 15 0 8 7 15 15 15 8 0
15 -7 15 -15z"/>
<path d="M1732 2240 c0 -14 2 -19 5 -12 2 6 2 18 0 25 -3 6 -5 1 -5 -13z"/>
<path d="M1346 2061 c-4 -5 -2 -12 3 -15 5 -4 12 -2 15 3 4 5 2 12 -3 15 -5 4
-12 2 -15 -3z"/>
<path d="M1660 2055 c0 -8 5 -15 10 -15 6 0 10 7 10 15 0 8 -4 15 -10 15 -5 0
-10 -7 -10 -15z"/>
<path d="M1420 2050 c0 -5 5 -10 10 -10 6 0 10 5 10 10 0 6 -4 10 -10 10 -5 0
-10 -4 -10 -10z"/>
<path d="M1580 2050 c0 -5 7 -10 15 -10 8 0 15 5 15 10 0 6 -7 10 -15 10 -8 0
-15 -4 -15 -10z"/>
<path d="M1376 2011 c-4 -5 -2 -12 3 -15 5 -4 12 -2 15 3 4 5 2 12 -3 15 -5 4
-12 2 -15 -3z"/>
<path d="M1630 2004 c0 -8 5 -12 10 -9 6 3 10 10 10 16 0 5 -4 9 -10 9 -5 0
-10 -7 -10 -16z"/>
<path d="M1780 2091 c0 -5 7 -15 17 -22 15 -13 15 -12 4 9 -12 23 -21 28 -21
13z"/>
<path d="M1850 2006 c0 -2 8 -10 18 -17 15 -13 16 -12 3 4 -13 16 -21 21 -21
13z"/>
<path d="M1042 2340 c0 -14 2 -19 5 -12 2 6 2 18 0 25 -3 6 -5 1 -5 -13z"/>
<path d="M1111 1984 c0 -11 3 -14 6 -6 3 7 2 16 -1 19 -3 4 -6 -2 -5 -13z"/>
<path d="M1480 1912 c0 -5 7 -15 15 -22 8 -7 15 -9 15 -6 0 4 -7 14 -15 22 -8
9 -15 11 -15 6z"/>
<path d="M1425 1860 c3 -5 8 -10 11 -10 2 0 4 5 4 10 0 6 -5 10 -11 10 -5 0
-7 -4 -4 -10z"/>
<path d="M1361 1856 c2 -2 15 -9 29 -15 24 -11 24 -11 6 3 -16 13 -49 24 -35
12z"/>
<path d="M2923 1973 c15 -2 39 -2 55 0 15 2 2 4 -28 4 -30 0 -43 -2 -27 -4z"/>
<path d="M2948 1673 c12 -2 30 -2 40 0 9 3 -1 5 -23 4 -22 0 -30 -2 -17 -4z"/>
<path d="M900 1261 l0 -29 610 1 610 0 0 29 0 28 -610 0 -610 0 0 -29z m105
-1 c-3 -5 -18 -9 -33 -9 l-27 1 30 8 c17 4 31 8 33 9 2 0 0 -3 -3 -9z m145 0
c-47 -3 -96 -3 -110 1 -14 4 23 7 85 7 l110 -1 -85 -7z m946 3 c-7 -7 -277 -5
-285 3 -2 2 62 4 144 4 82 0 145 -3 141 -7z"/>
<path d="M510 1113 l0 -28 1000 0 1000 0 0 28 0 27 -1000 0 -1000 0 0 -27z
m1000 7 c528 3 960 1 960 -3 0 -5 6 -5 13 -1 6 4 9 4 6 0 -5 -5 -523 -7 -1952
-6 -5 0 -5 5 -1 12 4 7 9 8 11 3 2 -6 360 -8 963 -5z"/>
<path d="M730 970 l0 -30 780 0 780 0 0 30 0 30 -780 0 -780 0 0 -30z m145
-11 c11 -11 -75 -12 -101 -2 -16 6 -16 7 2 13 22 9 85 1 99 -11z m1380 11 c3
-5 1 -10 -4 -10 -6 0 -11 5 -11 10 0 6 2 10 4 10 3 0 8 -4 11 -10z m-1007 -7
c-26 -2 -71 -2 -100 0 -29 2 -8 3 47 3 55 0 79 -1 53 -3z m200 0 c-26 -2 -71
-2 -100 0 -29 2 -8 3 47 3 55 0 79 -1 53 -3z m240 0 c-26 -2 -71 -2 -100 0
-29 2 -8 3 47 3 55 0 79 -1 53 -3z m200 0 c-26 -2 -71 -2 -100 0 -29 2 -8 3
47 3 55 0 79 -1 53 -3z"/>
<path d="M2945 930 c-4 -6 7 -10 24 -10 17 0 31 5 31 10 0 6 -11 10 -24 10
-14 0 -28 -4 -31 -10z"/>
<path d="M902 820 l1 -30 609 0 608 0 0 30 0 30 -609 0 -610 0 1 -30z m1198
-2 c0 -10 -1147 -10 -1153 -1 -3 5 256 8 574 8 318 0 579 -3 579 -7z"/>
<path d="M245 619 c-10 -15 3 -25 16 -12 7 7 7 13 1 17 -6 3 -14 1 -17 -5z"/>
<path d="M290 615 c0 -9 5 -15 11 -13 6 2 11 8 11 13 0 5 -5 11 -11 13 -6 2
-11 -4 -11 -13z"/>
<path d="M336 621 c-4 -5 -2 -12 3 -15 5 -4 12 -2 15 3 4 5 2 12 -3 15 -5 4
-12 2 -15 -3z"/>
<path d="M386 621 c-4 -7 -5 -15 -2 -18 9 -9 19 4 14 18 -4 11 -6 11 -12 0z"/>
<path d="M426 621 c-4 -5 -2 -12 3 -15 5 -4 12 -2 15 3 4 5 2 12 -3 15 -5 4
-12 2 -15 -3z"/>
<path d="M606 622 c-3 -6 -1 -14 5 -17 15 -10 25 3 12 16 -7 7 -13 7 -17 1z"/>
<path d="M655 619 c-10 -15 3 -25 16 -12 7 7 7 13 1 17 -6 3 -14 1 -17 -5z"/>
<path d="M696 622 c-3 -6 -1 -14 5 -17 15 -10 25 3 12 16 -7 7 -13 7 -17 1z"/>
<path d="M925 619 c-10 -15 3 -25 16 -12 7 7 7 13 1 17 -6 3 -14 1 -17 -5z"/>
<path d="M975 619 c-10 -15 3 -25 16 -12 7 7 7 13 1 17 -6 3 -14 1 -17 -5z"/>
<path d="M1016 622 c-3 -6 -1 -14 5 -17 15 -10 25 3 12 16 -7 7 -13 7 -17 1z"/>
<path d="M1065 619 c-10 -15 3 -25 16 -12 7 7 7 13 1 17 -6 3 -14 1 -17 -5z"/>
<path d="M1245 619 c-10 -15 3 -25 16 -12 7 7 7 13 1 17 -6 3 -14 1 -17 -5z"/>
<path d="M1291 621 c-10 -6 -10 -10 -1 -16 13 -8 24 -1 19 14 -3 6 -10 7 -18
2z"/>
<path d="M1381 621 c-10 -6 -10 -10 -1 -16 13 -8 24 -1 19 14 -3 6 -10 7 -18
2z"/>
<path d="M1426 621 c-4 -5 -2 -12 3 -15 5 -4 12 -2 15 3 4 5 2 12 -3 15 -5 4
-12 2 -15 -3z"/>
<path d="M1560 621 c0 -5 5 -13 10 -16 6 -3 10 -2 10 4 0 5 -4 13 -10 16 -5 3
-10 2 -10 -4z"/>
<path d="M1606 621 c-4 -5 -2 -12 3 -15 5 -4 12 -2 15 3 4 5 2 12 -3 15 -5 4
-12 2 -15 -3z"/>
<path d="M1655 619 c-10 -15 3 -25 16 -12 7 7 7 13 1 17 -6 3 -14 1 -17 -5z"/>
<path d="M1696 622 c-3 -6 -1 -14 5 -17 15 -10 25 3 12 16 -7 7 -13 7 -17 1z"/>
<path d="M1740 615 c0 -9 5 -15 11 -13 6 2 11 8 11 13 0 5 -5 11 -11 13 -6 2
-11 -4 -11 -13z"/>
<path d="M1925 619 c-10 -15 3 -25 16 -12 7 7 7 13 1 17 -6 3 -14 1 -17 -5z"/>
<path d="M1966 622 c-3 -6 -1 -14 5 -17 15 -10 25 3 12 16 -7 7 -13 7 -17 1z"/>
<path d="M2016 621 c-4 -5 -2 -12 3 -15 5 -4 12 -2 15 3 4 5 2 12 -3 15 -5 4
-12 2 -15 -3z"/>
<path d="M2056 622 c-3 -6 -1 -14 5 -17 15 -10 25 3 12 16 -7 7 -13 7 -17 1z"/>
<path d="M2105 619 c-10 -15 3 -25 16 -12 7 7 7 13 1 17 -6 3 -14 1 -17 -5z"/>
<path d="M2246 621 c-4 -7 -5 -15 -2 -18 9 -9 19 4 14 18 -4 11 -6 11 -12 0z"/>
<path d="M2286 622 c-3 -6 -1 -14 5 -17 15 -10 25 3 12 16 -7 7 -13 7 -17 1z"/>
<path d="M2330 615 c0 -9 5 -15 11 -13 6 2 11 8 11 13 0 5 -5 11 -11 13 -6 2
-11 -4 -11 -13z"/>
<path d="M2376 621 c-4 -5 -2 -12 3 -15 5 -4 12 -2 15 3 4 5 2 12 -3 15 -5 4
-12 2 -15 -3z"/>
<path d="M2426 621 c-4 -7 -5 -15 -2 -18 9 -9 19 4 14 18 -4 11 -6 11 -12 0z"/>
<path d="M2605 619 c-10 -15 3 -25 16 -12 7 7 7 13 1 17 -6 3 -14 1 -17 -5z"/>
<path d="M2651 621 c-10 -6 -10 -10 -1 -16 13 -8 24 -1 19 14 -3 6 -10 7 -18
2z"/>
<path d="M2690 615 c0 -16 16 -20 24 -6 3 5 -1 11 -9 15 -9 3 -15 0 -15 -9z"/>
<path d="M2736 622 c-3 -6 -1 -14 5 -17 15 -10 25 3 12 16 -7 7 -13 7 -17 1z"/>
<path d="M2785 619 c-10 -15 3 -25 16 -12 7 7 7 13 1 17 -6 3 -14 1 -17 -5z"/>
<path d="M560 610 c0 -5 4 -10 9 -10 6 0 13 5 16 10 3 6 -1 10 -9 10 -9 0 -16
-4 -16 -10z"/>
<path d="M740 610 c0 -5 4 -10 9 -10 6 0 13 5 16 10 3 6 -1 10 -9 10 -9 0 -16
-4 -16 -10z"/>
<path d="M1330 610 c0 -5 4 -10 9 -10 6 0 13 5 16 10 3 6 -1 10 -9 10 -9 0
-16 -4 -16 -10z"/>
<path d="M363 503 c-10 -4 -13 -48 -13 -174 0 -162 1 -169 20 -169 19 0 20 7
20 169 0 94 -3 172 -7 174 -5 2 -14 2 -20 0z"/>
<path d="M1633 503 c-10 -4 -13 -48 -13 -174 0 -162 1 -169 20 -169 19 0 20 7
20 169 0 94 -3 172 -7 174 -5 2 -14 2 -20 0z"/>
<path d="M1966 503 c-3 -4 -6 -82 -6 -175 0 -153 2 -168 18 -168 15 0 17 15
17 170 0 119 -3 171 -12 174 -6 3 -14 2 -17 -1z"/>
<path d="M270 329 c0 -149 2 -170 16 -167 13 3 16 28 17 171 2 153 1 167 -15
167 -16 0 -18 -15 -18 -171z"/>
<path d="M605 333 c1 -151 2 -168 18 -171 16 -3 17 11 17 167 0 156 -2 171
-17 171 -16 0 -18 -15 -18 -167z"/>
<path d="M690 329 c0 -149 2 -170 16 -167 13 3 15 28 17 171 2 153 1 167 -15
167 -16 0 -18 -15 -18 -171z"/>
<path d="M940 330 c0 -163 1 -170 20 -170 19 0 20 7 20 170 0 163 -1 170 -20
170 -19 0 -20 -7 -20 -170z"/>
<path d="M1028 329 c2 -145 5 -170 18 -167 8 2 15 6 15 11 -1 4 -1 79 -1 167
0 146 -2 160 -17 160 -17 0 -18 -14 -15 -171z"/>
<path d="M1280 330 c0 -163 1 -170 20 -170 19 0 20 7 20 170 0 163 -1 170 -20
170 -19 0 -20 -7 -20 -170z"/>
<path d="M1364 333 c1 -151 3 -168 19 -171 16 -3 17 10 17 167 0 161 -1 171
-19 171 -17 0 -18 -10 -17 -167z"/>
<path d="M1700 330 c0 -163 1 -170 20 -170 19 0 20 7 20 170 0 163 -1 170 -20
170 -19 0 -20 -7 -20 -170z"/>
<path d="M2040 330 c0 -163 1 -170 20 -170 19 0 20 7 20 170 0 163 -1 170 -20
170 -19 0 -20 -7 -20 -170z"/>
<path d="M2298 330 c2 -141 5 -170 17 -170 13 0 15 28 15 170 0 155 -2 170
-17 170 -17 0 -18 -14 -15 -170z"/>
<path d="M2380 329 c0 -157 1 -170 18 -167 15 3 17 20 20 171 2 162 2 167 -18
167 -19 0 -20 -6 -20 -171z"/>
<path d="M2630 330 c0 -163 1 -170 20 -170 19 0 20 7 20 170 0 163 -1 170 -20
170 -19 0 -20 -7 -20 -170z"/>
<path d="M2720 330 c0 -155 2 -170 18 -170 15 0 17 15 17 170 0 155 -2 170
-17 170 -16 0 -18 -15 -18 -170z"/>
<path d="M27 283 c18 -2 50 -2 70 0 21 2 7 4 -32 4 -38 0 -55 -2 -38 -4z"/>
</g>
</svg>
