<?xml version="1.0" standalone="no"?>
<!DOCTYPE svg PUBLIC "-//W3C//DTD SVG 20010904//EN"
 "http://www.w3.org/TR/2001/REC-SVG-20010904/DTD/svg10.dtd">
<svg version="1.0" xmlns="http://www.w3.org/2000/svg"
 width="900.000000pt" height="858.000000pt" viewBox="0 0 900.000000 858.000000"
 preserveAspectRatio="xMidYMid meet">
<metadata>
Created by potrace 1.10, written by Peter Selinger 2001-2011
</metadata>
<g transform="translate(0.000000,858.000000) scale(0.100000,-0.100000)"
fill="#000000" stroke="none">
<path d="M6685 8398 c-22 -11 -76 -57 -121 -102 -81 -82 -90 -95 -330 -504
-196 -335 -412 -658 -435 -650 -5 2 -27 53 -48 113 -39 113 -48 131 -93 201
-93 145 -279 165 -394 42 -68 -72 -99 -147 -159 -388 -80 -318 -264 -665 -480
-903 -133 -147 -203 -210 -400 -357 -192 -143 -286 -230 -367 -342 -52 -71
-68 -102 -102 -198 -20 -57 -120 -194 -178 -245 -105 -91 -227 -104 -330 -33
-29 20 -115 132 -168 218 -75 124 -170 321 -170 354 0 68 80 118 133 83 12 -8
62 -90 111 -183 167 -317 215 -365 296 -297 74 61 225 332 267 478 51 172 57
221 58 440 0 200 -1 213 -24 262 -26 60 -91 124 -148 148 -44 19 -80 31 -343
115 -107 34 -229 73 -270 87 -81 27 -284 89 -417 128 -99 30 -251 49 -318 41
-301 -34 -498 -128 -697 -329 -37 -38 -68 -73 -68 -77 0 -4 -14 -24 -30 -45
-17 -21 -51 -82 -76 -134 -26 -53 -56 -116 -68 -140 -22 -46 -93 -101 -129
-101 -10 0 -27 -5 -38 -11 -11 -5 -86 -30 -167 -53 -81 -24 -221 -68 -312 -99
-142 -49 -170 -61 -199 -93 l-33 -36 4 -147 c5 -139 25 -261 49 -285 5 -6 9
-16 9 -24 0 -32 99 -180 163 -243 130 -129 272 -206 462 -248 73 -16 143 -21
370 -26 154 -3 308 -11 343 -17 74 -12 94 -27 198 -146 193 -221 273 -416 260
-634 -27 -439 -15 -564 79 -854 30 -94 119 -278 175 -366 66 -101 75 -148 61
-308 -12 -132 -53 -540 -71 -710 -5 -47 -14 -134 -20 -195 -6 -60 -18 -169
-26 -241 -8 -72 -14 -149 -14 -172 0 -52 -33 -142 -63 -170 -12 -11 -67 -43
-122 -71 -205 -102 -304 -226 -334 -418 -16 -97 -4 -148 36 -164 14 -5 233 -9
513 -9 l488 0 29 24 c16 14 35 44 42 68 7 24 17 54 21 68 26 83 161 541 169
575 5 17 14 48 21 70 18 54 35 109 54 175 138 470 156 520 181 520 6 0 61 -39
121 -87 148 -118 287 -227 358 -282 97 -75 329 -277 359 -311 15 -18 26 -37
24 -43 -3 -10 -50 -20 -277 -62 -378 -70 -588 -250 -645 -553 -18 -91 -18 -93
2 -120 11 -14 34 -30 52 -34 18 -5 733 -7 1589 -5 1547 3 1558 3 1685 25 119
20 209 40 282 62 151 46 277 98 395 162 41 22 92 50 112 61 55 30 243 171 323
242 243 216 385 400 526 680 56 110 67 138 110 270 65 200 99 399 102 599 2
138 0 155 -20 191 -11 22 -32 50 -45 62 -32 30 -107 47 -176 40 -110 -12 -144
-66 -167 -267 -36 -309 -57 -408 -128 -585 -170 -423 -457 -732 -867 -932
-118 -58 -248 -109 -310 -122 -19 -5 -53 -13 -75 -19 -83 -22 -185 -36 -196
-25 -7 7 6 44 39 114 102 216 142 381 142 578 0 180 -50 453 -122 661 -80 232
-256 536 -406 701 -182 199 -507 499 -861 794 -173 144 -175 147 -86 151 32 2
71 8 86 14 26 11 69 81 69 113 0 29 -32 100 -67 150 -49 69 -50 67 62 86 280
49 421 95 561 184 57 35 174 140 202 179 15 23 22 47 22 81 0 42 -5 54 -34 83
l-34 34 -103 0 c-101 0 -102 0 -84 20 10 11 27 22 39 26 11 3 89 39 171 79
228 111 394 231 546 393 69 74 178 211 192 242 4 8 16 29 27 45 40 61 120 234
148 321 48 149 57 212 38 278 -32 108 -103 119 -262 38 -55 -27 -115 -59 -134
-71 -19 -11 -41 -21 -47 -21 -15 0 -18 36 -4 44 23 15 201 297 257 408 57 113
122 323 130 420 14 179 -45 293 -157 305 -62 7 -104 -15 -194 -99 -89 -83
-155 -134 -155 -120 0 6 17 41 39 79 21 37 50 89 64 115 34 62 115 252 127
297 5 20 18 70 29 111 30 110 61 337 61 448 0 143 -34 261 -94 325 -21 23 -33
27 -78 27 -34 -1 -68 -9 -93 -22z m72 -238 c19 -37 16 -204 -7 -360 -61 -430
-296 -920 -634 -1325 -76 -91 -272 -286 -356 -354 -104 -85 -124 -82 -71 13
36 63 107 274 123 364 7 37 13 150 13 252 2 207 0 203 79 295 135 157 215 266
360 485 157 238 209 320 301 475 16 28 49 81 73 118 40 63 46 68 75 65 22 -2
35 -11 44 -28z m-1283 -802 c38 -35 131 -269 169 -428 9 -36 24 -116 33 -178
16 -107 16 -120 0 -237 -19 -137 -37 -209 -85 -330 -76 -198 -172 -313 -450
-544 -69 -58 -91 -79 -91 -91 0 -30 270 87 454 197 82 49 171 114 292 216 41
33 95 67 108 67 2 0 12 -7 20 -16 21 -20 21 -110 1 -189 -42 -160 -218 -388
-415 -537 -52 -39 -192 -123 -282 -169 -115 -60 -101 -74 42 -43 159 35 307
79 468 142 107 41 140 38 153 -13 12 -42 -13 -148 -53 -231 -63 -132 -237
-273 -413 -336 -141 -51 -183 -59 -317 -63 -99 -3 -134 -8 -136 -17 -1 -8 16
-38 39 -68 73 -97 88 -163 48 -214 -32 -40 -71 -56 -141 -56 -63 0 -174 26
-219 51 -68 39 -439 396 -623 600 -231 257 -239 267 -231 308 13 74 92 215
167 297 59 64 129 121 303 246 270 195 489 419 648 664 149 230 232 425 311
734 45 177 64 227 89 245 32 22 82 19 111 -7z m1446 -423 c9 -10 10 -32 5 -72
-43 -368 -308 -793 -676 -1085 -108 -85 -258 -188 -276 -188 -21 0 -25 20 -8
46 57 88 91 248 74 351 -6 37 -14 91 -16 118 l-5 50 114 106 c62 58 142 131
178 163 36 32 142 134 235 226 297 293 341 326 375 285z m-4939 -701 c64 -33
103 -135 80 -207 -24 -71 -94 -127 -161 -127 -67 0 -139 52 -160 116 -51 155
100 292 241 218z m5028 -238 c38 -46 -111 -420 -231 -580 -154 -205 -332 -347
-623 -496 -147 -75 -259 -123 -281 -118 -10 2 1 27 41 88 31 47 63 108 71 135
22 68 29 176 16 227 -35 138 -36 145 -20 170 9 13 60 47 114 76 200 106 276
151 513 306 186 121 220 142 286 176 66 33 96 37 114 16z m-874 -1413 c16 -43
-218 -187 -410 -251 -115 -39 -285 -78 -401 -91 -155 -19 -158 -17 -155 66 1
32 -5 77 -14 102 -26 73 -23 78 48 84 85 8 266 32 427 57 176 28 349 47 431
49 55 1 68 -2 74 -16z m-977 -469 c84 -24 126 -48 166 -95 42 -49 49 -101 17
-119 -47 -25 -214 8 -279 55 -80 56 -165 142 -159 159 9 22 176 22 255 0z"/>
<path d="M2105 7888 c-606 -54 -1006 -271 -896 -486 103 -203 602 -353 1171
-352 375 0 745 71 970 187 131 67 219 178 204 258 -29 157 -289 297 -674 362
-231 39 -545 51 -775 31z m605 -117 c287 -42 426 -89 541 -183 23 -19 39 -53
39 -83 0 -119 -200 -214 -567 -270 -140 -21 -547 -21 -698 0 -265 37 -456 104
-530 186 -47 53 -49 112 -5 162 63 72 252 143 470 178 147 23 194 26 400 28
167 1 246 -3 350 -18z"/>
</g>
</svg>
