<?xml version="1.0" standalone="no"?>
<!DOCTYPE svg PUBLIC "-//W3C//DTD SVG 20010904//EN"
 "http://www.w3.org/TR/2001/REC-SVG-20010904/DTD/svg10.dtd">
<svg version="1.0" xmlns="http://www.w3.org/2000/svg"
 width="245.000000pt" height="231.000000pt" viewBox="0 0 245.000000 231.000000"
 preserveAspectRatio="xMidYMid meet">
<metadata>
Created by potrace 1.10, written by Peter Selinger 2001-2011
</metadata>
<g transform="translate(0.000000,231.000000) scale(0.100000,-0.100000)"
fill="#000000" stroke="none">
<path d="M943 1822 c-102 -36 -153 -88 -173 -175 -15 -68 -40 -300 -40 -374 0
-42 8 -84 24 -128 23 -59 24 -67 11 -92 -8 -16 -15 -34 -15 -42 0 -7 -11 -22
-25 -33 -31 -24 -34 -82 -6 -136 102 -198 484 -235 665 -64 70 67 89 162 41
200 -14 11 -25 28 -25 39 0 11 -6 28 -14 38 -12 16 -10 28 11 89 29 85 31 135
15 286 -29 267 -51 319 -158 371 -60 30 -78 34 -163 36 -74 3 -108 -1 -148
-15z m9 -365 c29 -13 59 -31 66 -40 12 -14 8 -18 -27 -36 -57 -30 -125 -28
-156 4 -27 26 -31 46 -15 76 15 26 66 25 132 -4z m376 11 c19 -19 14 -57 -13
-83 -31 -32 -99 -34 -157 -4 l-42 22 29 23 c56 45 157 68 183 42z m-209 -284
c35 -29 39 -59 16 -104 -18 -35 -49 -53 -75 -45 -25 8 -60 65 -60 98 0 26 49
77 75 77 7 0 27 -12 44 -26z"/>
<path d="M1998 1143 c-8 -10 -32 -45 -53 -78 -21 -32 -63 -83 -95 -112 -65
-60 -96 -114 -134 -229 -68 -208 -144 -266 -413 -320 -139 -27 -213 -54 -296
-107 -65 -42 -139 -106 -133 -116 3 -4 265 -8 584 -9 l580 -2 7 37 c4 21 8
101 10 179 4 204 12 214 192 263 121 33 153 57 153 115 0 41 -10 49 -80 73
-43 14 -60 27 -85 63 -21 31 -48 54 -85 72 -74 37 -74 37 -89 104 -19 83 -34
100 -63 67z m202 -283 c0 -27 -19 -34 -56 -20 -28 11 -28 12 -10 26 30 22 66
18 66 -6z"/>
<path d="M515 796 c-72 -35 -151 -82 -177 -105 -84 -74 -118 -180 -133 -411
l-7 -105 296 1 296 2 72 66 c40 36 99 80 130 98 l57 33 1 121 0 122 -47 6
c-152 22 -285 101 -328 196 -10 22 -21 40 -24 40 -3 0 -64 -29 -136 -64z"/>
<path d="M1475 820 c-40 -88 -167 -168 -305 -192 l-70 -12 0 -106 0 -107 83
22 c45 12 122 30 172 39 49 10 113 29 142 42 65 31 126 99 152 170 40 105 43
95 -59 142 -50 23 -92 42 -94 42 -2 0 -11 -18 -21 -40z"/>
</g>
</svg>
