<svg xmlns="http://www.w3.org/2000/svg" xmlns:xlink="http://www.w3.org/1999/xlink" width="26" height="27" viewBox="0 0 26 27"><defs><clipPath id="a"><rect width="26" height="27" transform="translate(234.908 4.774)" fill="#fff" stroke="#707070" stroke-width="1"/></clipPath></defs><g transform="translate(-234.908 -4.774)" clip-path="url(#a)"><g transform="translate(235.324 6.209)"><path d="M21.433,25.877v3.008a2.355,2.355,0,0,1-1.286,1.823c-.117.075-.241.154-.377.225a0,0,0,0,0,0,0c-.117.067-.241.13-.373.2a11,11,0,0,1-1.509.6l-.377.118h0q-.181.053-.373.107c-.475.126-.977.241-1.509.335-.124.024-.249.047-.377.067h0c-.124.02-.245.043-.373.059-.487.075-.988.134-1.509.182-.124.012-.249.024-.377.032h0c-.124.012-.245.02-.373.028-.49.032-1,.051-1.509.055-.124,0-.249,0-.377,0h0c-.128,0-.249,0-.373,0-.513,0-1.018-.024-1.509-.055-.128-.008-.253-.016-.377-.028h0c-.128-.008-.249-.02-.373-.032-.52-.047-1.022-.107-1.509-.182-.128-.016-.253-.039-.377-.059h0c-.128-.02-.249-.043-.373-.067-.532-.095-1.033-.209-1.509-.335-.128-.036-.256-.071-.377-.107h0c-.128-.04-.249-.079-.373-.118a11,11,0,0,1-1.509-.6c-.132-.063-.256-.13-.377-.2a0,0,0,0,1,0,0,3.506,3.506,0,0,1-.373-.221A2.355,2.355,0,0,1,0,28.885V25.877Z" transform="translate(0 -8.361)" fill="#f6c358"/><path d="M21.433,24.413a2.333,2.333,0,0,1-1.286,1.816,3.717,3.717,0,0,1-.381.233c-.117.071-.241.134-.373.2a11.527,11.527,0,0,1-1.509.6l-.377.118h0q-.181.053-.373.107c-.475.126-.977.241-1.509.336-.124.024-.249.047-.377.067h0c-.124.02-.245.043-.373.059-.487.075-.988.134-1.509.182-.124.012-.249.024-.377.032h0c-.124.012-.245.02-.373.028-.49.032-1,.051-1.509.055-.124,0-.249,0-.377,0h0c-.128,0-.249,0-.373,0-.513,0-1.018-.024-1.509-.055-.128-.008-.253-.016-.377-.028h0c-.128-.008-.249-.02-.373-.032-.52-.047-1.022-.107-1.509-.182-.128-.016-.253-.039-.377-.059h0c-.128-.02-.249-.043-.373-.067-.532-.095-1.033-.209-1.509-.336-.128-.035-.256-.071-.377-.107h0c-.128-.039-.249-.079-.373-.118a11.006,11.006,0,0,1-1.509-.6c-.132-.063-.256-.13-.377-.2a0,0,0,0,1,0,0,3.535,3.535,0,0,1-.373-.221A2.355,2.355,0,0,1,0,24.413c0-2.116,4.8-3.833,10.719-3.833S21.433,22.3,21.433,24.413Z" transform="translate(0 -6.897)" fill="#fcd462"/><path d="M11.142,27.584c-.107,0-.208,0-.313,0-.494,0-.982-.022-1.477-.054-.121-.007-.235-.015-.348-.025l-.046,0H8.94c-.1-.007-.2-.016-.3-.026-.543-.05-1.017-.107-1.469-.176-.1-.013-.176-.026-.248-.038l-.2-.033c-.076-.013-.268-.05-.268-.05-.486-.086-.954-.19-1.44-.32-.113-.031-.236-.065-.352-.1l-.358-.113A10.492,10.492,0,0,1,3.143,26.2v0l-.568-.29L2.392,25.8H2.384L2.3,25.746c-.609-.4-.821-.747-.821-.924,0-.973,3.681-2.761,9.7-2.761s9.691,1.788,9.691,2.761c0,.176-.211.519-.8.907a2.921,2.921,0,0,1-.3.184l-.056.032c-.093.057-.193.106-.3.16a10.6,10.6,0,0,1-1.374.541l-.354.11-.358.1c-.476.126-.944.23-1.418.315-.1.019-.194.037-.288.053l-.207.033c-.068.012-.136.024-.207.032-.483.074-.956.131-1.479.178-.108.01-.213.02-.32.028l-.063,0c-.114.011-.224.018-.342.025-.5.032-.987.05-1.456.054-.128,0-.235,0-.343,0Z" transform="translate(-0.457 -7.306)" fill="#f6c358"/><g transform="translate(1.29 19.332)"><path d="M2.62,28.823v3.008c-.132-.063-.256-.13-.377-.2a0,0,0,0,1,0,0,3.505,3.505,0,0,1-.373-.221V28.4a3.525,3.525,0,0,0,.373.221,0,0,0,0,0,0,0C2.363,28.693,2.488,28.76,2.62,28.823Z" transform="translate(-1.865 -28.389)" fill="#dc8744"/><path d="M5.892,30.035v3.008c-.128-.036-.256-.071-.377-.107h0c-.128-.04-.249-.079-.373-.118V29.81c.124.039.245.079.373.118h0C5.636,29.964,5.764,30,5.892,30.035Z" transform="translate(-2.875 -28.78)" fill="#dc8744"/><path d="M9.165,30.71v3.008c-.128-.016-.253-.039-.377-.059h0c-.128-.02-.249-.043-.373-.067V30.584c.124.024.245.047.373.067h0C8.912,30.671,9.037,30.695,9.165,30.71Z" transform="translate(-3.885 -28.994)" fill="#dc8744"/><path d="M12.438,31.069v3.008c-.128-.008-.253-.016-.377-.028h0c-.128-.008-.249-.02-.373-.032V31.01c.124.012.245.024.373.032h0C12.185,31.053,12.309,31.061,12.438,31.069Z" transform="translate(-4.895 -29.111)" fill="#dc8744"/><path d="M15.71,31.168v3.008c-.124,0-.249,0-.377,0h0c-.128,0-.249,0-.373,0V31.168c.124,0,.245,0,.373,0h0C15.461,31.172,15.586,31.172,15.71,31.168Z" transform="translate(-5.904 -29.155)" fill="#dc8744"/><path d="M18.983,31.01v3.008c-.124.012-.249.024-.377.032h0c-.124.012-.245.02-.373.028V31.069c.128-.008.249-.016.373-.028h0C18.734,31.033,18.858,31.022,18.983,31.01Z" transform="translate(-6.914 -29.111)" fill="#dc8744"/><path d="M22.256,30.584v3.008c-.124.024-.249.047-.377.067h0c-.124.02-.245.043-.373.059V30.71c.128-.016.249-.039.373-.059h0C22.007,30.632,22.131,30.608,22.256,30.584Z" transform="translate(-7.924 -28.994)" fill="#dc8744"/><path d="M25.528,29.81v3.008l-.377.118h0q-.181.053-.373.107V30.035q.192-.053.373-.107h0Z" transform="translate(-8.934 -28.78)" fill="#dc8744"/><path d="M28.8,28.386V31.4c-.117.075-.241.154-.377.225a0,0,0,0,0,0,0c-.117.067-.241.13-.373.2V28.82c.132-.067.256-.13.373-.2A3.722,3.722,0,0,0,28.8,28.386Z" transform="translate(-9.943 -28.386)" fill="#dc8744"/></g><path d="M27.436,19.574v3.008A2.355,2.355,0,0,1,26.15,24.4c-.117.075-.241.154-.377.225a0,0,0,0,0,0,0c-.117.067-.241.13-.373.2a11,11,0,0,1-1.509.6l-.377.118h0q-.181.053-.373.107c-.475.126-.977.241-1.509.335-.124.024-.249.047-.377.067h0c-.124.02-.245.043-.373.059-.486.075-.988.134-1.509.182-.124.012-.249.024-.377.032h0c-.124.012-.245.02-.373.028-.49.032-1,.051-1.509.055-.124,0-.249,0-.377,0h0c-.128,0-.249,0-.373,0-.513,0-1.018-.024-1.509-.055-.128-.008-.253-.016-.377-.028h0c-.128-.008-.249-.02-.373-.032-.52-.047-1.022-.107-1.509-.182-.128-.016-.253-.039-.377-.059h0c-.128-.02-.249-.043-.373-.067-.532-.095-1.033-.209-1.509-.335-.128-.036-.256-.071-.377-.107h0c-.128-.04-.249-.079-.373-.118a11,11,0,0,1-1.509-.6c-.132-.063-.256-.13-.377-.2a0,0,0,0,1,0,0,3.506,3.506,0,0,1-.373-.221A2.355,2.355,0,0,1,6,22.581V19.574H27.436Z" transform="translate(-1.852 -6.619)" fill="#f6c358"/><path d="M27.436,18.11a2.333,2.333,0,0,1-1.286,1.816,3.718,3.718,0,0,1-.381.233c-.117.071-.241.134-.373.2a11.527,11.527,0,0,1-1.509.6l-.377.118h0q-.181.053-.373.107c-.475.126-.977.241-1.509.336-.124.024-.249.047-.377.067h0c-.124.02-.245.043-.373.059-.487.075-.988.134-1.509.182-.124.012-.249.024-.377.032h0c-.124.012-.245.02-.373.028-.49.032-1,.051-1.509.055-.124,0-.249,0-.377,0h0c-.128,0-.249,0-.373,0-.513,0-1.018-.024-1.509-.055-.128-.008-.253-.016-.377-.028h0c-.128-.008-.249-.02-.373-.032-.52-.047-1.022-.107-1.509-.182-.128-.016-.253-.039-.377-.059h0c-.128-.02-.249-.043-.373-.067-.532-.095-1.033-.209-1.509-.336-.128-.035-.256-.071-.377-.107h0c-.128-.039-.249-.079-.373-.118a11.006,11.006,0,0,1-1.509-.6c-.132-.063-.256-.13-.377-.2a0,0,0,0,1,0,0,3.534,3.534,0,0,1-.373-.221A2.355,2.355,0,0,1,6,18.11c0-2.116,4.8-3.833,10.719-3.833S27.436,15.994,27.436,18.11Z" transform="translate(-1.852 -5.155)" fill="#fcd462"/><path d="M17.144,21.28c-.106,0-.208,0-.312,0-.5,0-.985-.022-1.477-.054-.12-.007-.234-.014-.347-.025l-.046,0h-.019c-.1-.006-.19-.015-.284-.024-.557-.051-1.031-.108-1.48-.177-.1-.013-.177-.026-.249-.038l-.2-.033c-.078-.013-.269-.05-.269-.05-.488-.087-.955-.191-1.44-.32-.113-.031-.236-.065-.352-.1l-.358-.112A10.476,10.476,0,0,1,9.146,19.9v0l-.571-.29L8.394,19.5H8.387L8.3,19.442c-.609-.4-.821-.746-.821-.923,0-.973,3.681-2.762,9.7-2.762s9.691,1.788,9.691,2.762c0,.176-.211.519-.8.907a2.972,2.972,0,0,1-.3.184l-.055.031c-.093.057-.193.106-.3.16a10.546,10.546,0,0,1-1.374.541l-.354.11-.358.1c-.474.126-.941.23-1.418.315-.1.019-.193.037-.287.052l-.209.034c-.068.012-.135.024-.206.032-.48.074-.954.131-1.479.178-.109.01-.213.02-.32.028l-.065,0c-.113.011-.224.018-.34.025-.495.032-.984.05-1.456.054-.128,0-.235,0-.343,0Z" transform="translate(-2.309 -5.564)" fill="#f6c358"/><g transform="translate(5.44 14.771)"><path d="M8.622,22.52v3.008c-.132-.063-.256-.13-.377-.2a0,0,0,0,1,0,0,3.506,3.506,0,0,1-.373-.221V22.094a3.525,3.525,0,0,0,.373.221,0,0,0,0,0,0,0C8.366,22.39,8.49,22.457,8.622,22.52Z" transform="translate(-7.868 -22.086)" fill="#dc8744"/><path d="M11.895,23.731v3.008c-.128-.036-.256-.071-.377-.107h0c-.128-.04-.249-.079-.373-.118V23.506c.124.039.245.079.373.118h0C11.639,23.66,11.767,23.7,11.895,23.731Z" transform="translate(-8.878 -22.476)" fill="#dc8744"/><path d="M15.168,24.407v3.008c-.128-.016-.253-.039-.377-.059h0c-.128-.02-.249-.043-.373-.067V24.281c.124.024.245.047.373.067h0C14.915,24.368,15.039,24.391,15.168,24.407Z" transform="translate(-9.888 -22.69)" fill="#dc8744"/><path d="M18.44,24.765v3.008c-.128-.008-.253-.016-.377-.028h0c-.128-.008-.249-.02-.373-.032V24.706c.124.012.245.024.373.032h0C18.188,24.75,18.312,24.758,18.44,24.765Z" transform="translate(-10.897 -22.808)" fill="#dc8744"/><path d="M21.713,24.864v3.008c-.124,0-.249,0-.377,0h0c-.128,0-.249,0-.373,0V24.864c.124,0,.245,0,.373,0h0C21.464,24.868,21.588,24.868,21.713,24.864Z" transform="translate(-11.907 -22.851)" fill="#dc8744"/><path d="M24.986,24.706v3.008c-.124.012-.249.024-.377.032h0c-.124.012-.245.02-.373.028V24.765c.128-.008.249-.016.373-.028h0C24.737,24.73,24.861,24.718,24.986,24.706Z" transform="translate(-12.917 -22.808)" fill="#dc8744"/><path d="M28.258,24.281v3.008c-.124.024-.249.047-.377.067h0c-.124.02-.245.043-.373.059V24.407c.128-.016.249-.039.373-.059h0C28.009,24.328,28.134,24.3,28.258,24.281Z" transform="translate(-13.926 -22.69)" fill="#dc8744"/><path d="M31.531,23.506v3.008l-.377.118h0q-.181.053-.373.107V23.731q.192-.053.373-.107h0Z" transform="translate(-14.936 -22.476)" fill="#dc8744"/><path d="M34.8,22.083V25.1c-.117.075-.241.154-.377.225a0,0,0,0,0,0,0c-.117.067-.241.13-.373.2V22.517c.132-.067.256-.13.373-.2A3.712,3.712,0,0,0,34.8,22.083Z" transform="translate(-15.946 -22.083)" fill="#dc8744"/></g><path d="M21.433,13.27v3.008A2.355,2.355,0,0,1,20.147,18.1c-.117.075-.241.154-.377.225a0,0,0,0,0,0,0c-.117.067-.241.13-.373.2a11,11,0,0,1-1.509.6l-.377.118h0q-.181.053-.373.107c-.475.126-.977.241-1.509.335-.124.024-.249.047-.377.067h0c-.124.02-.245.043-.373.059-.487.075-.988.134-1.509.182-.124.012-.249.024-.377.032h0c-.124.012-.245.02-.373.028-.49.032-1,.051-1.509.055-.124,0-.249,0-.377,0h0c-.128,0-.249,0-.373,0-.513,0-1.018-.024-1.509-.055-.128-.008-.253-.016-.377-.028h0c-.128-.008-.249-.02-.373-.032-.52-.047-1.022-.107-1.509-.182-.128-.016-.253-.039-.377-.059h0c-.128-.02-.249-.043-.373-.067-.532-.095-1.033-.209-1.509-.335-.128-.036-.256-.071-.377-.107h0c-.128-.04-.249-.079-.373-.118a11,11,0,0,1-1.509-.6c-.132-.063-.256-.13-.377-.2a0,0,0,0,1,0,0A3.505,3.505,0,0,1,1.29,18.1,2.355,2.355,0,0,1,0,16.278V13.27Z" transform="translate(0 -4.876)" fill="#f6c358"/><path d="M21.433,11.806a2.333,2.333,0,0,1-1.286,1.816,3.717,3.717,0,0,1-.381.233c-.117.071-.241.134-.373.2a11.527,11.527,0,0,1-1.509.6l-.377.118h0q-.181.053-.373.107c-.475.126-.977.241-1.509.336-.124.024-.249.047-.377.067h0c-.124.02-.245.043-.373.059-.487.075-.988.134-1.509.182-.124.012-.249.024-.377.032h0c-.124.012-.245.02-.373.028-.49.032-1,.051-1.509.055-.124,0-.249,0-.377,0h0c-.128,0-.249,0-.373,0-.513,0-1.018-.024-1.509-.055-.128-.008-.253-.016-.377-.028h0c-.128-.008-.249-.02-.373-.032-.52-.047-1.022-.107-1.509-.182-.128-.016-.253-.039-.377-.059h0c-.128-.02-.249-.043-.373-.067-.532-.095-1.033-.209-1.509-.336-.128-.035-.256-.071-.377-.107h0c-.128-.039-.249-.079-.373-.118a11.006,11.006,0,0,1-1.509-.6c-.132-.063-.256-.13-.377-.2a0,0,0,0,1,0,0,3.535,3.535,0,0,1-.373-.221A2.355,2.355,0,0,1,0,11.806C0,9.691,4.8,7.974,10.719,7.974S21.433,9.691,21.433,11.806Z" transform="translate(0 -3.413)" fill="#fcd462"/><path d="M11.143,14.977c-.107,0-.21,0-.315,0-.5,0-.984-.022-1.476-.054-.119-.007-.233-.014-.347-.025l-.046,0H8.94c-.1-.006-.19-.015-.284-.024-.557-.051-1.031-.108-1.48-.177-.1-.013-.175-.025-.246-.037l-.206-.033c-.076-.013-.268-.05-.268-.05-.487-.087-.954-.191-1.44-.32-.114-.031-.236-.065-.352-.1l-.357-.112a10.476,10.476,0,0,1-1.164-.442v0L2.572,13.3l-.181-.106H2.384L2.3,13.139c-.609-.4-.821-.747-.821-.924,0-.973,3.681-2.762,9.7-2.762s9.691,1.788,9.691,2.762c0,.176-.211.519-.8.907a2.978,2.978,0,0,1-.3.184l-.055.031c-.093.057-.193.106-.3.16a10.546,10.546,0,0,1-1.374.541l-.354.11q-.173.051-.357.1c-.477.127-.944.231-1.419.315-.1.019-.2.038-.294.054l-.2.033c-.067.011-.134.023-.2.032-.48.074-.954.131-1.479.178-.108.01-.213.02-.319.028l-.065,0c-.114.011-.224.018-.342.025-.494.032-.983.05-1.455.053-.127,0-.235,0-.343,0Z" transform="translate(-0.457 -3.822)" fill="#f6c358"/><g transform="translate(1.29 10.209)"><path d="M2.62,16.216v3.008c-.132-.063-.256-.13-.377-.2a0,0,0,0,1,0,0,3.506,3.506,0,0,1-.373-.221V15.79a3.525,3.525,0,0,0,.373.221,0,0,0,0,0,0,0C2.363,16.086,2.488,16.153,2.62,16.216Z" transform="translate(-1.865 -15.782)" fill="#dc8744"/><path d="M5.892,17.428v3.008c-.128-.036-.256-.071-.377-.107h0c-.128-.04-.249-.079-.373-.118V17.2c.124.039.245.079.373.118h0C5.636,17.357,5.764,17.392,5.892,17.428Z" transform="translate(-2.875 -16.173)" fill="#dc8744"/><path d="M9.165,18.1v3.008c-.128-.016-.253-.039-.377-.059h0c-.128-.02-.249-.043-.373-.067V17.977c.124.024.245.047.373.067h0C8.912,18.064,9.037,18.088,9.165,18.1Z" transform="translate(-3.885 -16.387)" fill="#dc8744"/><path d="M12.438,18.462V21.47c-.128-.008-.253-.016-.377-.028h0c-.128-.008-.249-.02-.373-.032V18.4c.124.012.245.024.373.032h0C12.185,18.446,12.309,18.454,12.438,18.462Z" transform="translate(-4.895 -16.504)" fill="#dc8744"/><path d="M15.71,18.561v3.008c-.124,0-.249,0-.377,0h0c-.128,0-.249,0-.373,0V18.561c.124,0,.245,0,.373,0h0C15.461,18.565,15.586,18.565,15.71,18.561Z" transform="translate(-5.904 -16.548)" fill="#dc8744"/><path d="M18.983,18.4V21.41c-.124.012-.249.024-.377.032h0c-.124.012-.245.02-.373.028V18.462c.128-.008.249-.016.373-.028h0C18.734,18.426,18.858,18.415,18.983,18.4Z" transform="translate(-6.914 -16.504)" fill="#dc8744"/><path d="M22.256,17.977v3.008c-.124.024-.249.047-.377.067h0c-.124.02-.245.043-.373.059V18.1c.128-.016.249-.039.373-.059h0C22.007,18.025,22.131,18,22.256,17.977Z" transform="translate(-7.924 -16.387)" fill="#dc8744"/><path d="M25.528,17.2V20.21l-.377.118h0q-.181.053-.373.107V17.428q.192-.053.373-.107h0Z" transform="translate(-8.934 -16.173)" fill="#dc8744"/><path d="M28.8,15.779v3.015c-.117.075-.241.154-.377.225a0,0,0,0,0,0,0c-.117.067-.241.13-.373.2V16.213c.132-.067.256-.13.373-.2A3.712,3.712,0,0,0,28.8,15.779Z" transform="translate(-9.943 -15.779)" fill="#dc8744"/></g><path d="M27.436,6.967V9.974A2.355,2.355,0,0,1,26.15,11.8c-.117.075-.241.154-.377.225a0,0,0,0,0,0,0c-.117.067-.241.13-.373.2a11,11,0,0,1-1.509.6l-.377.118h0q-.181.053-.373.107c-.475.126-.977.241-1.509.335-.124.024-.249.047-.377.067h0c-.124.02-.245.043-.373.059-.486.075-.988.134-1.509.182-.124.012-.249.024-.377.032h0c-.124.012-.245.02-.373.028-.49.032-1,.051-1.509.055-.124,0-.249,0-.377,0h0c-.128,0-.249,0-.373,0-.513,0-1.018-.024-1.509-.055-.128-.008-.253-.016-.377-.028h0c-.128-.008-.249-.02-.373-.032-.52-.047-1.022-.107-1.509-.182-.128-.016-.253-.039-.377-.059h0c-.128-.02-.249-.043-.373-.067-.532-.095-1.033-.209-1.509-.335-.128-.036-.256-.071-.377-.107h0c-.128-.04-.249-.079-.373-.118a11,11,0,0,1-1.509-.6c-.132-.063-.256-.13-.377-.2a0,0,0,0,1,0,0,3.505,3.505,0,0,1-.373-.221A2.355,2.355,0,0,1,6,9.974V6.967Z" transform="translate(-1.852 -3.134)" fill="#f6c358"/><path d="M27.436,5.5A2.333,2.333,0,0,1,26.15,7.319a3.717,3.717,0,0,1-.381.233c-.117.071-.241.134-.373.2a11.527,11.527,0,0,1-1.509.6l-.377.118h0q-.181.053-.373.107c-.475.126-.977.241-1.509.336-.124.024-.249.047-.377.067h0c-.124.02-.245.043-.373.059-.487.075-.988.134-1.509.182-.124.012-.249.024-.377.032h0c-.124.012-.245.02-.373.028-.49.032-1,.051-1.509.055-.124,0-.249,0-.377,0h0c-.128,0-.249,0-.373,0-.513,0-1.018-.024-1.509-.055-.128-.008-.253-.016-.377-.028h0c-.128-.008-.249-.02-.373-.032-.52-.047-1.022-.107-1.509-.182C12.445,9.02,12.32,9,12.2,8.976h0c-.128-.02-.249-.043-.373-.067-.532-.095-1.033-.209-1.509-.336-.128-.035-.256-.071-.377-.107h0c-.128-.039-.249-.079-.373-.118a11.006,11.006,0,0,1-1.509-.6c-.132-.063-.256-.13-.377-.2a0,0,0,0,1,0,0,3.535,3.535,0,0,1-.373-.221A2.355,2.355,0,0,1,6,5.5c0-2.116,4.8-3.833,10.719-3.833S27.436,3.387,27.436,5.5Z" transform="translate(-1.852 -1.671)" fill="#fcd462"/><path d="M17.144,8.674c-.106,0-.208,0-.312,0-.5,0-.985-.022-1.477-.054-.12-.007-.234-.015-.347-.025l-.046,0h-.019c-.1-.006-.19-.015-.284-.024-.556-.051-1.03-.108-1.48-.177-.1-.013-.173-.025-.243-.037l-.208-.033c-.075-.013-.269-.05-.269-.05-.487-.087-.954-.191-1.44-.32-.114-.031-.236-.065-.352-.1l-.359-.113a10.492,10.492,0,0,1-1.162-.442v0L8.575,7l-.181-.107H8.387L8.3,6.836c-.61-.4-.822-.747-.822-.924,0-.973,3.681-2.762,9.7-2.762s9.691,1.788,9.691,2.762c0,.176-.211.519-.8.907a2.978,2.978,0,0,1-.3.184l-.055.031c-.095.058-.2.108-.3.163a10.6,10.6,0,0,1-1.369.538l-.354.11q-.173.051-.357.1c-.477.127-.944.231-1.419.315-.1.02-.2.038-.294.054l-.206.033c-.067.011-.133.023-.2.032-.479.074-.953.13-1.477.178-.109.01-.213.02-.32.028l-.065,0c-.113.011-.224.018-.34.025-.5.032-.984.05-1.457.054-.127,0-.235,0-.343,0Z" transform="translate(-2.309 -2.079)" fill="#f6c358"/><g transform="translate(5.44 5.648)"><path d="M8.622,9.913V12.92c-.132-.063-.256-.13-.377-.2a0,0,0,0,1,0,0,3.505,3.505,0,0,1-.373-.221V9.487a3.525,3.525,0,0,0,.373.221,0,0,0,0,0,0,0C8.366,9.783,8.49,9.85,8.622,9.913Z" transform="translate(-7.868 -9.479)" fill="#dc8744"/><path d="M11.895,11.124v3.008c-.128-.036-.256-.071-.377-.107h0c-.128-.04-.249-.079-.373-.118V10.9c.124.039.245.079.373.118h0C11.639,11.053,11.767,11.089,11.895,11.124Z" transform="translate(-8.878 -9.869)" fill="#dc8744"/><path d="M15.168,11.8v3.008c-.128-.016-.253-.039-.377-.059h0c-.128-.02-.249-.043-.373-.067V11.674c.124.024.245.047.373.067h0C14.915,11.761,15.039,11.784,15.168,11.8Z" transform="translate(-9.888 -10.083)" fill="#dc8744"/><path d="M18.44,12.159v3.008c-.128-.008-.253-.016-.377-.028h0c-.128-.008-.249-.02-.373-.032V12.1c.124.012.245.024.373.032h0C18.188,12.143,18.312,12.151,18.44,12.159Z" transform="translate(-10.897 -10.201)" fill="#dc8744"/><path d="M21.713,12.258v3.008c-.124,0-.249,0-.377,0h0c-.128,0-.249,0-.373,0V12.258c.124,0,.245,0,.373,0h0C21.464,12.261,21.588,12.261,21.713,12.258Z" transform="translate(-11.907 -10.245)" fill="#dc8744"/><path d="M24.986,12.1v3.008c-.124.012-.249.024-.377.032h0c-.124.012-.245.02-.373.028V12.159c.128-.008.249-.016.373-.028h0C24.737,12.123,24.861,12.111,24.986,12.1Z" transform="translate(-12.917 -10.201)" fill="#dc8744"/><path d="M28.258,11.674v3.008c-.124.024-.249.047-.377.067h0c-.124.02-.245.043-.373.059V11.8c.128-.016.249-.039.373-.059h0C28.009,11.721,28.134,11.7,28.258,11.674Z" transform="translate(-13.926 -10.083)" fill="#dc8744"/><path d="M31.531,10.9v3.008l-.377.118h0q-.181.053-.373.107V11.124q.192-.053.373-.107h0Z" transform="translate(-14.936 -9.869)" fill="#dc8744"/><path d="M34.8,9.476v3.015c-.117.075-.241.154-.377.225a0,0,0,0,0,0,0c-.117.067-.241.13-.373.2V9.91c.132-.067.256-.13.373-.2A3.732,3.732,0,0,0,34.8,9.476Z" transform="translate(-15.946 -9.476)" fill="#dc8744"/></g></g></g></svg>