<svg xmlns="http://www.w3.org/2000/svg" width="47.77" height="36.766" viewBox="0 0 47.77 36.766">
    <defs>
        <style>
            .prefix__cls-1{fill:none;stroke:#fff;stroke-linecap:round;stroke-linejoin:round;stroke-width:4px;fill-rule:evenodd}
        </style>
    </defs>
    <g id="prefix___46_-Quotes" data-name="46.-Quotes" transform="translate(2.045 2)">
        <g id="prefix__Group_1590" data-name="Group 1590">
            <path id="prefix__Layer-1" d="M15.753.6c.437 0 1.994 2.475 1.994 2.921C5.755 12.7 7.647 14.6 7.577 14.887s3.89-1.078 6.247-.446a9.609 9.609 0 0 1 6.944 11.877 9.99 9.99 0 0 1-9.634 7.043A10.381 10.381 0 0 1 8.432 33c-3.505-.943-6.141-3.745-7.421-7.888A22.2 22.2 0 0 1 1.088 12.7C4.691 3.175 15.317.6 15.753.6z" class="prefix__cls-1" transform="translate(22.558 -.596)"/>
            <path id="prefix__Layer-2" d="M65.179.6c.437 0 1.994 2.475 1.994 2.921C55.18 12.7 57.072 14.6 57 14.887s3.89-1.078 6.247-.446a9.609 9.609 0 0 1 6.944 11.877 9.99 9.99 0 0 1-9.634 7.043 10.381 10.381 0 0 1-2.7-.359c-3.505-.943-6.141-3.745-7.421-7.888a22.2 22.2 0 0 1 .078-12.41C54.117 3.175 64.742.6 65.179.6z" class="prefix__cls-1" transform="translate(-49.59 -.596)"/>
        </g>
    </g>
</svg>
