<svg xmlns="http://www.w3.org/2000/svg" width="99.202" height="75.274" viewBox="0 0 99.202 75.274">
    <defs>
        <style>
            .prefix__cls-1{fill:none;stroke:#fff;stroke-linecap:round;stroke-linejoin:round;stroke-width:4px;fill-rule:evenodd}
        </style>
    </defs>
    <g id="prefix___46_-Quotes" data-name="46.-Quotes" transform="translate(-.107 -12.596)">
        <g id="prefix__Group_1590" data-name="Group 1590" transform="translate(2 14)">
            <path id="prefix__Layer-1" d="M11.877 71.87c-.95 0-4.337-5.383-4.337-6.354C33.627 45.531 29.511 41.4 29.663 40.783s-8.463 2.344-13.588.969C4.512 38.637-2.262 27.048.971 15.916A21.731 21.731 0 0 1 21.927.6a22.582 22.582 0 0 1 5.876.78c7.625 2.052 13.358 8.147 16.143 17.159a48.3 48.3 0 0 1-.169 27c-7.836 20.721-30.95 26.331-31.9 26.331z" class="prefix__cls-1"/>
            <path id="prefix__Layer-2" d="M61.3 71.87c-.95 0-4.337-5.383-4.337-6.354C83.052 45.531 78.937 41.4 79.089 40.783s-8.463 2.344-13.588.969c-11.563-3.115-18.337-14.7-15.1-25.836A21.732 21.732 0 0 1 71.353.6a22.582 22.582 0 0 1 5.876.78c7.625 2.052 13.358 8.147 16.143 17.159a48.3 48.3 0 0 1-.169 27C85.367 66.26 62.252 71.87 61.3 71.87z" class="prefix__cls-1"/>
        </g>
    </g>
</svg>
