<svg xmlns="http://www.w3.org/2000/svg" width="21.6" height="27.001" viewBox="0 0 21.6 27.001">
    <path id="prefix__clipboard-notes" d="M16.15 18.2h-5.4a1.35 1.35 0 1 0 0 2.7h5.4a1.35 1.35 0 1 0 0-2.7zm5.4-13.5h-1.593A4.05 4.05 0 0 0 16.15 2h-2.7a4.05 4.05 0 0 0-3.807 2.7H8.05A4.05 4.05 0 0 0 4 8.75v16.2A4.05 4.05 0 0 0 8.05 29h13.5a4.05 4.05 0 0 0 4.05-4.05V8.75a4.05 4.05 0 0 0-4.05-4.05zM12.1 6.05a1.35 1.35 0 0 1 1.35-1.35h2.7a1.35 1.35 0 0 1 1.35 1.35V7.4h-5.4zm10.8 18.9a1.35 1.35 0 0 1-1.35 1.35H8.05a1.35 1.35 0 0 1-1.35-1.35V8.75A1.35 1.35 0 0 1 8.05 7.4H9.4v1.35a1.35 1.35 0 0 0 1.35 1.35h8.1a1.35 1.35 0 0 0 1.35-1.35V7.4h1.35a1.35 1.35 0 0 1 1.35 1.35zM18.85 12.8h-8.1a1.35 1.35 0 1 0 0 2.7h8.1a1.35 1.35 0 0 0 0-2.7z" transform="translate(-4 -2)" style="fill:#fff"/>
</svg>
