<svg xmlns="http://www.w3.org/2000/svg" width="120" height="120" viewBox="0 0 120 120">
    <path d="M38 36a16.321 16.321 0 0 0-14.18 7.936A27.167 27.167 0 0 0 20 58c0 5.56-1.708 10.736-7.108 14.336A2 2 0 0 0 14 76a25.028 25.028 0 0 0 8.908-1.228 22.575 22.575 0 0 0 4.24-2.24 15.437 15.437 0 0 1-1.732 4.412C23.816 79.032 21.592 80 18 80a2 2 0 0 0 0 4c4.408 0 8.184-1.48 10.584-4.624S32 71.784 32 66a2 2 0 0 0-3.736-1 12.55 12.55 0 0 1-6.74 6.016 14.4 14.4 0 0 1-2.72.36A21.5 21.5 0 0 0 24 58a23.707 23.707 0 0 1 3.212-11.936A11.866 11.866 0 0 1 38 40a11.866 11.866 0 0 1 10.788 6.064A23.667 23.667 0 0 1 52 58a21.456 21.456 0 0 0 5.2 13.376 14.4 14.4 0 0 1-2.72-.36A12.527 12.527 0 0 1 47.736 65 2 2 0 0 0 44 66c0 5.784 1.02 10.1 2.76 13.148S51.18 84 54 84a2 2 0 0 0 0-4c-1.18 0-2.512-.652-3.76-2.84A16.983 16.983 0 0 1 48.548 72a24.167 24.167 0 0 0 4.544 2.772A25.028 25.028 0 0 0 62 76a2 2 0 0 0 1.108-3.664C57.708 68.736 56 63.56 56 58a27.167 27.167 0 0 0-3.82-14.064A16.321 16.321 0 0 0 38 36zm46-8c-7.572 0-12.8 3.392-15.86 7.572A21.733 21.733 0 0 0 64 48v8a16.681 16.681 0 0 0 2.24 8.18C67.3 66.132 68 67.4 68 68v6c0 1.98-1.36 4.16-5 6.264-3.984 2.3-9.984 5.68-14 8a9.671 9.671 0 0 0-4.392 5.2A13.459 13.459 0 0 0 44 98a2 2 0 0 0 4 0 9.968 9.968 0 0 1 .392-3.24A5.251 5.251 0 0 1 51 91.736c3.984-2.3 9.984-5.68 14-8 4.36-2.52 7-5.92 7-9.736v-6c0-2.388-1.3-3.992-2.24-5.728A12.223 12.223 0 0 1 68 56v-8a18.323 18.323 0 0 1 3.36-10.072C73.8 34.608 77.572 32 84 32s10.2 2.608 12.64 5.928A18.333 18.333 0 0 1 100 48v8a12.223 12.223 0 0 1-1.76 6.272C97.3 64.008 96 65.612 96 68v6a13.363 13.363 0 0 0 .624 4.92A9.559 9.559 0 0 0 101 83.736a2 2 0 0 0 2-3.472 5.128 5.128 0 0 1-2.624-2.74A10.56 10.56 0 0 1 100 74v-6c0-.6.7-1.868 1.76-3.82A16.694 16.694 0 0 0 104 56v-8a21.733 21.733 0 0 0-4.14-12.428C96.8 31.392 91.572 28 84 28zM60 0a60 60 0 1 0 60 60A60.032 60.032 0 0 0 60 0zm0 4A56 56 0 1 1 4 60 55.969 55.969 0 0 1 60 4z"/>
</svg>
