<svg id="Layer_1" data-name="Layer 1" xmlns="http://www.w3.org/2000/svg" viewBox="0 0 343.17 534.07"><defs><style>.cls-1{fill:none;stroke:#58595b;stroke-miterlimit:10;stroke-width:4px;}.cls-2{font-size:20px;fill:#010101;}.cls-2,.cls-3{font-family:MyriadPro-Bold, Myriad Pro;font-weight:700;}.cls-3{font-size:24px;fill:#58595b;}</style></defs><title>face</title><path class="cls-1" d="M0,450.12s41.5-27.5,58-30.5c0,0,33-12,37.5-30.5,0,0,2.5-9,0-17,0,0-20.75-30.25-25.25-81.25,0,0-21.5-42.75-7-83.25,0,0-5.5-51.75,27-76.5,0,0,34.5-46.25,120.75-24.25,0,0,30.75,9,40.25,23.75,0,0,20.75,15.25,24.75,41.5,0,0,4.25,25.5,3.75,35.75,0,0,5.25,12.25,4,16,0,0,5.75,37.75-11.5,67.75,0,0-8.75,61.25-25.5,80v13.5s-2,19,36.25,33.5c0,0,43.83,18.55,57.83,29.55" transform="translate(1.1 -41.08)"/><rect class="cls-1" x="73.5" y="409.04" width="189.22" height="123.03"/><text class="cls-2" transform="translate(38.58 16.74)">Move your head up and down</text><text class="cls-3" transform="translate(130.51 480.61)">ID card</text></svg>