<svg version="1.0" xmlns="http://www.w3.org/2000/svg" width="512.000000pt" height="512.000000pt" viewBox="0 0 512.000000 512.000000" preserveAspectRatio="xMidYMid meet">

<g transform="translate(0.000000,512.000000) scale(0.100000,-0.100000)" fill="#000000" stroke="none">
<path d="M154 4226 c-27 -13 -66 -42 -87 -66 -72 -84 -67 29 -67 -1601 0 -1442 0 -1469 20 -1522 23 -62 76 -117 140 -146 45 -20 54 -21 2400 -21 2346 0 2355 1 2400 21 64 29 117 84 140 146 20 53 20 80 20 1522 0 1630 5 1517 -67 1601 -21 24 -60 53 -87 66 l-51 24 -2355 0 -2355 0 -51 -24z m4776 -102 c19 -11 45 -35 57 -54 l23 -33 0 -1477 0 -1477 -23 -34 c-12 -19 -42 -44 -67 -56 l-44 -23 -2316 0 -2316 0 -44 23 c-25 12 -55 37 -67 56 l-23 34 0 1474 c0 1580 -2 1501 48 1546 53 48 -55 46 2417 44 l2320 -2 35 -21z"/>
<path d="M858 3609 c-32 -18 -41 -48 -23 -75 l15 -24 810 0 c882 0 840 -3 840 55 0 57 26 55 -835 55 -514 -1 -796 -4 -807 -11z"/>
<path d="M3698 3609 c-224 -31 -413 -265 -463 -574 -19 -114 -19 -196 0 -311 28 -177 91 -312 196 -428 l56 -61 -41 -46 c-22 -26 -83 -92 -133 -147 l-93 -102 0 -198 c0 -155 3 -202 14 -218 14 -18 33 -19 515 -22 l501 -3 25 25 c25 25 25 26 25 220 l0 195 -58 68 c-32 38 -66 74 -76 82 -9 8 -43 44 -76 81 l-60 68 52 55 c139 144 210 344 210 587 0 242 -68 431 -208 580 -112 119 -241 168 -386 149z m195 -132 c254 -125 371 -561 242 -903 -34 -90 -104 -194 -161 -239 -61 -48 -84 -73 -84 -91 0 -8 68 -87 150 -175 l150 -161 0 -149 0 -149 -430 0 -430 0 0 148 0 147 144 155 c79 85 146 165 150 178 6 18 1 28 -25 50 -97 80 -148 142 -187 223 -64 133 -77 191 -77 364 0 170 18 254 80 378 111 218 304 309 478 224z"/>
<path d="M853 3290 c-22 -9 -28 -25 -23 -60 5 -40 3 -40 836 -40 875 0 834 -3 834 55 0 57 26 55 -835 54 -446 0 -800 -4 -812 -9z"/>
<path d="M846 2967 c-11 -8 -18 -26 -18 -42 0 -57 -32 -55 832 -55 704 0 798 2 818 16 27 18 29 55 4 77 -17 16 -88 17 -818 17 -649 0 -804 -3 -818 -13z"/>
<path d="M846 2647 c-21 -15 -25 -62 -7 -80 9 -9 216 -13 813 -15 873 -3 848 -4 848 53 0 58 42 55 -834 55 -651 0 -806 -3 -820 -13z"/>
<path d="M835 2316 c-20 -30 -7 -62 31 -76 41 -16 1573 -13 1604 3 32 16 40 65 14 84 -14 10 -179 13 -826 13 l-808 0 -15 -24z"/>
<path d="M834 1995 c-15 -23 -15 -27 0 -50 l16 -25 813 0 c619 0 816 3 825 12 15 15 15 61 0 76 -9 9 -206 12 -825 12 l-813 0 -16 -25z"/>
<path d="M834 1675 c-15 -23 -15 -27 0 -50 l16 -25 813 0 c619 0 816 3 825 12 15 15 15 61 0 76 -9 9 -206 12 -825 12 l-813 0 -16 -25z"/>
</g>
</svg>