<svg id="Layer_1" data-name="Layer 1" xmlns="http://www.w3.org/2000/svg" viewBox="0 0 511 511"><title>cart - edited-01</title><path d="M246.09,439.37a46,46,0,1,1-46-46A46,46,0,0,1,246.09,439.37Z" fill="#ffc5c5"/><path d="M221,439.37a20.87,20.87,0,1,1-20.87-20.86A20.87,20.87,0,0,1,221,439.37Z" fill="#9ea4c4"/><path d="M428.6,439.37a46,46,0,1,1-46-46A46,46,0,0,1,428.6,439.37Z" fill="#ffc5c5"/><path d="M403.49,439.37a20.87,20.87,0,1,1-20.87-20.86A20.87,20.87,0,0,1,403.49,439.37Z" fill="#9ea4c4"/><path d="M495.11,74.38a38.45,38.45,0,0,0-30.23-14.57H106.37l14.11,39.85H463.35L424.26,269.52h40.89l37.38-162.41A38.46,38.46,0,0,0,495.11,74.38Z" fill="#ffc5c5"/><path d="M482.7,269.52H209.8a41.35,41.35,0,0,1-38.15-25.28L104.11,53.41a44.14,44.14,0,0,0-40.72-27h-36a19.93,19.93,0,0,0,0,39.85h36a4.34,4.34,0,0,1,4,2.66l43,121.46,9.32,26.34,15.23,43a81.12,81.12,0,0,0,74.85,49.61H482.7a19.93,19.93,0,0,0,0-39.86Z" fill="#c2e4fd"/><path d="M429.54,353.54H172.1A12.27,12.27,0,0,1,162,334.27l20.52-29.6a81,81,0,0,1-33.13-22.16l-20.14,29.06a52.12,52.12,0,0,0,42.84,81.82H429.54a19.93,19.93,0,1,0,0-39.85Z" fill="#c2e4fd"/><path d="M200.1,467.71a28.34,28.34,0,1,0-28.34-28.34A28.37,28.37,0,0,0,200.1,467.71Zm0-41.73a13.4,13.4,0,1,1-13.39,13.39A13.41,13.41,0,0,1,200.1,426Z" fill="#2b376f"/><path d="M382.62,467.71a28.34,28.34,0,1,0-28.34-28.34A28.37,28.37,0,0,0,382.62,467.71Zm0-41.73a13.4,13.4,0,1,1-13.4,13.39A13.41,13.41,0,0,1,382.62,426Z" fill="#2b376f"/><path d="M482.7,262.05h-8.17L509.8,108.78a46.09,46.09,0,0,0-44.93-56.44h-146a7.47,7.47,0,1,0,0,14.94h146a31.16,31.16,0,0,1,30.37,38.15l-36,156.62H433.64c3.84-16.68,31.84-138.37,37-160.71a7.48,7.48,0,0,0-7.29-9.15H125.75l-8.81-24.91H291a7.47,7.47,0,1,0,0-14.94H111.64C104.9,33.45,85.91,19,63.39,19h-36a27.4,27.4,0,0,0,0,54.8H61.18L103.35,192.9a7.47,7.47,0,0,0,14.09-5C76.19,71.41,74.43,66.38,74.28,66a11.82,11.82,0,0,0-10.89-7.22h-36a12.45,12.45,0,1,1,0-24.9h36A36.65,36.65,0,0,1,97.13,56.12c8.92,25.19,59.9,169.21,67.47,190.61C170.1,262.28,188,277,209.8,277H482.7a12.46,12.46,0,0,1,0,24.91H209.8a73.7,73.7,0,0,1-67.89-44.84l-15.15-42.82a7.47,7.47,0,0,0-14.09,5c12.13,31,12.65,45,27.33,63.72l-16.89,24.36c-25.38,36.61-3,86.81,40.58,93-35.28,32.88-12.19,92.55,36.41,92.55,48.18,0,71.49-58.82,37-92H345.59c-34.43,33.13-11.2,92,37,92s71.49-58.82,37-92h9.89a27.4,27.4,0,1,0,0-54.79H361.11a7.48,7.48,0,1,0,0,14.95h68.43a12.45,12.45,0,1,1,0,24.9H172.09c-36,0-57.21-40.5-36.69-70.1l15-21.7A88.71,88.71,0,0,0,171.12,308l-15.25,22a19.74,19.74,0,0,0,16.23,31H333.21a7.48,7.48,0,0,0,0-14.95H172.09a4.78,4.78,0,0,1-3.94-7.54l17.36-25c21,6,10.25,2.21,297.19,3.36a27.4,27.4,0,1,0,0-54.79ZM152,166.24h24.8v45.42H168Zm39.74,0h45.41v45.42H191.7Zm241.43,31.41V166.24h7.22Zm-14.95,14H372.77V166.24h45.41Zm-60.35,0H312.42V166.24h45.41Zm14.94-60.36V107.13h45.41V151.3Zm-14.94,0H312.42V107.13h45.41Zm-60.36,0H252.06V107.13h45.41Zm-60.36,0H191.7V107.13h45.41Zm14.95,14.94h45.41v45.42H252.06Zm45.41,60.36v35.45H252.06V226.6Zm14.95,0h45.41v35.45H312.42Zm60.35,0h45.41v35.45H372.77Zm71-75.3H433.13V107.13H454Zm-267-44.17V151.3H146.67L131,107.13ZM173.33,226.6h3.43v9.7Zm18.37,30.24V226.6h45.41v35.45C215.27,261,204.58,265,191.7,256.84ZM421.13,439.37a38.51,38.51,0,1,1-38.51-38.51A38.55,38.55,0,0,1,421.13,439.37Zm-182.52,0a38.51,38.51,0,1,1-38.51-38.51A38.55,38.55,0,0,1,238.61,439.37Z" fill="#2b376f"/></svg>