<svg id="Layer_1" data-name="Layer 1" xmlns="http://www.w3.org/2000/svg" viewBox="0 0 512 512"><title>credit-card - edited</title><path d="M413.07,254.82v-153A22.78,22.78,0,0,0,390.29,79H32.79A22.78,22.78,0,0,0,10,101.78v251.9a22.78,22.78,0,0,0,22.79,22.78H328.52" fill="#fff"/><path d="M360,272.73V249.6H264.56v60h65.87" fill="#ffc5c5"/><path d="M125.6,310a38.69,38.69,0,1,1,0-60.89" fill="#ffc5c5"/><path d="M189,279.6a38.69,38.69,0,1,1-38.69-38.69A38.69,38.69,0,0,1,189,279.6Z" fill="#c2e4fd"/><path d="M166.31,186.21H10v-49H413.07v49H256.76" fill="#9ea4c4"/><path d="M502,345.36a88.55,88.55,0,1,1-88.55-88.55A88.54,88.54,0,0,1,502,345.36Z" fill="#9ea4c4"/><path d="M411.05,373a10,10,0,0,1-6.62-2.51l-21.15-18.69a10,10,0,0,1,13.24-15l14.11,12.47,28.69-28.68a10,10,0,0,1,14.14,14.14L418.13,370.1A10,10,0,0,1,411.05,373Z" fill="#2b376f"/><path d="M150.33,230.91a48.29,48.29,0,0,0-24.28,6.5,48.17,48.17,0,0,0-24.33-6.5,48.69,48.69,0,1,0,24.33,90.88,48.68,48.68,0,1,0,24.28-90.88ZM73,279.6a28.75,28.75,0,0,1,37.1-27.45,48.6,48.6,0,0,0,0,54.89A28.72,28.72,0,0,1,73,279.6Zm77.3,28.69A28.69,28.69,0,1,1,179,279.6,28.73,28.73,0,0,1,150.33,308.29Z" fill="#2b376f"/><path d="M423.07,247.28V101.78A32.82,32.82,0,0,0,390.29,69H32.79A32.83,32.83,0,0,0,0,101.78v251.9a32.83,32.83,0,0,0,32.79,32.78h291.1a98.55,98.55,0,1,0,99.18-139.18ZM32.79,89h357.5a12.8,12.8,0,0,1,12.78,12.78v25.44H20V101.78A12.8,12.8,0,0,1,32.79,89Zm0,277.46A12.8,12.8,0,0,1,20,353.68V196.21H166.31a10,10,0,0,0,0-20H20v-29H403.07v29H256.76a10,10,0,0,0,0,20H403.07v51.15a97.44,97.44,0,0,0-33,9.55V249.6a10,10,0,0,0-10-10H264.56a10,10,0,0,0-10,10v60a10,10,0,0,0,10,10h53.77a98.59,98.59,0,0,0-1.15,46.86ZM326.2,299.6H274.56v-40H350V270A99,99,0,0,0,326.2,299.6Zm87.25,124.31A78.55,78.55,0,1,1,492,345.36,78.64,78.64,0,0,1,413.45,423.91Z" fill="#2b376f"/><path d="M211.72,196.21a10,10,0,1,1,9.86-8.37A10.11,10.11,0,0,1,211.72,196.21Z" fill="#2b376f"/></svg>