<svg id="Capa_1" data-name="Capa 1" xmlns="http://www.w3.org/2000/svg" viewBox="0 0 512 512"><title>delivery-truck - edited</title><path d="M414.59,256c49.9.07,48.73,50,88.7,50-2.65,30.88-8.8,80-8.8,80H81l7.75-80H364.5l4.35-50h45.74Z" fill="#fff"/><path d="M171,336.42A49.61,49.61,0,1,1,121.4,386,49.61,49.61,0,0,1,171,336.42Z" fill="#9ea4c4"/><path d="M404.49,336.42A49.61,49.61,0,1,1,354.89,386,49.61,49.61,0,0,1,404.49,336.42Z" fill="#9ea4c4"/><path d="M171,366a20,20,0,1,1-20,20A20,20,0,0,1,171,366Z" fill="#fff"/><path d="M404.49,366a20,20,0,1,1-20,20A20,20,0,0,1,404.49,366Z" fill="#fff"/><path d="M419.8,196.19c-1.75-.11-3.52-.16-5.3-.16H374.08l-5.23,60h45.74c49.9.07,48.73,50,88.7,50,.74-8.53,1.21-15.67,1.21-20A89.94,89.94,0,0,0,419.8,196.19Z" fill="#c2e4fd"/><polygon points="105.22 136.03 111 76.37 384.5 76.37 374.08 196.03 368.85 256.03 364.5 306.02 88.75 306.02 94.56 246.03 105.22 136.03" fill="#ffc5c5"/><path d="M500.62,390.34l.11-.14c.12-.18.23-.37.34-.57l0,0c.11-.21.22-.42.31-.64,0-.07.05-.13.07-.19s.12-.31.17-.48.06-.21.09-.31.07-.25.1-.38l.06-.34c0-.1,0-.2.05-.3.32-2.55,6.19-49.67,8.81-80.14a.28.28,0,0,0,0-.09C511.51,298,512,290.55,512,286a97.61,97.61,0,0,0-97.5-97.5H382.26L392,77c0-.21,0-.4,0-.6v0h0a7.49,7.49,0,0,0-4.52-6.87l-.07,0a5.17,5.17,0,0,0-.51-.18l-.2-.07-.43-.11L386,69l-.39-.06-.37,0h-.06c-.13,0-.26,0-.39,0H231a7.5,7.5,0,0,0,0,15H376.32L361.4,255.24a.08.08,0,0,0,0,0l-3.76,43.24H97l4.36-45H151a7.5,7.5,0,0,0,0-15H102.83l9.21-95h79a7.5,7.5,0,0,0,0-15H113.49l4.33-44.66H201a7.5,7.5,0,0,0,0-15H111a7.51,7.51,0,0,0-7.32,5.92.25.25,0,0,1,0,.07c0,.19-.06.38-.09.57s0,.12,0,.18,0,0,0,0l-5.12,52.89H7.5a7.5,7.5,0,0,0,0,15H97l-9.2,95H61a7.5,7.5,0,1,0,0,15H86.31l-5,51.73v0l-7.75,80v.05c0,.11,0,.21,0,.31s0,.28,0,.42v0c0,.19,0,.38,0,.57a1.09,1.09,0,0,1,0,.18c0,.2.06.39.09.58l0,.16c0,.15.07.29.1.43s0,.2.08.3l0,.08a7.54,7.54,0,0,0,1.78,2.93l0,.05.25.23a7.55,7.55,0,0,0,1.74,1.19l.4.19.12.05.58.2,0,0,.67.17h.09c.22,0,.44.08.66.1h0a6,6,0,0,0,.73,0h33.4a57.09,57.09,0,0,0,113.19,0H347.9a57.09,57.09,0,0,0,113.19,0h33.42c.25,0,.49,0,.74,0l.13,0,.57-.09.25-.05.44-.12.28-.09.37-.14.31-.13.32-.16.3-.16.31-.18.27-.19c.11-.07.2-.15.3-.22l.25-.2.3-.27.2-.2q.15-.15.3-.33l.16-.18C500.42,390.63,500.52,390.48,500.62,390.34ZM497,286c0,2.81-.21,6.89-.57,11.81-11.14-2.27-18-10.11-26.31-19.65-10.39-11.94-23.07-26.5-47.38-29.22l3.88-44.54A82.62,82.62,0,0,1,497,286Zm-85.36-82.5-3.92,45H377l3.92-45Zm-47.14,110h0a6.28,6.28,0,0,0,.75,0l.13,0c.2,0,.39,0,.59-.09l.24-.06.45-.11.29-.1.37-.14.31-.14.33-.15a3.07,3.07,0,0,1,.31-.17l.3-.19.28-.19.29-.22.26-.22.28-.25.22-.22.27-.29.19-.24a3.81,3.81,0,0,0,.24-.32,2.2,2.2,0,0,0,.17-.25,2.5,2.5,0,0,0,.21-.35,1.35,1.35,0,0,0,.15-.26c.07-.12.12-.24.18-.36s.09-.19.13-.29.09-.24.13-.36.07-.22.11-.33l.09-.35c0-.12.06-.24.08-.36s0-.24.06-.36,0-.24.05-.37a.09.09,0,0,1,0-.05l3.75-43.15H414.5c23,0,33.34,11.91,44.31,24.51,9.05,10.4,19.16,22,36.34,24.84-2.18,23.07-5.71,52.68-7.29,65.65H461.1a57.09,57.09,0,0,0-113.2,0H227.6a57.09,57.09,0,0,0-113.19,0H89.27l6.3-65ZM171,428.13A42.11,42.11,0,1,1,213.11,386,42.16,42.16,0,0,1,171,428.13Zm233.49,0A42.11,42.11,0,1,1,446.6,386,42.16,42.16,0,0,1,404.5,428.13Z" fill="#2b376f"/><path d="M171,358.52a27.5,27.5,0,1,0,27.5,27.5A27.54,27.54,0,0,0,171,358.52Zm0,40a12.5,12.5,0,1,1,12.5-12.5A12.5,12.5,0,0,1,171,398.52Z" fill="#2b376f"/><path d="M404.5,358.52A27.5,27.5,0,1,0,432,386,27.53,27.53,0,0,0,404.5,358.52Zm0,40A12.5,12.5,0,1,1,417,386,12.5,12.5,0,0,1,404.5,398.52Z" fill="#2b376f"/><path d="M78.5,196a7.5,7.5,0,0,0-7.5-7.5H34.33a7.5,7.5,0,0,0,0,15H71A7.5,7.5,0,0,0,78.5,196Z" fill="#2b376f"/></svg>