<svg id="Layer_1" data-name="Layer 1" xmlns="http://www.w3.org/2000/svg" viewBox="0 0 511 511"><title>email</title><path d="M486.19,210.4V499.93H26V210.4" fill="#c2e4fd"/><path d="M383.25,9.12h32.22V259.66L290.7,345.37a60.86,60.86,0,0,1-69.18,0l-124-85.58,0-250.67H302" fill="#ffc5c5"/><path d="M26,210.4l71.51-76.49V259.79Z" fill="#9ea4c4"/><path d="M486.19,210.4l-70.72-76.49V259.66Z" fill="#9ea4c4"/><path d="M26,499.93,221.52,345.37" fill="#ece9e8"/><path d="M486.19,499.93,290.7,345.37" fill="#ece9e8"/><path d="M496.2,209.35a10.28,10.28,0,0,0-2.62-5.78l-68-73.6V9.12A10.06,10.06,0,0,0,415.47-.94H383.25a10.07,10.07,0,1,0,0,20.13H405.4V254.37L285.05,337l-.06,0h0a51.09,51.09,0,0,1-57.74,0l-.09-.06L107.64,254.51l0-235.32H302A10.07,10.07,0,1,0,302-.95H97.55A10.18,10.18,0,0,0,87.48,9.12V129.93l-68.81,73.6A10.18,10.18,0,0,0,16,210.4V499.93A10.18,10.18,0,0,0,26,510H486.19a10.18,10.18,0,0,0,10.06-10.07V210.4c0-.35,0-.7-.05-1.05,0-.06,0,.35,0,0C496,207.22,496.23,209.7,496.2,209.35ZM307.66,345.94l113.51-78,0,0h0l54.9-38.24V479.14ZM470.94,208.75l-45.41,31.63V159.64ZM256.12,366.14A71.16,71.16,0,0,0,290,357.61L457.21,489.87H55L222.26,357.61A71.23,71.23,0,0,0,256.12,366.14Zm-51.53-20.22L36.1,479.14V229.6l55.73,38.48.13.08ZM87.48,159.43V240.6L41.36,208.76Z" fill="#2b376f"/><path d="M206.93,89.57Q185.16,103,175.19,124.82t-10,50.35q0,45,23.73,69.27t57.75,24.28a123.58,123.58,0,0,0,32.92-4.53q16.45-4.53,16.46-12.48a12.14,12.14,0,0,0-2.48-6.86,7.42,7.42,0,0,0-6.32-3.56q-1.11,0-12.24,3.56a79.4,79.4,0,0,1-24.34,3.57q-17.61,0-30.12-5.9a45.9,45.9,0,0,1-19.39-16.46,76,76,0,0,1-10-23.18,115.12,115.12,0,0,1-3.16-28,115.08,115.08,0,0,1,3.62-29.9,80.78,80.78,0,0,1,11.45-24.83q7.81-11.39,22.33-17.56T260,96.43q67.08,0,67.08,76,0,39-16.08,39-8,0-10-13.17V151.84q0-17.55-12.76-27.15t-31.41-9.61a66.75,66.75,0,0,0-27,5.35q-12.21,5.35-12.2,13A17.33,17.33,0,0,0,220.3,142q2.67,4.67,6.07,4.66,1.11,0,9.31-3.7A44,44,0,0,1,254,139.22q22.85,0,22.86,19.21v4.12H268q-55.85,0-55.85,33.74,0,15.65,10.46,23.59t24.89,8q19.49,0,33.84-18.66a23.76,23.76,0,0,0,9.15,14.41q7.32,5.63,18.31,5.62,20.25,0,30.67-17.55t10.4-44.72q0-42.52-23.68-66.67T260,76.12Q228.68,76.12,206.93,89.57Zm71.32,96.84q0,8.52-7.49,15.5t-16.75,7a12.26,12.26,0,0,1-9.12-3.43q-3.4-3.42-3.41-9.74,0-17.82,30-17.83h6.81Z" fill="#2b376f"/><path d="M340.1,18.72l.34.1a9.94,9.94,0,0,0,2.88.42A10.07,10.07,0,0,0,346.19-.48l-.33-.09a10.07,10.07,0,1,0-5.76,19.29Z" fill="#2b376f"/></svg>