<svg id="Layer_1" data-name="Layer 1" xmlns="http://www.w3.org/2000/svg" viewBox="0 0 512 512"><title>pocket - ed</title><path d="M494.93,196.27,291.53,317.44a60.38,60.38,0,0,1-56.6,0L8.53,196.27V40.11c0-17.07,15-31.58,32.72-31.58h421c17.69,0,32.72,14.51,32.72,31.58V196.27Z" fill="#ffc5c5"/><path d="M300,145.07c0,23.89-19.81,42.66-43.33,42.66S213.33,169,213.33,145.07s19.81-42.67,43.34-42.67S300,121.17,300,145.07" fill="#9ea4c4"/><path d="M291.58,317.44a60.52,60.52,0,0,1-56.67,0L24.15,204.8H17.07V471.89c0,17.07,15,31.58,32.76,31.58H453.64c17.71,0,32.76-14.51,32.76-31.58V204.8h-7.08Z" fill="#c2e4fd"/><path d="M256,333.65a60.67,60.67,0,0,1-31.57-8.53L4.27,204A9,9,0,0,1,0,196.27V40.11A40.06,40.06,0,0,1,40.11,0H471.89A40.06,40.06,0,0,1,512,40.11V196.27a9,9,0,0,1-4.27,7.68L287.57,325.12C277.33,330.24,267.09,333.65,256,333.65ZM17.07,191.15,233,309.76a49,49,0,0,0,46.08,0L494.93,190.29V40.11a22.94,22.94,0,0,0-23-23H40.11a22.94,22.94,0,0,0-23,23Zm486.4,5.12Z" fill="#2b376f"/><path d="M463.36,512H48.64A40.06,40.06,0,0,1,8.53,471.89V204.8c0-5.12,3.42-8.53,8.54-8.53h6.82a7.73,7.73,0,0,1,4.27.85L233,309.76a49,49,0,0,0,46.08,0l204.8-112.64a7.73,7.73,0,0,1,4.27-.85h6.82c5.12,0,8.54,3.41,8.54,8.53V471.89A40.06,40.06,0,0,1,463.36,512ZM25.6,215V471.89a22.94,22.94,0,0,0,23,23H463.36a22.94,22.94,0,0,0,23-23V215L287.57,325.12h0a64.07,64.07,0,0,1-63.14,0Zm257.71,102.4Z" fill="#2b376f"/><path d="M460.8,305.49c-5.12,0-8.53-3.41-8.53-8.53v-38.4c0-5.12,3.41-8.53,8.53-8.53s8.53,3.41,8.53,8.53V297C469.33,302.08,465.92,305.49,460.8,305.49Z" fill="#2b376f"/><path d="M460.8,401.07c-5.12,0-8.53-3.42-8.53-8.54V335.36c0-5.12,3.41-8.53,8.53-8.53s8.53,3.41,8.53,8.53v57.17C469.33,397.65,465.92,401.07,460.8,401.07Z" fill="#2b376f"/><path d="M460.8,477.87H422.4c-5.12,0-8.53-3.42-8.53-8.54s3.41-8.53,8.53-8.53h29.87V430.93c0-5.12,3.41-8.53,8.53-8.53s8.53,3.41,8.53,8.53v38.4C469.33,474.45,465.92,477.87,460.8,477.87Z" fill="#2b376f"/><path d="M366.93,477.87H283.31c-5.12,0-8.54-3.42-8.54-8.54s3.42-8.53,8.54-8.53h83.62c5.12,0,8.54,3.41,8.54,8.53S372.05,477.87,366.93,477.87Zm-138.24,0H145.07c-5.12,0-8.54-3.42-8.54-8.54s3.42-8.53,8.54-8.53h83.62c5.12,0,8.54,3.41,8.54,8.53A8.56,8.56,0,0,1,228.69,477.87Z" fill="#2b376f"/><path d="M89.6,477.87H51.2c-5.12,0-8.53-3.42-8.53-8.54v-38.4c0-5.12,3.41-8.53,8.53-8.53s8.53,3.41,8.53,8.53V460.8H89.6c5.12,0,8.53,3.41,8.53,8.53S94.72,477.87,89.6,477.87Z" fill="#2b376f"/><path d="M51.2,401.07c-5.12,0-8.53-3.42-8.53-8.54V335.36c0-5.12,3.41-8.53,8.53-8.53s8.53,3.41,8.53,8.53v57.17C59.73,397.65,56.32,401.07,51.2,401.07Z" fill="#2b376f"/><path d="M51.2,305.49c-5.12,0-8.53-3.41-8.53-8.53v-38.4c0-5.12,3.41-8.53,8.53-8.53s8.53,3.41,8.53,8.53V297C59.73,302.08,56.32,305.49,51.2,305.49Z" fill="#2b376f"/><path d="M256,196.27a51.2,51.2,0,1,1,51.2-51.2A51.35,51.35,0,0,1,256,196.27Zm0-85.34a34.14,34.14,0,1,0,34.13,34.14A34.23,34.23,0,0,0,256,110.93Z" fill="#2b376f"/></svg>