<svg id="Capa_1" data-name="Capa 1" xmlns="http://www.w3.org/2000/svg" viewBox="0 0 59.28 59.28"><title>price-tag - ed</title><path d="M44.7,48.26l-4.92-5.09L34.7,48.09,29.78,43,24.7,47.91l-4.92-5.08L14.7,47.74l-2.95-3.05-.21,12.44a1.55,1.55,0,0,0,1.52,1.58h0l32.87.57a1.56,1.56,0,0,0,1.59-1.53h0l.22-12.44Z" fill="#ffc5c5" stroke="#2b376f" stroke-miterlimit="10" stroke-width="3"/><path d="M46.09,5H13.21a1.56,1.56,0,0,0-1.56,1.56h0V35l3,3,5-5,5,5,5-5,5,5,5-5,5,5,3-3V6.56A1.56,1.56,0,0,0,46.09,5ZM29.65,17a4,4,0,1,1,4-4,4,4,0,0,1-4,4Z" fill="#c2e4fd" stroke="#2b376f" stroke-miterlimit="10" stroke-width="3"/><path d="M29.65,5a8,8,0,1,0,8,8,8,8,0,0,0-8-8Z" fill="#9ea4c4" stroke="#2b376f" stroke-miterlimit="10" stroke-width="3"/><path d="M29.65,15a1,1,0,0,1-1-1V2a1,1,0,0,1,2,0V14A1,1,0,0,1,29.65,15Z" fill="#2b376f" stroke="#2b376f" stroke-miterlimit="10"/></svg>