<svg id="Layer_1" data-name="Layer 1" xmlns="http://www.w3.org/2000/svg" viewBox="0 0 512 512"><title>product - ed</title><polygon points="35.43 110.28 35.43 386 256 498.21 256 206.78 35.43 110.28" fill="#ffc5c5"/><polygon points="256 206.78 256 498.21 476.57 387.38 476.57 110.28 256 206.78" fill="#c2e4fd"/><polygon points="256 206.78 476.57 110.28 256 13.78 35.43 110.28 256 206.78" fill="#c2e4fd"/><polygon points="118.14 234.35 173.28 261.92 173.28 170.59 118.14 146.47 118.14 234.35" fill="#9ea4c4"/><polygon points="275.71 125.72 218.21 100.66 118.14 146.47 173.28 170.59 173.28 170.52 275.71 125.72" fill="#9ea4c4"/><path d="M482.09,97.65,261.51,1.15a13.84,13.84,0,0,0-11,0L29.91,97.65a13.78,13.78,0,0,0-8.27,12.63V386a13.78,13.78,0,0,0,7.53,12.28L249.74,510.5a13.85,13.85,0,0,0,12.45,0L482.76,399.7a13.79,13.79,0,0,0,7.6-12.32V110.28A13.78,13.78,0,0,0,482.09,97.65ZM256,28.82l186.18,81.46L256,191.74l-48.39-21.17,73.63-32.22a13.79,13.79,0,0,0,0-25.26L222.09,87.3a13.75,13.75,0,0,0-11,0l-96.93,42.36L69.89,110.28ZM131.93,167.55l27.57,12.06v60l-27.57-13.79Zm16.54-22.83L216.52,115l24.67,10.77-67.91,29.76ZM49.21,131.36l55.15,24.12v78.87A13.74,13.74,0,0,0,112,246.69l55.14,27.57a13.78,13.78,0,0,0,20-12.34v-70.3l55.14,24.12v260l-193-98.18ZM269.79,475.85v-260l193-84.44V378.87Z" fill="#2b376f"/><path d="M346.41,375.42l-55.24,27.77a13.79,13.79,0,0,0,12.32,24.68l.09-.05,55.23-27.76a13.79,13.79,0,1,0-12.4-24.64Z" fill="#9ea4c4"/><path d="M297.36,374.14a13.76,13.76,0,0,0,6.17-1.46L358,345.32a13.79,13.79,0,1,0-12.41-24.64h0L291.14,348a13.79,13.79,0,0,0,6.22,26.1Z" fill="#9ea4c4"/></svg>