<svg id="Layer_1" data-name="Layer 1" xmlns="http://www.w3.org/2000/svg" viewBox="0 0 546 546"><title>ruler - ed</title><path d="M186.94,330.48a147.32,147.32,0,0,1-15.79-.55c5.16,0,11,.55,15.79.55,96.49,0,175.43-56.14,175.43-125.1S283.86,80.28,186.94,80.28,11.51,136.41,11.51,205.38A96.85,96.85,0,0,0,31,261.84l-19-26V340.24c0,59,58.55,110.52,139.14,122.47l12.6,1.87H534.62V330.48Z" fill="#ffc5c5"/><path d="M258,205.38c0-28-31.81-50.77-71.05-50.77s-71,22.73-71,50.77,31.81,50.76,71.05,50.76S258,233.41,258,205.38Z" fill="#fff"/><path d="M186.94,245.29c32.89,0,60.09-18.2,60.09-39.8s-27.53-39.8-60.09-39.8-60.08,18.2-60.08,39.8S154.38,245.29,186.94,245.29Z" fill="#fff"/><path d="M342.09,262.94a154.69,154.69,0,0,1-59,46.71l-57.57,20.83H361.82V235.86Z" fill="#9ea4c4"/><path d="M186.94,267.22c45.18,0,82-27.74,82-61.73s-36.73-61.73-82-61.73-82,27.74-82,61.73S141.77,267.22,186.94,267.22Zm0-101.53c32.89,0,60.09,18.2,60.09,39.8s-27.53,39.8-60.09,39.8-60.08-18.2-60.08-39.8,27.52-39.91,60.08-39.91Z" fill="#9ea4c4"/><path d="M534.62,319.52H372.78V205.38c0-75-83.43-136.07-186.39-136.07S0,130.38,0,205.38V340.24C0,409.31,70.72,466.33,161.83,475h1.87c7.56.66,15.24,1.21,23,1.21h347.9a11,11,0,0,0,11-11V330.48A11,11,0,0,0,534.62,319.52ZM186.94,91.35c90.46,0,164.46,51.2,164.46,114.14S277.83,319.62,186.94,319.62,22.47,268.42,22.47,205.49,96.59,91.35,186.94,91.35ZM351.4,269.41v50.11H287.81a165.38,165.38,0,0,0,63.05-50.11ZM152.73,451.75C78.72,440.78,23,395,23,340.13V269.41c31.35,42.87,93.08,72,164.46,72H523.65V454.27H501.73m-283.21.11H174.66m107.78,0h-42m107.78,0H304.37m109.64,0H370.15m109.65,0H435.94" fill="#2b376f"/></svg>