<svg id="Layer_1" data-name="Layer 1" xmlns="http://www.w3.org/2000/svg" viewBox="0 0 502 502"><title>save - edited</title><path d="M439.72,229.85l-1.64-67.17a28.08,28.08,0,0,1,25.33-29.38l23,145.26a84.88,84.88,0,0,1-16,50.88l-56.35,68.19A31.59,31.59,0,0,0,407,420.06l1.51,20.14L330,402.84l.3-.64a83.36,83.36,0,0,1,29.54-81.64l4.47-3.59a59.38,59.38,0,0,0,16.51-20.85l21.54-45.22A37.26,37.26,0,0,1,439.72,229.85Z" fill="#fff"/><path d="M408.48,440.2l8.83,4.21L393.7,494,284.88,442.17l23.62-49.58L330,402.84Z" fill="#c2e4fd"/><path d="M251.22,8A142.77,142.77,0,1,1,108.45,150.77,142.77,142.77,0,0,1,251.22,8ZM359,150.77A107.74,107.74,0,1,0,251.22,258.51,107.74,107.74,0,0,0,359,150.77Z" fill="#fff"/><path d="M359,150.77A107.74,107.74,0,1,1,251.22,43,107.74,107.74,0,0,1,359,150.77Z" fill="#ffc5c5"/><path d="M94,440.2l78.46-37.36,21.52-10.25,23.62,49.58L108.74,494,85.13,444.41Z" fill="#c2e4fd"/><path d="M62.72,229.85a37.26,37.26,0,0,1,37.34,21.05l21.54,45.22A59.38,59.38,0,0,0,138.11,317l4.47,3.59a83.36,83.36,0,0,1,29.54,81.64l.3.64L94,440.2l1.51-20.14a31.59,31.59,0,0,0-7.14-22.43L32,329.44a84.88,84.88,0,0,1-16-50.88L39,133.3A28.1,28.1,0,0,1,64.4,161.24c0,.47,0,1,0,1.44Z" fill="#fff"/><path d="M251.22,35A115.74,115.74,0,1,0,367,150.77,115.74,115.74,0,0,0,251.22,35Zm0,215.48A99.74,99.74,0,1,1,351,150.77,99.73,99.73,0,0,1,251.22,250.51Z" fill="#2b376f"/><path d="M293.15,152H253.22V96.86a8,8,0,1,0-16,0v62.9a8.21,8.21,0,0,0,8,8.24h47.92a8,8,0,0,0,0-16Z" fill="#2b376f"/><path d="M402,150.77C402,67.64,334.36,0,251.22,0S100.45,67.64,100.45,150.77s67.64,150.77,150.77,150.77S402,233.9,402,150.77ZM251.22,285.54c-74.31,0-134.77-60.46-134.77-134.77S176.91,16,251.22,16,386,76.46,386,150.77,325.53,285.54,251.22,285.54Z" fill="#2b376f"/><path d="M471.31,132.05a8,8,0,0,0-8.68-6.71A36,36,0,0,0,430.09,163l1.43,58.92a45.33,45.33,0,0,0-36.36,25.57l-21.54,45.22a51.66,51.66,0,0,1-14.3,18.05l-4.47,3.59a90.94,90.94,0,0,0-34.12,75.23l-8.79-4.18a8,8,0,0,0-10.66,3.78l-23.62,49.58a8,8,0,0,0,3.78,10.66l108.82,51.83a8,8,0,0,0,10.66-3.78l23.61-49.59a8,8,0,0,0-3.78-10.66L416.11,435,415,419.48a23.4,23.4,0,0,1,5.32-16.75l56.36-68.19c.11-.13.22-.28.32-.42a93.51,93.51,0,0,0,17.48-55.68,8.62,8.62,0,0,0-.1-1.13ZM389.92,483.34l-94.37-44.95,16.74-35.14,94.36,44.94Zm74.2-158.79-56.17,68a39.37,39.37,0,0,0-9,28.12l.48,6.39-61.85-29.46a75.06,75.06,0,0,1,27.25-70.8l4.46-3.58a67.79,67.79,0,0,0,18.74-23.65l21.54-45.22a29.3,29.3,0,0,1,29.33-16.53c.65.07,1.29.15,1.94.26l-31.49,66.12a8,8,0,1,0,14.45,6.88l35.39-74.34a8,8,0,0,0-3.78-10.67,45.7,45.7,0,0,0-7.89-2.89l-1.48-60.69a1.48,1.48,0,0,0,0-.21,20.06,20.06,0,0,1,10.84-18.87l21.53,135.83A77.36,77.36,0,0,1,464.12,324.55Z" fill="#2b376f"/><path d="M201.16,389.15a8,8,0,0,0-10.66-3.78l-8.79,4.18a91,91,0,0,0-34.12-75.23l-4.48-3.6a51.68,51.68,0,0,1-14.29-18l-21.54-45.22a45.35,45.35,0,0,0-36.37-25.57L72.35,163c0-.57,0-1.15,0-1.7A36,36,0,0,0,39.8,125.34a8,8,0,0,0-8.67,6.71l-23,145.26a8.47,8.47,0,0,0-.1,1.13,93.49,93.49,0,0,0,17.47,55.67l.33.43,56.35,68.19a23.41,23.41,0,0,1,5.33,16.73L86.33,435l-4.64,2.21a8,8,0,0,0-3.78,10.66l23.61,49.59a8,8,0,0,0,10.66,3.78L221,449.39a8,8,0,0,0,3.79-10.66ZM94.5,392.54l-56.18-68A77.36,77.36,0,0,1,24,279.23L45.53,143.39A20,20,0,0,1,56.4,161.24c0,.36,0,.73,0,1.1v.14l-1.49,60.7A44.29,44.29,0,0,0,47,226.07a8,8,0,0,0-3.79,10.66l35.4,74.34a8,8,0,1,0,14.44-6.88L61.57,238.07c.65-.11,1.3-.19,2-.26a29.31,29.31,0,0,1,29.32,16.53l21.54,45.22a67.71,67.71,0,0,0,18.72,23.65l4.47,3.59a75,75,0,0,1,27.25,70.8L103,427.06l.48-6.4A39.41,39.41,0,0,0,94.5,392.54Zm18,90.8L95.79,448.19l80.07-38.13,14.3-6.81,16.74,35.14Z" fill="#2b376f"/></svg>