<svg id="Capa_1" data-name="Capa 1" xmlns="http://www.w3.org/2000/svg" viewBox="0 0 318.22 318.22"><title>shirt-button-with-two-holes - ed</title><circle cx="158.94" cy="158.94" r="156.94" fill="#9ea4c4"/><circle cx="159.11" cy="159.1" r="124.76" fill="#c2e4fd"/><circle cx="119.57" cy="119.57" r="32.64" fill="#ffc5c5"/><circle cx="198.65" cy="199.4" r="32.64" fill="#ffc5c5"/><path d="M159.11,318.22C71.38,318.22,0,246.85,0,159.11S71.38,0,159.11,0s159.1,71.38,159.1,159.11S246.84,318.22,159.11,318.22Zm0-306.52c-81.28,0-147.4,66.13-147.4,147.4s66.12,147.4,147.4,147.4S306.5,240.39,306.5,159.1,240.38,11.7,159.11,11.7Z" fill="#2b376f"/><path d="M159.11,287.82A128.86,128.86,0,0,1,30.38,159.1c0-71,57.75-128.72,128.73-128.72S287.84,88.12,287.84,159.1,230.09,287.82,159.11,287.82Zm0-245.73a117,117,0,1,0,117,117A117.14,117.14,0,0,0,159.11,42.09Z" fill="#2b376f"/><path d="M198.65,234.3a34.9,34.9,0,1,1,34.9-34.9A34.94,34.94,0,0,1,198.65,234.3Zm0-58.08a23.19,23.19,0,1,0,23.19,23.18A23.21,23.21,0,0,0,198.65,176.22Z" fill="#2b376f"/><path d="M119.57,154.47a34.9,34.9,0,1,1,34.91-34.91A34.94,34.94,0,0,1,119.57,154.47Zm0-58.09a23.19,23.19,0,1,0,23.19,23.18A23.21,23.21,0,0,0,119.57,96.38Z" fill="#2b376f"/></svg>