<svg id="Capa_1" data-name="Capa 1" xmlns="http://www.w3.org/2000/svg" viewBox="0 0 512 512"><title>shop - ed</title><rect x="39.56" y="183.85" width="432.87" height="272.55" fill="#9ea4c4"/><path d="M39.56,248.48A85.55,85.55,0,0,0,69.63,254a86.58,86.58,0,0,0,62.12-26.51,86,86,0,0,0,124.25,0,86,86,0,0,0,124.25,0A86.58,86.58,0,0,0,442.38,254a85.44,85.44,0,0,0,30.05-5.52V183.86H39.56Z" fill="#9ea4c4"/><path d="M504.5,167.82A62.13,62.13,0,0,1,386.16,194.3a6.46,6.46,0,0,0-11.82,0,62.15,62.15,0,0,1-112.43,0,6.46,6.46,0,0,0-11.82,0,62.15,62.15,0,0,1-112.43,0,6.46,6.46,0,0,0-11.82,0A62.13,62.13,0,0,1,7.5,167.82L67,63.67A16,16,0,0,1,80.93,55.6H431.07A16,16,0,0,1,445,63.67Z" fill="#ffc5c5"/><path d="M431.07,55.6H80.93A16,16,0,0,0,67,63.67L7.5,167.82h497L445,63.67A16,16,0,0,0,431.07,55.6Z" fill="#ffc5c5"/><rect x="336.16" y="264.02" width="96.19" height="192.39" fill="#fff"/><rect x="79.64" y="264.02" width="216.44" height="152.31" fill="#fff"/><polygon points="193.25 288.06 103.69 288.06 103.69 377.62 193.25 288.06" fill="#c2e4fd"/><polygon points="117.31 392.27 143.77 392.27 247.98 288.06 221.52 288.06 117.31 392.27" fill="#c2e4fd"/><polygon points="272.03 312.11 191.87 392.27 272.03 392.27 272.03 312.11" fill="#c2e4fd"/><polygon points="408.31 302.15 408.31 288.06 360.21 288.06 360.21 350.25 408.31 302.15" fill="#c2e4fd"/><polygon points="360.21 384.26 360.21 392.27 408.31 392.27 408.31 336.16 360.21 384.26" fill="#c2e4fd"/><path d="M488.47,448.9h-8.53V226.4A69.62,69.62,0,0,0,512,167.82a7.51,7.51,0,0,0-1-3.72L451.5,60A23.59,23.59,0,0,0,431.07,48.1H80.93A23.59,23.59,0,0,0,60.5,60L1,164.1a7.48,7.48,0,0,0-1,3.72A69.62,69.62,0,0,0,32.06,226.4V448.9H23.53a7.5,7.5,0,1,0,0,15H488.47a7.5,7.5,0,0,0,0-15ZM15.52,175.32h24a7.5,7.5,0,0,0,0-15H20.42L73.53,67.4a8.52,8.52,0,0,1,7.4-4.3H431.07a8.55,8.55,0,0,1,7.41,4.3l53.1,92.92H472.43a7.5,7.5,0,0,0,0,15h24.05a54.62,54.62,0,0,1-108.2,0h52.09a7.5,7.5,0,0,0,0-15H71.63a7.5,7.5,0,0,0,0,15h52.09a54.62,54.62,0,0,1-108.2,0Zm356.7,0a54.61,54.61,0,0,1-108.19,0Zm-124.25,0a54.61,54.61,0,0,1-108.19,0ZM47.06,233.67a69.53,69.53,0,0,0,84.69-34.43,69.61,69.61,0,0,0,124.25,0,69.61,69.61,0,0,0,124.25,0,69.53,69.53,0,0,0,84.69,34.43V448.9H439.86V264a7.5,7.5,0,0,0-7.5-7.5h-96.2a7.5,7.5,0,0,0-7.5,7.5V448.9H47.06ZM424.85,408.82H343.66V271.52h81.19Zm-81.19,15h81.19V448.9H343.66Z" fill="#2b376f"/><path d="M296.08,256.52H79.64a7.5,7.5,0,0,0-7.5,7.5v152.3a7.5,7.5,0,0,0,7.5,7.5H296.08a7.5,7.5,0,0,0,7.5-7.5V264A7.5,7.5,0,0,0,296.08,256.52Zm-7.5,152.3H87.14V271.52H288.58Z" fill="#2b376f"/></svg>