<svg id="Layer_1" data-name="Layer 1" xmlns="http://www.w3.org/2000/svg" viewBox="0 0 512 512"><title>stamp - ed</title><path d="M466,469H46V400.92A40.46,40.46,0,0,1,86.5,360.47h339A40.46,40.46,0,0,1,466,400.92V469Z" fill="#ffc5c5"/><rect x="71.65" y="469.03" width="368.7" height="32.77" fill="#c2e4fd"/><path d="M210.94,360.46h90.12L332,95.65A76.56,76.56,0,0,0,256,10.2h0a76.55,76.55,0,0,0-76,85.45Z" fill="#9ea4c4"/><path d="M425.5,350.27h-113L342.17,96.83a86.76,86.76,0,1,0-172.34,0l29.65,253.44H86.5a50.71,50.71,0,0,0-50.65,50.65V469a10.2,10.2,0,0,0,10.2,10.2h15.4V501.8A10.2,10.2,0,0,0,71.65,512h368.7a10.2,10.2,0,0,0,10.2-10.2V479.23H466a10.2,10.2,0,0,0,10.2-10.2V400.92A50.71,50.71,0,0,0,425.5,350.27ZM190.09,94.46a66.36,66.36,0,1,1,131.82,0L292,350.27H220ZM430.15,491.6H81.85V479.23h348.3V491.6ZM56.24,458.83V448.5h125a10.2,10.2,0,1,0,0-20.4h-125V400.92A30.3,30.3,0,0,1,86.5,370.66h339a30.3,30.3,0,0,1,30.26,30.26v57.91Z" fill="#2b376f"/><path d="M216.06,428.1H214a10.2,10.2,0,1,0,0,20.4h2.05a10.2,10.2,0,0,0,0-20.4Z" fill="#2b376f"/></svg>