<svg id="Capa_1" data-name="Capa 1" xmlns="http://www.w3.org/2000/svg" viewBox="0 0 512 512"><title>support - edited</title><path d="M387.46,373.15,336,356H176l-51.46,17.15C71.67,390.78,36,446.26,36,502H476C476,446.26,440.33,390.78,387.46,373.15Z" fill="#c2e4fd"/><path d="M355.65,161.38,332,158a169.7,169.7,0,0,1-96-48,80,80,0,0,0-64,32l-15.6,20.8a626.55,626.55,0,0,0,6.34,70.2c4.24,28.1,7.8,54.55,35.64,78.68l-.5.56L176,356A390,390,0,0,0,234,466.6L256,502l22.05-35.4a389.53,389.53,0,0,0,27.13-41.42A389.81,389.81,0,0,0,336,356l-21.88-43.76-.5-.56a98.58,98.58,0,0,0,32.19-57.57c1.95-11.77,2.63-15.52,3.51-21.51a628.92,628.92,0,0,0,6.34-71.22Z" fill="#fff"/><path d="M355.65,161.38,332,158a169.7,169.7,0,0,1-96-48,80,80,0,0,0-64,32l-15.6,20.8a626.55,626.55,0,0,0,6.34,70.2c4.24,28.1,7.8,54.55,35.64,78.68l-.5.56C190.55,326.9,257,371,257,371l57.12-58.76-.5-.56a98.58,98.58,0,0,0,32.19-57.57c1.95-11.77,2.63-15.52,3.51-21.51a628.92,628.92,0,0,0,6.34-71.22Z" fill="#fff"/><path d="M396,150v63a20,20,0,0,1-20,20H352l-2.68-.4a628.92,628.92,0,0,0,6.34-71.22q.19-5.73.26-11.38H396Z" fill="#ffc5c5"/><path d="M265,50C315.22,50,356,91.14,356,141.41c0,5.06-.11,13.1-.34,20L332,158a169.7,169.7,0,0,1-96-48,80,80,0,0,0-64,32l-15.6,20.8c-.26-7-.4-15.13-.4-21.39C156,91.14,196.78,50,247.05,50H265Z" fill="#9ea4c4"/><path d="M256,253a20,20,0,0,1,0,40H236a20,20,0,0,1,0-40Z" fill="#ffc5c5"/><path d="M162.74,233H136a20,20,0,0,1-20-20V150h40.08q.07,6.34.32,12.8A626.55,626.55,0,0,0,162.74,233Z" fill="#ffc5c5"/><path d="M366,416a10,10,0,1,0-10-10A10,10,0,0,0,366,416Z" fill="#2b376f"/><path d="M36,512H476a10,10,0,0,0,10-10c0-61.73-40.11-119.91-95.38-138.34l-47.53-15.84L326,313.7a109.56,109.56,0,0,0,29.64-57.95L357.8,243H376a30,30,0,0,0,30-30V150C406,67.29,338.71,0,256,0A149.91,149.91,0,0,0,106,150v63a30,30,0,0,0,20,28.28V253a30,30,0,0,0,30,30h8.78a108.42,108.42,0,0,0,16.78,26c1.41,1.63,2.89,3.21,4.4,4.74l-17.05,34.11-47.53,15.84C66.11,382.09,26,440.27,26,502A10,10,0,0,0,36,512Zm220-28.91-13.56-21.78c-.15-.24-.32-.48-.49-.71a380.94,380.94,0,0,1-22.53-33.66l35.66-37.71,37.58,37.57a379.53,379.53,0,0,1-22.61,33.8C269.56,461.25,270.26,460.22,256,483.09Zm46.78-74.45-33.95-33.95,42.74-45.2,13.6,27.21A381.07,381.07,0,0,1,302.78,408.64Zm-48.1-48.1L235.16,341a100.25,100.25,0,0,0,37.19.83Zm-55.94-27.66,42.19,42.2-31.71,33.54a380.48,380.48,0,0,1-22.39-51.92ZM465.6,492H274l12.3-19.75a401.28,401.28,0,0,0,27.57-42.13c0-.09.09-.18.14-.27l0,0a399.36,399.36,0,0,0,28.16-61.21l42.1,14C428.67,397.43,461.64,442.46,465.6,492ZM136,223a10,10,0,0,1-10-10V160h20.3c0,1,.07,2.09.1,3.15a.34.34,0,0,1,0,.1h0c.7,20.07,2.37,40.48,4.85,59.74Zm209.92-73.21v.1l-12.51-1.79a160.66,160.66,0,0,1-90.34-45.17A10,10,0,0,0,236,100a90.49,90.49,0,0,0-69.56,32.91C170.63,92.19,205.05,60,247.05,60H265C309.76,60,346,96.65,346,141.41,346,144.56,346,147.3,345.92,149.79ZM386,213a10,10,0,0,1-10,10H360.74c2.54-19.69,4.23-40.64,4.91-61.28l.06-1.72H386ZM256,20c68.32,0,124.5,53,129.62,120H366c-.72-55.23-45.69-100-101-100h-17.9c-55.34,0-100.31,44.77-101,100H126.38A129.93,129.93,0,0,1,256,20ZM146,253V243h8.2l2.13,12.76c.4,2.42.9,4.84,1.48,7.24H156A10,10,0,0,1,146,253Zm61.72,30A30,30,0,0,0,236,303h20a30,30,0,0,0,0-60H236a30,30,0,0,0-28.3,20H178.54c-5-16.65-10.73-65.65-12-97.05L180,148a70.39,70.39,0,0,1,52.05-27.89,180.88,180.88,0,0,0,98.53,47.79l14.73,2.1c-1,20.89-3,41.85-5.88,61.12v0c-.92,6.2-1.64,10.19-3.48,21.32-5.3,31.77-29,60.49-60.29,68.32a81.44,81.44,0,0,1-39.31,0c-19.54-4.89-37.45-18.4-49-37.78ZM226,273a10,10,0,0,1,10-10h20a10,10,0,0,1,0,20H236A10,10,0,0,1,226,273ZM127.7,382.64l42.1-14a400.69,400.69,0,0,0,28.46,61.74l.06.1h0a401.29,401.29,0,0,0,27.37,41.8L238,492H46.4C50.36,442.46,83.33,397.43,127.7,382.64Z" fill="#2b376f"/><path d="M395,433a79.74,79.74,0,0,1,22.61,27.45,10,10,0,0,0,17.9-8.94,100.16,100.16,0,0,0-28.31-34.37A10,10,0,1,0,395,433Z" fill="#2b376f"/></svg>