<svg id="Layer_1" data-name="Layer 1" xmlns="http://www.w3.org/2000/svg" viewBox="0 0 512 512"><title>tap - edited</title><path d="M310.39,68.4a59.44,59.44,0,0,1-34.12,53.91H225.09A59.71,59.71,0,0,1,237.88,10.05a63.32,63.32,0,0,1,12.8-1.37A59.73,59.73,0,0,1,310.39,68.4Z" fill="#ffc5c5"/><path d="M284.8,68.4a59.44,59.44,0,0,1-34.12,53.91H225.09A59.71,59.71,0,0,1,237.88,10.05,59.72,59.72,0,0,1,284.8,68.4Z" fill="#ffc5c5"/><path d="M429.82,240.47v135s0,46-29.09,72.6a16.32,16.32,0,0,0-5,12.11v26.19a17.11,17.11,0,0,1-17.06,17.06H242.15a17.11,17.11,0,0,1-17.06-17.06v-3.16a50.74,50.74,0,0,0-15.28-36.34c-16.46-16-41.88-43.76-53-71.4-17.06-42.65-51.18-102.37-68.25-119.43s0-34.12,17.07-34.12,51.18,34.12,68.24,59.71a129.69,129.69,0,0,0,18.94,22.61,17,17,0,0,0,27.73-7.17,102.5,102.5,0,0,0,4.52-32.5V68.4a25.29,25.29,0,0,1,17.06-24.05,23.42,23.42,0,0,1,8.53-1.54A25.59,25.59,0,0,1,276.27,68.4V170.77a25.33,25.33,0,0,1,17.06-24.06,23.7,23.7,0,0,1,8.53-1.53,25.59,25.59,0,0,1,25.59,25.59v25.59A25.56,25.56,0,0,1,335,178.28a24.14,24.14,0,0,1,9.56-6,23.46,23.46,0,0,1,8.53-1.54,25.59,25.59,0,0,1,25.59,25.59V239a25.53,25.53,0,0,1,7.51-18.09,24.22,24.22,0,0,1,9.55-6,24.78,24.78,0,0,1,10.41-1.45A26.53,26.53,0,0,1,429.82,240.47Z" fill="#fff"/><path d="M74.84,232.36a26.72,26.72,0,0,0,7.72,29.75c16.29,16.29,49.78,75.12,66.36,116.57,11.31,28.27,36.15,56,55,74.33a42.28,42.28,0,0,1,12.64,30.28v3.12A25.6,25.6,0,0,0,242.15,512H378.64a25.59,25.59,0,0,0,25.59-25.59V460.2a7.83,7.83,0,0,1,2.28-5.81c31.49-28.79,31.84-76.85,31.84-78.88v-135A35,35,0,0,0,406.72,205a34.07,34.07,0,0,0-19.55,4.65V196.36a33.92,33.92,0,0,0-51.55-29.18,33.73,33.73,0,0,0-50.82-25.79V127.26A67.38,67.38,0,0,0,318.93,68.4a68.25,68.25,0,0,0-136.5,0,67.4,67.4,0,0,0,34.12,58.86V264.61a94,94,0,0,1-4.06,29.75,8.63,8.63,0,0,1-6.15,5.73,8.2,8.2,0,0,1-7.67-2A120.52,120.52,0,0,1,181,276.94c-14.81-22.15-52.06-63.52-75.37-63.52A33.42,33.42,0,0,0,74.84,232.36Zm124.65-164a51.19,51.19,0,0,1,102.37,0,50.64,50.64,0,0,1-17.06,38.2V68.4a34.13,34.13,0,0,0-68.25,0v38.2A50.68,50.68,0,0,1,199.49,68.4Zm-32.69,218A138.48,138.48,0,0,0,187,310.5a25.25,25.25,0,0,0,23.53,6.14,25.71,25.71,0,0,0,18.17-16.83,111.07,111.07,0,0,0,5-35.2V68.4a17.06,17.06,0,0,1,34.12,0V247.55a8.53,8.53,0,1,0,17.06,0V170.77a17.07,17.07,0,0,1,34.13,0v76.78a8.53,8.53,0,1,0,17.06,0V196.36a17.06,17.06,0,0,1,34.12,0v59.72a8.53,8.53,0,0,0,17.06,0V239a16.91,16.91,0,0,1,5-12.06,17.25,17.25,0,0,1,13.31-5,18.16,18.16,0,0,1,15.8,18.46v135c0,.41-.43,42.65-26.3,66.3a24.89,24.89,0,0,0-7.82,18.39v26.21a8.53,8.53,0,0,1-8.53,8.53H242.15a8.53,8.53,0,0,1-8.53-8.53v-3.12a59.57,59.57,0,0,0-17.82-42.52c-14.46-14-40.3-41.6-51-68.43-17.56-43.87-52.3-104.45-70.14-122.3-4.06-4-5.42-7.81-4-11.15a16.83,16.83,0,0,1,15.07-8.41C117.25,230.48,148.69,259.23,166.8,286.4Z" fill="#2b376f"/><path d="M395.7,367a8.53,8.53,0,0,0,8.53-8.53V307.26a8.53,8.53,0,0,0-17.06,0v51.19A8.53,8.53,0,0,0,395.7,367Z" fill="#9ea4c4"/><path d="M387.17,418.16a8.53,8.53,0,0,0,6-2.5,34.6,34.6,0,0,0,11-23.09,8.43,8.43,0,0,0-8.32-8.41,8.58,8.58,0,0,0-8.74,8.21,18.79,18.79,0,0,1-6,11.23,8.53,8.53,0,0,0,6,14.56Z" fill="#9ea4c4"/><path d="M259.21,477.88h8.53a8.53,8.53,0,0,0,0-17.06h-8.53a8.53,8.53,0,1,0,0,17.06Z" fill="#9ea4c4"/><path d="M301.86,477.88h59.72a8.53,8.53,0,1,0,0-17.06H301.86a8.53,8.53,0,0,0,0,17.06Z" fill="#9ea4c4"/><path d="M182.43,141.25a8.53,8.53,0,0,0,6.22-14.38,85.1,85.1,0,0,1-3.73-112.75A8.53,8.53,0,1,0,171.77,3.25a102.17,102.17,0,0,0,4.45,135.31A8.54,8.54,0,0,0,182.43,141.25Z" fill="#c2e4fd"/><path d="M330.3,118.65a8.55,8.55,0,0,0,11.48-3.7A102,102,0,0,0,329.59,3.25a8.53,8.53,0,1,0-13.15,10.87,85,85,0,0,1,10.16,93.05A8.53,8.53,0,0,0,330.3,118.65Z" fill="#c2e4fd"/></svg>