<svg id="Layer_1" data-name="Layer 1" xmlns="http://www.w3.org/2000/svg" viewBox="0 0 512 512"><title>telephone</title><circle cx="305.21" cy="206.79" r="196.79" fill="#9ea4c4"/><path d="M487.9,143.51a9.93,9.93,0,0,1-1.95-.2,9.39,9.39,0,0,1-1.87-.57,10,10,0,0,1-3.25-2.16,9.57,9.57,0,0,1-1.24-1.52,9.87,9.87,0,0,1-.92-1.73,10.1,10.1,0,0,1-.57-1.87,9.61,9.61,0,0,1,0-3.9,10.44,10.44,0,0,1,.57-1.88,10.15,10.15,0,0,1,.92-1.72,9.57,9.57,0,0,1,1.24-1.52,11.35,11.35,0,0,1,1.52-1.25,10.58,10.58,0,0,1,1.73-.91,10.13,10.13,0,0,1,1.87-.58,10.29,10.29,0,0,1,3.91,0,10.13,10.13,0,0,1,1.87.58,10.58,10.58,0,0,1,1.73.91,10.75,10.75,0,0,1,1.52,1.25,9.57,9.57,0,0,1,1.24,1.52,10.15,10.15,0,0,1,.92,1.72,10.44,10.44,0,0,1,.57,1.88,9.61,9.61,0,0,1,0,3.9,10.1,10.1,0,0,1-.57,1.87,9.87,9.87,0,0,1-.92,1.73,9.57,9.57,0,0,1-1.24,1.52,10,10,0,0,1-1.52,1.24,10.63,10.63,0,0,1-1.73.92,9.39,9.39,0,0,1-1.87.57A10,10,0,0,1,487.9,143.51Z" fill="#2b376f"/><circle cx="305.21" cy="206.79" r="146.23" fill="#c2e4fd"/><path d="M253.25,360.75l18.56-18.56a31.66,31.66,0,0,1,38.11-5l83.46,58.52A31.59,31.59,0,0,1,400,445.39l-12.11,12.1" fill="#ffc5c5"/><path d="M54.51,124.15,66.61,112a31.59,31.59,0,0,1,49.72,6.58l58.52,83.46a31.66,31.66,0,0,1-5,38.11l-18.56,18.56" fill="#ffc5c5"/><path d="M308.88,400.74l79,56.75L362.6,482.75C342,503.31,310.73,509.87,263.27,490c-44.44-18.58-87.35-47-139.45-98.52h0l-3.32-3.32h0C69,336.08,40.56,293.17,22,248.73,2.13,201.27,8.69,170,29.25,149.4l25.26-25.26,96.74,134.61-17.32,17.32a13.21,13.21,0,0,0-1,17.66c11.91,14.8,19.13,23.52,40.43,44.9s30.1,28.52,44.9,40.43a13.22,13.22,0,0,0,17.66-1l17.32-17.32" fill="#ffc5c5"/><path d="M502,196.79a10,10,0,0,0-10,10A187.5,187.5,0,0,1,383.65,376.36l-.23.11-30-21a156.32,156.32,0,0,0,108-148.64c0-86.15-70.09-156.24-156.24-156.24a156.37,156.37,0,0,0-148.65,108l-21-30a2.4,2.4,0,0,0,.11-.23A186.84,186.84,0,0,1,449.35,88a10,10,0,0,0,15.43-12.73,206.84,206.84,0,0,0-342.26,34.57,41.6,41.6,0,0,0-63-4.85L22.18,142.33c-26,26-29.15,63.08-9.43,110.25C33.17,301.4,64.1,345.28,113,394.83c.13.15.26.29.4.43l3.32,3.32.43.4c49.54,48.92,93.43,79.85,142.24,100.27Q289.92,512,314.72,512c21.78,0,40.17-7.4,54.95-22.18L407,452.46a41.6,41.6,0,0,0-4.85-63A206.83,206.83,0,0,0,512,206.79,10,10,0,0,0,502,196.79ZM305.21,70.55c75.12,0,136.24,61.12,136.24,136.24,0,64.17-45.52,120.25-108.23,133.35a9.18,9.18,0,0,0-1.17.32L315.65,329q-.36-.25-.75-.48a41.66,41.66,0,0,0-50.16,6.64L228.86,371a3.23,3.23,0,0,1-4.32.27c-14.49-11.66-23-18.73-44.09-39.7S152.39,302,140.73,287.46a3.23,3.23,0,0,1,.27-4.32l35.88-35.88a41.65,41.65,0,0,0,6.63-50.16,7.25,7.25,0,0,0-.47-.75L171.6,180A136.3,136.3,0,0,1,305.21,70.55ZM91.78,113a21.38,21.38,0,0,1,15.88,10.63q.23.39.48.75l58.24,83.07a21.64,21.64,0,0,1-3.64,25.69L152.5,243.36,67.59,125.21l6.09-6.1A21.46,21.46,0,0,1,91.78,113ZM392.89,438.32l-6.1,6.09-72.07-51.79a10,10,0,1,0-11.67,16.24l69.41,49.88-16.93,16.94c-20,20-48.88,21.64-88.4,5.12-46.46-19.43-88.49-49.17-136.28-96.41l-.33-.32-2.59-2.58c-.1-.12-.21-.23-.32-.34-47.24-47.79-77-89.82-96.41-136.28-16.52-39.51-14.85-68.43,5.12-88.39l16.94-16.94,84.91,118.15L126.86,269a23.2,23.2,0,0,0-1.71,31c12.1,15,19.42,23.9,41.16,45.71s30.65,29,45.69,41.14a23.2,23.2,0,0,0,31-1.71l17.32-17.31,0,0,18.54-18.55a21.64,21.64,0,0,1,25.69-3.64l83.07,58.24q.36.25.75.48a21.6,21.6,0,0,1,4.5,34Z" fill="#2b376f"/><path d="M240.1,171.87c10.44,0,21,6.57,21,18.63,0,19.52-27.81,25.91-27.81,34.1v.81h23.58c2.25,0,4.22,2.79,4.22,6s-2,6.21-4.22,6.21h-32c-2.52,0-6.12-1.71-6.12-4.32V224.6c0-14.12,28.35-22.22,28.35-33.65,0-2.88-1.8-6.39-6.84-6.39-3.6,0-6.75,1.8-6.75,6.75,0,2.61-2.79,5.13-7.38,5.13-3.6,0-6.3-1.62-6.3-7.29C219.76,178.17,229.84,171.87,240.1,171.87Z" fill="#2b376f"/><path d="M286.9,223.79H265.84a4.49,4.49,0,0,1-4.68-4.86,5.78,5.78,0,0,1,.72-2.7l20.78-40.76a6.34,6.34,0,0,1,5.85-3.6c2.44,0,7,2.07,7,5.31a4.58,4.58,0,0,1-.45,1.71l-15.93,32h7.74v-6.3c0-3,3.51-4.23,7-4.23s7,1.26,7,4.23v6.3h3.87c2.88,0,4.32,3.24,4.32,6.47s-2.16,6.48-4.32,6.48h-3.87v9.54c0,2.88-3.51,4.32-7,4.32s-7-1.44-7-4.32Z" fill="#2b376f"/><path d="M351.51,173a3.9,3.9,0,0,1-.36,1.71l-31.68,64.88a4.51,4.51,0,0,1-4.05,2.25,5,5,0,0,1-5-4.77,4,4,0,0,1,.45-1.71l31.59-64.88a4,4,0,0,1,3.78-2.25C348.72,168.18,351.51,170.07,351.51,173Z" fill="#2b376f"/><path d="M398.31,187.44c0,2.34-1.44,5.85-2.88,8.55L374.37,236.3c-.72,1.35-2.07,1.89-4,1.89-4.41,0-8.91-3.06-8.91-7.11a4.58,4.58,0,0,1,.63-2.34l22.14-38.33v-6.3H368.16v6c0,2.43-3.42,4.32-7.11,4.32s-6.93-1.89-6.93-4.32V176.19c0-2.16,3.06-4.32,6.12-4.32h31.95c2.7,0,6.12,2.16,6.12,4.32Z" fill="#2b376f"/></svg>