<svg id="Layer_1" data-name="Layer 1" xmlns="http://www.w3.org/2000/svg" viewBox="0 0 512 512"><title>washing-machine - ed</title><path d="M440,40v80H72V40A16,16,0,0,1,88,24H424A16,16,0,0,1,440,40Z" fill="#9ea4c4"/><path d="M440,120V440a16,16,0,0,1-16,16H88a16,16,0,0,1-16-16V120Z" fill="#d1e7f8"/><path d="M104,488H408a16,16,0,0,0,16-16V456H88v16A16,16,0,0,0,104,488Z" fill="#9ea4c4"/><circle cx="256" cy="288" r="120" fill="#ffc5c5"/><path d="M168.41,280c-.24,2.64-.41,5.3-.41,8a88,88,0,0,0,176,0c0-2.7-.17-5.35-.41-8-43.59.11-43.73,16-87.59,16s-44-15.89-87.59-16Z" fill="#c2e4fd"/><path d="M256,200a88.08,88.08,0,0,0-87.59,80c43.57.1,43.73,16,87.59,16s44-15.89,87.59-16A88.08,88.08,0,0,0,256,200Z" fill="#f1f2f2"/><path d="M104,56h96V88H104Z" fill="#ffc5c5"/><circle cx="248" cy="72" r="16" fill="#ffc5c5"/><circle cx="312" cy="72" r="16" fill="#ffc5c5"/><path d="M424,16H88A24,24,0,0,0,64,40V440a24,24,0,0,0,16,22.53V472a24,24,0,0,0,24,24H408a24,24,0,0,0,24-24v-9.47A24,24,0,0,0,448,440V40A24,24,0,0,0,424,16ZM80,40a8,8,0,0,1,8-8H424a8,8,0,0,1,8,8v72H80ZM416,472a8,8,0,0,1-8,8H104a8,8,0,0,1-8-8v-8H416Zm16-32a8,8,0,0,1-8,8H88a8,8,0,0,1-8-8V128H432Z" fill="#2b376f"/><path d="M256,416A128,128,0,1,0,128,288,128,128,0,0,0,256,416Zm0-240A112,112,0,1,1,144,288,112,112,0,0,1,256,176Z" fill="#2b376f"/><path d="M256,384a96.1,96.1,0,0,0,96-96,81.43,81.43,0,0,0-.72-11.25,95.94,95.94,0,0,0-190.56,0A81.43,81.43,0,0,0,160,288,96.1,96.1,0,0,0,256,384Zm0-16a80.09,80.09,0,0,1-80-79.78,101.41,101.41,0,0,1,33.26,7.3A118.3,118.3,0,0,0,256,304a118.33,118.33,0,0,0,46.74-8.48,101.35,101.35,0,0,1,33.26-7.3A80.09,80.09,0,0,1,256,368Zm0-160a80.13,80.13,0,0,1,78.4,64.29,116.42,116.42,0,0,0-37.17,8.19A103.2,103.2,0,0,1,256,288a103.34,103.34,0,0,1-41.26-7.52,116.78,116.78,0,0,0-37.14-8.19A80.13,80.13,0,0,1,256,208Z" fill="#2b376f"/><path d="M200,48H104a8,8,0,0,0-8,8V88a8,8,0,0,0,8,8h96a8,8,0,0,0,8-8V56A8,8,0,0,0,200,48Zm-8,32H112V64h80Z" fill="#2b376f"/><path d="M248,48a24,24,0,1,0,24,24A24,24,0,0,0,248,48Zm0,32a8,8,0,1,1,8-8A8,8,0,0,1,248,80Z" fill="#2b376f"/><path d="M312,48a24,24,0,1,0,24,24A24,24,0,0,0,312,48Zm0,32a8,8,0,1,1,8-8A8,8,0,0,1,312,80Z" fill="#2b376f"/><path d="M368,64h-8a8,8,0,0,0,0,16h8a8,8,0,0,0,0-16Z" fill="#2b376f"/><path d="M408,64h-8a8,8,0,0,0,0,16h8a8,8,0,0,0,0-16Z" fill="#2b376f"/></svg>